%TF.GenerationSoftware,KiCad,Pcbnew,10.0.4*%
%TF.CreationDate,2026-06-29T21:16:59+08:00*%
%TF.ProjectId,vibe_lamp_core_v1,76696265-5f6c-4616-9d70-5f636f72655f,rev?*%
%TF.SameCoordinates,Original*%
%TF.FileFunction,Copper,L2,Bot*%
%TF.FilePolarity,Positive*%
%FSLAX46Y46*%
G04 Gerber Fmt 4.6, Leading zero omitted, Abs format (unit mm)*
G04 Created by KiCad (PCBNEW 10.0.4) date 2026-06-29 21:16:59*
%MOMM*%
%LPD*%
G01*
G04 APERTURE LIST*
%TA.AperFunction,ComponentPad*%
%ADD10C,0.750000*%
%TD*%
%TA.AperFunction,ComponentPad*%
%ADD11O,1.200000X2.000000*%
%TD*%
%TA.AperFunction,ComponentPad*%
%ADD12O,1.200000X1.800000*%
%TD*%
%TA.AperFunction,ComponentPad*%
%ADD13R,1.700000X1.700000*%
%TD*%
%TA.AperFunction,ComponentPad*%
%ADD14C,1.700000*%
%TD*%
%TA.AperFunction,ViaPad*%
%ADD15C,0.600000*%
%TD*%
%TA.AperFunction,Conductor*%
%ADD16C,0.200000*%
%TD*%
G04 APERTURE END LIST*
D10*
%TO.P,J1,*%
%TO.N,*%
X17100000Y-35090000D03*
X22900000Y-35090000D03*
D11*
%TO.P,J1,1*%
%TO.N,GND*%
X24330000Y-34590000D03*
D12*
%TO.P,J1,2*%
X24330000Y-38770000D03*
%TO.P,J1,3*%
X15670000Y-38770000D03*
D11*
%TO.P,J1,4*%
X15670000Y-34590000D03*
%TD*%
D13*
%TO.P,P1,1*%
%TO.N,+5V*%
X35500000Y-24000000D03*
D14*
%TO.P,P1,2*%
%TO.N,WS_DOUT*%
X35500000Y-26540000D03*
%TO.P,P1,3*%
%TO.N,GND*%
X35500000Y-29080000D03*
%TD*%
D15*
%TO.N,IO4*%
X24993000Y-11988700D03*
X24993000Y-26888700D03*
%TO.N,CC1*%
X13633400Y-36016700D03*
X13633400Y-30980600D03*
%TO.N,USB_DP*%
X29337100Y-30312300D03*
X29199500Y-11900000D03*
%TO.N,USB_DM*%
X27179300Y-34113800D03*
X24186000Y-12692500D03*
%TO.N,IO9*%
X23192500Y-13292300D03*
X28857300Y-19226900D03*
%TO.N,UART_TX*%
X9717700Y-18121200D03*
X15800900Y-5889500D03*
%TD*%
%TO.N,IO4*%
D16*
X24993000Y-11988700D02*
X24993000Y-26888700D01*
%TO.N,GND*%
X15670000Y-34590000D02*
X15670000Y-38770000D01*
X24330000Y-38770000D02*
X24330000Y-34590000D01*
%TO.N,CC1*%
X13633400Y-30980600D02*
X13633400Y-36016700D01*
%TO.N,USB_DP*%
X29199500Y-11900000D02*
X29459000Y-12159500D01*
X29459000Y-12159500D02*
X29459000Y-30190400D01*
X29459000Y-30190400D02*
X29337100Y-30312300D01*
%TO.N,USB_DM*%
X24186000Y-12692500D02*
X24186000Y-31120500D01*
X24186000Y-31120500D02*
X27179300Y-34113800D01*
%TO.N,IO9*%
X25278500Y-11365600D02*
X24649300Y-11365600D01*
X28857300Y-19226900D02*
X28857300Y-14944400D01*
X28857300Y-14944400D02*
X25278500Y-11365600D01*
X23192500Y-12822400D02*
X23192500Y-13292300D01*
X24649300Y-11365600D02*
X23192500Y-12822400D01*
%TO.N,UART_TX*%
X9717700Y-18121200D02*
X9717700Y-11972700D01*
X9717700Y-11972700D02*
X15800900Y-5889500D01*
%TD*%
%TA.AperFunction,Conductor*%
%TO.N,GND*%
G36*
X5959191Y-718907D02*
G01*
X5995155Y-768407D01*
X6000000Y-799000D01*
X6000000Y-2800000D01*
X6000001Y-2800000D01*
X33999999Y-2800000D01*
X34000000Y-2800000D01*
X34000000Y-799000D01*
X34018907Y-740809D01*
X34068407Y-704845D01*
X34099000Y-700000D01*
X39201000Y-700000D01*
X39259191Y-718907D01*
X39295155Y-768407D01*
X39300000Y-799000D01*
X39300000Y-39201000D01*
X39281093Y-39259191D01*
X39231593Y-39295155D01*
X39201000Y-39300000D01*
X25523198Y-39300000D01*
X25465007Y-39281093D01*
X25429043Y-39231593D01*
X25425417Y-39185514D01*
X25430000Y-39156576D01*
X25430000Y-39020001D01*
X25429999Y-39020000D01*
X24729999Y-39020000D01*
X24729999Y-38520000D01*
X25429999Y-38520000D01*
X25430000Y-38519999D01*
X25430000Y-38383424D01*
X25402915Y-38212420D01*
X25349411Y-38047751D01*
X25270804Y-37893475D01*
X25270802Y-37893471D01*
X25169037Y-37753403D01*
X25046596Y-37630962D01*
X24906528Y-37529197D01*
X24906524Y-37529195D01*
X24752248Y-37450588D01*
X24587586Y-37397086D01*
X24580000Y-37395884D01*
X24580000Y-38154316D01*
X24575605Y-38149921D01*
X24484394Y-38097260D01*
X24382661Y-38070001D01*
X24277339Y-38070001D01*
X24175606Y-38097260D01*
X24084395Y-38149921D01*
X24080000Y-38154316D01*
X24080000Y-37395884D01*
X24072413Y-37397086D01*
X23907751Y-37450588D01*
X23753475Y-37529195D01*
X23753471Y-37529197D01*
X23613403Y-37630962D01*
X23490962Y-37753403D01*
X23389197Y-37893471D01*
X23389195Y-37893475D01*
X23310588Y-38047751D01*
X23257084Y-38212420D01*
X23230000Y-38383424D01*
X23230000Y-38519999D01*
X23230001Y-38520000D01*
X23930001Y-38520000D01*
X23930001Y-39020000D01*
X23230001Y-39020000D01*
X23230000Y-39020001D01*
X23230000Y-39156576D01*
X23229999Y-39156576D01*
X23234583Y-39185514D01*
X23225011Y-39245946D01*
X23181746Y-39289210D01*
X23136802Y-39300000D01*
X16863198Y-39300000D01*
X16805007Y-39281093D01*
X16769043Y-39231593D01*
X16765417Y-39185514D01*
X16770000Y-39156576D01*
X16770000Y-39020001D01*
X16769999Y-39020000D01*
X16069999Y-39020000D01*
X16069999Y-38520000D01*
X16769999Y-38520000D01*
X16770000Y-38519999D01*
X16770000Y-38383424D01*
X16742915Y-38212420D01*
X16689411Y-38047751D01*
X16610804Y-37893475D01*
X16610802Y-37893471D01*
X16509037Y-37753403D01*
X16386596Y-37630962D01*
X16246528Y-37529197D01*
X16246524Y-37529195D01*
X16092248Y-37450588D01*
X15927586Y-37397086D01*
X15920000Y-37395884D01*
X15920000Y-38154316D01*
X15915605Y-38149921D01*
X15824394Y-38097260D01*
X15722661Y-38070001D01*
X15617339Y-38070001D01*
X15515606Y-38097260D01*
X15424395Y-38149921D01*
X15420000Y-38154316D01*
X15420000Y-37395884D01*
X15412413Y-37397086D01*
X15247751Y-37450588D01*
X15093475Y-37529195D01*
X15093471Y-37529197D01*
X14953403Y-37630962D01*
X14830962Y-37753403D01*
X14729197Y-37893471D01*
X14729195Y-37893475D01*
X14650588Y-38047751D01*
X14597084Y-38212420D01*
X14570000Y-38383424D01*
X14570000Y-38519999D01*
X14570001Y-38520000D01*
X15270001Y-38520000D01*
X15270001Y-39020000D01*
X14570001Y-39020000D01*
X14570000Y-39020001D01*
X14570000Y-39156576D01*
X14569999Y-39156576D01*
X14574583Y-39185514D01*
X14565011Y-39245946D01*
X14521746Y-39289210D01*
X14476802Y-39300000D01*
X799000Y-39300000D01*
X740809Y-39281093D01*
X704845Y-39231593D01*
X700000Y-39201000D01*
X700000Y-30901543D01*
X13032900Y-30901543D01*
X13032900Y-31059657D01*
X13073823Y-31212384D01*
X13152880Y-31349316D01*
X13203905Y-31400341D01*
X13231681Y-31454856D01*
X13232900Y-31470343D01*
X13232900Y-35526956D01*
X13213993Y-35585147D01*
X13203904Y-35596959D01*
X13152882Y-35647981D01*
X13152880Y-35647983D01*
X13152880Y-35647984D01*
X13073823Y-35784916D01*
X13032900Y-35937643D01*
X13032900Y-36095757D01*
X13073823Y-36248484D01*
X13152880Y-36385416D01*
X13264684Y-36497220D01*
X13401616Y-36576277D01*
X13554343Y-36617200D01*
X13554345Y-36617200D01*
X13712455Y-36617200D01*
X13712457Y-36617200D01*
X13865184Y-36576277D01*
X14002116Y-36497220D01*
X14113920Y-36385416D01*
X14192977Y-36248484D01*
X14233900Y-36095757D01*
X14233900Y-35937643D01*
X14192977Y-35784916D01*
X14113920Y-35647984D01*
X14091417Y-35625481D01*
X14062896Y-35596959D01*
X14035119Y-35542442D01*
X14033900Y-35526956D01*
X14033900Y-34103424D01*
X14570000Y-34103424D01*
X14570000Y-34339999D01*
X14570001Y-34340000D01*
X15270001Y-34340000D01*
X15270001Y-34840000D01*
X14570001Y-34840000D01*
X14570000Y-34840001D01*
X14570000Y-35076575D01*
X14597084Y-35247579D01*
X14650588Y-35412248D01*
X14729195Y-35566524D01*
X14729197Y-35566528D01*
X14830962Y-35706596D01*
X14953403Y-35829037D01*
X15093471Y-35930802D01*
X15093475Y-35930804D01*
X15247751Y-36009411D01*
X15412413Y-36062913D01*
X15420000Y-36064114D01*
X15420000Y-35305696D01*
X15424395Y-35310091D01*
X15515606Y-35362752D01*
X15617339Y-35390011D01*
X15722661Y-35390011D01*
X15824394Y-35362752D01*
X15915605Y-35310091D01*
X15920000Y-35305696D01*
X15920000Y-36064114D01*
X15927586Y-36062913D01*
X16092248Y-36009411D01*
X16246524Y-35930804D01*
X16246528Y-35930802D01*
X16386596Y-35829037D01*
X16509037Y-35706596D01*
X16550442Y-35649607D01*
X16599942Y-35613643D01*
X16661127Y-35613642D01*
X16685537Y-35625481D01*
X16780031Y-35688620D01*
X16902964Y-35739540D01*
X17033469Y-35765500D01*
X17033470Y-35765500D01*
X17166530Y-35765500D01*
X17166531Y-35765500D01*
X17297036Y-35739540D01*
X17419969Y-35688620D01*
X17530606Y-35614695D01*
X17624695Y-35520606D01*
X17698620Y-35409969D01*
X17749540Y-35287036D01*
X17775500Y-35156531D01*
X17775500Y-35023469D01*
X17775500Y-35023468D01*
X22224500Y-35023468D01*
X22224500Y-35156531D01*
X22250460Y-35287037D01*
X22301378Y-35409966D01*
X22301379Y-35409968D01*
X22301380Y-35409969D01*
X22375305Y-35520606D01*
X22469394Y-35614695D01*
X22580031Y-35688620D01*
X22702964Y-35739540D01*
X22833469Y-35765500D01*
X22833470Y-35765500D01*
X22966530Y-35765500D01*
X22966531Y-35765500D01*
X23097036Y-35739540D01*
X23219969Y-35688620D01*
X23314464Y-35625480D01*
X23373350Y-35608872D01*
X23430754Y-35630049D01*
X23449557Y-35649606D01*
X23490962Y-35706596D01*
X23613403Y-35829037D01*
X23753471Y-35930802D01*
X23753475Y-35930804D01*
X23907751Y-36009411D01*
X24072413Y-36062913D01*
X24080000Y-36064114D01*
X24080000Y-35305671D01*
X24084395Y-35310066D01*
X24175606Y-35362727D01*
X24277339Y-35389986D01*
X24382661Y-35389986D01*
X24484394Y-35362727D01*
X24575605Y-35310066D01*
X24580000Y-35305671D01*
X24580000Y-36064114D01*
X24587586Y-36062913D01*
X24752248Y-36009411D01*
X24906524Y-35930804D01*
X24906528Y-35930802D01*
X25046596Y-35829037D01*
X25169037Y-35706596D01*
X25270802Y-35566528D01*
X25270804Y-35566524D01*
X25349411Y-35412248D01*
X25402915Y-35247579D01*
X25430000Y-35076575D01*
X25430000Y-34840001D01*
X25429999Y-34840000D01*
X24729999Y-34840000D01*
X24729999Y-34340000D01*
X25429999Y-34340000D01*
X25430000Y-34339999D01*
X25430000Y-34103424D01*
X25402915Y-33932420D01*
X25349411Y-33767751D01*
X25270804Y-33613475D01*
X25270802Y-33613471D01*
X25169037Y-33473403D01*
X25046596Y-33350962D01*
X24906528Y-33249197D01*
X24906524Y-33249195D01*
X24752248Y-33170588D01*
X24587586Y-33117086D01*
X24580000Y-33115884D01*
X24580000Y-33874329D01*
X24575605Y-33869934D01*
X24484394Y-33817273D01*
X24382661Y-33790014D01*
X24277339Y-33790014D01*
X24175606Y-33817273D01*
X24084395Y-33869934D01*
X24080000Y-33874329D01*
X24080000Y-33115884D01*
X24072413Y-33117086D01*
X23907751Y-33170588D01*
X23753475Y-33249195D01*
X23753471Y-33249197D01*
X23613403Y-33350962D01*
X23490962Y-33473403D01*
X23389197Y-33613471D01*
X23389195Y-33613475D01*
X23310588Y-33767751D01*
X23257084Y-33932420D01*
X23230000Y-34103424D01*
X23230000Y-34347371D01*
X23211093Y-34405562D01*
X23161593Y-34441526D01*
X23101791Y-34441526D01*
X23101686Y-34441871D01*
X23100549Y-34441526D01*
X23100407Y-34441526D01*
X23099742Y-34441281D01*
X23097037Y-34440460D01*
X22966531Y-34414500D01*
X22833469Y-34414500D01*
X22833468Y-34414500D01*
X22702962Y-34440460D01*
X22580033Y-34491378D01*
X22469397Y-34565302D01*
X22375302Y-34659397D01*
X22301378Y-34770033D01*
X22250460Y-34892962D01*
X22224500Y-35023468D01*
X17775500Y-35023468D01*
X17749540Y-34892964D01*
X17698620Y-34770031D01*
X17624695Y-34659394D01*
X17530606Y-34565305D01*
X17419969Y-34491380D01*
X17419968Y-34491379D01*
X17419966Y-34491378D01*
X17297037Y-34440460D01*
X17166531Y-34414500D01*
X17033469Y-34414500D01*
X17033468Y-34414500D01*
X16902962Y-34440460D01*
X16898314Y-34441871D01*
X16897623Y-34439594D01*
X16845755Y-34443603D01*
X16793631Y-34411562D01*
X16770294Y-34355001D01*
X16770000Y-34347371D01*
X16770000Y-34103424D01*
X16742915Y-33932420D01*
X16689411Y-33767751D01*
X16610804Y-33613475D01*
X16610802Y-33613471D01*
X16509037Y-33473403D01*
X16386596Y-33350962D01*
X16246528Y-33249197D01*
X16246524Y-33249195D01*
X16092248Y-33170588D01*
X15927586Y-33117086D01*
X15920000Y-33115884D01*
X15920000Y-33874304D01*
X15915605Y-33869909D01*
X15824394Y-33817248D01*
X15722661Y-33789989D01*
X15617339Y-33789989D01*
X15515606Y-33817248D01*
X15424395Y-33869909D01*
X15420000Y-33874304D01*
X15420000Y-33115884D01*
X15412413Y-33117086D01*
X15247751Y-33170588D01*
X15093475Y-33249195D01*
X15093471Y-33249197D01*
X14953403Y-33350962D01*
X14830962Y-33473403D01*
X14729197Y-33613471D01*
X14729195Y-33613475D01*
X14650588Y-33767751D01*
X14597084Y-33932420D01*
X14570000Y-34103424D01*
X14033900Y-34103424D01*
X14033900Y-31470343D01*
X14052807Y-31412152D01*
X14062890Y-31400345D01*
X14113920Y-31349316D01*
X14192977Y-31212384D01*
X14233900Y-31059657D01*
X14233900Y-30901543D01*
X14192977Y-30748816D01*
X14113920Y-30611884D01*
X14002116Y-30500080D01*
X13865184Y-30421023D01*
X13712457Y-30380100D01*
X13554343Y-30380100D01*
X13401616Y-30421023D01*
X13264684Y-30500080D01*
X13152880Y-30611884D01*
X13073823Y-30748816D01*
X13032900Y-30901543D01*
X700000Y-30901543D01*
X700000Y-18042143D01*
X9117200Y-18042143D01*
X9117200Y-18200257D01*
X9158123Y-18352984D01*
X9237180Y-18489916D01*
X9348984Y-18601720D01*
X9485916Y-18680777D01*
X9638643Y-18721700D01*
X9638645Y-18721700D01*
X9796755Y-18721700D01*
X9796757Y-18721700D01*
X9949484Y-18680777D01*
X10086416Y-18601720D01*
X10198220Y-18489916D01*
X10277277Y-18352984D01*
X10318200Y-18200257D01*
X10318200Y-18042143D01*
X10277277Y-17889416D01*
X10198220Y-17752484D01*
X10198217Y-17752481D01*
X10147196Y-17701459D01*
X10119419Y-17646942D01*
X10118200Y-17631456D01*
X10118200Y-13213243D01*
X22592000Y-13213243D01*
X22592000Y-13371357D01*
X22632923Y-13524084D01*
X22711980Y-13661016D01*
X22823784Y-13772820D01*
X22960716Y-13851877D01*
X23113443Y-13892800D01*
X23113445Y-13892800D01*
X23271555Y-13892800D01*
X23271557Y-13892800D01*
X23424284Y-13851877D01*
X23561216Y-13772820D01*
X23616498Y-13717537D01*
X23671013Y-13689762D01*
X23731445Y-13699333D01*
X23774710Y-13742598D01*
X23785500Y-13787543D01*
X23785500Y-31067773D01*
X23785500Y-31173227D01*
X23795992Y-31212383D01*
X23812794Y-31275092D01*
X23865516Y-31366408D01*
X23865518Y-31366410D01*
X23865520Y-31366413D01*
X26549805Y-34050698D01*
X26577581Y-34105213D01*
X26578800Y-34120700D01*
X26578800Y-34192857D01*
X26619723Y-34345584D01*
X26698780Y-34482516D01*
X26810584Y-34594320D01*
X26947516Y-34673377D01*
X27100243Y-34714300D01*
X27100245Y-34714300D01*
X27258355Y-34714300D01*
X27258357Y-34714300D01*
X27411084Y-34673377D01*
X27548016Y-34594320D01*
X27659820Y-34482516D01*
X27738877Y-34345584D01*
X27779800Y-34192857D01*
X27779800Y-34034743D01*
X27738877Y-33882016D01*
X27659820Y-33745084D01*
X27548016Y-33633280D01*
X27411084Y-33554223D01*
X27258357Y-33513300D01*
X27258355Y-33513300D01*
X27186201Y-33513300D01*
X27128010Y-33494393D01*
X27116197Y-33484304D01*
X24615496Y-30983603D01*
X24587719Y-30929086D01*
X24586500Y-30913599D01*
X24586500Y-27518877D01*
X24605407Y-27460686D01*
X24654907Y-27424722D01*
X24716093Y-27424722D01*
X24734994Y-27433137D01*
X24761216Y-27448277D01*
X24913943Y-27489200D01*
X24913945Y-27489200D01*
X25072055Y-27489200D01*
X25072057Y-27489200D01*
X25224784Y-27448277D01*
X25361716Y-27369220D01*
X25473520Y-27257416D01*
X25552577Y-27120484D01*
X25593500Y-26967757D01*
X25593500Y-26809643D01*
X25552577Y-26656916D01*
X25473520Y-26519984D01*
X25473517Y-26519981D01*
X25422496Y-26468959D01*
X25394719Y-26414442D01*
X25393500Y-26398956D01*
X25393500Y-12478443D01*
X25394411Y-12475636D01*
X25393662Y-12472783D01*
X25399761Y-12459172D01*
X25412407Y-12420252D01*
X25415865Y-12415768D01*
X25418994Y-12411941D01*
X25473520Y-12357416D01*
X25497364Y-12316116D01*
X25502444Y-12309905D01*
X25521755Y-12297496D01*
X25538810Y-12282140D01*
X25546995Y-12281279D01*
X25553920Y-12276830D01*
X25576834Y-12278142D01*
X25599660Y-12275743D01*
X25607293Y-12279887D01*
X25615005Y-12280329D01*
X25628628Y-12291470D01*
X25649083Y-12302576D01*
X28427804Y-15081297D01*
X28455581Y-15135814D01*
X28456800Y-15151301D01*
X28456800Y-18737156D01*
X28437893Y-18795347D01*
X28427804Y-18807159D01*
X28376782Y-18858181D01*
X28376780Y-18858183D01*
X28376780Y-18858184D01*
X28297723Y-18995116D01*
X28256800Y-19147843D01*
X28256800Y-19305957D01*
X28297723Y-19458684D01*
X28376780Y-19595616D01*
X28488584Y-19707420D01*
X28625516Y-19786477D01*
X28778243Y-19827400D01*
X28778245Y-19827400D01*
X28936358Y-19827400D01*
X28942791Y-19826553D01*
X28943053Y-19828546D01*
X28994972Y-19831264D01*
X29042525Y-19869766D01*
X29058500Y-19923691D01*
X29058500Y-29722593D01*
X29039593Y-29780784D01*
X29009001Y-29808329D01*
X28968386Y-29831778D01*
X28968384Y-29831780D01*
X28856580Y-29943584D01*
X28777523Y-30080516D01*
X28736600Y-30233243D01*
X28736600Y-30391357D01*
X28777523Y-30544084D01*
X28856580Y-30681016D01*
X28968384Y-30792820D01*
X29105316Y-30871877D01*
X29258043Y-30912800D01*
X29258045Y-30912800D01*
X29416155Y-30912800D01*
X29416157Y-30912800D01*
X29568884Y-30871877D01*
X29705816Y-30792820D01*
X29817620Y-30681016D01*
X29896677Y-30544084D01*
X29937600Y-30391357D01*
X29937600Y-30233243D01*
X29896677Y-30080516D01*
X29868458Y-30031638D01*
X29865503Y-30023543D01*
X29865024Y-30010213D01*
X29859500Y-29989595D01*
X29859500Y-28973749D01*
X34150000Y-28973749D01*
X34150000Y-29186250D01*
X34183240Y-29396121D01*
X34248904Y-29598215D01*
X34345376Y-29787553D01*
X34345380Y-29787559D01*
X34384728Y-29841716D01*
X34384729Y-29841716D01*
X35017037Y-29209407D01*
X35034075Y-29272993D01*
X35099901Y-29387007D01*
X35192993Y-29480099D01*
X35307007Y-29545925D01*
X35370589Y-29562962D01*
X34738282Y-30195269D01*
X34738282Y-30195270D01*
X34792440Y-30234619D01*
X34792446Y-30234623D01*
X34981784Y-30331095D01*
X35183878Y-30396759D01*
X35393750Y-30430000D01*
X35606250Y-30430000D01*
X35816121Y-30396759D01*
X36018215Y-30331095D01*
X36207556Y-30234620D01*
X36261716Y-30195270D01*
X35629408Y-29562962D01*
X35692993Y-29545925D01*
X35807007Y-29480099D01*
X35900099Y-29387007D01*
X35965925Y-29272993D01*
X35982962Y-29209408D01*
X36615270Y-29841716D01*
X36654620Y-29787556D01*
X36751095Y-29598215D01*
X36816759Y-29396121D01*
X36850000Y-29186250D01*
X36850000Y-28973749D01*
X36816759Y-28763878D01*
X36751095Y-28561784D01*
X36654623Y-28372446D01*
X36654619Y-28372440D01*
X36615270Y-28318282D01*
X36615269Y-28318282D01*
X35982962Y-28950589D01*
X35965925Y-28887007D01*
X35900099Y-28772993D01*
X35807007Y-28679901D01*
X35692993Y-28614075D01*
X35629407Y-28597037D01*
X36261716Y-27964729D01*
X36261716Y-27964728D01*
X36207559Y-27925380D01*
X36207553Y-27925376D01*
X36018215Y-27828904D01*
X35927015Y-27799272D01*
X35877515Y-27763308D01*
X35858608Y-27705117D01*
X35877515Y-27646926D01*
X35927013Y-27610962D01*
X35927017Y-27610962D01*
X35927018Y-27610962D01*
X35941633Y-27606213D01*
X35941633Y-27606212D01*
X35941639Y-27606211D01*
X36102994Y-27523996D01*
X36249501Y-27417553D01*
X36377553Y-27289501D01*
X36483996Y-27142994D01*
X36566211Y-26981639D01*
X36622171Y-26809409D01*
X36636335Y-26719977D01*
X36650500Y-26630549D01*
X36650500Y-26449450D01*
X36622171Y-26270593D01*
X36622171Y-26270591D01*
X36566211Y-26098361D01*
X36483996Y-25937006D01*
X36377553Y-25790499D01*
X36249501Y-25662447D01*
X36102994Y-25556004D01*
X36102993Y-25556003D01*
X36102991Y-25556002D01*
X35941637Y-25473788D01*
X35769406Y-25417828D01*
X35590549Y-25389500D01*
X35590546Y-25389500D01*
X35409454Y-25389500D01*
X35409451Y-25389500D01*
X35230593Y-25417828D01*
X35058362Y-25473788D01*
X34897008Y-25556002D01*
X34823752Y-25609225D01*
X34750499Y-25662447D01*
X34622447Y-25790499D01*
X34569225Y-25863752D01*
X34516002Y-25937008D01*
X34433788Y-26098362D01*
X34377828Y-26270593D01*
X34349500Y-26449450D01*
X34349500Y-26630549D01*
X34377828Y-26809406D01*
X34433788Y-26981637D01*
X34504534Y-27120484D01*
X34516004Y-27142994D01*
X34622447Y-27289501D01*
X34750499Y-27417553D01*
X34897006Y-27523996D01*
X35058361Y-27606211D01*
X35069483Y-27609824D01*
X35072983Y-27610962D01*
X35122483Y-27646926D01*
X35141391Y-27705116D01*
X35122484Y-27763307D01*
X35072985Y-27799271D01*
X35072984Y-27799272D01*
X34981784Y-27828904D01*
X34792446Y-27925376D01*
X34792442Y-27925378D01*
X34738282Y-27964728D01*
X35370591Y-28597037D01*
X35307007Y-28614075D01*
X35192993Y-28679901D01*
X35099901Y-28772993D01*
X35034075Y-28887007D01*
X35017037Y-28950591D01*
X34384728Y-28318282D01*
X34345378Y-28372442D01*
X34345376Y-28372446D01*
X34248904Y-28561784D01*
X34183240Y-28763878D01*
X34150000Y-28973749D01*
X29859500Y-28973749D01*
X29859500Y-23105130D01*
X34349500Y-23105130D01*
X34349500Y-24894860D01*
X34349501Y-24894863D01*
X34352414Y-24919990D01*
X34377756Y-24977385D01*
X34397794Y-25022765D01*
X34477235Y-25102206D01*
X34580009Y-25147585D01*
X34605135Y-25150500D01*
X36394864Y-25150499D01*
X36419991Y-25147585D01*
X36522765Y-25102206D01*
X36602206Y-25022765D01*
X36647585Y-24919991D01*
X36650500Y-24894865D01*
X36650499Y-23105136D01*
X36647585Y-23080009D01*
X36602206Y-22977235D01*
X36522765Y-22897794D01*
X36419991Y-22852415D01*
X36419990Y-22852414D01*
X36419988Y-22852414D01*
X36394868Y-22849500D01*
X34605139Y-22849500D01*
X34605136Y-22849501D01*
X34580009Y-22852414D01*
X34477235Y-22897794D01*
X34397794Y-22977235D01*
X34352414Y-23080011D01*
X34349500Y-23105130D01*
X29859500Y-23105130D01*
X29859500Y-12106774D01*
X29859500Y-12106773D01*
X29832207Y-12004913D01*
X29813263Y-11972100D01*
X29800000Y-11922601D01*
X29800000Y-11820944D01*
X29799240Y-11818106D01*
X29759077Y-11668216D01*
X29680020Y-11531284D01*
X29568216Y-11419480D01*
X29431284Y-11340423D01*
X29278557Y-11299500D01*
X29120443Y-11299500D01*
X28967716Y-11340423D01*
X28830784Y-11419480D01*
X28718980Y-11531284D01*
X28639923Y-11668216D01*
X28599000Y-11820943D01*
X28599000Y-11979057D01*
X28639923Y-12131784D01*
X28718980Y-12268716D01*
X28830784Y-12380520D01*
X28967716Y-12459577D01*
X28985122Y-12464240D01*
X29036436Y-12497563D01*
X29058364Y-12554684D01*
X29058500Y-12559867D01*
X29058500Y-14340199D01*
X29039593Y-14398390D01*
X28990093Y-14434354D01*
X28928907Y-14434354D01*
X28889496Y-14410203D01*
X27248966Y-12769673D01*
X25524413Y-11045120D01*
X25524410Y-11045118D01*
X25524409Y-11045117D01*
X25524408Y-11045116D01*
X25433091Y-10992394D01*
X25433093Y-10992394D01*
X25393570Y-10981804D01*
X25331227Y-10965100D01*
X24596573Y-10965100D01*
X24494713Y-10992393D01*
X24494712Y-10992393D01*
X24494710Y-10992394D01*
X24494709Y-10992394D01*
X24403389Y-11045118D01*
X22872016Y-12576491D01*
X22819293Y-12667811D01*
X22819292Y-12667811D01*
X22819293Y-12667812D01*
X22792000Y-12769673D01*
X22792000Y-12802556D01*
X22773093Y-12860747D01*
X22763004Y-12872559D01*
X22711982Y-12923581D01*
X22711980Y-12923583D01*
X22711980Y-12923584D01*
X22632923Y-13060516D01*
X22592000Y-13213243D01*
X10118200Y-13213243D01*
X10118200Y-12179601D01*
X10137107Y-12121410D01*
X10147196Y-12109597D01*
X15737797Y-6518996D01*
X15792314Y-6491219D01*
X15807801Y-6490000D01*
X15879955Y-6490000D01*
X15879957Y-6490000D01*
X16032684Y-6449077D01*
X16169616Y-6370020D01*
X16281420Y-6258216D01*
X16360477Y-6121284D01*
X16401400Y-5968557D01*
X16401400Y-5810443D01*
X16360477Y-5657716D01*
X16281420Y-5520784D01*
X16169616Y-5408980D01*
X16032684Y-5329923D01*
X15879957Y-5289000D01*
X15721843Y-5289000D01*
X15569116Y-5329923D01*
X15432184Y-5408980D01*
X15320380Y-5520784D01*
X15241323Y-5657716D01*
X15200400Y-5810444D01*
X15200400Y-5882599D01*
X15181493Y-5940790D01*
X15171404Y-5952603D01*
X9397216Y-11726791D01*
X9344495Y-11818106D01*
X9344493Y-11818110D01*
X9344493Y-11818112D01*
X9319968Y-11909643D01*
X9317200Y-11919973D01*
X9317200Y-17631456D01*
X9298293Y-17689647D01*
X9288204Y-17701459D01*
X9237182Y-17752481D01*
X9237180Y-17752483D01*
X9237180Y-17752484D01*
X9158123Y-17889416D01*
X9117200Y-18042143D01*
X700000Y-18042143D01*
X700000Y-799000D01*
X718907Y-740809D01*
X768407Y-704845D01*
X799000Y-700000D01*
X5901000Y-700000D01*
X5959191Y-718907D01*
G37*
%TD.AperFunction*%
%TD*%
M02*
