M48
; DRILL file KiCad 10.0.4 date 2026-06-29T20:52:21
; FORMAT={-:-/ absolute / metric / decimal}
; #@! TF.CreationDate,2026-06-29T20:52:21+08:00
; #@! TF.GenerationSoftware,Kicad,Pcbnew,10.0.4
; #@! TF.FileFunction,MixedPlating,1,2
FMAT,2
METRIC
; #@! TA.AperFunction,Plated,PTH,ViaDrill
T1C0.300
; #@! TA.AperFunction,Plated,PTH,ComponentDrill
T2C0.750
; #@! TA.AperFunction,Plated,PTH,ComponentDrill
T3C0.800
; #@! TA.AperFunction,Plated,PTH,ComponentDrill
T4C1.000
%
G90
G05
T1
X11.885Y-16.0
X13.663Y-30.981
X13.663Y-36.017
X15.241Y-23.511
X16.772Y-11.1
X17.713Y-13.392
X19.374Y-15.451
X19.9Y-13.49
X20.995Y-13.472
X20.995Y-27.633
X22.289Y-13.478
X24.462Y-23.325
X27.457Y-9.15
X27.457Y-16.55
X27.578Y-18.853
X27.963Y-27.386
X28.318Y-34.782
X28.565Y-12.7
X29.2Y-11.9
X29.2Y-30.949
X32.922Y-11.928
T2
X17.1Y-35.09
X22.9Y-35.09
T4
X35.5Y-24.0
X35.5Y-26.54
X35.5Y-29.08
T3
X15.67Y-34.19G85X15.67Y-34.99
G05
X15.67Y-38.47G85X15.67Y-39.07
G05
X24.33Y-34.19G85X24.33Y-34.99
G05
X24.33Y-38.47G85X24.33Y-39.07
G05
M30
