M48
; DRILL file KiCad 10.0.4 date 2026-06-29T21:16:59
; FORMAT={-:-/ absolute / metric / decimal}
; #@! TF.CreationDate,2026-06-29T21:16:59+08:00
; #@! TF.GenerationSoftware,Kicad,Pcbnew,10.0.4
; #@! TF.FileFunction,MixedPlating,1,2
FMAT,2
METRIC
; #@! TA.AperFunction,Plated,PTH,ViaDrill
T1C0.300
; #@! TA.AperFunction,Plated,PTH,ComponentDrill
T2C0.750
; #@! TA.AperFunction,Plated,PTH,ComponentDrill
T3C0.800
; #@! TA.AperFunction,Plated,PTH,ComponentDrill
T4C1.000
%
G90
G05
T1
X9.718Y-18.121
X13.633Y-30.981
X13.633Y-36.017
X15.801Y-5.889
X23.192Y-13.292
X24.186Y-12.692
X24.993Y-11.989
X24.993Y-26.889
X27.179Y-34.114
X28.857Y-19.227
X29.2Y-11.9
X29.337Y-30.312
T2
X17.1Y-35.09
X22.9Y-35.09
T4
X35.5Y-24.0
X35.5Y-26.54
X35.5Y-29.08
T3
X15.67Y-34.19G85X15.67Y-34.99
G05
X15.67Y-38.47G85X15.67Y-39.07
G05
X24.33Y-34.19G85X24.33Y-34.99
G05
X24.33Y-38.47G85X24.33Y-39.07
G05
M30
