%TF.GenerationSoftware,KiCad,Pcbnew,10.0.4*%
%TF.CreationDate,2026-06-29T21:16:59+08:00*%
%TF.ProjectId,vibe_lamp_core_v1,76696265-5f6c-4616-9d70-5f636f72655f,rev?*%
%TF.SameCoordinates,Original*%
%TF.FileFunction,Paste,Top*%
%TF.FilePolarity,Positive*%
%FSLAX46Y46*%
G04 Gerber Fmt 4.6, Leading zero omitted, Abs format (unit mm)*
G04 Created by KiCad (PCBNEW 10.0.4) date 2026-06-29 21:16:59*
%MOMM*%
%LPD*%
G01*
G04 APERTURE LIST*
G04 Aperture macros list*
%AMRoundRect*
0 Rectangle with rounded corners*
0 $1 Rounding radius*
0 $2 $3 $4 $5 $6 $7 $8 $9 X,Y pos of 4 corners*
0 Add a 4 corners polygon primitive as box body*
4,1,4,$2,$3,$4,$5,$6,$7,$8,$9,$2,$3,0*
0 Add four circle primitives for the rounded corners*
1,1,$1+$1,$2,$3*
1,1,$1+$1,$4,$5*
1,1,$1+$1,$6,$7*
1,1,$1+$1,$8,$9*
0 Add four rect primitives between the rounded corners*
20,1,$1+$1,$2,$3,$4,$5,0*
20,1,$1+$1,$4,$5,$6,$7,0*
20,1,$1+$1,$6,$7,$8,$9,0*
20,1,$1+$1,$8,$9,$2,$3,0*%
%AMFreePoly0*
4,1,17,0.335278,0.685443,0.349923,0.650088,0.349923,-0.649935,0.335278,-0.685290,0.299923,-0.699935,0.000318,-0.699935,-0.000051,-0.700088,-0.300050,-0.700088,-0.335405,-0.685443,-0.350050,-0.650088,-0.350050,0.649935,-0.335405,0.685290,-0.300050,0.699935,-0.000445,0.699935,-0.000076,0.700088,0.299923,0.700088,0.335278,0.685443,0.335278,0.685443,$1*%
%AMFreePoly1*
4,1,17,0.335431,0.685290,0.350076,0.649935,0.350076,-0.650037,0.335431,-0.685392,0.300076,-0.700037,0.000187,-0.700037,0.000127,-0.700062,-0.299898,-0.700062,-0.335253,-0.685417,-0.349898,-0.650062,-0.349898,0.649910,-0.335253,0.685265,-0.299898,0.699910,-0.000009,0.699910,0.000051,0.699935,0.300076,0.699935,0.335431,0.685290,0.335431,0.685290,$1*%
%AMFreePoly2*
4,1,13,0.335227,0.685443,0.349872,0.650088,0.349872,-0.649884,0.335227,-0.685239,0.299872,-0.699884,-0.300152,-0.699884,-0.335507,-0.685239,-0.350152,-0.649884,-0.350152,0.650088,-0.335507,0.685443,-0.300152,0.700088,0.299872,0.700088,0.335227,0.685443,0.335227,0.685443,$1*%
%AMFreePoly3*
4,1,14,0.760322,0.760195,0.774967,0.724840,0.774967,-0.725145,0.760322,-0.760500,0.724967,-0.775145,-0.725018,-0.775145,-0.760373,-0.760500,-0.775018,-0.725145,-0.775018,0.124841,-0.760373,0.160196,-0.160374,0.760195,-0.125019,0.774840,0.724967,0.774840,0.760322,0.760195,0.760322,0.760195,$1*%
G04 Aperture macros list end*
%ADD10RoundRect,0.200000X0.275000X-0.200000X0.275000X0.200000X-0.275000X0.200000X-0.275000X-0.200000X0*%
%ADD11RoundRect,0.200000X-0.200000X-0.275000X0.200000X-0.275000X0.200000X0.275000X-0.200000X0.275000X0*%
%ADD12R,1.500000X1.000000*%
%ADD13FreePoly0,0.000000*%
%ADD14FreePoly1,0.000000*%
%ADD15R,0.300000X1.300000*%
%ADD16FreePoly2,0.000000*%
%ADD17R,1.105000X0.622000*%
%ADD18RoundRect,0.225000X0.250000X-0.225000X0.250000X0.225000X-0.250000X0.225000X-0.250000X-0.225000X0*%
%ADD19R,0.532000X1.072000*%
%ADD20RoundRect,0.250000X0.475000X-0.250000X0.475000X0.250000X-0.475000X0.250000X-0.475000X-0.250000X0*%
%ADD21R,1.050000X0.700000*%
%ADD22RoundRect,0.225000X-0.225000X-0.250000X0.225000X-0.250000X0.225000X0.250000X-0.225000X0.250000X0*%
%ADD23R,0.800000X0.400000*%
%ADD24R,0.400000X0.800000*%
%ADD25FreePoly3,0.000000*%
%ADD26R,1.450000X1.450000*%
%ADD27R,0.700000X0.700000*%
%ADD28RoundRect,0.250000X-0.250000X-0.475000X0.250000X-0.475000X0.250000X0.475000X-0.250000X0.475000X0*%
G04 APERTURE END LIST*
D10*
%TO.C,R4*%
X26000000Y-26825000D03*
X26000000Y-25175000D03*
%TD*%
D11*
%TO.C,R5*%
X23175000Y-18000000D03*
X24825000Y-18000000D03*
%TD*%
D12*
%TO.C,D1*%
X17550000Y-22350000D03*
X17550000Y-25650000D03*
X22450000Y-25650000D03*
X22450000Y-22350000D03*
%TD*%
D13*
%TO.C,J1*%
X16800000Y-33830000D03*
D14*
X17600000Y-33830000D03*
D15*
X18750000Y-33830000D03*
X19750000Y-33830000D03*
X20250000Y-33830000D03*
X21250000Y-33830000D03*
D16*
X23200000Y-33830000D03*
X22400000Y-33830000D03*
D15*
X21750000Y-33830000D03*
X20750000Y-33830000D03*
X19250000Y-33830000D03*
X18250000Y-33830000D03*
%TD*%
D17*
%TO.C,U2*%
X7300000Y-23950000D03*
X7300000Y-23000000D03*
X7300000Y-22050000D03*
X4700000Y-22050000D03*
X4700000Y-23950000D03*
%TD*%
D18*
%TO.C,C2*%
X6000000Y-30775000D03*
X6000000Y-29225000D03*
%TD*%
%TO.C,C1*%
X6000000Y-27775000D03*
X6000000Y-26225000D03*
%TD*%
D11*
%TO.C,F1*%
X9175000Y-30000000D03*
X10825000Y-30000000D03*
%TD*%
D19*
%TO.C,D2*%
X30050000Y-31150000D03*
X31000000Y-31150000D03*
X31950000Y-31150000D03*
X31950000Y-28850000D03*
X31000000Y-28850000D03*
X30050000Y-28850000D03*
%TD*%
D20*
%TO.C,C6*%
X31000000Y-25950000D03*
X31000000Y-24050000D03*
%TD*%
D21*
%TO.C,SW1*%
X32900000Y-8930000D03*
X37100000Y-8930000D03*
X32900000Y-11070000D03*
X37100000Y-11070000D03*
%TD*%
D10*
%TO.C,R7*%
X21750000Y-32425000D03*
X21750000Y-30775000D03*
%TD*%
D18*
%TO.C,C7*%
X14000000Y-24775000D03*
X14000000Y-23225000D03*
%TD*%
D22*
%TO.C,C5*%
X26725000Y-18000000D03*
X28275000Y-18000000D03*
%TD*%
%TO.C,C4*%
X15225000Y-18000000D03*
X16775000Y-18000000D03*
%TD*%
D11*
%TO.C,R6*%
X12175000Y-30000000D03*
X13825000Y-30000000D03*
%TD*%
D23*
%TO.C,U1*%
X14100000Y-5500000D03*
X14100000Y-6300000D03*
X14100000Y-7100000D03*
X14100000Y-7900000D03*
X14100000Y-8700000D03*
X14100000Y-9500000D03*
X14100000Y-10300000D03*
X14100000Y-11100000D03*
X14100000Y-11900000D03*
X14100000Y-12700000D03*
X14100000Y-13500000D03*
D24*
X15200000Y-14400000D03*
X16000000Y-14400000D03*
X16800000Y-14400000D03*
X17600000Y-14400000D03*
X18400000Y-14400000D03*
X19200000Y-14400000D03*
X20000000Y-14400000D03*
X20800000Y-14400000D03*
X21600000Y-14400000D03*
X22400000Y-14400000D03*
X23200000Y-14400000D03*
X24000000Y-14400000D03*
X24800000Y-14400000D03*
D23*
X25900000Y-13500000D03*
X25900000Y-12700000D03*
X25900000Y-11900000D03*
X25900000Y-11100000D03*
X25900000Y-10300000D03*
X25900000Y-9500000D03*
X25900000Y-8700000D03*
X25900000Y-7900000D03*
X25900000Y-7100000D03*
X25900000Y-6300000D03*
X25900000Y-5500000D03*
D24*
X24800000Y-4600000D03*
X24000000Y-4600000D03*
X23200000Y-4600000D03*
X22400000Y-4600000D03*
X21600000Y-4600000D03*
X20800000Y-4600000D03*
X20000000Y-4600000D03*
X19200000Y-4600000D03*
X18400000Y-4600000D03*
X17600000Y-4600000D03*
X16800000Y-4600000D03*
X16000000Y-4600000D03*
X15200000Y-4600000D03*
D25*
X18020000Y-7520000D03*
D26*
X18020000Y-9500000D03*
X18020000Y-11480000D03*
X20000000Y-7530000D03*
X20000000Y-9500000D03*
X20000000Y-11480000D03*
X21970000Y-7530000D03*
X21970000Y-9500000D03*
X21970000Y-11480000D03*
D27*
X25950000Y-4550000D03*
X25950000Y-14450000D03*
X14050000Y-14450000D03*
X14050000Y-4550000D03*
%TD*%
D28*
%TO.C,C3*%
X11550000Y-18000000D03*
X13450000Y-18000000D03*
%TD*%
M02*
