M48
; DRILL file KiCad 10.0.4 date 2026-06-29T21:31:29
; FORMAT={-:-/ absolute / metric / decimal}
; #@! TF.CreationDate,2026-06-29T21:31:29+08:00
; #@! TF.GenerationSoftware,Kicad,Pcbnew,10.0.4
; #@! TF.FileFunction,MixedPlating,1,2
FMAT,2
METRIC
; #@! TA.AperFunction,Plated,PTH,ViaDrill
T1C0.300
; #@! TA.AperFunction,Plated,PTH,ComponentDrill
T2C0.750
; #@! TA.AperFunction,Plated,PTH,ComponentDrill
T3C0.800
; #@! TA.AperFunction,Plated,PTH,ComponentDrill
T4C1.000
%
G90
G05
T1
X11.892Y-15.634
X16.035Y-11.1
X18.045Y-30.793
X18.372Y-16.607
X18.443Y-6.194
X18.602Y-35.002
X19.06Y-12.7
X19.06Y-32.547
X19.9Y-15.364
X24.161Y-26.825
X24.4Y-13.4
X24.849Y-15.343
X27.591Y-15.743
X27.658Y-9.949
X29.2Y-11.9
X29.2Y-30.949
X32.922Y-17.944
T2
X17.1Y-35.09
X22.9Y-35.09
T4
X35.5Y-24.0
X35.5Y-26.54
X35.5Y-29.08
T3
X15.67Y-34.19G85X15.67Y-34.99
G05
X15.67Y-38.47G85X15.67Y-39.07
G05
X24.33Y-34.19G85X24.33Y-34.99
G05
X24.33Y-38.47G85X24.33Y-39.07
G05
M30
