%TF.GenerationSoftware,KiCad,Pcbnew,10.0.4*%
%TF.CreationDate,2026-06-29T21:31:29+08:00*%
%TF.ProjectId,vibe_lamp_core_v1,76696265-5f6c-4616-9d70-5f636f72655f,rev?*%
%TF.SameCoordinates,Original*%
%TF.FileFunction,Copper,L1,Top*%
%TF.FilePolarity,Positive*%
%FSLAX46Y46*%
G04 Gerber Fmt 4.6, Leading zero omitted, Abs format (unit mm)*
G04 Created by KiCad (PCBNEW 10.0.4) date 2026-06-29 21:31:29*
%MOMM*%
%LPD*%
G01*
G04 APERTURE LIST*
G04 Aperture macros list*
%AMRoundRect*
0 Rectangle with rounded corners*
0 $1 Rounding radius*
0 $2 $3 $4 $5 $6 $7 $8 $9 X,Y pos of 4 corners*
0 Add a 4 corners polygon primitive as box body*
4,1,4,$2,$3,$4,$5,$6,$7,$8,$9,$2,$3,0*
0 Add four circle primitives for the rounded corners*
1,1,$1+$1,$2,$3*
1,1,$1+$1,$4,$5*
1,1,$1+$1,$6,$7*
1,1,$1+$1,$8,$9*
0 Add four rect primitives between the rounded corners*
20,1,$1+$1,$2,$3,$4,$5,0*
20,1,$1+$1,$4,$5,$6,$7,0*
20,1,$1+$1,$6,$7,$8,$9,0*
20,1,$1+$1,$8,$9,$2,$3,0*%
%AMFreePoly0*
4,1,17,0.335278,0.685443,0.349923,0.650088,0.349923,-0.649935,0.335278,-0.685290,0.299923,-0.699935,0.000318,-0.699935,-0.000051,-0.700088,-0.300050,-0.700088,-0.335405,-0.685443,-0.350050,-0.650088,-0.350050,0.649935,-0.335405,0.685290,-0.300050,0.699935,-0.000445,0.699935,-0.000076,0.700088,0.299923,0.700088,0.335278,0.685443,0.335278,0.685443,$1*%
%AMFreePoly1*
4,1,17,0.335431,0.685290,0.350076,0.649935,0.350076,-0.650037,0.335431,-0.685392,0.300076,-0.700037,0.000187,-0.700037,0.000127,-0.700062,-0.299898,-0.700062,-0.335253,-0.685417,-0.349898,-0.650062,-0.349898,0.649910,-0.335253,0.685265,-0.299898,0.699910,-0.000009,0.699910,0.000051,0.699935,0.300076,0.699935,0.335431,0.685290,0.335431,0.685290,$1*%
%AMFreePoly2*
4,1,13,0.335227,0.685443,0.349872,0.650088,0.349872,-0.649884,0.335227,-0.685239,0.299872,-0.699884,-0.300152,-0.699884,-0.335507,-0.685239,-0.350152,-0.649884,-0.350152,0.650088,-0.335507,0.685443,-0.300152,0.700088,0.299872,0.700088,0.335227,0.685443,0.335227,0.685443,$1*%
%AMFreePoly3*
4,1,14,0.760322,0.760195,0.774967,0.724840,0.774967,-0.725145,0.760322,-0.760500,0.724967,-0.775145,-0.725018,-0.775145,-0.760373,-0.760500,-0.775018,-0.725145,-0.775018,0.124841,-0.760373,0.160196,-0.160374,0.760195,-0.125019,0.774840,0.724967,0.774840,0.760322,0.760195,0.760322,0.760195,$1*%
G04 Aperture macros list end*
%TA.AperFunction,SMDPad,CuDef*%
%ADD10C,1.000000*%
%TD*%
%TA.AperFunction,SMDPad,CuDef*%
%ADD11R,1.500000X1.000000*%
%TD*%
%TA.AperFunction,ComponentPad*%
%ADD12R,1.700000X1.700000*%
%TD*%
%TA.AperFunction,ComponentPad*%
%ADD13C,1.700000*%
%TD*%
%TA.AperFunction,SMDPad,CuDef*%
%ADD14RoundRect,0.225000X-0.225000X-0.250000X0.225000X-0.250000X0.225000X0.250000X-0.225000X0.250000X0*%
%TD*%
%TA.AperFunction,SMDPad,CuDef*%
%ADD15RoundRect,0.250000X0.475000X-0.250000X0.475000X0.250000X-0.475000X0.250000X-0.475000X-0.250000X0*%
%TD*%
%TA.AperFunction,ComponentPad*%
%ADD16C,0.750000*%
%TD*%
%TA.AperFunction,ComponentPad*%
%ADD17O,1.200000X2.000000*%
%TD*%
%TA.AperFunction,ComponentPad*%
%ADD18O,1.200000X1.800000*%
%TD*%
%TA.AperFunction,SMDPad,CuDef*%
%ADD19FreePoly0,0.000000*%
%TD*%
%TA.AperFunction,SMDPad,CuDef*%
%ADD20FreePoly1,0.000000*%
%TD*%
%TA.AperFunction,SMDPad,CuDef*%
%ADD21R,0.300000X1.300000*%
%TD*%
%TA.AperFunction,SMDPad,CuDef*%
%ADD22FreePoly2,0.000000*%
%TD*%
%TA.AperFunction,SMDPad,CuDef*%
%ADD23RoundRect,0.225000X0.250000X-0.225000X0.250000X0.225000X-0.250000X0.225000X-0.250000X-0.225000X0*%
%TD*%
%TA.AperFunction,SMDPad,CuDef*%
%ADD24RoundRect,0.200000X-0.200000X-0.275000X0.200000X-0.275000X0.200000X0.275000X-0.200000X0.275000X0*%
%TD*%
%TA.AperFunction,SMDPad,CuDef*%
%ADD25R,0.532000X1.072000*%
%TD*%
%TA.AperFunction,SMDPad,CuDef*%
%ADD26R,1.050000X0.700000*%
%TD*%
%TA.AperFunction,SMDPad,CuDef*%
%ADD27R,1.000000X0.700000*%
%TD*%
%TA.AperFunction,SMDPad,CuDef*%
%ADD28R,0.800000X0.400000*%
%TD*%
%TA.AperFunction,SMDPad,CuDef*%
%ADD29R,0.400000X0.800000*%
%TD*%
%TA.AperFunction,SMDPad,CuDef*%
%ADD30FreePoly3,0.000000*%
%TD*%
%TA.AperFunction,SMDPad,CuDef*%
%ADD31R,1.450000X1.450000*%
%TD*%
%TA.AperFunction,SMDPad,CuDef*%
%ADD32R,0.700000X0.700000*%
%TD*%
%TA.AperFunction,SMDPad,CuDef*%
%ADD33RoundRect,0.250000X-0.250000X-0.475000X0.250000X-0.475000X0.250000X0.475000X-0.250000X0.475000X0*%
%TD*%
%TA.AperFunction,SMDPad,CuDef*%
%ADD34RoundRect,0.200000X0.275000X-0.200000X0.275000X0.200000X-0.275000X0.200000X-0.275000X-0.200000X0*%
%TD*%
%TA.AperFunction,SMDPad,CuDef*%
%ADD35R,1.105000X0.622000*%
%TD*%
%TA.AperFunction,ViaPad*%
%ADD36C,0.600000*%
%TD*%
%TA.AperFunction,Conductor*%
%ADD37C,0.200000*%
%TD*%
G04 APERTURE END LIST*
D10*
%TO.P,TP2,1*%
%TO.N,GND*%
X3000000Y-12000000D03*
%TD*%
D11*
%TO.P,D1,1*%
%TO.N,LED5V*%
X17550000Y-22350000D03*
%TO.P,D1,2*%
%TO.N,WS_DOUT*%
X17550000Y-25650000D03*
%TO.P,D1,3*%
%TO.N,GND*%
X22450000Y-25650000D03*
%TO.P,D1,4*%
%TO.N,WS_DIN*%
X22450000Y-22350000D03*
%TD*%
D12*
%TO.P,P1,1*%
%TO.N,+5V*%
X35500000Y-24000000D03*
D13*
%TO.P,P1,2*%
%TO.N,WS_DOUT*%
X35500000Y-26540000D03*
%TO.P,P1,3*%
%TO.N,GND*%
X35500000Y-29080000D03*
%TD*%
D14*
%TO.P,C4,1*%
%TO.N,+3V3*%
X15225000Y-18000000D03*
%TO.P,C4,2*%
%TO.N,GND*%
X16775000Y-18000000D03*
%TD*%
D15*
%TO.P,C6,1*%
%TO.N,+5V*%
X31000000Y-25950000D03*
%TO.P,C6,2*%
%TO.N,GND*%
X31000000Y-24050000D03*
%TD*%
D14*
%TO.P,C5,1*%
%TO.N,EN*%
X26725000Y-18000000D03*
%TO.P,C5,2*%
%TO.N,GND*%
X28275000Y-18000000D03*
%TD*%
D16*
%TO.P,J1,*%
%TO.N,*%
X17100000Y-35090000D03*
X22900000Y-35090000D03*
D17*
%TO.P,J1,1*%
%TO.N,GND*%
X24330000Y-34590000D03*
D18*
%TO.P,J1,2*%
X24330000Y-38770000D03*
%TO.P,J1,3*%
X15670000Y-38770000D03*
D17*
%TO.P,J1,4*%
X15670000Y-34590000D03*
D19*
%TO.P,J1,A1B12*%
X16800000Y-33830000D03*
D20*
%TO.P,J1,A4B9*%
%TO.N,VBUS*%
X17600000Y-33830000D03*
D21*
%TO.P,J1,A5*%
%TO.N,CC1*%
X18750000Y-33830000D03*
%TO.P,J1,A6*%
%TO.N,USB_DP*%
X19750000Y-33830000D03*
%TO.P,J1,A7*%
%TO.N,USB_DM*%
X20250000Y-33830000D03*
%TO.P,J1,A8*%
%TO.N,N/C*%
X21250000Y-33830000D03*
D22*
%TO.P,J1,B1A12*%
%TO.N,GND*%
X23200000Y-33830000D03*
%TO.P,J1,B4A9*%
%TO.N,VBUS*%
X22400000Y-33830000D03*
D21*
%TO.P,J1,B5*%
%TO.N,CC2*%
X21750000Y-33830000D03*
%TO.P,J1,B6*%
%TO.N,USB_DP*%
X20750000Y-33830000D03*
%TO.P,J1,B7*%
%TO.N,USB_DM*%
X19250000Y-33830000D03*
%TO.P,J1,B8*%
%TO.N,N/C*%
X18250000Y-33830000D03*
%TD*%
D23*
%TO.P,C7,1*%
%TO.N,LED5V*%
X14000000Y-24775000D03*
%TO.P,C7,2*%
%TO.N,GND*%
X14000000Y-23225000D03*
%TD*%
D24*
%TO.P,R6,1*%
%TO.N,CC1*%
X12175000Y-30000000D03*
%TO.P,R6,2*%
%TO.N,GND*%
X13825000Y-30000000D03*
%TD*%
D25*
%TO.P,D2,1*%
%TO.N,USB_DP*%
X30050000Y-31150000D03*
%TO.P,D2,2*%
%TO.N,GND*%
X31000000Y-31150000D03*
%TO.P,D2,3*%
%TO.N,USB_DM*%
X31950000Y-31150000D03*
%TO.P,D2,4*%
%TO.N,N/C*%
X31950000Y-28850000D03*
%TO.P,D2,5*%
%TO.N,VBUS*%
X31000000Y-28850000D03*
%TO.P,D2,6*%
%TO.N,N/C*%
X30050000Y-28850000D03*
%TD*%
D10*
%TO.P,TP1,1*%
%TO.N,+3V3*%
X3000000Y-8000000D03*
%TD*%
D23*
%TO.P,C2,1*%
%TO.N,+3V3*%
X6000000Y-30775000D03*
%TO.P,C2,2*%
%TO.N,GND*%
X6000000Y-29225000D03*
%TD*%
D10*
%TO.P,TP5,1*%
%TO.N,EN*%
X38000000Y-6000000D03*
%TD*%
D26*
%TO.P,SW1,1*%
%TO.N,BTN*%
X32900000Y-8930000D03*
%TO.P,SW1,2*%
%TO.N,GND*%
X37100000Y-8930000D03*
%TO.P,SW1,3*%
%TO.N,BTN*%
X32900000Y-11070000D03*
%TO.P,SW1,4*%
%TO.N,GND*%
X37100000Y-11070000D03*
%TD*%
D27*
%TO.P,D3,1*%
%TO.N,LED5V*%
X15830000Y-20000000D03*
%TO.P,D3,2*%
%TO.N,+5V*%
X18170000Y-20000000D03*
%TD*%
D10*
%TO.P,TP3,1*%
%TO.N,UART_RX*%
X3000000Y-16000000D03*
%TD*%
D28*
%TO.P,U1,1*%
%TO.N,GND*%
X14100000Y-5500000D03*
%TO.P,U1,2*%
X14100000Y-6300000D03*
%TO.P,U1,3*%
%TO.N,+3V3*%
X14100000Y-7100000D03*
%TO.P,U1,4*%
%TO.N,N/C*%
X14100000Y-7900000D03*
%TO.P,U1,5*%
X14100000Y-8700000D03*
%TO.P,U1,6*%
X14100000Y-9500000D03*
%TO.P,U1,7*%
X14100000Y-10300000D03*
%TO.P,U1,8*%
%TO.N,EN*%
X14100000Y-11100000D03*
%TO.P,U1,9*%
%TO.N,N/C*%
X14100000Y-11900000D03*
%TO.P,U1,10*%
X14100000Y-12700000D03*
%TO.P,U1,11*%
%TO.N,GND*%
X14100000Y-13500000D03*
D29*
%TO.P,U1,12*%
%TO.N,N/C*%
X15200000Y-14400000D03*
%TO.P,U1,13*%
X16000000Y-14400000D03*
%TO.P,U1,14*%
%TO.N,GND*%
X16800000Y-14400000D03*
%TO.P,U1,15*%
%TO.N,N/C*%
X17600000Y-14400000D03*
%TO.P,U1,16*%
%TO.N,BTN*%
X18400000Y-14400000D03*
%TO.P,U1,17*%
%TO.N,N/C*%
X19200000Y-14400000D03*
%TO.P,U1,18*%
%TO.N,IO4*%
X20000000Y-14400000D03*
%TO.P,U1,19*%
%TO.N,N/C*%
X20800000Y-14400000D03*
%TO.P,U1,20*%
X21600000Y-14400000D03*
%TO.P,U1,21*%
X22400000Y-14400000D03*
%TO.P,U1,22*%
X23200000Y-14400000D03*
%TO.P,U1,23*%
%TO.N,IO9*%
X24000000Y-14400000D03*
%TO.P,U1,24*%
%TO.N,N/C*%
X24800000Y-14400000D03*
D28*
%TO.P,U1,25*%
X25900000Y-13500000D03*
%TO.P,U1,26*%
%TO.N,USB_DM*%
X25900000Y-12700000D03*
%TO.P,U1,27*%
%TO.N,USB_DP*%
X25900000Y-11900000D03*
%TO.P,U1,28*%
%TO.N,N/C*%
X25900000Y-11100000D03*
%TO.P,U1,29*%
X25900000Y-10300000D03*
%TO.P,U1,30*%
%TO.N,UART_RX*%
X25900000Y-9500000D03*
%TO.P,U1,31*%
%TO.N,UART_TX*%
X25900000Y-8700000D03*
%TO.P,U1,32*%
%TO.N,N/C*%
X25900000Y-7900000D03*
%TO.P,U1,33*%
X25900000Y-7100000D03*
%TO.P,U1,34*%
X25900000Y-6300000D03*
%TO.P,U1,35*%
X25900000Y-5500000D03*
D29*
%TO.P,U1,36*%
%TO.N,GND*%
X24800000Y-4600000D03*
%TO.P,U1,37*%
X24000000Y-4600000D03*
%TO.P,U1,38*%
X23200000Y-4600000D03*
%TO.P,U1,39*%
X22400000Y-4600000D03*
%TO.P,U1,40*%
X21600000Y-4600000D03*
%TO.P,U1,41*%
X20800000Y-4600000D03*
%TO.P,U1,42*%
X20000000Y-4600000D03*
%TO.P,U1,43*%
X19200000Y-4600000D03*
%TO.P,U1,44*%
X18400000Y-4600000D03*
%TO.P,U1,45*%
X17600000Y-4600000D03*
%TO.P,U1,46*%
X16800000Y-4600000D03*
%TO.P,U1,47*%
X16000000Y-4600000D03*
%TO.P,U1,48*%
X15200000Y-4600000D03*
D30*
%TO.P,U1,49*%
X18020000Y-7520000D03*
D31*
X18020000Y-9500000D03*
X18020000Y-11480000D03*
X20000000Y-7530000D03*
X20000000Y-9500000D03*
X20000000Y-11480000D03*
X21970000Y-7530000D03*
X21970000Y-9500000D03*
X21970000Y-11480000D03*
D32*
%TO.P,U1,50*%
X25950000Y-4550000D03*
%TO.P,U1,51*%
X25950000Y-14450000D03*
%TO.P,U1,52*%
X14050000Y-14450000D03*
%TO.P,U1,53*%
X14050000Y-4550000D03*
%TD*%
D24*
%TO.P,R5,1*%
%TO.N,+3V3*%
X23175000Y-18000000D03*
%TO.P,R5,2*%
%TO.N,EN*%
X24825000Y-18000000D03*
%TD*%
D10*
%TO.P,TP4,1*%
%TO.N,UART_TX*%
X3000000Y-20000000D03*
%TD*%
D33*
%TO.P,C3,1*%
%TO.N,+3V3*%
X11550000Y-18000000D03*
%TO.P,C3,2*%
%TO.N,GND*%
X13450000Y-18000000D03*
%TD*%
D23*
%TO.P,C1,1*%
%TO.N,+5V*%
X6000000Y-27775000D03*
%TO.P,C1,2*%
%TO.N,GND*%
X6000000Y-26225000D03*
%TD*%
D10*
%TO.P,TP6,1*%
%TO.N,IO9*%
X38000000Y-18000000D03*
%TD*%
D24*
%TO.P,F1,1*%
%TO.N,VBUS*%
X9175000Y-30000000D03*
%TO.P,F1,2*%
%TO.N,+5V*%
X10825000Y-30000000D03*
%TD*%
D34*
%TO.P,R7,1*%
%TO.N,CC2*%
X21750000Y-32425000D03*
%TO.P,R7,2*%
%TO.N,GND*%
X21750000Y-30775000D03*
%TD*%
D35*
%TO.P,U2,1*%
%TO.N,+5V*%
X7300000Y-23950000D03*
%TO.P,U2,2*%
%TO.N,GND*%
X7300000Y-23000000D03*
%TO.P,U2,3*%
%TO.N,+5V*%
X7300000Y-22050000D03*
%TO.P,U2,4*%
%TO.N,N/C*%
X4700000Y-22050000D03*
%TO.P,U2,5*%
%TO.N,+3V3*%
X4700000Y-23950000D03*
%TD*%
D34*
%TO.P,R4,1*%
%TO.N,IO4*%
X26000000Y-26825000D03*
%TO.P,R4,2*%
%TO.N,WS_DIN*%
X26000000Y-25175000D03*
%TD*%
D36*
%TO.N,GND*%
X32922300Y-17944100D03*
%TO.N,EN*%
X18372100Y-16606800D03*
X16035100Y-11100000D03*
%TO.N,CC1*%
X18044700Y-30792700D03*
X18601600Y-35001800D03*
%TO.N,USB_DP*%
X29199500Y-11900000D03*
X29199500Y-30948900D03*
%TO.N,USB_DM*%
X19060300Y-32546900D03*
X19060300Y-12700000D03*
%TO.N,BTN*%
X24400000Y-13400000D03*
X27658400Y-9949200D03*
%TO.N,IO4*%
X19900300Y-15364200D03*
X24160900Y-26825000D03*
%TO.N,IO9*%
X24849100Y-15342800D03*
X27591000Y-15743400D03*
%TO.N,UART_TX*%
X18442900Y-6193600D03*
X11891800Y-15633800D03*
%TD*%
%TO.N,GND*%
D37*
X7727100Y-23000000D02*
X7300000Y-23000000D01*
X24000000Y-4600000D02*
X24000000Y-4249100D01*
X18020000Y-11480000D02*
X18020000Y-12506700D01*
X20800000Y-4249100D02*
X21150800Y-3898300D01*
X21150800Y-3898300D02*
X21600000Y-3898300D01*
X19550800Y-3898300D02*
X20000000Y-3898300D01*
X20975000Y-30000000D02*
X20975000Y-28435600D01*
X28330900Y-17944100D02*
X28275000Y-18000000D01*
X15670000Y-38770000D02*
X15670000Y-37568300D01*
X14701700Y-4398700D02*
X15200000Y-3900400D01*
X18030000Y-7530000D02*
X18020000Y-7520000D01*
X7917600Y-21374900D02*
X6667000Y-21374900D01*
X16800000Y-13799100D02*
X16800000Y-13699800D01*
X6000000Y-22041900D02*
X6000000Y-26225000D01*
X20800000Y-4600000D02*
X20800000Y-4249100D01*
X17683900Y-17091100D02*
X17683900Y-15985600D01*
X16000000Y-4249100D02*
X16350800Y-3898300D01*
X21398300Y-28012300D02*
X34432300Y-28012300D01*
X32922300Y-17944100D02*
X28330900Y-17944100D01*
X6000000Y-29225000D02*
X5180500Y-28405500D01*
X21970000Y-11480000D02*
X20000000Y-11480000D01*
X15550800Y-3898300D02*
X16000000Y-3898300D01*
X18400000Y-4249100D02*
X18400000Y-3898300D01*
X36676700Y-26994300D02*
X35045500Y-28625500D01*
X14050000Y-4550000D02*
X14325000Y-4550000D01*
X8203300Y-21660600D02*
X7917600Y-21374900D01*
X14050000Y-14450000D02*
X14050000Y-13798300D01*
X24000000Y-4249100D02*
X24800000Y-4249100D01*
X21398300Y-28012300D02*
X21398300Y-25650000D01*
X15670000Y-33830000D02*
X10605000Y-33830000D01*
X25950000Y-14450000D02*
X25950000Y-14775800D01*
X8379200Y-23225000D02*
X14000000Y-23225000D01*
X25298300Y-4396600D02*
X24800000Y-3898300D01*
X32243000Y-22807000D02*
X36470200Y-22807000D01*
X16775000Y-18000000D02*
X17683900Y-17091100D01*
X14100000Y-13500000D02*
X14801700Y-13500000D01*
X22400000Y-4249100D02*
X22750800Y-3898300D01*
X15200000Y-4600000D02*
X15200000Y-4249100D01*
X16800000Y-6300000D02*
X14801700Y-6300000D01*
X8154200Y-23000000D02*
X8379200Y-23225000D01*
X17600000Y-4249100D02*
X17600000Y-3898300D01*
X24800000Y-4249100D02*
X24800000Y-3898300D01*
X24800000Y-4600000D02*
X24800000Y-4249100D01*
X36676700Y-23013500D02*
X36676700Y-26994300D01*
X23200000Y-4249100D02*
X23200000Y-3898300D01*
X20000000Y-4249100D02*
X20350800Y-3898300D01*
X14801700Y-6300000D02*
X14801700Y-5500000D01*
X19505000Y-9500000D02*
X19010000Y-9500000D01*
X14701700Y-4550000D02*
X14701700Y-4398700D01*
X18400000Y-4600000D02*
X18400000Y-4249100D01*
X20000000Y-4600000D02*
X20000000Y-4249100D01*
X20000000Y-9500000D02*
X19505000Y-9500000D01*
X17600000Y-4600000D02*
X17600000Y-4249100D01*
X16800000Y-33830000D02*
X15670000Y-33830000D01*
X10605000Y-33830000D02*
X6000000Y-29225000D01*
X21600000Y-4249100D02*
X21600000Y-3898300D01*
X15200000Y-4249100D02*
X15550800Y-3898300D01*
X25950000Y-14775800D02*
X32567500Y-14775800D01*
X17683900Y-15985600D02*
X16800000Y-15101700D01*
X23741700Y-33288300D02*
X24330000Y-33288300D01*
X5180500Y-28405500D02*
X5180500Y-27044500D01*
X17993100Y-12506700D02*
X18020000Y-12506700D01*
X22750800Y-3898300D02*
X23200000Y-3898300D01*
X17950800Y-3898300D02*
X18400000Y-3898300D01*
X32567500Y-14775800D02*
X36273300Y-11070000D01*
X16800000Y-13699800D02*
X16800000Y-13698300D01*
X16000000Y-4600000D02*
X16000000Y-4249100D01*
X19505000Y-9500000D02*
X19505000Y-7530000D01*
X14325000Y-4550000D02*
X14100000Y-4775000D01*
X25298300Y-4550000D02*
X25298300Y-4396600D01*
X22450000Y-25650000D02*
X21398300Y-25650000D01*
X35045500Y-28625500D02*
X35500000Y-29080000D01*
X21970000Y-9500000D02*
X20000000Y-9500000D01*
X19010000Y-11480000D02*
X19010000Y-9500000D01*
X25950000Y-14775800D02*
X25950000Y-15000800D01*
X25950000Y-15100200D02*
X25950000Y-15101700D01*
X27665300Y-30312300D02*
X31000000Y-30312300D01*
X13825000Y-30000000D02*
X20975000Y-30000000D01*
X20000000Y-4249100D02*
X20000000Y-3898300D01*
X37100000Y-8930000D02*
X37926700Y-8930000D01*
X36470200Y-22807000D02*
X36676700Y-23013500D01*
X15670000Y-34590000D02*
X15670000Y-33939100D01*
X23200000Y-4249100D02*
X23550800Y-3898300D01*
X37100000Y-11070000D02*
X37926700Y-11070000D01*
X16350800Y-3898300D02*
X16800000Y-3898300D01*
X15670000Y-33939100D02*
X15670000Y-33830000D01*
X16800000Y-13698300D02*
X15000000Y-13698300D01*
X20800000Y-4249100D02*
X20800000Y-3898300D01*
X19010000Y-9500000D02*
X18020000Y-9500000D01*
X18400000Y-4249100D02*
X18750800Y-3898300D01*
X28275000Y-17426700D02*
X28275000Y-18000000D01*
X31000000Y-24050000D02*
X32243000Y-22807000D01*
X3000000Y-12000000D02*
X2190200Y-11190200D01*
X37100000Y-11070000D02*
X36273300Y-11070000D01*
X24000000Y-4249100D02*
X24000000Y-3898300D01*
X25950000Y-15101700D02*
X28275000Y-17426700D01*
X21600000Y-4600000D02*
X21600000Y-4249100D01*
X14100000Y-4775000D02*
X14100000Y-5500000D01*
X31000000Y-31150000D02*
X31000000Y-30312300D01*
X24330000Y-34590000D02*
X24330000Y-33647600D01*
X2190200Y-11190200D02*
X2190200Y-7653100D01*
X17150800Y-3898300D02*
X17600000Y-3898300D01*
X37926700Y-8930000D02*
X37926700Y-11070000D01*
X16800000Y-4600000D02*
X16800000Y-4249100D01*
X23200000Y-33830000D02*
X23741700Y-33288300D01*
X16800000Y-13699800D02*
X17993100Y-12506700D01*
X34432300Y-28012300D02*
X35045500Y-28625500D01*
X5180500Y-27044500D02*
X6000000Y-26225000D01*
X18750800Y-3898300D02*
X19200000Y-3898300D01*
X20000000Y-11480000D02*
X19010000Y-11480000D01*
X14801700Y-6300000D02*
X14100000Y-6300000D01*
X25066100Y-15985600D02*
X17683900Y-15985600D01*
X19010000Y-11480000D02*
X18020000Y-11480000D01*
X19505000Y-7530000D02*
X18030000Y-7530000D01*
X16800000Y-14400000D02*
X16800000Y-15101700D01*
X20350800Y-3898300D02*
X20800000Y-3898300D01*
X3543300Y-6300000D02*
X14100000Y-6300000D01*
X18020000Y-7520000D02*
X16800000Y-6300000D01*
X24330000Y-38770000D02*
X24330000Y-37568300D01*
X16000000Y-4249100D02*
X16000000Y-3898300D01*
X15670000Y-37568300D02*
X24330000Y-37568300D01*
X14254700Y-18804700D02*
X15970300Y-18804700D01*
X7940700Y-23000000D02*
X8203300Y-22737400D01*
X24330000Y-33647600D02*
X27665300Y-30312300D01*
X20975000Y-30000000D02*
X21750000Y-30775000D01*
X2190200Y-7653100D02*
X3543300Y-6300000D01*
X7727100Y-23000000D02*
X7940700Y-23000000D01*
X25950000Y-15101700D02*
X25066100Y-15985600D01*
X14050000Y-13798300D02*
X14100000Y-13748300D01*
X16800000Y-14150000D02*
X16800000Y-14400000D01*
X20000000Y-7530000D02*
X19505000Y-7530000D01*
X15970300Y-18804700D02*
X16775000Y-18000000D01*
X19200000Y-4249100D02*
X19550800Y-3898300D01*
X8203300Y-22737400D02*
X8203300Y-21660600D01*
X16800000Y-14150000D02*
X16800000Y-13799100D01*
X21970000Y-7530000D02*
X20000000Y-7530000D01*
X21600000Y-4249100D02*
X21950800Y-3898300D01*
X23550800Y-3898300D02*
X24000000Y-3898300D01*
X25950000Y-15000800D02*
X25950000Y-15100200D01*
X22400000Y-4249100D02*
X22400000Y-3898300D01*
X7940700Y-23000000D02*
X8154200Y-23000000D01*
X22400000Y-4600000D02*
X22400000Y-4249100D01*
X16800000Y-4249100D02*
X17150800Y-3898300D01*
X19200000Y-4600000D02*
X19200000Y-4249100D01*
X14325000Y-4550000D02*
X14701700Y-4550000D01*
X15000000Y-13698300D02*
X14801700Y-13500000D01*
X31000000Y-30312300D02*
X34267700Y-30312300D01*
X13450000Y-18000000D02*
X14254700Y-18804700D01*
X24330000Y-33647600D02*
X24330000Y-33288300D01*
X21950800Y-3898300D02*
X22400000Y-3898300D01*
X16800000Y-4249100D02*
X16800000Y-3898300D01*
X17600000Y-4249100D02*
X17950800Y-3898300D01*
X25950000Y-4550000D02*
X25298300Y-4550000D01*
X19200000Y-4249100D02*
X19200000Y-3898300D01*
X15200000Y-4249100D02*
X15200000Y-3900400D01*
X23200000Y-4600000D02*
X23200000Y-4249100D01*
X34267700Y-30312300D02*
X35500000Y-29080000D01*
X14100000Y-13748300D02*
X14100000Y-13500000D01*
X20975000Y-28435600D02*
X21398300Y-28012300D01*
X14100000Y-5500000D02*
X14801700Y-5500000D01*
X6667000Y-21374900D02*
X6000000Y-22041900D01*
%TO.N,LED5V*%
X16425000Y-21246700D02*
X15830000Y-20651700D01*
X14000000Y-24775000D02*
X16425000Y-22350000D01*
X16425000Y-22350000D02*
X16425000Y-21246700D01*
X15830000Y-20000000D02*
X15830000Y-20651700D01*
X16425000Y-22350000D02*
X17550000Y-22350000D01*
%TO.N,WS_DOUT*%
X19403400Y-24848300D02*
X24339500Y-24848300D01*
X30191400Y-26785100D02*
X35254900Y-26785100D01*
X35254900Y-26785100D02*
X35500000Y-26540000D01*
X29406300Y-26000000D02*
X30191400Y-26785100D01*
X25491200Y-26000000D02*
X29406300Y-26000000D01*
X18601700Y-25650000D02*
X19403400Y-24848300D01*
X17550000Y-25650000D02*
X18601700Y-25650000D01*
X24339500Y-24848300D02*
X25491200Y-26000000D01*
%TO.N,WS_DIN*%
X22450000Y-22350000D02*
X23501700Y-22350000D01*
X26000000Y-25175000D02*
X23501700Y-22676700D01*
X23501700Y-22676700D02*
X23501700Y-22350000D01*
%TO.N,+5V*%
X35500000Y-24000000D02*
X34348300Y-24000000D01*
X6938000Y-26837000D02*
X6938000Y-23950000D01*
X18170000Y-20000000D02*
X18170000Y-20325800D01*
X18170000Y-20325800D02*
X25375800Y-20325800D01*
X32950000Y-24000000D02*
X34348300Y-24000000D01*
X6900600Y-22050000D02*
X7300000Y-22050000D01*
X12712800Y-27775000D02*
X16039700Y-24448100D01*
X7300000Y-23950000D02*
X6938000Y-23950000D01*
X17159900Y-24448100D02*
X18601700Y-23006300D01*
X10825000Y-27775000D02*
X12712800Y-27775000D01*
X18601700Y-23006300D02*
X18601700Y-20757500D01*
X25375800Y-20325800D02*
X31000000Y-25950000D01*
X16039700Y-24448100D02*
X17159900Y-24448100D01*
X31000000Y-25950000D02*
X32950000Y-24000000D01*
X6938000Y-23950000D02*
X6445800Y-23457800D01*
X6000000Y-27775000D02*
X6938000Y-26837000D01*
X10825000Y-27775000D02*
X10825000Y-30000000D01*
X6445800Y-23457800D02*
X6445800Y-22504800D01*
X6000000Y-27775000D02*
X10825000Y-27775000D01*
X6445800Y-22504800D02*
X6900600Y-22050000D01*
X18601700Y-20757500D02*
X18170000Y-20325800D01*
%TO.N,+3V3*%
X5554200Y-24409500D02*
X4778800Y-25184900D01*
X12497500Y-8000000D02*
X3000000Y-8000000D01*
X12497500Y-16931100D02*
X14156100Y-16931100D01*
X21968600Y-19206400D02*
X12756400Y-19206400D01*
X23175000Y-18000000D02*
X21968600Y-19206400D01*
X4778800Y-25184900D02*
X4778800Y-29553800D01*
X13397500Y-7100000D02*
X14100000Y-7100000D01*
X11550000Y-18000000D02*
X7459800Y-18000000D01*
X4700000Y-23950000D02*
X4956500Y-23950000D01*
X12497500Y-8000000D02*
X13397500Y-7100000D01*
X3845800Y-22839300D02*
X4956500Y-23950000D01*
X5554200Y-23950000D02*
X5554200Y-24409500D01*
X12497500Y-17052500D02*
X12497500Y-16931100D01*
X14156100Y-16931100D02*
X15225000Y-18000000D01*
X11550000Y-18000000D02*
X12497500Y-17052500D01*
X4778800Y-29553800D02*
X6000000Y-30775000D01*
X3845800Y-21614000D02*
X3845800Y-22839300D01*
X7459800Y-18000000D02*
X3845800Y-21614000D01*
X12756400Y-19206400D02*
X11550000Y-18000000D01*
X12497500Y-16931100D02*
X12497500Y-8000000D01*
X4956500Y-23950000D02*
X5554200Y-23950000D01*
%TO.N,EN*%
X38000000Y-6000000D02*
X38848500Y-6848500D01*
X38848500Y-6848500D02*
X38848500Y-18317300D01*
X38848500Y-18317300D02*
X38305500Y-18860300D01*
X24825000Y-18000000D02*
X26725000Y-18000000D01*
X27585300Y-18860300D02*
X26725000Y-18000000D01*
X23431800Y-16606800D02*
X24825000Y-18000000D01*
X38305500Y-18860300D02*
X27585300Y-18860300D01*
X14100000Y-11100000D02*
X16035100Y-11100000D01*
X18372100Y-16606800D02*
X23431800Y-16606800D01*
%TO.N,VBUS*%
X22749800Y-32826700D02*
X22400000Y-33176500D01*
X17600000Y-33014300D02*
X18943600Y-31670700D01*
X17600000Y-33014300D02*
X16850300Y-32264600D01*
X11439600Y-32264600D02*
X9175000Y-30000000D01*
X22400000Y-33176500D02*
X22400000Y-33830000D01*
X31000000Y-28850000D02*
X31000000Y-29687700D01*
X22195500Y-31670700D02*
X22749800Y-32225000D01*
X17600000Y-33830000D02*
X17600000Y-33014300D01*
X22749800Y-32225000D02*
X22749800Y-32826700D01*
X25287100Y-29687700D02*
X31000000Y-29687700D01*
X18943600Y-31670700D02*
X22195500Y-31670700D01*
X16850300Y-32264600D02*
X11439600Y-32264600D01*
X22749800Y-32225000D02*
X25287100Y-29687700D01*
%TO.N,CC1*%
X12175000Y-30000000D02*
X12967700Y-30792700D01*
X12967700Y-30792700D02*
X18044700Y-30792700D01*
X18750000Y-34853400D02*
X18601600Y-35001800D01*
X18750000Y-33830000D02*
X18750000Y-34853400D01*
%TO.N,USB_DP*%
X30050000Y-31150000D02*
X30050000Y-31987700D01*
X19750000Y-33830000D02*
X19750000Y-32878300D01*
X29199500Y-30948900D02*
X29848900Y-30948900D01*
X20750000Y-32878300D02*
X19750000Y-32878300D01*
X20750000Y-33830000D02*
X20750000Y-32878300D01*
X22224600Y-36039900D02*
X20750000Y-34565300D01*
X25997800Y-36039900D02*
X22224600Y-36039900D01*
X30050000Y-31987700D02*
X25997800Y-36039900D01*
X25900000Y-11900000D02*
X29199500Y-11900000D01*
X29848900Y-30948900D02*
X30050000Y-31150000D01*
X20750000Y-34565300D02*
X20750000Y-33830000D01*
%TO.N,USB_DM*%
X27496100Y-36441600D02*
X31950000Y-31987700D01*
X25900000Y-12700000D02*
X19060300Y-12700000D01*
X20250000Y-34781700D02*
X21909900Y-36441600D01*
X19250000Y-34781700D02*
X20248500Y-34781700D01*
X20248500Y-34781700D02*
X20250000Y-34780200D01*
X19250000Y-33830000D02*
X19250000Y-32736600D01*
X20250000Y-34780200D02*
X20250000Y-34781700D01*
X20250000Y-33830000D02*
X20250000Y-34780200D01*
X19250000Y-33830000D02*
X19250000Y-34781700D01*
X19250000Y-32736600D02*
X19060300Y-32546900D01*
X21909900Y-36441600D02*
X27496100Y-36441600D01*
X31950000Y-31150000D02*
X31950000Y-31987700D01*
%TO.N,CC2*%
X21750000Y-33830000D02*
X21750000Y-32424999D01*
%TO.N,BTN*%
X24101700Y-13698300D02*
X24400000Y-13400000D01*
X32486700Y-11070000D02*
X32073300Y-10656600D01*
X32900000Y-11070000D02*
X32486700Y-11070000D01*
X32900000Y-8930000D02*
X32073300Y-8930000D01*
X32073300Y-9949200D02*
X32073300Y-8930000D01*
X32073300Y-10656600D02*
X32073300Y-9949200D01*
X18400000Y-13698300D02*
X24101700Y-13698300D01*
X18400000Y-14400000D02*
X18400000Y-13698300D01*
X27658400Y-9949200D02*
X32073300Y-9949200D01*
%TO.N,UART_RX*%
X1775000Y-7500100D02*
X1775000Y-14775000D01*
X26601700Y-9500000D02*
X26601700Y-4047600D01*
X26050700Y-3496600D02*
X5778500Y-3496600D01*
X25900000Y-9500000D02*
X26601700Y-9500000D01*
X1775000Y-14775000D02*
X3000000Y-16000000D01*
X26601700Y-4047600D02*
X26050700Y-3496600D01*
X5778500Y-3496600D02*
X1775000Y-7500100D01*
%TO.N,IO4*%
X26000000Y-26825000D02*
X24160900Y-26825000D01*
X20000000Y-14400000D02*
X20000000Y-15264500D01*
X20000000Y-15264500D02*
X19900300Y-15364200D01*
%TO.N,IO9*%
X24000000Y-15101700D02*
X24608000Y-15101700D01*
X27591000Y-15743400D02*
X35743400Y-15743400D01*
X24608000Y-15101700D02*
X24849100Y-15342800D01*
X24000000Y-14400000D02*
X24000000Y-15101700D01*
X35743400Y-15743400D02*
X38000000Y-18000000D01*
%TO.N,UART_TX*%
X22691900Y-6193600D02*
X18442900Y-6193600D01*
X7366200Y-15633800D02*
X3000000Y-20000000D01*
X25900000Y-8700000D02*
X25198300Y-8700000D01*
X11891800Y-15633800D02*
X7366200Y-15633800D01*
X25198300Y-8700000D02*
X22691900Y-6193600D01*
%TD*%
%TA.AperFunction,Conductor*%
%TO.N,GND*%
G36*
X5959191Y-718907D02*
G01*
X5995155Y-768407D01*
X6000000Y-799000D01*
X6000000Y-2800000D01*
X6000001Y-2800000D01*
X33999999Y-2800000D01*
X34000000Y-2800000D01*
X34000000Y-799000D01*
X34018907Y-740809D01*
X34068407Y-704845D01*
X34099000Y-700000D01*
X39201000Y-700000D01*
X39259191Y-718907D01*
X39295155Y-768407D01*
X39300000Y-799000D01*
X39300000Y-6494599D01*
X39281093Y-6552790D01*
X39231593Y-6588754D01*
X39170407Y-6588754D01*
X39130996Y-6564603D01*
X38812156Y-6245763D01*
X38784379Y-6191246D01*
X38785061Y-6156451D01*
X38800500Y-6078842D01*
X38800500Y-5921158D01*
X38769737Y-5766503D01*
X38717597Y-5640624D01*
X38709396Y-5620825D01*
X38709390Y-5620814D01*
X38674017Y-5567876D01*
X38621789Y-5489711D01*
X38510289Y-5378211D01*
X38458059Y-5343312D01*
X38379185Y-5290609D01*
X38379174Y-5290603D01*
X38233497Y-5230263D01*
X38078844Y-5199500D01*
X38078842Y-5199500D01*
X37921158Y-5199500D01*
X37921155Y-5199500D01*
X37766503Y-5230263D01*
X37766501Y-5230263D01*
X37620825Y-5290603D01*
X37620814Y-5290609D01*
X37489711Y-5378211D01*
X37489707Y-5378214D01*
X37378214Y-5489707D01*
X37378211Y-5489711D01*
X37290609Y-5620814D01*
X37290603Y-5620825D01*
X37230263Y-5766501D01*
X37230263Y-5766503D01*
X37199500Y-5921155D01*
X37199500Y-6078844D01*
X37230263Y-6233496D01*
X37230263Y-6233498D01*
X37290603Y-6379174D01*
X37290609Y-6379185D01*
X37321479Y-6425384D01*
X37378211Y-6510289D01*
X37489711Y-6621789D01*
X37546916Y-6660012D01*
X37620814Y-6709390D01*
X37620825Y-6709396D01*
X37662826Y-6726793D01*
X37766503Y-6769737D01*
X37921158Y-6800500D01*
X37921159Y-6800500D01*
X38078836Y-6800500D01*
X38078842Y-6800500D01*
X38156448Y-6785062D01*
X38217205Y-6792253D01*
X38245763Y-6812156D01*
X38419004Y-6985397D01*
X38446781Y-7039914D01*
X38448000Y-7055401D01*
X38448000Y-17170948D01*
X38429093Y-17229139D01*
X38379593Y-17265103D01*
X38318407Y-17265103D01*
X38311116Y-17262413D01*
X38233495Y-17230262D01*
X38078844Y-17199500D01*
X38078842Y-17199500D01*
X37921158Y-17199500D01*
X37921152Y-17199500D01*
X37843552Y-17214936D01*
X37782791Y-17207744D01*
X37754235Y-17187842D01*
X36895912Y-16329519D01*
X35989313Y-15422920D01*
X35989310Y-15422918D01*
X35989309Y-15422917D01*
X35989308Y-15422916D01*
X35897991Y-15370194D01*
X35897993Y-15370194D01*
X35858470Y-15359604D01*
X35796127Y-15342900D01*
X35796125Y-15342900D01*
X28080744Y-15342900D01*
X28022553Y-15323993D01*
X28010741Y-15313904D01*
X27959718Y-15262882D01*
X27959716Y-15262880D01*
X27822784Y-15183823D01*
X27670057Y-15142900D01*
X27511943Y-15142900D01*
X27359216Y-15183823D01*
X27222284Y-15262880D01*
X27110480Y-15374684D01*
X27031423Y-15511616D01*
X26990500Y-15664343D01*
X26990500Y-15822457D01*
X27031423Y-15975184D01*
X27110480Y-16112116D01*
X27222284Y-16223920D01*
X27359216Y-16302977D01*
X27511943Y-16343900D01*
X27511945Y-16343900D01*
X27670055Y-16343900D01*
X27670057Y-16343900D01*
X27822784Y-16302977D01*
X27959716Y-16223920D01*
X27996243Y-16187393D01*
X28010741Y-16172896D01*
X28065258Y-16145119D01*
X28080744Y-16143900D01*
X35536499Y-16143900D01*
X35594690Y-16162807D01*
X35606503Y-16172896D01*
X37187842Y-17754235D01*
X37215619Y-17808752D01*
X37214936Y-17843552D01*
X37199500Y-17921152D01*
X37199500Y-18078844D01*
X37230263Y-18233496D01*
X37230263Y-18233498D01*
X37237099Y-18250001D01*
X37267283Y-18322873D01*
X37267301Y-18322915D01*
X37272102Y-18383911D01*
X37240132Y-18436080D01*
X37183604Y-18459495D01*
X37175837Y-18459800D01*
X29318132Y-18459800D01*
X29259941Y-18440893D01*
X29223977Y-18391393D01*
X29219645Y-18350738D01*
X29225000Y-18298323D01*
X29225000Y-18250001D01*
X29224999Y-18250000D01*
X28374000Y-18250000D01*
X28315809Y-18231093D01*
X28279845Y-18181593D01*
X28275000Y-18151000D01*
X28275000Y-18000001D01*
X28274999Y-18000000D01*
X28124000Y-18000000D01*
X28065809Y-17981093D01*
X28029845Y-17931593D01*
X28025000Y-17901000D01*
X28025000Y-17025001D01*
X28525000Y-17025001D01*
X28525000Y-17749999D01*
X28525001Y-17750000D01*
X29224998Y-17750000D01*
X29224999Y-17749999D01*
X29224999Y-17701677D01*
X29214857Y-17602402D01*
X29214854Y-17602390D01*
X29161545Y-17441512D01*
X29072574Y-17297270D01*
X28952729Y-17177425D01*
X28808487Y-17088454D01*
X28647603Y-17035143D01*
X28548323Y-17025000D01*
X28525001Y-17025000D01*
X28525000Y-17025001D01*
X28025000Y-17025001D01*
X28025000Y-17025000D01*
X28024999Y-17024999D01*
X28001689Y-17025000D01*
X28001684Y-17025001D01*
X27902401Y-17035142D01*
X27902390Y-17035145D01*
X27741512Y-17088454D01*
X27597270Y-17177425D01*
X27477426Y-17297269D01*
X27453465Y-17336114D01*
X27406822Y-17375714D01*
X27345812Y-17380335D01*
X27309388Y-17363024D01*
X27209975Y-17287636D01*
X27209972Y-17287634D01*
X27075591Y-17234641D01*
X26991148Y-17224500D01*
X26991144Y-17224500D01*
X26458856Y-17224500D01*
X26458851Y-17224500D01*
X26374408Y-17234641D01*
X26240027Y-17287634D01*
X26175470Y-17336590D01*
X26124922Y-17374922D01*
X26043215Y-17482669D01*
X26037634Y-17490028D01*
X26019182Y-17536819D01*
X25980245Y-17584016D01*
X25927085Y-17599500D01*
X25581108Y-17599500D01*
X25522917Y-17580593D01*
X25488350Y-17535098D01*
X25468796Y-17482669D01*
X25468215Y-17481893D01*
X25382549Y-17367458D01*
X25382548Y-17367457D01*
X25382546Y-17367454D01*
X25376627Y-17363023D01*
X25267329Y-17281202D01*
X25132488Y-17230910D01*
X25132483Y-17230909D01*
X25132481Y-17230908D01*
X25132477Y-17230908D01*
X25101249Y-17227550D01*
X25072873Y-17224500D01*
X25072870Y-17224500D01*
X24656901Y-17224500D01*
X24598710Y-17205593D01*
X24586897Y-17195504D01*
X24161129Y-16769736D01*
X23677713Y-16286320D01*
X23677710Y-16286318D01*
X23677709Y-16286317D01*
X23677708Y-16286316D01*
X23586391Y-16233594D01*
X23586393Y-16233594D01*
X23546870Y-16223004D01*
X23484527Y-16206300D01*
X23484525Y-16206300D01*
X18861844Y-16206300D01*
X18803653Y-16187393D01*
X18791841Y-16177304D01*
X18740818Y-16126282D01*
X18740816Y-16126280D01*
X18603884Y-16047223D01*
X18451157Y-16006300D01*
X18293043Y-16006300D01*
X18140316Y-16047223D01*
X18003384Y-16126280D01*
X17891580Y-16238084D01*
X17812523Y-16375016D01*
X17771600Y-16527743D01*
X17771600Y-16685857D01*
X17812523Y-16838584D01*
X17891580Y-16975516D01*
X18003384Y-17087320D01*
X18140316Y-17166377D01*
X18293043Y-17207300D01*
X18293045Y-17207300D01*
X18451155Y-17207300D01*
X18451157Y-17207300D01*
X18603884Y-17166377D01*
X18740816Y-17087320D01*
X18772640Y-17055496D01*
X18791841Y-17036296D01*
X18846358Y-17008519D01*
X18861844Y-17007300D01*
X23224899Y-17007300D01*
X23232496Y-17009768D01*
X23240386Y-17008519D01*
X23261041Y-17019043D01*
X23283090Y-17026207D01*
X23294903Y-17036296D01*
X23314103Y-17055496D01*
X23341880Y-17110013D01*
X23332309Y-17170445D01*
X23289044Y-17213710D01*
X23244099Y-17224500D01*
X22927133Y-17224500D01*
X22927129Y-17224500D01*
X22927128Y-17224501D01*
X22920067Y-17225260D01*
X22867519Y-17230908D01*
X22867514Y-17230909D01*
X22732670Y-17281202D01*
X22617458Y-17367450D01*
X22617450Y-17367458D01*
X22531202Y-17482670D01*
X22480910Y-17617511D01*
X22480908Y-17617522D01*
X22474500Y-17677129D01*
X22474500Y-18093098D01*
X22455593Y-18151289D01*
X22445504Y-18163102D01*
X21831703Y-18776904D01*
X21777186Y-18804681D01*
X21761699Y-18805900D01*
X17686320Y-18805900D01*
X17628129Y-18786993D01*
X17592165Y-18737493D01*
X17592165Y-18676307D01*
X17602060Y-18654927D01*
X17661545Y-18558487D01*
X17714856Y-18397603D01*
X17725000Y-18298323D01*
X17725000Y-18250001D01*
X17724999Y-18250000D01*
X16874000Y-18250000D01*
X16815809Y-18231093D01*
X16779845Y-18181593D01*
X16775000Y-18151000D01*
X16775000Y-18000001D01*
X16774999Y-18000000D01*
X16624000Y-18000000D01*
X16565809Y-17981093D01*
X16529845Y-17931593D01*
X16525000Y-17901000D01*
X16525000Y-17025001D01*
X17025000Y-17025001D01*
X17025000Y-17749999D01*
X17025001Y-17750000D01*
X17724998Y-17750000D01*
X17724999Y-17749999D01*
X17724999Y-17701677D01*
X17714857Y-17602402D01*
X17714854Y-17602390D01*
X17661545Y-17441512D01*
X17572574Y-17297270D01*
X17452729Y-17177425D01*
X17308487Y-17088454D01*
X17147603Y-17035143D01*
X17048323Y-17025000D01*
X17025001Y-17025000D01*
X17025000Y-17025001D01*
X16525000Y-17025001D01*
X16525000Y-17025000D01*
X16524999Y-17024999D01*
X16501689Y-17025000D01*
X16501684Y-17025001D01*
X16402401Y-17035142D01*
X16402390Y-17035145D01*
X16241512Y-17088454D01*
X16097270Y-17177425D01*
X15977426Y-17297269D01*
X15953465Y-17336114D01*
X15906822Y-17375714D01*
X15845812Y-17380335D01*
X15809388Y-17363024D01*
X15709975Y-17287636D01*
X15709972Y-17287634D01*
X15575591Y-17234641D01*
X15491148Y-17224500D01*
X15491144Y-17224500D01*
X15056901Y-17224500D01*
X14998710Y-17205593D01*
X14986897Y-17195504D01*
X14695183Y-16903790D01*
X14402013Y-16610620D01*
X14402010Y-16610618D01*
X14402009Y-16610617D01*
X14402008Y-16610616D01*
X14310691Y-16557894D01*
X14310693Y-16557894D01*
X14271170Y-16547304D01*
X14208827Y-16530600D01*
X14208825Y-16530600D01*
X12997000Y-16530600D01*
X12938809Y-16511693D01*
X12902845Y-16462193D01*
X12898000Y-16431600D01*
X12898000Y-14847824D01*
X13199999Y-14847824D01*
X13206401Y-14907370D01*
X13206403Y-14907381D01*
X13256646Y-15042088D01*
X13256647Y-15042090D01*
X13342807Y-15157184D01*
X13342815Y-15157192D01*
X13457909Y-15243352D01*
X13457911Y-15243353D01*
X13592618Y-15293596D01*
X13592629Y-15293598D01*
X13652176Y-15300000D01*
X13799999Y-15300000D01*
X13800000Y-15299999D01*
X13800000Y-14700001D01*
X13799999Y-14700000D01*
X13200001Y-14700000D01*
X13200000Y-14700001D01*
X13200000Y-14847824D01*
X13199999Y-14847824D01*
X12898000Y-14847824D01*
X12898000Y-13747824D01*
X13199999Y-13747824D01*
X13206401Y-13807370D01*
X13206402Y-13807377D01*
X13228045Y-13865405D01*
X13230664Y-13926534D01*
X13228045Y-13934595D01*
X13206402Y-13992622D01*
X13206401Y-13992629D01*
X13200000Y-14052175D01*
X13200000Y-14199999D01*
X13200001Y-14200000D01*
X13951000Y-14200000D01*
X14009191Y-14218907D01*
X14045155Y-14268407D01*
X14050000Y-14299000D01*
X14050000Y-14449999D01*
X14050001Y-14450000D01*
X14201000Y-14450000D01*
X14259191Y-14468907D01*
X14295155Y-14518407D01*
X14300000Y-14549000D01*
X14300000Y-15299999D01*
X14300001Y-15300000D01*
X14447824Y-15300000D01*
X14507370Y-15293598D01*
X14507381Y-15293596D01*
X14642088Y-15243353D01*
X14642090Y-15243352D01*
X14757184Y-15157192D01*
X14757190Y-15157186D01*
X14786459Y-15118088D01*
X14836467Y-15082834D01*
X14897647Y-15083708D01*
X14905693Y-15086848D01*
X14930009Y-15097585D01*
X14955135Y-15100500D01*
X15444864Y-15100499D01*
X15469991Y-15097585D01*
X15560012Y-15057836D01*
X15620881Y-15051628D01*
X15639979Y-15057833D01*
X15730009Y-15097585D01*
X15755135Y-15100500D01*
X16150816Y-15100499D01*
X16209007Y-15119406D01*
X16230068Y-15140168D01*
X16242810Y-15157188D01*
X16357909Y-15243352D01*
X16357911Y-15243353D01*
X16492618Y-15293596D01*
X16492629Y-15293598D01*
X16552176Y-15300000D01*
X16599999Y-15300000D01*
X16600000Y-15299999D01*
X16600000Y-13500001D01*
X16599999Y-13500000D01*
X16552176Y-13500000D01*
X16492629Y-13506401D01*
X16492618Y-13506403D01*
X16357911Y-13556646D01*
X16357909Y-13556647D01*
X16242815Y-13642807D01*
X16242807Y-13642815D01*
X16230068Y-13659832D01*
X16180058Y-13695083D01*
X16150817Y-13699500D01*
X15755139Y-13699500D01*
X15755136Y-13699501D01*
X15730009Y-13702414D01*
X15639987Y-13742163D01*
X15579117Y-13748371D01*
X15560014Y-13742164D01*
X15469991Y-13702415D01*
X15469990Y-13702414D01*
X15469988Y-13702414D01*
X15444868Y-13699500D01*
X14955139Y-13699500D01*
X14952286Y-13699666D01*
X14952281Y-13699586D01*
X14945113Y-13700000D01*
X13200001Y-13700000D01*
X13200000Y-13700001D01*
X13200000Y-13747818D01*
X13199999Y-13747824D01*
X12898000Y-13747824D01*
X12898000Y-8206900D01*
X12916907Y-8148709D01*
X12926996Y-8136897D01*
X13073939Y-7989954D01*
X13230496Y-7833395D01*
X13285013Y-7805618D01*
X13345445Y-7815189D01*
X13388710Y-7858454D01*
X13399500Y-7903399D01*
X13399500Y-8144860D01*
X13399501Y-8144863D01*
X13402414Y-8169990D01*
X13442163Y-8260012D01*
X13448371Y-8320882D01*
X13442163Y-8339987D01*
X13402415Y-8430009D01*
X13402414Y-8430011D01*
X13399500Y-8455130D01*
X13399500Y-8944860D01*
X13399501Y-8944863D01*
X13402414Y-8969990D01*
X13442163Y-9060012D01*
X13448371Y-9120882D01*
X13442163Y-9139987D01*
X13402415Y-9230009D01*
X13402414Y-9230011D01*
X13399500Y-9255130D01*
X13399500Y-9744860D01*
X13399501Y-9744863D01*
X13402414Y-9769990D01*
X13442163Y-9860012D01*
X13448371Y-9920882D01*
X13442163Y-9939987D01*
X13402415Y-10030009D01*
X13402414Y-10030011D01*
X13399500Y-10055130D01*
X13399500Y-10544860D01*
X13399501Y-10544863D01*
X13402414Y-10569990D01*
X13442163Y-10660012D01*
X13448371Y-10720882D01*
X13442163Y-10739987D01*
X13402415Y-10830009D01*
X13402414Y-10830011D01*
X13399500Y-10855130D01*
X13399500Y-11344860D01*
X13399501Y-11344863D01*
X13402414Y-11369990D01*
X13442163Y-11460012D01*
X13448371Y-11520882D01*
X13442163Y-11539987D01*
X13402415Y-11630009D01*
X13402414Y-11630011D01*
X13399500Y-11655130D01*
X13399500Y-12144860D01*
X13399501Y-12144863D01*
X13402414Y-12169990D01*
X13442163Y-12260012D01*
X13448371Y-12320882D01*
X13442163Y-12339987D01*
X13402415Y-12430009D01*
X13402414Y-12430011D01*
X13399500Y-12455130D01*
X13399500Y-12850817D01*
X13380593Y-12909008D01*
X13359832Y-12930068D01*
X13342814Y-12942808D01*
X13342807Y-12942815D01*
X13256647Y-13057909D01*
X13256646Y-13057911D01*
X13206403Y-13192618D01*
X13206401Y-13192629D01*
X13200000Y-13252175D01*
X13200000Y-13299999D01*
X13200001Y-13300000D01*
X14999999Y-13300000D01*
X15000000Y-13299999D01*
X15000000Y-13252175D01*
X14993598Y-13192629D01*
X14993596Y-13192618D01*
X14943353Y-13057911D01*
X14943352Y-13057909D01*
X14857192Y-12942815D01*
X14857183Y-12942806D01*
X14840169Y-12930069D01*
X14804917Y-12880060D01*
X14800499Y-12850822D01*
X14800499Y-12455136D01*
X14797585Y-12430009D01*
X14757835Y-12339985D01*
X14751628Y-12279118D01*
X14757834Y-12260017D01*
X14761010Y-12252824D01*
X16794999Y-12252824D01*
X16801401Y-12312370D01*
X16801403Y-12312381D01*
X16851646Y-12447088D01*
X16851647Y-12447090D01*
X16937807Y-12562184D01*
X16937815Y-12562192D01*
X17052909Y-12648352D01*
X17052911Y-12648353D01*
X17187618Y-12698596D01*
X17187629Y-12698598D01*
X17247176Y-12705000D01*
X17769999Y-12705000D01*
X17770000Y-12704999D01*
X17770000Y-11730001D01*
X17769999Y-11730000D01*
X16795001Y-11730000D01*
X16795000Y-11730001D01*
X16795000Y-12252824D01*
X16794999Y-12252824D01*
X14761010Y-12252824D01*
X14797585Y-12169991D01*
X14800500Y-12144865D01*
X14800499Y-11655136D01*
X14797585Y-11630009D01*
X14797583Y-11630006D01*
X14796356Y-11625491D01*
X14799323Y-11564378D01*
X14837644Y-11516680D01*
X14891883Y-11500500D01*
X15545356Y-11500500D01*
X15603547Y-11519407D01*
X15615359Y-11529496D01*
X15643913Y-11558049D01*
X15666384Y-11580520D01*
X15803316Y-11659577D01*
X15956043Y-11700500D01*
X15956045Y-11700500D01*
X16114155Y-11700500D01*
X16114157Y-11700500D01*
X16266884Y-11659577D01*
X16403816Y-11580520D01*
X16515620Y-11468716D01*
X16594677Y-11331784D01*
X16614140Y-11259146D01*
X16647461Y-11207835D01*
X16704583Y-11185908D01*
X16763683Y-11201743D01*
X16779769Y-11214768D01*
X16795001Y-11230000D01*
X17769999Y-11230000D01*
X17770000Y-11229999D01*
X17770000Y-9750001D01*
X18270000Y-9750001D01*
X18270000Y-11229999D01*
X18270001Y-11230000D01*
X19749999Y-11230000D01*
X19750000Y-11229999D01*
X19750000Y-9750001D01*
X20250000Y-9750001D01*
X20250000Y-11229999D01*
X20250001Y-11230000D01*
X21719999Y-11230000D01*
X21720000Y-11229999D01*
X21720000Y-9750001D01*
X22220000Y-9750001D01*
X22220000Y-11229999D01*
X22220001Y-11230000D01*
X23194999Y-11230000D01*
X23195000Y-11229999D01*
X23195000Y-10707175D01*
X23188598Y-10647629D01*
X23188596Y-10647621D01*
X23142711Y-10524597D01*
X23140091Y-10463468D01*
X23142711Y-10455403D01*
X23188596Y-10332378D01*
X23188598Y-10332370D01*
X23195000Y-10272824D01*
X23195000Y-9750001D01*
X23194999Y-9750000D01*
X22220001Y-9750000D01*
X22220000Y-9750001D01*
X21720000Y-9750001D01*
X21719999Y-9750000D01*
X20250001Y-9750000D01*
X20250000Y-9750001D01*
X19750000Y-9750001D01*
X19749999Y-9750000D01*
X18270001Y-9750000D01*
X18270000Y-9750001D01*
X17770000Y-9750001D01*
X17769999Y-9750000D01*
X16795001Y-9750000D01*
X16795000Y-9750001D01*
X16795000Y-10272824D01*
X16794999Y-10272824D01*
X16801401Y-10332370D01*
X16801403Y-10332381D01*
X16847288Y-10455404D01*
X16849908Y-10516533D01*
X16847288Y-10524596D01*
X16801403Y-10647618D01*
X16801401Y-10647629D01*
X16795000Y-10707175D01*
X16795000Y-10863852D01*
X16776093Y-10922043D01*
X16726593Y-10958007D01*
X16665407Y-10958007D01*
X16615907Y-10922043D01*
X16600374Y-10889478D01*
X16594677Y-10868216D01*
X16515620Y-10731284D01*
X16403816Y-10619480D01*
X16266884Y-10540423D01*
X16114157Y-10499500D01*
X15956043Y-10499500D01*
X15803316Y-10540423D01*
X15678251Y-10612629D01*
X15666381Y-10619482D01*
X15615359Y-10670504D01*
X15560842Y-10698281D01*
X15545356Y-10699500D01*
X14891883Y-10699500D01*
X14833692Y-10680593D01*
X14797728Y-10631093D01*
X14796355Y-10574510D01*
X14797581Y-10569999D01*
X14797585Y-10569991D01*
X14800500Y-10544865D01*
X14800499Y-10055136D01*
X14797585Y-10030009D01*
X14757835Y-9939985D01*
X14751628Y-9879118D01*
X14757834Y-9860017D01*
X14797585Y-9769991D01*
X14800500Y-9744865D01*
X14800499Y-9255136D01*
X14797585Y-9230009D01*
X14757835Y-9139985D01*
X14751628Y-9079118D01*
X14757834Y-9060017D01*
X14797585Y-8969991D01*
X14800500Y-8944865D01*
X14800499Y-8455136D01*
X14797585Y-8430009D01*
X14757835Y-8339985D01*
X14751628Y-8279118D01*
X14757834Y-8260017D01*
X14797585Y-8169991D01*
X14800500Y-8144865D01*
X14800499Y-7655136D01*
X14797585Y-7630009D01*
X14757835Y-7539985D01*
X14751628Y-7479118D01*
X14757834Y-7460017D01*
X14797585Y-7369991D01*
X14800500Y-7344865D01*
X14800499Y-6949181D01*
X14819406Y-6890991D01*
X14840171Y-6869928D01*
X14857186Y-6857190D01*
X14857192Y-6857184D01*
X14943352Y-6742090D01*
X14943353Y-6742088D01*
X14993596Y-6607381D01*
X14993598Y-6607370D01*
X15000000Y-6547824D01*
X15000000Y-6500001D01*
X14999999Y-6500000D01*
X13200001Y-6500000D01*
X13200000Y-6500001D01*
X13200000Y-6547824D01*
X13199999Y-6547824D01*
X13206401Y-6607370D01*
X13206402Y-6607377D01*
X13220255Y-6644518D01*
X13222874Y-6705647D01*
X13189062Y-6756641D01*
X13176997Y-6764849D01*
X13151589Y-6779518D01*
X12360603Y-7570504D01*
X12306086Y-7598281D01*
X12290599Y-7599500D01*
X3748064Y-7599500D01*
X3689873Y-7580593D01*
X3665749Y-7555502D01*
X3621789Y-7489711D01*
X3510289Y-7378211D01*
X3458059Y-7343312D01*
X3379185Y-7290609D01*
X3379174Y-7290603D01*
X3233497Y-7230263D01*
X3078844Y-7199500D01*
X3078842Y-7199500D01*
X2921158Y-7199500D01*
X2921150Y-7199500D01*
X2892763Y-7205147D01*
X2832002Y-7197955D01*
X2787073Y-7156421D01*
X2775137Y-7096411D01*
X2800754Y-7040847D01*
X2803422Y-7038070D01*
X4093669Y-5747824D01*
X13199999Y-5747824D01*
X13206401Y-5807370D01*
X13206402Y-5807377D01*
X13228045Y-5865405D01*
X13230664Y-5926534D01*
X13228045Y-5934595D01*
X13206402Y-5992622D01*
X13206401Y-5992629D01*
X13200000Y-6052175D01*
X13200000Y-6099999D01*
X13200001Y-6100000D01*
X13899999Y-6100000D01*
X13900000Y-6099999D01*
X13900000Y-5700001D01*
X13899999Y-5700000D01*
X13200001Y-5700000D01*
X13200000Y-5700001D01*
X13200000Y-5747824D01*
X13199999Y-5747824D01*
X4093669Y-5747824D01*
X4893669Y-4947824D01*
X13199999Y-4947824D01*
X13206401Y-5007370D01*
X13206402Y-5007377D01*
X13228045Y-5065405D01*
X13230664Y-5126534D01*
X13228045Y-5134595D01*
X13206402Y-5192622D01*
X13206401Y-5192629D01*
X13200000Y-5252175D01*
X13200000Y-5299999D01*
X13200001Y-5300000D01*
X13799999Y-5300000D01*
X13800000Y-5299999D01*
X13800000Y-4800001D01*
X14300000Y-4800001D01*
X14300000Y-6099999D01*
X14300001Y-6100000D01*
X14999999Y-6100000D01*
X15000000Y-6099999D01*
X15000000Y-6052175D01*
X14993598Y-5992629D01*
X14993597Y-5992625D01*
X14971954Y-5934598D01*
X14969333Y-5873469D01*
X14971954Y-5865402D01*
X14993597Y-5807374D01*
X14993598Y-5807370D01*
X15000000Y-5747824D01*
X15000000Y-4800001D01*
X15400000Y-4800001D01*
X15400000Y-5499999D01*
X15400001Y-5500000D01*
X15447824Y-5500000D01*
X15507370Y-5493598D01*
X15507374Y-5493597D01*
X15565402Y-5471954D01*
X15626531Y-5469333D01*
X15634598Y-5471954D01*
X15692625Y-5493597D01*
X15692629Y-5493598D01*
X15752176Y-5500000D01*
X15799999Y-5500000D01*
X15800000Y-5499999D01*
X15800000Y-4800001D01*
X16200000Y-4800001D01*
X16200000Y-5499999D01*
X16200001Y-5500000D01*
X16247824Y-5500000D01*
X16307370Y-5493598D01*
X16307374Y-5493597D01*
X16365402Y-5471954D01*
X16426531Y-5469333D01*
X16434598Y-5471954D01*
X16492625Y-5493597D01*
X16492629Y-5493598D01*
X16552176Y-5500000D01*
X16599999Y-5500000D01*
X16600000Y-5499999D01*
X16600000Y-4800001D01*
X17000000Y-4800001D01*
X17000000Y-5499999D01*
X17000001Y-5500000D01*
X17047824Y-5500000D01*
X17107370Y-5493598D01*
X17107374Y-5493597D01*
X17165402Y-5471954D01*
X17226531Y-5469333D01*
X17234598Y-5471954D01*
X17292625Y-5493597D01*
X17292629Y-5493598D01*
X17352176Y-5500000D01*
X17399999Y-5500000D01*
X17400000Y-5499999D01*
X17400000Y-4800001D01*
X17399999Y-4800000D01*
X17000001Y-4800000D01*
X17000000Y-4800001D01*
X16600000Y-4800001D01*
X16599999Y-4800000D01*
X16200001Y-4800000D01*
X16200000Y-4800001D01*
X15800000Y-4800001D01*
X15799999Y-4800000D01*
X15400001Y-4800000D01*
X15400000Y-4800001D01*
X15000000Y-4800001D01*
X14999999Y-4800000D01*
X14300001Y-4800000D01*
X14300000Y-4800001D01*
X13800000Y-4800001D01*
X13799999Y-4800000D01*
X13200001Y-4800000D01*
X13200000Y-4800001D01*
X13200000Y-4947824D01*
X13199999Y-4947824D01*
X4893669Y-4947824D01*
X5915397Y-3926096D01*
X5969914Y-3898319D01*
X5985401Y-3897100D01*
X13136741Y-3897100D01*
X13194932Y-3916007D01*
X13230896Y-3965507D01*
X13230896Y-4026693D01*
X13229499Y-4030696D01*
X13206403Y-4092618D01*
X13206401Y-4092629D01*
X13200000Y-4152175D01*
X13200000Y-4299999D01*
X13200001Y-4300000D01*
X14906000Y-4300000D01*
X14964191Y-4318907D01*
X15000155Y-4368407D01*
X15005000Y-4399000D01*
X15005000Y-4399999D01*
X15005001Y-4400000D01*
X24994999Y-4400000D01*
X24995000Y-4399999D01*
X24995000Y-4399000D01*
X25013907Y-4340809D01*
X25063407Y-4304845D01*
X25094000Y-4300000D01*
X25851000Y-4300000D01*
X25909191Y-4318907D01*
X25945155Y-4368407D01*
X25950000Y-4399000D01*
X25950000Y-4701000D01*
X25931093Y-4759191D01*
X25881593Y-4795155D01*
X25851000Y-4800000D01*
X25000001Y-4800000D01*
X25000000Y-4800001D01*
X25000000Y-5499999D01*
X25000001Y-5500000D01*
X25047822Y-5500000D01*
X25089916Y-5495474D01*
X25149795Y-5508052D01*
X25190845Y-5553424D01*
X25199500Y-5593906D01*
X25199500Y-5744859D01*
X25199501Y-5744864D01*
X25202414Y-5769990D01*
X25242163Y-5860012D01*
X25248371Y-5920882D01*
X25242163Y-5939987D01*
X25202415Y-6030009D01*
X25202414Y-6030011D01*
X25199500Y-6055130D01*
X25199500Y-6544860D01*
X25199501Y-6544863D01*
X25202414Y-6569990D01*
X25242163Y-6660012D01*
X25248371Y-6720882D01*
X25242163Y-6739987D01*
X25202415Y-6830009D01*
X25202414Y-6830011D01*
X25199500Y-6855130D01*
X25199500Y-7344860D01*
X25199501Y-7344863D01*
X25202414Y-7369990D01*
X25242163Y-7460012D01*
X25248371Y-7520882D01*
X25242163Y-7539987D01*
X25202415Y-7630009D01*
X25202414Y-7630011D01*
X25199500Y-7655130D01*
X25199500Y-7895799D01*
X25180593Y-7953990D01*
X25131093Y-7989954D01*
X25069907Y-7989954D01*
X25030496Y-7965803D01*
X24013875Y-6949182D01*
X22937813Y-5873120D01*
X22937810Y-5873118D01*
X22937809Y-5873117D01*
X22937808Y-5873116D01*
X22846491Y-5820394D01*
X22846493Y-5820394D01*
X22806970Y-5809804D01*
X22744627Y-5793100D01*
X22744625Y-5793100D01*
X18932644Y-5793100D01*
X18925635Y-5790822D01*
X18918373Y-5792066D01*
X18897996Y-5781842D01*
X18874453Y-5774193D01*
X18863516Y-5764968D01*
X18863026Y-5764490D01*
X18811616Y-5713080D01*
X18721722Y-5661180D01*
X18680783Y-5615712D01*
X18674387Y-5554862D01*
X18704980Y-5501874D01*
X18736627Y-5482687D01*
X18765403Y-5471954D01*
X18790002Y-5470899D01*
X18814271Y-5466746D01*
X18820070Y-5469610D01*
X18826532Y-5469334D01*
X18834598Y-5471954D01*
X18892625Y-5493597D01*
X18892629Y-5493598D01*
X18952176Y-5500000D01*
X18999999Y-5500000D01*
X19000000Y-5499999D01*
X19000000Y-4800001D01*
X19400000Y-4800001D01*
X19400000Y-5499999D01*
X19400001Y-5500000D01*
X19447824Y-5500000D01*
X19507370Y-5493598D01*
X19507374Y-5493597D01*
X19565402Y-5471954D01*
X19626531Y-5469333D01*
X19634598Y-5471954D01*
X19692625Y-5493597D01*
X19692629Y-5493598D01*
X19752176Y-5500000D01*
X19799999Y-5500000D01*
X19800000Y-5499999D01*
X19800000Y-4800001D01*
X20200000Y-4800001D01*
X20200000Y-5499999D01*
X20200001Y-5500000D01*
X20247824Y-5500000D01*
X20307370Y-5493598D01*
X20307374Y-5493597D01*
X20365402Y-5471954D01*
X20426531Y-5469333D01*
X20434598Y-5471954D01*
X20492625Y-5493597D01*
X20492629Y-5493598D01*
X20552176Y-5500000D01*
X20599999Y-5500000D01*
X20600000Y-5499999D01*
X20600000Y-4800001D01*
X21000000Y-4800001D01*
X21000000Y-5499999D01*
X21000001Y-5500000D01*
X21047824Y-5500000D01*
X21107370Y-5493598D01*
X21107374Y-5493597D01*
X21165402Y-5471954D01*
X21226531Y-5469333D01*
X21234598Y-5471954D01*
X21292625Y-5493597D01*
X21292629Y-5493598D01*
X21352176Y-5500000D01*
X21399999Y-5500000D01*
X21400000Y-5499999D01*
X21400000Y-4800001D01*
X21800000Y-4800001D01*
X21800000Y-5499999D01*
X21800001Y-5500000D01*
X21847824Y-5500000D01*
X21907370Y-5493598D01*
X21907374Y-5493597D01*
X21965402Y-5471954D01*
X22026531Y-5469333D01*
X22034598Y-5471954D01*
X22092625Y-5493597D01*
X22092629Y-5493598D01*
X22152176Y-5500000D01*
X22199999Y-5500000D01*
X22200000Y-5499999D01*
X22200000Y-4800001D01*
X22600000Y-4800001D01*
X22600000Y-5499999D01*
X22600001Y-5500000D01*
X22647824Y-5500000D01*
X22707370Y-5493598D01*
X22707374Y-5493597D01*
X22765402Y-5471954D01*
X22826531Y-5469333D01*
X22834598Y-5471954D01*
X22892625Y-5493597D01*
X22892629Y-5493598D01*
X22952176Y-5500000D01*
X22999999Y-5500000D01*
X23000000Y-5499999D01*
X23000000Y-4800001D01*
X23400000Y-4800001D01*
X23400000Y-5499999D01*
X23400001Y-5500000D01*
X23447824Y-5500000D01*
X23507370Y-5493598D01*
X23507374Y-5493597D01*
X23565402Y-5471954D01*
X23626531Y-5469333D01*
X23634598Y-5471954D01*
X23692625Y-5493597D01*
X23692629Y-5493598D01*
X23752176Y-5500000D01*
X23799999Y-5500000D01*
X23800000Y-5499999D01*
X23800000Y-4800001D01*
X24200000Y-4800001D01*
X24200000Y-5499999D01*
X24200001Y-5500000D01*
X24247824Y-5500000D01*
X24307370Y-5493598D01*
X24307374Y-5493597D01*
X24365402Y-5471954D01*
X24426531Y-5469333D01*
X24434598Y-5471954D01*
X24492625Y-5493597D01*
X24492629Y-5493598D01*
X24552176Y-5500000D01*
X24599999Y-5500000D01*
X24600000Y-5499999D01*
X24600000Y-4800001D01*
X24599999Y-4800000D01*
X24200001Y-4800000D01*
X24200000Y-4800001D01*
X23800000Y-4800001D01*
X23799999Y-4800000D01*
X23400001Y-4800000D01*
X23400000Y-4800001D01*
X23000000Y-4800001D01*
X22999999Y-4800000D01*
X22600001Y-4800000D01*
X22600000Y-4800001D01*
X22200000Y-4800001D01*
X22199999Y-4800000D01*
X21800001Y-4800000D01*
X21800000Y-4800001D01*
X21400000Y-4800001D01*
X21399999Y-4800000D01*
X21000001Y-4800000D01*
X21000000Y-4800001D01*
X20600000Y-4800001D01*
X20599999Y-4800000D01*
X20200001Y-4800000D01*
X20200000Y-4800001D01*
X19800000Y-4800001D01*
X19799999Y-4800000D01*
X19400001Y-4800000D01*
X19400000Y-4800001D01*
X19000000Y-4800001D01*
X18999999Y-4800000D01*
X17800001Y-4800000D01*
X17800000Y-4800001D01*
X17800000Y-5499999D01*
X17800001Y-5500000D01*
X17847824Y-5500000D01*
X17907370Y-5493598D01*
X17907374Y-5493597D01*
X17965402Y-5471954D01*
X17967595Y-5471859D01*
X17969371Y-5470569D01*
X17988320Y-5470971D01*
X18026531Y-5469333D01*
X18030556Y-5470546D01*
X18115806Y-5498209D01*
X18132656Y-5510441D01*
X18151661Y-5518955D01*
X18156863Y-5528014D01*
X18165320Y-5534153D01*
X18171763Y-5553957D01*
X18182133Y-5572013D01*
X18181017Y-5582400D01*
X18184250Y-5592337D01*
X18177822Y-5612143D01*
X18175599Y-5632848D01*
X18168580Y-5640624D01*
X18165365Y-5650535D01*
X18148704Y-5662649D01*
X18134751Y-5678111D01*
X18074185Y-5713079D01*
X18074184Y-5713080D01*
X17962380Y-5824884D01*
X17883323Y-5961816D01*
X17851968Y-6078837D01*
X17842400Y-6114544D01*
X17842400Y-6160790D01*
X17823493Y-6218981D01*
X17773993Y-6254945D01*
X17767884Y-6256715D01*
X17701721Y-6273602D01*
X17662854Y-6289701D01*
X17614067Y-6313042D01*
X17499005Y-6399176D01*
X16898995Y-6999187D01*
X16898981Y-6999201D01*
X16862878Y-7039395D01*
X16862873Y-7039401D01*
X16789531Y-7163012D01*
X16773427Y-7201893D01*
X16773418Y-7201916D01*
X16755437Y-7252885D01*
X16734982Y-7395154D01*
X16734982Y-8245146D01*
X16737874Y-8299123D01*
X16773423Y-8438400D01*
X16789526Y-8477277D01*
X16789531Y-8477287D01*
X16817096Y-8527771D01*
X16828388Y-8587906D01*
X16822963Y-8609812D01*
X16801402Y-8667620D01*
X16795000Y-8727175D01*
X16795000Y-9249999D01*
X16795001Y-9250000D01*
X19749999Y-9250000D01*
X19750000Y-9249999D01*
X19750000Y-7780001D01*
X20250000Y-7780001D01*
X20250000Y-9249999D01*
X20250001Y-9250000D01*
X21719999Y-9250000D01*
X21720000Y-9249999D01*
X21720000Y-7780001D01*
X22220000Y-7780001D01*
X22220000Y-9249999D01*
X22220001Y-9250000D01*
X23194999Y-9250000D01*
X23195000Y-9249999D01*
X23195000Y-8727175D01*
X23188598Y-8667629D01*
X23188596Y-8667621D01*
X23144576Y-8549597D01*
X23141956Y-8488468D01*
X23144576Y-8480403D01*
X23188596Y-8362378D01*
X23188598Y-8362370D01*
X23195000Y-8302824D01*
X23195000Y-7780001D01*
X23194999Y-7780000D01*
X22220001Y-7780000D01*
X22220000Y-7780001D01*
X21720000Y-7780001D01*
X21719999Y-7780000D01*
X20250001Y-7780000D01*
X20250000Y-7780001D01*
X19750000Y-7780001D01*
X19750000Y-7629000D01*
X19768907Y-7570809D01*
X19818407Y-7534845D01*
X19849000Y-7530000D01*
X19999999Y-7530000D01*
X20000000Y-7529999D01*
X20000000Y-7379000D01*
X20018907Y-7320809D01*
X20068407Y-7284845D01*
X20099000Y-7280000D01*
X23170899Y-7280000D01*
X23229090Y-7298907D01*
X23240903Y-7308996D01*
X24952387Y-9020480D01*
X24952389Y-9020481D01*
X24952390Y-9020482D01*
X24952391Y-9020483D01*
X25043708Y-9073205D01*
X25043706Y-9073205D01*
X25043710Y-9073206D01*
X25043712Y-9073207D01*
X25135919Y-9097913D01*
X25187233Y-9131237D01*
X25209160Y-9188358D01*
X25202905Y-9222426D01*
X25204370Y-9222825D01*
X25202414Y-9230011D01*
X25199500Y-9255130D01*
X25199500Y-9744860D01*
X25199501Y-9744863D01*
X25202414Y-9769990D01*
X25242163Y-9860012D01*
X25248371Y-9920882D01*
X25242163Y-9939987D01*
X25202415Y-10030009D01*
X25202414Y-10030011D01*
X25199500Y-10055130D01*
X25199500Y-10544860D01*
X25199501Y-10544863D01*
X25202414Y-10569990D01*
X25242163Y-10660012D01*
X25248371Y-10720882D01*
X25242163Y-10739987D01*
X25202415Y-10830009D01*
X25202414Y-10830011D01*
X25199500Y-10855130D01*
X25199500Y-11344860D01*
X25199501Y-11344863D01*
X25202414Y-11369990D01*
X25242163Y-11460012D01*
X25248371Y-11520882D01*
X25242163Y-11539987D01*
X25202415Y-11630009D01*
X25202414Y-11630011D01*
X25199500Y-11655130D01*
X25199500Y-12144860D01*
X25199501Y-12144863D01*
X25202415Y-12169992D01*
X25203644Y-12174509D01*
X25200677Y-12235622D01*
X25162356Y-12283320D01*
X25108117Y-12299500D01*
X23294000Y-12299500D01*
X23235809Y-12280593D01*
X23199845Y-12231093D01*
X23195000Y-12200500D01*
X23195000Y-11730001D01*
X23194999Y-11730000D01*
X18270001Y-11730000D01*
X18270000Y-11730001D01*
X18270000Y-12704999D01*
X18270001Y-12705000D01*
X18363991Y-12705000D01*
X18422182Y-12723907D01*
X18458146Y-12773407D01*
X18459618Y-12778377D01*
X18459800Y-12779056D01*
X18459800Y-12779057D01*
X18500723Y-12931784D01*
X18579780Y-13068716D01*
X18639862Y-13128798D01*
X18667638Y-13183313D01*
X18658067Y-13243745D01*
X18614802Y-13287010D01*
X18569857Y-13297800D01*
X18452727Y-13297800D01*
X18347273Y-13297800D01*
X18245413Y-13325093D01*
X18245412Y-13325093D01*
X18245410Y-13325094D01*
X18245409Y-13325094D01*
X18154089Y-13377818D01*
X18079518Y-13452389D01*
X18026794Y-13543709D01*
X18026791Y-13543716D01*
X18002085Y-13635920D01*
X17968761Y-13687234D01*
X17911639Y-13709160D01*
X17877574Y-13702903D01*
X17877175Y-13704370D01*
X17869988Y-13702414D01*
X17844869Y-13699500D01*
X17449182Y-13699500D01*
X17390991Y-13680593D01*
X17369929Y-13659830D01*
X17357189Y-13642812D01*
X17357184Y-13642807D01*
X17242090Y-13556647D01*
X17242088Y-13556646D01*
X17107381Y-13506403D01*
X17107370Y-13506401D01*
X17047824Y-13500000D01*
X17000001Y-13500000D01*
X17000000Y-13500001D01*
X17000000Y-15299999D01*
X17000001Y-15300000D01*
X17047824Y-15300000D01*
X17107370Y-15293598D01*
X17107381Y-15293596D01*
X17242088Y-15243353D01*
X17242090Y-15243352D01*
X17357184Y-15157192D01*
X17357194Y-15157182D01*
X17369928Y-15140172D01*
X17419936Y-15104918D01*
X17449176Y-15100499D01*
X17844864Y-15100499D01*
X17869991Y-15097585D01*
X17960012Y-15057836D01*
X18020881Y-15051628D01*
X18039979Y-15057833D01*
X18130009Y-15097585D01*
X18155135Y-15100500D01*
X18644864Y-15100499D01*
X18669991Y-15097585D01*
X18760012Y-15057836D01*
X18820881Y-15051628D01*
X18839979Y-15057833D01*
X18930009Y-15097585D01*
X18955135Y-15100500D01*
X19220256Y-15100499D01*
X19278445Y-15119406D01*
X19314409Y-15168906D01*
X19315882Y-15225121D01*
X19307532Y-15256287D01*
X19299800Y-15285143D01*
X19299800Y-15443257D01*
X19340723Y-15595984D01*
X19419780Y-15732916D01*
X19531584Y-15844720D01*
X19668516Y-15923777D01*
X19821243Y-15964700D01*
X19821245Y-15964700D01*
X19979355Y-15964700D01*
X19979357Y-15964700D01*
X20132084Y-15923777D01*
X20269016Y-15844720D01*
X20380820Y-15732916D01*
X20459877Y-15595984D01*
X20500800Y-15443257D01*
X20500800Y-15285143D01*
X20484717Y-15225120D01*
X20487920Y-15164020D01*
X20526425Y-15116471D01*
X20580340Y-15100499D01*
X21044864Y-15100499D01*
X21069991Y-15097585D01*
X21160012Y-15057836D01*
X21220881Y-15051628D01*
X21239979Y-15057833D01*
X21330009Y-15097585D01*
X21355135Y-15100500D01*
X21844864Y-15100499D01*
X21869991Y-15097585D01*
X21960012Y-15057836D01*
X22020881Y-15051628D01*
X22039979Y-15057833D01*
X22130009Y-15097585D01*
X22155135Y-15100500D01*
X22644864Y-15100499D01*
X22669991Y-15097585D01*
X22760012Y-15057836D01*
X22820881Y-15051628D01*
X22839979Y-15057833D01*
X22930009Y-15097585D01*
X22955135Y-15100500D01*
X23444864Y-15100499D01*
X23469991Y-15097585D01*
X23469992Y-15097584D01*
X23477177Y-15095630D01*
X23477817Y-15097983D01*
X23527328Y-15092927D01*
X23580226Y-15123676D01*
X23602085Y-15164078D01*
X23626793Y-15256287D01*
X23626794Y-15256289D01*
X23626794Y-15256290D01*
X23659719Y-15313317D01*
X23679520Y-15347613D01*
X23754087Y-15422180D01*
X23845413Y-15474907D01*
X23947273Y-15502200D01*
X24052727Y-15502200D01*
X24194163Y-15502200D01*
X24252354Y-15521107D01*
X24286896Y-15568650D01*
X24287041Y-15568591D01*
X24287289Y-15569191D01*
X24288318Y-15570607D01*
X24289425Y-15574347D01*
X24289521Y-15574580D01*
X24289522Y-15574583D01*
X24289523Y-15574584D01*
X24368580Y-15711516D01*
X24480384Y-15823320D01*
X24617316Y-15902377D01*
X24770043Y-15943300D01*
X24770045Y-15943300D01*
X24928155Y-15943300D01*
X24928157Y-15943300D01*
X25080884Y-15902377D01*
X25217816Y-15823320D01*
X25329620Y-15711516D01*
X25408677Y-15574584D01*
X25449600Y-15421857D01*
X25449600Y-15398950D01*
X25468507Y-15340759D01*
X25518007Y-15304795D01*
X25549521Y-15300676D01*
X25549521Y-15300000D01*
X25699999Y-15300000D01*
X25700000Y-15299999D01*
X25700000Y-14700001D01*
X26200000Y-14700001D01*
X26200000Y-15299999D01*
X26200001Y-15300000D01*
X26347824Y-15300000D01*
X26407370Y-15293598D01*
X26407381Y-15293596D01*
X26542088Y-15243353D01*
X26542090Y-15243352D01*
X26657184Y-15157192D01*
X26657192Y-15157184D01*
X26743352Y-15042090D01*
X26743353Y-15042088D01*
X26793596Y-14907381D01*
X26793598Y-14907370D01*
X26800000Y-14847824D01*
X26800000Y-14700001D01*
X26799999Y-14700000D01*
X26200001Y-14700000D01*
X26200000Y-14700001D01*
X25700000Y-14700001D01*
X25700000Y-14549000D01*
X25718907Y-14490809D01*
X25768407Y-14454845D01*
X25799000Y-14450000D01*
X25949999Y-14450000D01*
X25950000Y-14449999D01*
X25950000Y-14299000D01*
X25968907Y-14240809D01*
X26018407Y-14204845D01*
X26049000Y-14200000D01*
X26799999Y-14200000D01*
X26800000Y-14199999D01*
X26800000Y-14052175D01*
X26793598Y-13992629D01*
X26793596Y-13992618D01*
X26743353Y-13857911D01*
X26743352Y-13857909D01*
X26657192Y-13742815D01*
X26657183Y-13742806D01*
X26640169Y-13730069D01*
X26604917Y-13680060D01*
X26600499Y-13650822D01*
X26600499Y-13255136D01*
X26597585Y-13230009D01*
X26557835Y-13139985D01*
X26551628Y-13079118D01*
X26557834Y-13060017D01*
X26597585Y-12969991D01*
X26600500Y-12944865D01*
X26600499Y-12455136D01*
X26597585Y-12430009D01*
X26597583Y-12430006D01*
X26596356Y-12425491D01*
X26599323Y-12364378D01*
X26637644Y-12316680D01*
X26691883Y-12300500D01*
X28709756Y-12300500D01*
X28767947Y-12319407D01*
X28779759Y-12329496D01*
X28814642Y-12364378D01*
X28830784Y-12380520D01*
X28967716Y-12459577D01*
X29120443Y-12500500D01*
X29120445Y-12500500D01*
X29278555Y-12500500D01*
X29278557Y-12500500D01*
X29431284Y-12459577D01*
X29568216Y-12380520D01*
X29680020Y-12268716D01*
X29759077Y-12131784D01*
X29800000Y-11979057D01*
X29800000Y-11820943D01*
X29759077Y-11668216D01*
X29680020Y-11531284D01*
X29568216Y-11419480D01*
X29431284Y-11340423D01*
X29278557Y-11299500D01*
X29120443Y-11299500D01*
X28967716Y-11340423D01*
X28830781Y-11419482D01*
X28779759Y-11470504D01*
X28725242Y-11498281D01*
X28709756Y-11499500D01*
X26691883Y-11499500D01*
X26633692Y-11480593D01*
X26597728Y-11431093D01*
X26596355Y-11374510D01*
X26597581Y-11369999D01*
X26597585Y-11369991D01*
X26600500Y-11344865D01*
X26600499Y-10855136D01*
X26597585Y-10830009D01*
X26557835Y-10739985D01*
X26551628Y-10679118D01*
X26557834Y-10660017D01*
X26597585Y-10569991D01*
X26600500Y-10544865D01*
X26600499Y-10055136D01*
X26597585Y-10030009D01*
X26595630Y-10022823D01*
X26597982Y-10022183D01*
X26592930Y-9972660D01*
X26623684Y-9919766D01*
X26664076Y-9897914D01*
X26756287Y-9873207D01*
X26847613Y-9820480D01*
X26891793Y-9776299D01*
X26946307Y-9748523D01*
X27006739Y-9758094D01*
X27050004Y-9801358D01*
X27059576Y-9861790D01*
X27058061Y-9868916D01*
X27057900Y-9870142D01*
X27057900Y-9870143D01*
X27057900Y-10028257D01*
X27098823Y-10180984D01*
X27177880Y-10317916D01*
X27289684Y-10429720D01*
X27426616Y-10508777D01*
X27579343Y-10549700D01*
X27579345Y-10549700D01*
X27737455Y-10549700D01*
X27737457Y-10549700D01*
X27890184Y-10508777D01*
X28027116Y-10429720D01*
X28056243Y-10400593D01*
X28078141Y-10378696D01*
X28132658Y-10350919D01*
X28148144Y-10349700D01*
X31573800Y-10349700D01*
X31631991Y-10368607D01*
X31667955Y-10418107D01*
X31672800Y-10448700D01*
X31672800Y-10603873D01*
X31672800Y-10709327D01*
X31696870Y-10799159D01*
X31700094Y-10811192D01*
X31752816Y-10902508D01*
X31752820Y-10902513D01*
X32045504Y-11195198D01*
X32073281Y-11249714D01*
X32074500Y-11265201D01*
X32074500Y-11464861D01*
X32074501Y-11464864D01*
X32077414Y-11489990D01*
X32099490Y-11539987D01*
X32122794Y-11592765D01*
X32202235Y-11672206D01*
X32305009Y-11717585D01*
X32330135Y-11720500D01*
X33469864Y-11720499D01*
X33494991Y-11717585D01*
X33597765Y-11672206D01*
X33677206Y-11592765D01*
X33722585Y-11489991D01*
X33725157Y-11467824D01*
X36074999Y-11467824D01*
X36081401Y-11527370D01*
X36081403Y-11527381D01*
X36131646Y-11662088D01*
X36131647Y-11662090D01*
X36217807Y-11777184D01*
X36217815Y-11777192D01*
X36332909Y-11863352D01*
X36332911Y-11863353D01*
X36467618Y-11913596D01*
X36467629Y-11913598D01*
X36527176Y-11920000D01*
X36849999Y-11920000D01*
X36850000Y-11919999D01*
X36850000Y-11320001D01*
X37350000Y-11320001D01*
X37350000Y-11919999D01*
X37350001Y-11920000D01*
X37672824Y-11920000D01*
X37732370Y-11913598D01*
X37732381Y-11913596D01*
X37867088Y-11863353D01*
X37867090Y-11863352D01*
X37982184Y-11777192D01*
X37982192Y-11777184D01*
X38068352Y-11662090D01*
X38068353Y-11662088D01*
X38118596Y-11527381D01*
X38118598Y-11527370D01*
X38125000Y-11467824D01*
X38125000Y-11320001D01*
X38124999Y-11320000D01*
X37350001Y-11320000D01*
X37350000Y-11320001D01*
X36850000Y-11320001D01*
X36849999Y-11320000D01*
X36075001Y-11320000D01*
X36075000Y-11320001D01*
X36075000Y-11467824D01*
X36074999Y-11467824D01*
X33725157Y-11467824D01*
X33725500Y-11464865D01*
X33725499Y-11038429D01*
X33725499Y-10675137D01*
X33725156Y-10672175D01*
X36075000Y-10672175D01*
X36075000Y-10819999D01*
X36075001Y-10820000D01*
X36849999Y-10820000D01*
X36850000Y-10819999D01*
X36850000Y-10220001D01*
X37350000Y-10220001D01*
X37350000Y-10819999D01*
X37350001Y-10820000D01*
X38124999Y-10820000D01*
X38125000Y-10819999D01*
X38125000Y-10672175D01*
X38118598Y-10612629D01*
X38118596Y-10612618D01*
X38068353Y-10477911D01*
X38068352Y-10477909D01*
X37982192Y-10362815D01*
X37982184Y-10362807D01*
X37867090Y-10276647D01*
X37867088Y-10276646D01*
X37732381Y-10226403D01*
X37732370Y-10226401D01*
X37672824Y-10220000D01*
X37350001Y-10220000D01*
X37350000Y-10220001D01*
X36850000Y-10220001D01*
X36849999Y-10220000D01*
X36527176Y-10220000D01*
X36467629Y-10226401D01*
X36467618Y-10226403D01*
X36332911Y-10276646D01*
X36332909Y-10276647D01*
X36217815Y-10362807D01*
X36217807Y-10362815D01*
X36131647Y-10477909D01*
X36131646Y-10477911D01*
X36081403Y-10612618D01*
X36081401Y-10612629D01*
X36075000Y-10672175D01*
X33725156Y-10672175D01*
X33722585Y-10650009D01*
X33702214Y-10603873D01*
X33677206Y-10547235D01*
X33597765Y-10467794D01*
X33494991Y-10422415D01*
X33494990Y-10422414D01*
X33494988Y-10422414D01*
X33469869Y-10419500D01*
X33469865Y-10419500D01*
X32572800Y-10419500D01*
X32514609Y-10400593D01*
X32478645Y-10351093D01*
X32473800Y-10320500D01*
X32473800Y-9679499D01*
X32492707Y-9621308D01*
X32542207Y-9585344D01*
X32572800Y-9580499D01*
X33469861Y-9580499D01*
X33469864Y-9580499D01*
X33494991Y-9577585D01*
X33597765Y-9532206D01*
X33677206Y-9452765D01*
X33722585Y-9349991D01*
X33725157Y-9327824D01*
X36074999Y-9327824D01*
X36081401Y-9387370D01*
X36081403Y-9387381D01*
X36131646Y-9522088D01*
X36131647Y-9522090D01*
X36217807Y-9637184D01*
X36217815Y-9637192D01*
X36332909Y-9723352D01*
X36332911Y-9723353D01*
X36467618Y-9773596D01*
X36467629Y-9773598D01*
X36527176Y-9780000D01*
X36849999Y-9780000D01*
X36850000Y-9779999D01*
X36850000Y-9180001D01*
X37350000Y-9180001D01*
X37350000Y-9779999D01*
X37350001Y-9780000D01*
X37672824Y-9780000D01*
X37732370Y-9773598D01*
X37732381Y-9773596D01*
X37867088Y-9723353D01*
X37867090Y-9723352D01*
X37982184Y-9637192D01*
X37982192Y-9637184D01*
X38068352Y-9522090D01*
X38068353Y-9522088D01*
X38118596Y-9387381D01*
X38118598Y-9387370D01*
X38125000Y-9327824D01*
X38125000Y-9180001D01*
X38124999Y-9180000D01*
X37350001Y-9180000D01*
X37350000Y-9180001D01*
X36850000Y-9180001D01*
X36849999Y-9180000D01*
X36075001Y-9180000D01*
X36075000Y-9180001D01*
X36075000Y-9327824D01*
X36074999Y-9327824D01*
X33725157Y-9327824D01*
X33725500Y-9324865D01*
X33725499Y-8877274D01*
X33725499Y-8535137D01*
X33725156Y-8532175D01*
X36075000Y-8532175D01*
X36075000Y-8679999D01*
X36075001Y-8680000D01*
X36849999Y-8680000D01*
X36850000Y-8679999D01*
X36850000Y-8080001D01*
X37350000Y-8080001D01*
X37350000Y-8679999D01*
X37350001Y-8680000D01*
X38124999Y-8680000D01*
X38125000Y-8679999D01*
X38125000Y-8532175D01*
X38118598Y-8472629D01*
X38118596Y-8472618D01*
X38068353Y-8337911D01*
X38068352Y-8337909D01*
X37982192Y-8222815D01*
X37982184Y-8222807D01*
X37867090Y-8136647D01*
X37867088Y-8136646D01*
X37732381Y-8086403D01*
X37732370Y-8086401D01*
X37672824Y-8080000D01*
X37350001Y-8080000D01*
X37350000Y-8080001D01*
X36850000Y-8080001D01*
X36849999Y-8080000D01*
X36527176Y-8080000D01*
X36467629Y-8086401D01*
X36467618Y-8086403D01*
X36332911Y-8136646D01*
X36332909Y-8136647D01*
X36217815Y-8222807D01*
X36217807Y-8222815D01*
X36131647Y-8337909D01*
X36131646Y-8337911D01*
X36081403Y-8472618D01*
X36081401Y-8472629D01*
X36075000Y-8532175D01*
X33725156Y-8532175D01*
X33722585Y-8510009D01*
X33713074Y-8488468D01*
X33677206Y-8407235D01*
X33597765Y-8327794D01*
X33494991Y-8282415D01*
X33494990Y-8282414D01*
X33494988Y-8282414D01*
X33469868Y-8279500D01*
X32330139Y-8279500D01*
X32330136Y-8279501D01*
X32305009Y-8282414D01*
X32202235Y-8327794D01*
X32122793Y-8407236D01*
X32094260Y-8471856D01*
X32053459Y-8517451D01*
X32026525Y-8526644D01*
X32026841Y-8527821D01*
X32020575Y-8529500D01*
X32020573Y-8529500D01*
X31918713Y-8556793D01*
X31918712Y-8556793D01*
X31918710Y-8556794D01*
X31918709Y-8556794D01*
X31827389Y-8609518D01*
X31752818Y-8684089D01*
X31700094Y-8775409D01*
X31700094Y-8775410D01*
X31700093Y-8775412D01*
X31700093Y-8775413D01*
X31693372Y-8800499D01*
X31672800Y-8877274D01*
X31672800Y-9449700D01*
X31653893Y-9507891D01*
X31604393Y-9543855D01*
X31573800Y-9548700D01*
X28148144Y-9548700D01*
X28089953Y-9529793D01*
X28078141Y-9519704D01*
X28027118Y-9468682D01*
X28027116Y-9468680D01*
X27890184Y-9389623D01*
X27737457Y-9348700D01*
X27579343Y-9348700D01*
X27426616Y-9389623D01*
X27289684Y-9468680D01*
X27177880Y-9580484D01*
X27177878Y-9580486D01*
X27173292Y-9585073D01*
X27171761Y-9583542D01*
X27129315Y-9612714D01*
X27068151Y-9611111D01*
X27019610Y-9573862D01*
X27002200Y-9517790D01*
X27002200Y-4108314D01*
X27002201Y-4108301D01*
X27002201Y-3994872D01*
X27002200Y-3994870D01*
X26974907Y-3893013D01*
X26931067Y-3817080D01*
X26922180Y-3801687D01*
X26847613Y-3727120D01*
X26847610Y-3727118D01*
X26296613Y-3176120D01*
X26296610Y-3176118D01*
X26296608Y-3176116D01*
X26205291Y-3123394D01*
X26205293Y-3123394D01*
X26165770Y-3112804D01*
X26103427Y-3096100D01*
X5831227Y-3096100D01*
X5725773Y-3096100D01*
X5663429Y-3112804D01*
X5623907Y-3123394D01*
X5532591Y-3176116D01*
X1454516Y-7254191D01*
X1401793Y-7345511D01*
X1401792Y-7345511D01*
X1401793Y-7345512D01*
X1401793Y-7345513D01*
X1374500Y-7447373D01*
X1374500Y-14722273D01*
X1374500Y-14827727D01*
X1395840Y-14907370D01*
X1401794Y-14929592D01*
X1454516Y-15020908D01*
X1454518Y-15020910D01*
X1454520Y-15020913D01*
X1855463Y-15421855D01*
X2187842Y-15754234D01*
X2215619Y-15808751D01*
X2214936Y-15843551D01*
X2199500Y-15921153D01*
X2199500Y-16078844D01*
X2206556Y-16114317D01*
X2228357Y-16223917D01*
X2230263Y-16233496D01*
X2230263Y-16233498D01*
X2290603Y-16379174D01*
X2290609Y-16379185D01*
X2343312Y-16458059D01*
X2378211Y-16510289D01*
X2489711Y-16621789D01*
X2567876Y-16674017D01*
X2620814Y-16709390D01*
X2620825Y-16709396D01*
X2674638Y-16731685D01*
X2766503Y-16769737D01*
X2921158Y-16800500D01*
X2921159Y-16800500D01*
X3078841Y-16800500D01*
X3078842Y-16800500D01*
X3233497Y-16769737D01*
X3379179Y-16709394D01*
X3510289Y-16621789D01*
X3621789Y-16510289D01*
X3709394Y-16379179D01*
X3769737Y-16233497D01*
X3800500Y-16078842D01*
X3800500Y-15921158D01*
X3769737Y-15766503D01*
X3709394Y-15620821D01*
X3709393Y-15620819D01*
X3709390Y-15620814D01*
X3636425Y-15511616D01*
X3621789Y-15489711D01*
X3510289Y-15378211D01*
X3454238Y-15340759D01*
X3379185Y-15290609D01*
X3379174Y-15290603D01*
X3233497Y-15230263D01*
X3078844Y-15199500D01*
X3078842Y-15199500D01*
X2921158Y-15199500D01*
X2921153Y-15199500D01*
X2843551Y-15214936D01*
X2782790Y-15207744D01*
X2754234Y-15187842D01*
X2204496Y-14638103D01*
X2176719Y-14583586D01*
X2175500Y-14568099D01*
X2175500Y-12862574D01*
X2490979Y-12862574D01*
X2526324Y-12886190D01*
X2708310Y-12961570D01*
X2901506Y-12999999D01*
X2901510Y-13000000D01*
X3098490Y-13000000D01*
X3098493Y-12999999D01*
X3291688Y-12961570D01*
X3291690Y-12961570D01*
X3473675Y-12886190D01*
X3509019Y-12862574D01*
X2999999Y-12353554D01*
X2490979Y-12862574D01*
X2175500Y-12862574D01*
X2175500Y-12511953D01*
X2194407Y-12453762D01*
X2204496Y-12441949D01*
X2646446Y-11999999D01*
X3353554Y-11999999D01*
X3862574Y-12509019D01*
X3886190Y-12473675D01*
X3961570Y-12291690D01*
X3961570Y-12291688D01*
X3999999Y-12098493D01*
X4000000Y-12098490D01*
X4000000Y-11901509D01*
X3999999Y-11901506D01*
X3961570Y-11708311D01*
X3961570Y-11708309D01*
X3886190Y-11526324D01*
X3862574Y-11490979D01*
X3353554Y-11999999D01*
X2646446Y-11999999D01*
X2204496Y-11558049D01*
X2176719Y-11503533D01*
X2175500Y-11488046D01*
X2175500Y-11137424D01*
X2490979Y-11137424D01*
X2999999Y-11646444D01*
X3509019Y-11137424D01*
X3473678Y-11113811D01*
X3473678Y-11113810D01*
X3291689Y-11038429D01*
X3098493Y-11000000D01*
X2901506Y-11000000D01*
X2708311Y-11038429D01*
X2708309Y-11038429D01*
X2526324Y-11113809D01*
X2526314Y-11113815D01*
X2490979Y-11137424D01*
X2175500Y-11137424D01*
X2175500Y-8533269D01*
X2194407Y-8475078D01*
X2243907Y-8439114D01*
X2305093Y-8439114D01*
X2354593Y-8475078D01*
X2356804Y-8478251D01*
X2378211Y-8510289D01*
X2489711Y-8621789D01*
X2567876Y-8674017D01*
X2620814Y-8709390D01*
X2620825Y-8709396D01*
X2663748Y-8727175D01*
X2766503Y-8769737D01*
X2921158Y-8800500D01*
X2921159Y-8800500D01*
X3078841Y-8800500D01*
X3078842Y-8800500D01*
X3233497Y-8769737D01*
X3379179Y-8709394D01*
X3510289Y-8621789D01*
X3621789Y-8510289D01*
X3665749Y-8444497D01*
X3713799Y-8406619D01*
X3748064Y-8400500D01*
X11998000Y-8400500D01*
X12056191Y-8419407D01*
X12092155Y-8468907D01*
X12097000Y-8499500D01*
X12097000Y-14938080D01*
X12078093Y-14996271D01*
X12028593Y-15032235D01*
X11977363Y-15033578D01*
X11977289Y-15034147D01*
X11973700Y-15033674D01*
X11972386Y-15033709D01*
X11970861Y-15033300D01*
X11970857Y-15033300D01*
X11812743Y-15033300D01*
X11660016Y-15074223D01*
X11614503Y-15100500D01*
X11523081Y-15153282D01*
X11472059Y-15204304D01*
X11417542Y-15232081D01*
X11402056Y-15233300D01*
X7418927Y-15233300D01*
X7313473Y-15233300D01*
X7251129Y-15250004D01*
X7211607Y-15260594D01*
X7120291Y-15313316D01*
X7120290Y-15313317D01*
X3245763Y-19187842D01*
X3191246Y-19215619D01*
X3156445Y-19214936D01*
X3078844Y-19199500D01*
X3078842Y-19199500D01*
X2921158Y-19199500D01*
X2921155Y-19199500D01*
X2766503Y-19230263D01*
X2766501Y-19230263D01*
X2620825Y-19290603D01*
X2620814Y-19290609D01*
X2489711Y-19378211D01*
X2489707Y-19378214D01*
X2378214Y-19489707D01*
X2378211Y-19489711D01*
X2290609Y-19620814D01*
X2290603Y-19620825D01*
X2230263Y-19766501D01*
X2230263Y-19766503D01*
X2199500Y-19921155D01*
X2199500Y-20078844D01*
X2230263Y-20233496D01*
X2230263Y-20233498D01*
X2290603Y-20379174D01*
X2290609Y-20379185D01*
X2343312Y-20458059D01*
X2378211Y-20510289D01*
X2489711Y-20621789D01*
X2560973Y-20669405D01*
X2620814Y-20709390D01*
X2620825Y-20709396D01*
X2655784Y-20723876D01*
X2766503Y-20769737D01*
X2921158Y-20800500D01*
X2921159Y-20800500D01*
X3078841Y-20800500D01*
X3078842Y-20800500D01*
X3233497Y-20769737D01*
X3379179Y-20709394D01*
X3510289Y-20621789D01*
X3621789Y-20510289D01*
X3709394Y-20379179D01*
X3769737Y-20233497D01*
X3800500Y-20078842D01*
X3800500Y-19921158D01*
X3790240Y-19869578D01*
X3785063Y-19843552D01*
X3792255Y-19782791D01*
X3812154Y-19754237D01*
X7503097Y-16063296D01*
X7557614Y-16035519D01*
X7573101Y-16034300D01*
X11402056Y-16034300D01*
X11460247Y-16053207D01*
X11472059Y-16063296D01*
X11520879Y-16112115D01*
X11523084Y-16114320D01*
X11660016Y-16193377D01*
X11812743Y-16234300D01*
X11812745Y-16234300D01*
X11970855Y-16234300D01*
X11970857Y-16234300D01*
X11972375Y-16233893D01*
X11973499Y-16233951D01*
X11977289Y-16233453D01*
X11977381Y-16234155D01*
X12033476Y-16237094D01*
X12081027Y-16275598D01*
X12097000Y-16329519D01*
X12097000Y-16845599D01*
X12094531Y-16853196D01*
X12095781Y-16861087D01*
X12085257Y-16881740D01*
X12078093Y-16903790D01*
X12068003Y-16915603D01*
X12024736Y-16958869D01*
X11970219Y-16986646D01*
X11937949Y-16985187D01*
X11937866Y-16985880D01*
X11931564Y-16985123D01*
X11907966Y-16982289D01*
X11843106Y-16974500D01*
X11843102Y-16974500D01*
X11256898Y-16974500D01*
X11256893Y-16974500D01*
X11168434Y-16985123D01*
X11027660Y-17040637D01*
X11027656Y-17040640D01*
X10907081Y-17132075D01*
X10907075Y-17132081D01*
X10815640Y-17252656D01*
X10815637Y-17252660D01*
X10760123Y-17393434D01*
X10749500Y-17481893D01*
X10749500Y-17500500D01*
X10730593Y-17558691D01*
X10681093Y-17594655D01*
X10650500Y-17599500D01*
X7512527Y-17599500D01*
X7407073Y-17599500D01*
X7344729Y-17616204D01*
X7305207Y-17626794D01*
X7213891Y-17679516D01*
X3525316Y-21368091D01*
X3472594Y-21459407D01*
X3465256Y-21486794D01*
X3448454Y-21549501D01*
X3445300Y-21561273D01*
X3445300Y-22786573D01*
X3445300Y-22892027D01*
X3452793Y-22919990D01*
X3472594Y-22993892D01*
X3525316Y-23085208D01*
X3525320Y-23085213D01*
X3850724Y-23410618D01*
X3878501Y-23465134D01*
X3871285Y-23520607D01*
X3849916Y-23569005D01*
X3849914Y-23569011D01*
X3847000Y-23594130D01*
X3847000Y-24305860D01*
X3847001Y-24305863D01*
X3849914Y-24330990D01*
X3861299Y-24356773D01*
X3895294Y-24433765D01*
X3974735Y-24513206D01*
X4077509Y-24558585D01*
X4102635Y-24561500D01*
X4596801Y-24561499D01*
X4654991Y-24580406D01*
X4690955Y-24629906D01*
X4690955Y-24691091D01*
X4666804Y-24730502D01*
X4458320Y-24938986D01*
X4458316Y-24938991D01*
X4405594Y-25030307D01*
X4397121Y-25061928D01*
X4385545Y-25105135D01*
X4378300Y-25132173D01*
X4378300Y-29501073D01*
X4378300Y-29606527D01*
X4398805Y-29683054D01*
X4405594Y-29708392D01*
X4458316Y-29799708D01*
X4458318Y-29799710D01*
X4458320Y-29799713D01*
X4847652Y-30189044D01*
X5195504Y-30536896D01*
X5223281Y-30591413D01*
X5224500Y-30606900D01*
X5224500Y-31041148D01*
X5234641Y-31125591D01*
X5287634Y-31259972D01*
X5287635Y-31259974D01*
X5287636Y-31259975D01*
X5374922Y-31375078D01*
X5490025Y-31462364D01*
X5490026Y-31462364D01*
X5490027Y-31462365D01*
X5530509Y-31478329D01*
X5624410Y-31515359D01*
X5708856Y-31525500D01*
X5708858Y-31525500D01*
X6291142Y-31525500D01*
X6291144Y-31525500D01*
X6375590Y-31515359D01*
X6509975Y-31462364D01*
X6625078Y-31375078D01*
X6712364Y-31259975D01*
X6765359Y-31125590D01*
X6775500Y-31041144D01*
X6775500Y-30508856D01*
X6765359Y-30424410D01*
X6728560Y-30331095D01*
X6712365Y-30290027D01*
X6712364Y-30290026D01*
X6712364Y-30290025D01*
X6670348Y-30234619D01*
X6636976Y-30190611D01*
X6616881Y-30132820D01*
X6634592Y-30074254D01*
X6663888Y-30046531D01*
X6702731Y-30022572D01*
X6822574Y-29902729D01*
X6911545Y-29758487D01*
X6964856Y-29597603D01*
X6975000Y-29498323D01*
X6975000Y-29475001D01*
X6974999Y-29475000D01*
X6099000Y-29475000D01*
X6040809Y-29456093D01*
X6004845Y-29406593D01*
X6000000Y-29376000D01*
X6000000Y-29074000D01*
X6018907Y-29015809D01*
X6068407Y-28979845D01*
X6099000Y-28975000D01*
X6974998Y-28975000D01*
X6974999Y-28974999D01*
X6974999Y-28951677D01*
X6964857Y-28852402D01*
X6964854Y-28852390D01*
X6911545Y-28691512D01*
X6822574Y-28547270D01*
X6698654Y-28423350D01*
X6700203Y-28421800D01*
X6692372Y-28417130D01*
X6683724Y-28396942D01*
X6671548Y-28378656D01*
X6671926Y-28369399D01*
X6668280Y-28360887D01*
X6672939Y-28344630D01*
X6674048Y-28317522D01*
X6681847Y-28301225D01*
X6684661Y-28296506D01*
X6712364Y-28259975D01*
X6723910Y-28230696D01*
X6728029Y-28223790D01*
X6745296Y-28208680D01*
X6759895Y-28190984D01*
X6768325Y-28188528D01*
X6774074Y-28183498D01*
X6790815Y-28181977D01*
X6813056Y-28175500D01*
X10325500Y-28175500D01*
X10383691Y-28194407D01*
X10419655Y-28243907D01*
X10424500Y-28274500D01*
X10424500Y-29200333D01*
X10405593Y-29258524D01*
X10384829Y-29279586D01*
X10267458Y-29367450D01*
X10267450Y-29367458D01*
X10181202Y-29482670D01*
X10130910Y-29617511D01*
X10130908Y-29617522D01*
X10127729Y-29647090D01*
X10125437Y-29668417D01*
X10124500Y-29677129D01*
X10124500Y-30144099D01*
X10117336Y-30166146D01*
X10113710Y-30189044D01*
X10108061Y-30194692D01*
X10105593Y-30202290D01*
X10086836Y-30215917D01*
X10070445Y-30232309D01*
X10062555Y-30233558D01*
X10056093Y-30238254D01*
X10032908Y-30238254D01*
X10010013Y-30241880D01*
X10002896Y-30238254D01*
X9994907Y-30238254D01*
X9955496Y-30214103D01*
X9904495Y-30163102D01*
X9876718Y-30108585D01*
X9875499Y-30093098D01*
X9875499Y-29677133D01*
X9875499Y-29677128D01*
X9869091Y-29617517D01*
X9842389Y-29545925D01*
X9818797Y-29482670D01*
X9732549Y-29367458D01*
X9732548Y-29367457D01*
X9732546Y-29367454D01*
X9732541Y-29367450D01*
X9617329Y-29281202D01*
X9482488Y-29230910D01*
X9482483Y-29230909D01*
X9482481Y-29230908D01*
X9482477Y-29230908D01*
X9451249Y-29227550D01*
X9422873Y-29224500D01*
X9422870Y-29224500D01*
X8927133Y-29224500D01*
X8927129Y-29224500D01*
X8927128Y-29224501D01*
X8919949Y-29225272D01*
X8867519Y-29230908D01*
X8867514Y-29230909D01*
X8732670Y-29281202D01*
X8617458Y-29367450D01*
X8617450Y-29367458D01*
X8531202Y-29482670D01*
X8480910Y-29617511D01*
X8480908Y-29617522D01*
X8477729Y-29647090D01*
X8475437Y-29668417D01*
X8474500Y-29677129D01*
X8474500Y-30322866D01*
X8474501Y-30322870D01*
X8480908Y-30382480D01*
X8480909Y-30382485D01*
X8531202Y-30517329D01*
X8598255Y-30606900D01*
X8617454Y-30632546D01*
X8617457Y-30632548D01*
X8617458Y-30632549D01*
X8732670Y-30718797D01*
X8867511Y-30769089D01*
X8867512Y-30769089D01*
X8867517Y-30769091D01*
X8927127Y-30775500D01*
X9343098Y-30775499D01*
X9401289Y-30794406D01*
X9413102Y-30804495D01*
X11193687Y-32585080D01*
X11193689Y-32585081D01*
X11193690Y-32585082D01*
X11193691Y-32585083D01*
X11285008Y-32637805D01*
X11285006Y-32637805D01*
X11285010Y-32637806D01*
X11285012Y-32637807D01*
X11386873Y-32665100D01*
X15989215Y-32665100D01*
X16047406Y-32684007D01*
X16083370Y-32733507D01*
X16083370Y-32794693D01*
X16070833Y-32817845D01*
X16071457Y-32818215D01*
X15994497Y-32947923D01*
X15978395Y-32986799D01*
X15978386Y-32986823D01*
X15960405Y-33037789D01*
X15958574Y-33050529D01*
X15931576Y-33105436D01*
X15924874Y-33111721D01*
X15920000Y-33115883D01*
X15920000Y-33874304D01*
X15915605Y-33869909D01*
X15824394Y-33817248D01*
X15722661Y-33789989D01*
X15617339Y-33789989D01*
X15515606Y-33817248D01*
X15424395Y-33869909D01*
X15420000Y-33874304D01*
X15420000Y-33115884D01*
X15412413Y-33117086D01*
X15247751Y-33170588D01*
X15093475Y-33249195D01*
X15093471Y-33249197D01*
X14953403Y-33350962D01*
X14830962Y-33473403D01*
X14729197Y-33613471D01*
X14729195Y-33613475D01*
X14650588Y-33767751D01*
X14597084Y-33932420D01*
X14570000Y-34103424D01*
X14570000Y-34339999D01*
X14570001Y-34340000D01*
X15270001Y-34340000D01*
X15270001Y-34840000D01*
X14570001Y-34840000D01*
X14570000Y-34840001D01*
X14570000Y-35076575D01*
X14597084Y-35247579D01*
X14650588Y-35412248D01*
X14729195Y-35566524D01*
X14729197Y-35566528D01*
X14830962Y-35706596D01*
X14953403Y-35829037D01*
X15093471Y-35930802D01*
X15093475Y-35930804D01*
X15247751Y-36009411D01*
X15412413Y-36062913D01*
X15420000Y-36064114D01*
X15420000Y-35305696D01*
X15424395Y-35310091D01*
X15515606Y-35362752D01*
X15617339Y-35390011D01*
X15722661Y-35390011D01*
X15824394Y-35362752D01*
X15915605Y-35310091D01*
X15920000Y-35305696D01*
X15920000Y-36064114D01*
X15927586Y-36062913D01*
X16092248Y-36009411D01*
X16246524Y-35930804D01*
X16246528Y-35930802D01*
X16386596Y-35829037D01*
X16509037Y-35706596D01*
X16550442Y-35649607D01*
X16599942Y-35613643D01*
X16661127Y-35613642D01*
X16685537Y-35625481D01*
X16780031Y-35688620D01*
X16902964Y-35739540D01*
X17033469Y-35765500D01*
X17033470Y-35765500D01*
X17166530Y-35765500D01*
X17166531Y-35765500D01*
X17297036Y-35739540D01*
X17419969Y-35688620D01*
X17530606Y-35614695D01*
X17624695Y-35520606D01*
X17698620Y-35409969D01*
X17749540Y-35287036D01*
X17775500Y-35156531D01*
X17775500Y-35023469D01*
X17762646Y-34958850D01*
X17765587Y-34933999D01*
X17765577Y-34908982D01*
X17769126Y-34904092D01*
X17769837Y-34898091D01*
X17786823Y-34879714D01*
X17801521Y-34859468D01*
X17807264Y-34857600D01*
X17811369Y-34853160D01*
X17859704Y-34840537D01*
X17900076Y-34840537D01*
X17901538Y-34840520D01*
X17902060Y-34840520D01*
X17930647Y-34849795D01*
X17959352Y-34858753D01*
X17959702Y-34859223D01*
X17960259Y-34859404D01*
X17977918Y-34883690D01*
X17995891Y-34907830D01*
X17996013Y-34908575D01*
X17996242Y-34908890D01*
X17996242Y-34909968D01*
X18001100Y-34939520D01*
X18001100Y-35080857D01*
X18042023Y-35233584D01*
X18121080Y-35370516D01*
X18232884Y-35482320D01*
X18369816Y-35561377D01*
X18522543Y-35602300D01*
X18522545Y-35602300D01*
X18680655Y-35602300D01*
X18680657Y-35602300D01*
X18833384Y-35561377D01*
X18970316Y-35482320D01*
X19082120Y-35370516D01*
X19161177Y-35233584D01*
X19161177Y-35233581D01*
X19162264Y-35231700D01*
X19207734Y-35190759D01*
X19248001Y-35182200D01*
X19302727Y-35182200D01*
X20043099Y-35182200D01*
X20101290Y-35201107D01*
X20113103Y-35211196D01*
X21663987Y-36762080D01*
X21663989Y-36762081D01*
X21663990Y-36762082D01*
X21663991Y-36762083D01*
X21755308Y-36814805D01*
X21755306Y-36814805D01*
X21755310Y-36814806D01*
X21755312Y-36814807D01*
X21857173Y-36842100D01*
X21857175Y-36842100D01*
X27548825Y-36842100D01*
X27548827Y-36842100D01*
X27650688Y-36814807D01*
X27650690Y-36814805D01*
X27650692Y-36814805D01*
X27742008Y-36762083D01*
X27742008Y-36762082D01*
X27742013Y-36762080D01*
X32195910Y-32308181D01*
X32195913Y-32308180D01*
X32270480Y-32233613D01*
X32305895Y-32172273D01*
X32323207Y-32142288D01*
X32350500Y-32040427D01*
X32350500Y-32016602D01*
X32369407Y-31958411D01*
X32382886Y-31945302D01*
X32382278Y-31944694D01*
X32435578Y-31891393D01*
X32468206Y-31858765D01*
X32513585Y-31755991D01*
X32516500Y-31730865D01*
X32516499Y-30569136D01*
X32513585Y-30544009D01*
X32468206Y-30441235D01*
X32388765Y-30361794D01*
X32285991Y-30316415D01*
X32285990Y-30316414D01*
X32285988Y-30316414D01*
X32260869Y-30313500D01*
X31715182Y-30313500D01*
X31656991Y-30294593D01*
X31646664Y-30285959D01*
X31591609Y-30233170D01*
X31508090Y-30170647D01*
X31508088Y-30170646D01*
X31373381Y-30120403D01*
X31373364Y-30120399D01*
X31362692Y-30119252D01*
X31306857Y-30094230D01*
X31276393Y-30041168D01*
X31282936Y-29980334D01*
X31303274Y-29950818D01*
X31320480Y-29933613D01*
X31373207Y-29842287D01*
X31400500Y-29740427D01*
X31400500Y-29740424D01*
X31401347Y-29733993D01*
X31402794Y-29734183D01*
X31419407Y-29683054D01*
X31468907Y-29647090D01*
X31530093Y-29647090D01*
X31539473Y-29650674D01*
X31614009Y-29683585D01*
X31639135Y-29686500D01*
X32260864Y-29686499D01*
X32285991Y-29683585D01*
X32388765Y-29638206D01*
X32468206Y-29558765D01*
X32513585Y-29455991D01*
X32516500Y-29430865D01*
X32516499Y-28772993D01*
X32516499Y-28269139D01*
X32516499Y-28269136D01*
X32513585Y-28244009D01*
X32468206Y-28141235D01*
X32388765Y-28061794D01*
X32285991Y-28016415D01*
X32285990Y-28016414D01*
X32285988Y-28016414D01*
X32260868Y-28013500D01*
X31639139Y-28013500D01*
X31639136Y-28013501D01*
X31614009Y-28016414D01*
X31514987Y-28060137D01*
X31454117Y-28066345D01*
X31435015Y-28060138D01*
X31335991Y-28016415D01*
X31335990Y-28016414D01*
X31335988Y-28016414D01*
X31310868Y-28013500D01*
X30689139Y-28013500D01*
X30689136Y-28013501D01*
X30664009Y-28016414D01*
X30564987Y-28060137D01*
X30504117Y-28066345D01*
X30485015Y-28060138D01*
X30385991Y-28016415D01*
X30385990Y-28016414D01*
X30385988Y-28016414D01*
X30360868Y-28013500D01*
X29739139Y-28013500D01*
X29739136Y-28013501D01*
X29714009Y-28016414D01*
X29611235Y-28061794D01*
X29531794Y-28141235D01*
X29486414Y-28244011D01*
X29483500Y-28269130D01*
X29483500Y-28269132D01*
X29483500Y-28269135D01*
X29483500Y-28772993D01*
X29483501Y-29188200D01*
X29464594Y-29246391D01*
X29415094Y-29282355D01*
X29384501Y-29287200D01*
X25339827Y-29287200D01*
X25234373Y-29287200D01*
X25172029Y-29303904D01*
X25132507Y-29314494D01*
X25041191Y-29367216D01*
X25041190Y-29367217D01*
X22819803Y-31588603D01*
X22805831Y-31595721D01*
X22794744Y-31606809D01*
X22779256Y-31609261D01*
X22765286Y-31616380D01*
X22749799Y-31613927D01*
X22734312Y-31616380D01*
X22720341Y-31609261D01*
X22704854Y-31606809D01*
X22679795Y-31588603D01*
X22605151Y-31513959D01*
X22577374Y-31459442D01*
X22586945Y-31399010D01*
X22590433Y-31392738D01*
X22668017Y-31264399D01*
X22668020Y-31264392D01*
X22718589Y-31102110D01*
X22718591Y-31102104D01*
X22724999Y-31031581D01*
X22725000Y-31031568D01*
X22725000Y-31025001D01*
X22724999Y-31025000D01*
X20775002Y-31025000D01*
X20775001Y-31025001D01*
X20775001Y-31031582D01*
X20781408Y-31102103D01*
X20781409Y-31102106D01*
X20793762Y-31141746D01*
X20793023Y-31202927D01*
X20756464Y-31251990D01*
X20699245Y-31270200D01*
X18890873Y-31270200D01*
X18789013Y-31297493D01*
X18699107Y-31349400D01*
X18699102Y-31349402D01*
X18697690Y-31350218D01*
X18697686Y-31350221D01*
X17670003Y-32377903D01*
X17615486Y-32405680D01*
X17555054Y-32396109D01*
X17529998Y-32377905D01*
X17096213Y-31944120D01*
X17096210Y-31944118D01*
X17096208Y-31944116D01*
X17004891Y-31891394D01*
X17004893Y-31891394D01*
X16965370Y-31880804D01*
X16903027Y-31864100D01*
X16903025Y-31864100D01*
X11646501Y-31864100D01*
X11588310Y-31845193D01*
X11576497Y-31835104D01*
X10685896Y-30944503D01*
X10658119Y-30889986D01*
X10667690Y-30829554D01*
X10710955Y-30786289D01*
X10755897Y-30775499D01*
X11072872Y-30775499D01*
X11132483Y-30769091D01*
X11199907Y-30743943D01*
X11267329Y-30718797D01*
X11267329Y-30718796D01*
X11267331Y-30718796D01*
X11382546Y-30632546D01*
X11420747Y-30581515D01*
X11470755Y-30546263D01*
X11531934Y-30547137D01*
X11579252Y-30581515D01*
X11617454Y-30632546D01*
X11617457Y-30632548D01*
X11617458Y-30632549D01*
X11732670Y-30718797D01*
X11867511Y-30769089D01*
X11867512Y-30769089D01*
X11867517Y-30769091D01*
X11927127Y-30775500D01*
X12343098Y-30775499D01*
X12401289Y-30794406D01*
X12413101Y-30804495D01*
X12721786Y-31113179D01*
X12721791Y-31113183D01*
X12813108Y-31165905D01*
X12813106Y-31165905D01*
X12813110Y-31165906D01*
X12813112Y-31165907D01*
X12914973Y-31193200D01*
X17554956Y-31193200D01*
X17613147Y-31212107D01*
X17624959Y-31222196D01*
X17651764Y-31249000D01*
X17675984Y-31273220D01*
X17812916Y-31352277D01*
X17965643Y-31393200D01*
X17965645Y-31393200D01*
X18123755Y-31393200D01*
X18123757Y-31393200D01*
X18276484Y-31352277D01*
X18413416Y-31273220D01*
X18525220Y-31161416D01*
X18604277Y-31024484D01*
X18645200Y-30871757D01*
X18645200Y-30713643D01*
X18604277Y-30560916D01*
X18579741Y-30518418D01*
X20775000Y-30518418D01*
X20775000Y-30524999D01*
X20775001Y-30525000D01*
X21499999Y-30525000D01*
X21500000Y-30524999D01*
X21500000Y-29875001D01*
X22000000Y-29875001D01*
X22000000Y-30524999D01*
X22000001Y-30525000D01*
X22724998Y-30525000D01*
X22724999Y-30524999D01*
X22724999Y-30518433D01*
X22724998Y-30518417D01*
X22718591Y-30447896D01*
X22718589Y-30447890D01*
X22668020Y-30285607D01*
X22668017Y-30285599D01*
X22580075Y-30140127D01*
X22459872Y-30019924D01*
X22314400Y-29931982D01*
X22314392Y-29931979D01*
X22152110Y-29881410D01*
X22152104Y-29881408D01*
X22081581Y-29875000D01*
X22000001Y-29875000D01*
X22000000Y-29875001D01*
X21500000Y-29875001D01*
X21499998Y-29874999D01*
X21418434Y-29875000D01*
X21418417Y-29875001D01*
X21347896Y-29881408D01*
X21347890Y-29881410D01*
X21185607Y-29931979D01*
X21185599Y-29931982D01*
X21040127Y-30019924D01*
X20919924Y-30140127D01*
X20831982Y-30285599D01*
X20831979Y-30285607D01*
X20781410Y-30447889D01*
X20781408Y-30447895D01*
X20775000Y-30518418D01*
X18579741Y-30518418D01*
X18525220Y-30423984D01*
X18413416Y-30312180D01*
X18276484Y-30233123D01*
X18123757Y-30192200D01*
X17965643Y-30192200D01*
X17812916Y-30233123D01*
X17680057Y-30309829D01*
X17675981Y-30312182D01*
X17624959Y-30363204D01*
X17570442Y-30390981D01*
X17554956Y-30392200D01*
X14824000Y-30392200D01*
X14765809Y-30373293D01*
X14729845Y-30323793D01*
X14725000Y-30293200D01*
X14725000Y-30250001D01*
X14724999Y-30250000D01*
X13924000Y-30250000D01*
X13865809Y-30231093D01*
X13829845Y-30181593D01*
X13825000Y-30151000D01*
X13825000Y-30000001D01*
X13824999Y-30000000D01*
X13674000Y-30000000D01*
X13615809Y-29981093D01*
X13579845Y-29931593D01*
X13575000Y-29901000D01*
X13575000Y-29025001D01*
X14075000Y-29025001D01*
X14075000Y-29749999D01*
X14075001Y-29750000D01*
X14724998Y-29750000D01*
X14724999Y-29749999D01*
X14724999Y-29668433D01*
X14724998Y-29668417D01*
X14718591Y-29597896D01*
X14718589Y-29597890D01*
X14668020Y-29435607D01*
X14668017Y-29435599D01*
X14580075Y-29290127D01*
X14459872Y-29169924D01*
X14314400Y-29081982D01*
X14314392Y-29081979D01*
X14152110Y-29031410D01*
X14152104Y-29031408D01*
X14081581Y-29025000D01*
X14075001Y-29025000D01*
X14075000Y-29025001D01*
X13575000Y-29025001D01*
X13574998Y-29024999D01*
X13568425Y-29025000D01*
X13497896Y-29031408D01*
X13497890Y-29031410D01*
X13335607Y-29081979D01*
X13335599Y-29081982D01*
X13190127Y-29169924D01*
X13069924Y-29290127D01*
X12981982Y-29435599D01*
X12981978Y-29435609D01*
X12981306Y-29437767D01*
X12980487Y-29438922D01*
X12979523Y-29441065D01*
X12979103Y-29440876D01*
X12945937Y-29487693D01*
X12887977Y-29507296D01*
X12829564Y-29489086D01*
X12807539Y-29467632D01*
X12798822Y-29455988D01*
X12732546Y-29367454D01*
X12732541Y-29367450D01*
X12617329Y-29281202D01*
X12482488Y-29230910D01*
X12482483Y-29230909D01*
X12482481Y-29230908D01*
X12482477Y-29230908D01*
X12451249Y-29227550D01*
X12422873Y-29224500D01*
X12422870Y-29224500D01*
X11927133Y-29224500D01*
X11927129Y-29224500D01*
X11927128Y-29224501D01*
X11919949Y-29225272D01*
X11867519Y-29230908D01*
X11867514Y-29230909D01*
X11732670Y-29281202D01*
X11617458Y-29367450D01*
X11617453Y-29367455D01*
X11579253Y-29418484D01*
X11529244Y-29453736D01*
X11468065Y-29452862D01*
X11420747Y-29418484D01*
X11397183Y-29387007D01*
X11382546Y-29367454D01*
X11382541Y-29367450D01*
X11265171Y-29279586D01*
X11229918Y-29229577D01*
X11225500Y-29200333D01*
X11225500Y-28274500D01*
X11244407Y-28216309D01*
X11293907Y-28180345D01*
X11324500Y-28175500D01*
X12765525Y-28175500D01*
X12765527Y-28175500D01*
X12867388Y-28148207D01*
X12867390Y-28148205D01*
X12867392Y-28148205D01*
X12958708Y-28095483D01*
X12958708Y-28095482D01*
X12958713Y-28095480D01*
X16176597Y-24877596D01*
X16231114Y-24849819D01*
X16246601Y-24848600D01*
X16452658Y-24848600D01*
X16510849Y-24867507D01*
X16546813Y-24917007D01*
X16546813Y-24978193D01*
X16543224Y-24987583D01*
X16531910Y-25013210D01*
X16502414Y-25080011D01*
X16499500Y-25105130D01*
X16499500Y-26194860D01*
X16499501Y-26194863D01*
X16502414Y-26219990D01*
X16514932Y-26248340D01*
X16547794Y-26322765D01*
X16627235Y-26402206D01*
X16730009Y-26447585D01*
X16755135Y-26450500D01*
X18344864Y-26450499D01*
X18369991Y-26447585D01*
X18472765Y-26402206D01*
X18552206Y-26322765D01*
X18597585Y-26219991D01*
X18600157Y-26197824D01*
X21199999Y-26197824D01*
X21206401Y-26257370D01*
X21206403Y-26257381D01*
X21256646Y-26392088D01*
X21256647Y-26392090D01*
X21342807Y-26507184D01*
X21342815Y-26507192D01*
X21457909Y-26593352D01*
X21457911Y-26593353D01*
X21592618Y-26643596D01*
X21592629Y-26643598D01*
X21652176Y-26650000D01*
X22199999Y-26650000D01*
X22200000Y-26649999D01*
X22200000Y-25900001D01*
X22199999Y-25900000D01*
X21200001Y-25900000D01*
X21200000Y-25900001D01*
X21200000Y-26197824D01*
X21199999Y-26197824D01*
X18600157Y-26197824D01*
X18600500Y-26194865D01*
X18600500Y-26140915D01*
X18619407Y-26082724D01*
X18668907Y-26046760D01*
X18673859Y-26045293D01*
X18756288Y-26023207D01*
X18756290Y-26023205D01*
X18756292Y-26023205D01*
X18847608Y-25970483D01*
X18847608Y-25970482D01*
X18847613Y-25970480D01*
X19540297Y-25277796D01*
X19594814Y-25250019D01*
X19610301Y-25248800D01*
X21101000Y-25248800D01*
X21159191Y-25267707D01*
X21195155Y-25317207D01*
X21200000Y-25347800D01*
X21200000Y-25399999D01*
X21200001Y-25400000D01*
X23699999Y-25400000D01*
X23700000Y-25399999D01*
X23700000Y-25347800D01*
X23718907Y-25289609D01*
X23768407Y-25253645D01*
X23799000Y-25248800D01*
X24132599Y-25248800D01*
X24190790Y-25267707D01*
X24202603Y-25277796D01*
X25170718Y-26245910D01*
X25170720Y-26245913D01*
X25180305Y-26255498D01*
X25208081Y-26310013D01*
X25198510Y-26370445D01*
X25155245Y-26413710D01*
X25110300Y-26424500D01*
X24650644Y-26424500D01*
X24592453Y-26405593D01*
X24580641Y-26395504D01*
X24529618Y-26344482D01*
X24529616Y-26344480D01*
X24392684Y-26265423D01*
X24239957Y-26224500D01*
X24081843Y-26224500D01*
X24005479Y-26244961D01*
X23929114Y-26265423D01*
X23845851Y-26313495D01*
X23786003Y-26326216D01*
X23730107Y-26301329D01*
X23699515Y-26248340D01*
X23697919Y-26217173D01*
X23700000Y-26197820D01*
X23700000Y-25900001D01*
X23699999Y-25900000D01*
X22700001Y-25900000D01*
X22700000Y-25900001D01*
X22700000Y-26649999D01*
X22700001Y-26650000D01*
X23247824Y-26650000D01*
X23307370Y-26643598D01*
X23307378Y-26643596D01*
X23439037Y-26594491D01*
X23500167Y-26591871D01*
X23551161Y-26625682D01*
X23572543Y-26683009D01*
X23569261Y-26712870D01*
X23560400Y-26745940D01*
X23560400Y-26745943D01*
X23560400Y-26904057D01*
X23601323Y-27056784D01*
X23680380Y-27193716D01*
X23792184Y-27305520D01*
X23929116Y-27384577D01*
X24081843Y-27425500D01*
X24081845Y-27425500D01*
X24239955Y-27425500D01*
X24239957Y-27425500D01*
X24392684Y-27384577D01*
X24529616Y-27305520D01*
X24567807Y-27267329D01*
X24580641Y-27254496D01*
X24635158Y-27226719D01*
X24650644Y-27225500D01*
X25200334Y-27225500D01*
X25258525Y-27244407D01*
X25279587Y-27265171D01*
X25309791Y-27305519D01*
X25367454Y-27382546D01*
X25367457Y-27382548D01*
X25367458Y-27382549D01*
X25482670Y-27468797D01*
X25617511Y-27519089D01*
X25617512Y-27519089D01*
X25617517Y-27519091D01*
X25677127Y-27525500D01*
X26322872Y-27525499D01*
X26382483Y-27519091D01*
X26449907Y-27493943D01*
X26517329Y-27468797D01*
X26517329Y-27468796D01*
X26517331Y-27468796D01*
X26632546Y-27382546D01*
X26718796Y-27267331D01*
X26769091Y-27132483D01*
X26775500Y-27072873D01*
X26775499Y-26577128D01*
X26769091Y-26517517D01*
X26769090Y-26517516D01*
X26768429Y-26511359D01*
X26771134Y-26511068D01*
X26775232Y-26461288D01*
X26815134Y-26414905D01*
X26866560Y-26400500D01*
X29199399Y-26400500D01*
X29257590Y-26419407D01*
X29269403Y-26429496D01*
X29945487Y-27105580D01*
X29945489Y-27105581D01*
X29945490Y-27105582D01*
X29945491Y-27105583D01*
X30036808Y-27158305D01*
X30036806Y-27158305D01*
X30036810Y-27158306D01*
X30036812Y-27158307D01*
X30138673Y-27185600D01*
X30244127Y-27185600D01*
X34496516Y-27185600D01*
X34554707Y-27204507D01*
X34576609Y-27226410D01*
X34622442Y-27289495D01*
X34622444Y-27289497D01*
X34622447Y-27289501D01*
X34750499Y-27417553D01*
X34897006Y-27523996D01*
X35058361Y-27606211D01*
X35069483Y-27609824D01*
X35072983Y-27610962D01*
X35122483Y-27646926D01*
X35141391Y-27705116D01*
X35122484Y-27763307D01*
X35072985Y-27799271D01*
X35072984Y-27799272D01*
X34981784Y-27828904D01*
X34792446Y-27925376D01*
X34792442Y-27925378D01*
X34738282Y-27964728D01*
X35370591Y-28597037D01*
X35307007Y-28614075D01*
X35192993Y-28679901D01*
X35099901Y-28772993D01*
X35034075Y-28887007D01*
X35017037Y-28950591D01*
X34384728Y-28318282D01*
X34345378Y-28372442D01*
X34345376Y-28372446D01*
X34248904Y-28561784D01*
X34183240Y-28763878D01*
X34150000Y-28973749D01*
X34150000Y-29186250D01*
X34183240Y-29396121D01*
X34248904Y-29598215D01*
X34345376Y-29787553D01*
X34345380Y-29787559D01*
X34384728Y-29841716D01*
X34384729Y-29841716D01*
X35017037Y-29209407D01*
X35034075Y-29272993D01*
X35099901Y-29387007D01*
X35192993Y-29480099D01*
X35307007Y-29545925D01*
X35370589Y-29562962D01*
X34738282Y-30195269D01*
X34738282Y-30195270D01*
X34792440Y-30234619D01*
X34792446Y-30234623D01*
X34981784Y-30331095D01*
X35183878Y-30396759D01*
X35393750Y-30430000D01*
X35606250Y-30430000D01*
X35816121Y-30396759D01*
X36018215Y-30331095D01*
X36207556Y-30234620D01*
X36261716Y-30195270D01*
X35629408Y-29562962D01*
X35692993Y-29545925D01*
X35807007Y-29480099D01*
X35900099Y-29387007D01*
X35965925Y-29272993D01*
X35982962Y-29209408D01*
X36615270Y-29841716D01*
X36654620Y-29787556D01*
X36751095Y-29598215D01*
X36816759Y-29396121D01*
X36850000Y-29186250D01*
X36850000Y-28973749D01*
X36816759Y-28763878D01*
X36751095Y-28561784D01*
X36654623Y-28372446D01*
X36654619Y-28372440D01*
X36615270Y-28318282D01*
X36615269Y-28318282D01*
X35982962Y-28950589D01*
X35965925Y-28887007D01*
X35900099Y-28772993D01*
X35807007Y-28679901D01*
X35692993Y-28614075D01*
X35629407Y-28597037D01*
X36261716Y-27964729D01*
X36261716Y-27964728D01*
X36207559Y-27925380D01*
X36207553Y-27925376D01*
X36018215Y-27828904D01*
X35927015Y-27799272D01*
X35877515Y-27763308D01*
X35858608Y-27705117D01*
X35877515Y-27646926D01*
X35927013Y-27610962D01*
X35927017Y-27610962D01*
X35927018Y-27610962D01*
X35941633Y-27606213D01*
X35941633Y-27606212D01*
X35941639Y-27606211D01*
X36102994Y-27523996D01*
X36249501Y-27417553D01*
X36377553Y-27289501D01*
X36483996Y-27142994D01*
X36566211Y-26981639D01*
X36622171Y-26809409D01*
X36650500Y-26630546D01*
X36650500Y-26449454D01*
X36650500Y-26449450D01*
X36630981Y-26326216D01*
X36622171Y-26270591D01*
X36566211Y-26098361D01*
X36483996Y-25937006D01*
X36377553Y-25790499D01*
X36249501Y-25662447D01*
X36102994Y-25556004D01*
X36102993Y-25556003D01*
X36102991Y-25556002D01*
X35941637Y-25473788D01*
X35769406Y-25417828D01*
X35590549Y-25389500D01*
X35590546Y-25389500D01*
X35409454Y-25389500D01*
X35409451Y-25389500D01*
X35230593Y-25417828D01*
X35058362Y-25473788D01*
X34897008Y-25556002D01*
X34823752Y-25609225D01*
X34750499Y-25662447D01*
X34622447Y-25790499D01*
X34600294Y-25820990D01*
X34516002Y-25937008D01*
X34433788Y-26098362D01*
X34377827Y-26270594D01*
X34372999Y-26301085D01*
X34345223Y-26355602D01*
X34290707Y-26383381D01*
X34275218Y-26384600D01*
X32120108Y-26384600D01*
X32061917Y-26365693D01*
X32025953Y-26316193D01*
X32021814Y-26273796D01*
X32025500Y-26243102D01*
X32025500Y-25656898D01*
X32014877Y-25568436D01*
X32014876Y-25568435D01*
X32014120Y-25562134D01*
X32015658Y-25561949D01*
X32019223Y-25508477D01*
X32041130Y-25475262D01*
X33086897Y-24429496D01*
X33141414Y-24401719D01*
X33156901Y-24400500D01*
X34250501Y-24400500D01*
X34308692Y-24419407D01*
X34344656Y-24468907D01*
X34349501Y-24499500D01*
X34349501Y-24894863D01*
X34352414Y-24919990D01*
X34360804Y-24938991D01*
X34397794Y-25022765D01*
X34477235Y-25102206D01*
X34580009Y-25147585D01*
X34605135Y-25150500D01*
X36394864Y-25150499D01*
X36419991Y-25147585D01*
X36522765Y-25102206D01*
X36602206Y-25022765D01*
X36647585Y-24919991D01*
X36650500Y-24894865D01*
X36650499Y-23105136D01*
X36647585Y-23080009D01*
X36602206Y-22977235D01*
X36522765Y-22897794D01*
X36419991Y-22852415D01*
X36419990Y-22852414D01*
X36419988Y-22852414D01*
X36394868Y-22849500D01*
X34605139Y-22849500D01*
X34605136Y-22849501D01*
X34580009Y-22852414D01*
X34477235Y-22897794D01*
X34397794Y-22977235D01*
X34352414Y-23080011D01*
X34349500Y-23105130D01*
X34349500Y-23500500D01*
X34330593Y-23558691D01*
X34281093Y-23594655D01*
X34250500Y-23599500D01*
X32897273Y-23599500D01*
X32795413Y-23626793D01*
X32795410Y-23626794D01*
X32795409Y-23626795D01*
X32790688Y-23629521D01*
X32790687Y-23629520D01*
X32704087Y-23679519D01*
X32394002Y-23989604D01*
X32339486Y-24017381D01*
X32279054Y-24007810D01*
X32235789Y-23964545D01*
X32224999Y-23919600D01*
X32224999Y-23750013D01*
X32214507Y-23647312D01*
X32214504Y-23647300D01*
X32159356Y-23480875D01*
X32067319Y-23331659D01*
X31943340Y-23207680D01*
X31794124Y-23115643D01*
X31627693Y-23060493D01*
X31524987Y-23050000D01*
X31250001Y-23050000D01*
X31250000Y-23050001D01*
X31250000Y-23951000D01*
X31231093Y-24009191D01*
X31181593Y-24045155D01*
X31151000Y-24050000D01*
X30849000Y-24050000D01*
X30790809Y-24031093D01*
X30754845Y-23981593D01*
X30750000Y-23951000D01*
X30750000Y-23050001D01*
X30749999Y-23050000D01*
X30475013Y-23050000D01*
X30372312Y-23060492D01*
X30372300Y-23060495D01*
X30205875Y-23115643D01*
X30056659Y-23207680D01*
X29932680Y-23331659D01*
X29840643Y-23480875D01*
X29785493Y-23647306D01*
X29775000Y-23750012D01*
X29775000Y-23919599D01*
X29756093Y-23977790D01*
X29706593Y-24013754D01*
X29645407Y-24013754D01*
X29605996Y-23989603D01*
X27645911Y-22029518D01*
X25621713Y-20005320D01*
X25621710Y-20005318D01*
X25621709Y-20005317D01*
X25621708Y-20005316D01*
X25530391Y-19952594D01*
X25530393Y-19952594D01*
X25490870Y-19942004D01*
X25428527Y-19925300D01*
X25428525Y-19925300D01*
X19069499Y-19925300D01*
X19054587Y-19920455D01*
X19038906Y-19920455D01*
X19026220Y-19911238D01*
X19011308Y-19906393D01*
X19002091Y-19893707D01*
X18989406Y-19884491D01*
X18984560Y-19869578D01*
X18975344Y-19856893D01*
X18970499Y-19826300D01*
X18970499Y-19705900D01*
X18989406Y-19647709D01*
X19038906Y-19611745D01*
X19069499Y-19606900D01*
X22021325Y-19606900D01*
X22021327Y-19606900D01*
X22123188Y-19579607D01*
X22123190Y-19579605D01*
X22123192Y-19579605D01*
X22214508Y-19526883D01*
X22214508Y-19526882D01*
X22214513Y-19526880D01*
X22936897Y-18804494D01*
X22991414Y-18776718D01*
X23006901Y-18775499D01*
X23422867Y-18775499D01*
X23422872Y-18775499D01*
X23482483Y-18769091D01*
X23567202Y-18737493D01*
X23617329Y-18718797D01*
X23617329Y-18718796D01*
X23617331Y-18718796D01*
X23732546Y-18632546D01*
X23818796Y-18517331D01*
X23869091Y-18382483D01*
X23875500Y-18322873D01*
X23875499Y-17855899D01*
X23882662Y-17833852D01*
X23886289Y-17810955D01*
X23891937Y-17805306D01*
X23894406Y-17797709D01*
X23913162Y-17784081D01*
X23929554Y-17767690D01*
X23937443Y-17766440D01*
X23943906Y-17761745D01*
X23967091Y-17761745D01*
X23989986Y-17758119D01*
X23997103Y-17761745D01*
X24005091Y-17761745D01*
X24044503Y-17785896D01*
X24095504Y-17836897D01*
X24123281Y-17891414D01*
X24124500Y-17906901D01*
X24124500Y-18322866D01*
X24124501Y-18322870D01*
X24130908Y-18382480D01*
X24130909Y-18382485D01*
X24181202Y-18517329D01*
X24267450Y-18632541D01*
X24267454Y-18632546D01*
X24267457Y-18632548D01*
X24267458Y-18632549D01*
X24382670Y-18718797D01*
X24517511Y-18769089D01*
X24517512Y-18769089D01*
X24517517Y-18769091D01*
X24577127Y-18775500D01*
X25072872Y-18775499D01*
X25132483Y-18769091D01*
X25217202Y-18737493D01*
X25267329Y-18718797D01*
X25267329Y-18718796D01*
X25267331Y-18718796D01*
X25382546Y-18632546D01*
X25468796Y-18517331D01*
X25488350Y-18464901D01*
X25526400Y-18416989D01*
X25581108Y-18400500D01*
X25927085Y-18400500D01*
X25985276Y-18419407D01*
X26019182Y-18463181D01*
X26022616Y-18471888D01*
X26037636Y-18509975D01*
X26124922Y-18625078D01*
X26240025Y-18712364D01*
X26240026Y-18712364D01*
X26240027Y-18712365D01*
X26303747Y-18737493D01*
X26374410Y-18765359D01*
X26458856Y-18775500D01*
X26893099Y-18775500D01*
X26951290Y-18794407D01*
X26963102Y-18804496D01*
X27339386Y-19180779D01*
X27339391Y-19180783D01*
X27430708Y-19233505D01*
X27430706Y-19233505D01*
X27430710Y-19233506D01*
X27430712Y-19233507D01*
X27532573Y-19260800D01*
X27532575Y-19260800D01*
X38358225Y-19260800D01*
X38358227Y-19260800D01*
X38460088Y-19233507D01*
X38460090Y-19233505D01*
X38460092Y-19233505D01*
X38551408Y-19180783D01*
X38551408Y-19180782D01*
X38551413Y-19180780D01*
X39130998Y-18601194D01*
X39185513Y-18573419D01*
X39245945Y-18582990D01*
X39289210Y-18626255D01*
X39300000Y-18671200D01*
X39300000Y-39201000D01*
X39281093Y-39259191D01*
X39231593Y-39295155D01*
X39201000Y-39300000D01*
X25523198Y-39300000D01*
X25465007Y-39281093D01*
X25429043Y-39231593D01*
X25425417Y-39185514D01*
X25430000Y-39156576D01*
X25430000Y-39020001D01*
X25429999Y-39020000D01*
X24729999Y-39020000D01*
X24729999Y-38520000D01*
X25429999Y-38520000D01*
X25430000Y-38519999D01*
X25430000Y-38383424D01*
X25402915Y-38212420D01*
X25349411Y-38047751D01*
X25270804Y-37893475D01*
X25270802Y-37893471D01*
X25169037Y-37753403D01*
X25046596Y-37630962D01*
X24906528Y-37529197D01*
X24906524Y-37529195D01*
X24752248Y-37450588D01*
X24587586Y-37397086D01*
X24580000Y-37395884D01*
X24580000Y-38154316D01*
X24575605Y-38149921D01*
X24484394Y-38097260D01*
X24382661Y-38070001D01*
X24277339Y-38070001D01*
X24175606Y-38097260D01*
X24084395Y-38149921D01*
X24080000Y-38154316D01*
X24080000Y-37395884D01*
X24072413Y-37397086D01*
X23907751Y-37450588D01*
X23753475Y-37529195D01*
X23753471Y-37529197D01*
X23613403Y-37630962D01*
X23490962Y-37753403D01*
X23389197Y-37893471D01*
X23389195Y-37893475D01*
X23310588Y-38047751D01*
X23257084Y-38212420D01*
X23230000Y-38383424D01*
X23230000Y-38519999D01*
X23230001Y-38520000D01*
X23930001Y-38520000D01*
X23930001Y-39020000D01*
X23230001Y-39020000D01*
X23230000Y-39020001D01*
X23230000Y-39156576D01*
X23229999Y-39156576D01*
X23234583Y-39185514D01*
X23225011Y-39245946D01*
X23181746Y-39289210D01*
X23136802Y-39300000D01*
X16863198Y-39300000D01*
X16805007Y-39281093D01*
X16769043Y-39231593D01*
X16765417Y-39185514D01*
X16770000Y-39156576D01*
X16770000Y-39020001D01*
X16769999Y-39020000D01*
X16069999Y-39020000D01*
X16069999Y-38520000D01*
X16769999Y-38520000D01*
X16770000Y-38519999D01*
X16770000Y-38383424D01*
X16742915Y-38212420D01*
X16689411Y-38047751D01*
X16610804Y-37893475D01*
X16610802Y-37893471D01*
X16509037Y-37753403D01*
X16386596Y-37630962D01*
X16246528Y-37529197D01*
X16246524Y-37529195D01*
X16092248Y-37450588D01*
X15927586Y-37397086D01*
X15920000Y-37395884D01*
X15920000Y-38154316D01*
X15915605Y-38149921D01*
X15824394Y-38097260D01*
X15722661Y-38070001D01*
X15617339Y-38070001D01*
X15515606Y-38097260D01*
X15424395Y-38149921D01*
X15420000Y-38154316D01*
X15420000Y-37395884D01*
X15412413Y-37397086D01*
X15247751Y-37450588D01*
X15093475Y-37529195D01*
X15093471Y-37529197D01*
X14953403Y-37630962D01*
X14830962Y-37753403D01*
X14729197Y-37893471D01*
X14729195Y-37893475D01*
X14650588Y-38047751D01*
X14597084Y-38212420D01*
X14570000Y-38383424D01*
X14570000Y-38519999D01*
X14570001Y-38520000D01*
X15270001Y-38520000D01*
X15270001Y-39020000D01*
X14570001Y-39020000D01*
X14570000Y-39020001D01*
X14570000Y-39156576D01*
X14569999Y-39156576D01*
X14574583Y-39185514D01*
X14565011Y-39245946D01*
X14521746Y-39289210D01*
X14476802Y-39300000D01*
X799000Y-39300000D01*
X740809Y-39281093D01*
X704845Y-39231593D01*
X700000Y-39201000D01*
X700000Y-799000D01*
X718907Y-740809D01*
X768407Y-704845D01*
X799000Y-700000D01*
X5901000Y-700000D01*
X5959191Y-718907D01*
G37*
%TD.AperFunction*%
%TA.AperFunction,Conductor*%
G36*
X31209191Y-31168907D02*
G01*
X31245155Y-31218407D01*
X31250000Y-31249000D01*
X31250000Y-32080299D01*
X31231093Y-32138490D01*
X31221004Y-32150303D01*
X27359203Y-36012104D01*
X27304686Y-36039881D01*
X27289199Y-36041100D01*
X26802001Y-36041100D01*
X26743810Y-36022193D01*
X26707846Y-35972693D01*
X26707846Y-35911507D01*
X26731997Y-35872096D01*
X27580625Y-35023468D01*
X30370480Y-32233613D01*
X30399654Y-32183081D01*
X30445122Y-32142141D01*
X30505972Y-32135745D01*
X30519987Y-32139824D01*
X30626622Y-32179596D01*
X30626629Y-32179598D01*
X30686176Y-32186000D01*
X30749999Y-32186000D01*
X30750000Y-32185999D01*
X30750000Y-31249000D01*
X30768907Y-31190809D01*
X30818407Y-31154845D01*
X30849000Y-31150000D01*
X31151000Y-31150000D01*
X31209191Y-31168907D01*
G37*
%TD.AperFunction*%
%TA.AperFunction,Conductor*%
G36*
X30323203Y-30093654D02*
G01*
X30340841Y-30094378D01*
X30351580Y-30102874D01*
X30364606Y-30107107D01*
X30374983Y-30121389D01*
X30388825Y-30132341D01*
X30392519Y-30145526D01*
X30400570Y-30156607D01*
X30400570Y-30174260D01*
X30405332Y-30191257D01*
X30400570Y-30204096D01*
X30400570Y-30217793D01*
X30387703Y-30238789D01*
X30384056Y-30248624D01*
X30362458Y-30275924D01*
X30338041Y-30292177D01*
X30314058Y-30309083D01*
X30312675Y-30309063D01*
X30311525Y-30309829D01*
X30284817Y-30313500D01*
X29739139Y-30313500D01*
X29739136Y-30313501D01*
X29714009Y-30316414D01*
X29611235Y-30361794D01*
X29581629Y-30391399D01*
X29527111Y-30419175D01*
X29466679Y-30409601D01*
X29462129Y-30407130D01*
X29431288Y-30389325D01*
X29431286Y-30389324D01*
X29431284Y-30389323D01*
X29278557Y-30348400D01*
X29120443Y-30348400D01*
X28967716Y-30389323D01*
X28830784Y-30468380D01*
X28718980Y-30580184D01*
X28639923Y-30717116D01*
X28599000Y-30869843D01*
X28599000Y-31027957D01*
X28639923Y-31180684D01*
X28718980Y-31317616D01*
X28830784Y-31429420D01*
X28967716Y-31508477D01*
X29120443Y-31549400D01*
X29120445Y-31549400D01*
X29278556Y-31549400D01*
X29278557Y-31549400D01*
X29358877Y-31527878D01*
X29419978Y-31531079D01*
X29467528Y-31569584D01*
X29483500Y-31623503D01*
X29483500Y-31730859D01*
X29483501Y-31730864D01*
X29486414Y-31755990D01*
X29529134Y-31852741D01*
X29535342Y-31913611D01*
X29508573Y-31962733D01*
X25860903Y-35610404D01*
X25806386Y-35638181D01*
X25790899Y-35639400D01*
X25395226Y-35639400D01*
X25337035Y-35620493D01*
X25301071Y-35570993D01*
X25301071Y-35509807D01*
X25307016Y-35495455D01*
X25349411Y-35412248D01*
X25402915Y-35247579D01*
X25430000Y-35076575D01*
X25430000Y-34840001D01*
X25429999Y-34840000D01*
X24729999Y-34840000D01*
X24729999Y-34340000D01*
X25429999Y-34340000D01*
X25430000Y-34339999D01*
X25430000Y-34103424D01*
X25402915Y-33932420D01*
X25349411Y-33767751D01*
X25270804Y-33613475D01*
X25270802Y-33613471D01*
X25169037Y-33473403D01*
X25046596Y-33350962D01*
X24906528Y-33249197D01*
X24906524Y-33249195D01*
X24752248Y-33170588D01*
X24587586Y-33117086D01*
X24580000Y-33115884D01*
X24580000Y-33874329D01*
X24575605Y-33869934D01*
X24484394Y-33817273D01*
X24382661Y-33790014D01*
X24277339Y-33790014D01*
X24175606Y-33817273D01*
X24084395Y-33869934D01*
X24080000Y-33874329D01*
X24080000Y-33115884D01*
X24071153Y-33108329D01*
X24039519Y-33057528D01*
X24021431Y-32986657D01*
X24005322Y-32947766D01*
X23953580Y-32853009D01*
X23953576Y-32853003D01*
X23855632Y-32747806D01*
X23732013Y-32674459D01*
X23693137Y-32658357D01*
X23693114Y-32658348D01*
X23642145Y-32640367D01*
X23499876Y-32619912D01*
X23249300Y-32619912D01*
X23191109Y-32601005D01*
X23155145Y-32551505D01*
X23150300Y-32520912D01*
X23150300Y-32431901D01*
X23169207Y-32373710D01*
X23179296Y-32361897D01*
X25423997Y-30117196D01*
X25478514Y-30089419D01*
X25494001Y-30088200D01*
X30306415Y-30088200D01*
X30323203Y-30093654D01*
G37*
%TD.AperFunction*%
%TA.AperFunction,Conductor*%
G36*
X10708691Y-18419407D02*
G01*
X10744655Y-18468907D01*
X10749500Y-18499500D01*
X10749500Y-18518106D01*
X10760123Y-18606565D01*
X10815637Y-18747339D01*
X10815638Y-18747341D01*
X10815639Y-18747342D01*
X10907078Y-18867922D01*
X11027658Y-18959361D01*
X11027659Y-18959361D01*
X11027660Y-18959362D01*
X11098047Y-18987119D01*
X11168436Y-19014877D01*
X11256898Y-19025500D01*
X11256900Y-19025500D01*
X11843100Y-19025500D01*
X11843102Y-19025500D01*
X11931564Y-19014877D01*
X11931564Y-19014876D01*
X11937866Y-19014120D01*
X11938050Y-19015659D01*
X11991518Y-19019222D01*
X12024736Y-19041130D01*
X12510486Y-19526879D01*
X12510491Y-19526883D01*
X12601808Y-19579605D01*
X12601806Y-19579605D01*
X12601810Y-19579606D01*
X12601812Y-19579607D01*
X12703673Y-19606900D01*
X12809127Y-19606900D01*
X14930500Y-19606900D01*
X14988691Y-19625807D01*
X15024655Y-19675307D01*
X15029500Y-19705900D01*
X15029500Y-20394860D01*
X15029501Y-20394863D01*
X15032414Y-20419990D01*
X15057756Y-20477385D01*
X15077794Y-20522765D01*
X15157235Y-20602206D01*
X15260009Y-20647585D01*
X15285135Y-20650500D01*
X15339083Y-20650499D01*
X15397273Y-20669405D01*
X15433238Y-20718905D01*
X15434711Y-20723876D01*
X15456794Y-20806292D01*
X15509516Y-20897608D01*
X15509518Y-20897610D01*
X15509520Y-20897613D01*
X15995505Y-21383598D01*
X16023281Y-21438113D01*
X16024500Y-21453600D01*
X16024500Y-22143098D01*
X16005593Y-22201289D01*
X15995504Y-22213102D01*
X15144003Y-23064603D01*
X15089486Y-23092380D01*
X15029054Y-23082809D01*
X14985789Y-23039544D01*
X14974999Y-22994599D01*
X14974999Y-22951677D01*
X14964857Y-22852402D01*
X14964854Y-22852390D01*
X14911545Y-22691512D01*
X14822574Y-22547270D01*
X14702729Y-22427425D01*
X14558487Y-22338454D01*
X14397603Y-22285143D01*
X14298323Y-22275000D01*
X14250001Y-22275000D01*
X14250000Y-22275001D01*
X14250000Y-23126000D01*
X14231093Y-23184191D01*
X14181593Y-23220155D01*
X14151000Y-23225000D01*
X14000001Y-23225000D01*
X14000000Y-23225001D01*
X14000000Y-23376000D01*
X13981093Y-23434191D01*
X13931593Y-23470155D01*
X13901000Y-23475000D01*
X13025002Y-23475000D01*
X13025001Y-23475001D01*
X13025001Y-23498322D01*
X13035142Y-23597597D01*
X13035145Y-23597609D01*
X13088454Y-23758487D01*
X13177425Y-23902729D01*
X13297267Y-24022571D01*
X13336112Y-24046531D01*
X13375713Y-24093173D01*
X13380336Y-24154183D01*
X13363023Y-24190611D01*
X13287637Y-24290023D01*
X13287634Y-24290027D01*
X13234641Y-24424408D01*
X13224500Y-24508851D01*
X13224500Y-25041148D01*
X13234641Y-25125591D01*
X13287634Y-25259972D01*
X13287635Y-25259974D01*
X13287636Y-25259975D01*
X13374922Y-25375078D01*
X13490025Y-25462364D01*
X13490026Y-25462364D01*
X13490027Y-25462365D01*
X13522732Y-25475262D01*
X13624410Y-25515359D01*
X13708856Y-25525500D01*
X13708858Y-25525500D01*
X14156898Y-25525500D01*
X14215089Y-25544407D01*
X14251053Y-25593907D01*
X14251053Y-25655093D01*
X14226902Y-25694504D01*
X12575903Y-27345504D01*
X12521386Y-27373281D01*
X12505899Y-27374500D01*
X7205900Y-27374500D01*
X7147709Y-27355593D01*
X7111745Y-27306093D01*
X7111745Y-27244907D01*
X7135894Y-27205498D01*
X7258480Y-27082913D01*
X7265408Y-27070913D01*
X7311207Y-26991587D01*
X7338500Y-26889727D01*
X7338500Y-24660499D01*
X7357407Y-24602308D01*
X7406907Y-24566344D01*
X7437500Y-24561499D01*
X7897361Y-24561499D01*
X7897364Y-24561499D01*
X7922491Y-24558585D01*
X8025265Y-24513206D01*
X8104706Y-24433765D01*
X8150085Y-24330991D01*
X8153000Y-24305865D01*
X8152999Y-23760181D01*
X8171906Y-23701991D01*
X8192671Y-23680928D01*
X8209686Y-23668190D01*
X8209692Y-23668184D01*
X8295852Y-23553090D01*
X8295853Y-23553088D01*
X8346096Y-23418381D01*
X8346098Y-23418370D01*
X8352500Y-23358824D01*
X8352500Y-23250001D01*
X8352499Y-23250000D01*
X7399000Y-23250000D01*
X7340809Y-23231093D01*
X7304845Y-23181593D01*
X7300000Y-23151000D01*
X7300000Y-22951676D01*
X13025000Y-22951676D01*
X13025000Y-22974999D01*
X13025001Y-22975000D01*
X13749999Y-22975000D01*
X13750000Y-22974999D01*
X13750000Y-22274999D01*
X13701679Y-22275000D01*
X13701676Y-22275001D01*
X13602402Y-22285142D01*
X13602390Y-22285145D01*
X13441512Y-22338454D01*
X13297270Y-22427425D01*
X13177425Y-22547270D01*
X13088454Y-22691512D01*
X13035143Y-22852396D01*
X13025000Y-22951676D01*
X7300000Y-22951676D01*
X7300000Y-22849000D01*
X7318907Y-22790809D01*
X7368407Y-22754845D01*
X7399000Y-22750000D01*
X8352499Y-22750000D01*
X8352500Y-22749999D01*
X8352500Y-22641175D01*
X8346098Y-22581629D01*
X8346096Y-22581618D01*
X8295853Y-22446911D01*
X8295852Y-22446909D01*
X8209692Y-22331815D01*
X8209683Y-22331806D01*
X8192669Y-22319069D01*
X8157417Y-22269060D01*
X8152999Y-22239822D01*
X8152999Y-21694136D01*
X8150085Y-21669009D01*
X8104706Y-21566235D01*
X8025265Y-21486794D01*
X7922491Y-21441415D01*
X7922490Y-21441414D01*
X7922488Y-21441414D01*
X7897368Y-21438500D01*
X6702639Y-21438500D01*
X6702636Y-21438501D01*
X6677509Y-21441414D01*
X6574735Y-21486794D01*
X6495294Y-21566235D01*
X6449914Y-21669011D01*
X6447000Y-21694130D01*
X6447000Y-21896199D01*
X6428093Y-21954390D01*
X6418004Y-21966202D01*
X6125320Y-22258886D01*
X6125316Y-22258891D01*
X6072595Y-22350206D01*
X6072593Y-22350210D01*
X6072593Y-22350212D01*
X6050949Y-22430991D01*
X6045300Y-22452073D01*
X6045300Y-23405073D01*
X6045300Y-23510527D01*
X6067842Y-23594655D01*
X6072594Y-23612392D01*
X6125316Y-23703708D01*
X6125320Y-23703713D01*
X6418004Y-23996398D01*
X6445781Y-24050914D01*
X6447000Y-24066401D01*
X6447000Y-24305859D01*
X6447001Y-24305864D01*
X6449914Y-24330990D01*
X6461299Y-24356773D01*
X6495294Y-24433765D01*
X6508505Y-24446976D01*
X6536281Y-24501491D01*
X6537500Y-24516978D01*
X6537500Y-25194401D01*
X6518593Y-25252592D01*
X6469093Y-25288556D01*
X6407907Y-25288556D01*
X6407362Y-25288377D01*
X6397602Y-25285143D01*
X6298323Y-25275000D01*
X6250001Y-25275000D01*
X6250000Y-25275001D01*
X6250000Y-26126000D01*
X6231093Y-26184191D01*
X6181593Y-26220155D01*
X6151000Y-26225000D01*
X5849000Y-26225000D01*
X5790809Y-26206093D01*
X5754845Y-26156593D01*
X5750000Y-26126000D01*
X5750000Y-25274999D01*
X5701679Y-25275000D01*
X5701676Y-25275001D01*
X5602402Y-25285142D01*
X5602390Y-25285145D01*
X5464318Y-25330897D01*
X5403133Y-25331253D01*
X5353425Y-25295577D01*
X5334180Y-25237498D01*
X5352748Y-25179198D01*
X5363168Y-25166924D01*
X5874680Y-24655413D01*
X5902689Y-24606900D01*
X5927405Y-24564092D01*
X5927405Y-24564090D01*
X5927407Y-24564088D01*
X5954700Y-24462227D01*
X5954700Y-24356773D01*
X5954700Y-23897273D01*
X5927407Y-23795413D01*
X5907066Y-23760182D01*
X5874681Y-23704089D01*
X5874680Y-23704087D01*
X5800113Y-23629520D01*
X5795393Y-23626795D01*
X5708789Y-23576794D01*
X5708788Y-23576793D01*
X5708787Y-23576793D01*
X5606927Y-23549500D01*
X5606925Y-23549500D01*
X5605979Y-23549500D01*
X5605333Y-23549290D01*
X5600493Y-23548653D01*
X5600611Y-23547755D01*
X5547788Y-23530593D01*
X5515415Y-23490489D01*
X5504706Y-23466235D01*
X5425265Y-23386794D01*
X5322491Y-23341415D01*
X5322490Y-23341414D01*
X5322488Y-23341414D01*
X5297369Y-23338500D01*
X5297365Y-23338500D01*
X4952401Y-23338500D01*
X4894210Y-23319593D01*
X4882397Y-23309504D01*
X4403396Y-22830503D01*
X4375619Y-22775986D01*
X4385190Y-22715554D01*
X4428455Y-22672289D01*
X4473400Y-22661499D01*
X5297361Y-22661499D01*
X5297364Y-22661499D01*
X5322491Y-22658585D01*
X5425265Y-22613206D01*
X5504706Y-22533765D01*
X5550085Y-22430991D01*
X5553000Y-22405865D01*
X5552999Y-21694136D01*
X5550085Y-21669009D01*
X5504706Y-21566235D01*
X5425265Y-21486794D01*
X5322491Y-21441415D01*
X5322490Y-21441414D01*
X5322488Y-21441414D01*
X5297369Y-21438500D01*
X5297365Y-21438500D01*
X4826700Y-21438500D01*
X4768509Y-21419593D01*
X4732545Y-21370093D01*
X4732545Y-21308907D01*
X4756696Y-21269496D01*
X6114955Y-19911238D01*
X7596697Y-18429496D01*
X7651214Y-18401719D01*
X7666701Y-18400500D01*
X10650500Y-18400500D01*
X10708691Y-18419407D01*
G37*
%TD.AperFunction*%
%TD*%
M02*
