M48
; DRILL file KiCad 10.0.4 date 2026-06-29T20:15:31
; FORMAT={-:-/ absolute / metric / decimal}
; #@! TF.CreationDate,2026-06-29T20:15:31+08:00
; #@! TF.GenerationSoftware,Kicad,Pcbnew,10.0.4
; #@! TF.FileFunction,MixedPlating,1,2
FMAT,2
METRIC
; #@! TA.AperFunction,Plated,PTH,ViaDrill
T1C0.300
; #@! TA.AperFunction,Plated,PTH,ComponentDrill
T2C0.750
; #@! TA.AperFunction,Plated,PTH,ComponentDrill
T3C0.800
; #@! TA.AperFunction,Plated,PTH,ComponentDrill
T4C1.000
%
G90
G05
T1
X4.908Y-16.555
X6.202Y-18.774
X12.75Y-33.749
X12.75Y-37.218
X14.715Y-34.698
X15.801Y-5.831
X16.26Y-33.188
X16.773Y-12.393
X16.793Y-9.53
X19.396Y-33.462
X20.257Y-15.478
X22.147Y-13.052
X22.653Y-16.234
X23.256Y-16.95
X23.587Y-27.616
X23.991Y-7.029
X24.209Y-12.7
X24.966Y-11.529
X24.966Y-23.325
X27.569Y-9.15
X29.2Y-11.9
X29.2Y-33.885
T2
X17.1Y-36.29
X22.9Y-36.29
T4
X35.5Y-24.0
X35.5Y-26.54
X35.5Y-29.08
T3
X15.67Y-35.39G85X15.67Y-36.19
G05
X15.67Y-39.67G85X15.67Y-40.27
G05
X24.33Y-35.39G85X24.33Y-36.19
G05
X24.33Y-39.67G85X24.33Y-40.27
G05
M30
