%TF.GenerationSoftware,KiCad,Pcbnew,10.0.4*%
%TF.CreationDate,2026-06-29T20:52:21+08:00*%
%TF.ProjectId,vibe_lamp_core_v1,76696265-5f6c-4616-9d70-5f636f72655f,rev?*%
%TF.SameCoordinates,Original*%
%TF.FileFunction,Copper,L1,Top*%
%TF.FilePolarity,Positive*%
%FSLAX46Y46*%
G04 Gerber Fmt 4.6, Leading zero omitted, Abs format (unit mm)*
G04 Created by KiCad (PCBNEW 10.0.4) date 2026-06-29 20:52:21*
%MOMM*%
%LPD*%
G01*
G04 APERTURE LIST*
G04 Aperture macros list*
%AMRoundRect*
0 Rectangle with rounded corners*
0 $1 Rounding radius*
0 $2 $3 $4 $5 $6 $7 $8 $9 X,Y pos of 4 corners*
0 Add a 4 corners polygon primitive as box body*
4,1,4,$2,$3,$4,$5,$6,$7,$8,$9,$2,$3,0*
0 Add four circle primitives for the rounded corners*
1,1,$1+$1,$2,$3*
1,1,$1+$1,$4,$5*
1,1,$1+$1,$6,$7*
1,1,$1+$1,$8,$9*
0 Add four rect primitives between the rounded corners*
20,1,$1+$1,$2,$3,$4,$5,0*
20,1,$1+$1,$4,$5,$6,$7,0*
20,1,$1+$1,$6,$7,$8,$9,0*
20,1,$1+$1,$8,$9,$2,$3,0*%
%AMFreePoly0*
4,1,14,0.760322,0.760195,0.774967,0.724840,0.774967,-0.725145,0.760322,-0.760500,0.724967,-0.775145,-0.725018,-0.775145,-0.760373,-0.760500,-0.775018,-0.725145,-0.775018,0.124841,-0.760373,0.160196,-0.160374,0.760195,-0.125019,0.774840,0.724967,0.774840,0.760322,0.760195,0.760322,0.760195,$1*%
%AMFreePoly1*
4,1,17,0.335278,0.685443,0.349923,0.650088,0.349923,-0.649935,0.335278,-0.685290,0.299923,-0.699935,0.000318,-0.699935,-0.000051,-0.700088,-0.300050,-0.700088,-0.335405,-0.685443,-0.350050,-0.650088,-0.350050,0.649935,-0.335405,0.685290,-0.300050,0.699935,-0.000445,0.699935,-0.000076,0.700088,0.299923,0.700088,0.335278,0.685443,0.335278,0.685443,$1*%
%AMFreePoly2*
4,1,17,0.335431,0.685290,0.350076,0.649935,0.350076,-0.650037,0.335431,-0.685392,0.300076,-0.700037,0.000187,-0.700037,0.000127,-0.700062,-0.299898,-0.700062,-0.335253,-0.685417,-0.349898,-0.650062,-0.349898,0.649910,-0.335253,0.685265,-0.299898,0.699910,-0.000009,0.699910,0.000051,0.699935,0.300076,0.699935,0.335431,0.685290,0.335431,0.685290,$1*%
%AMFreePoly3*
4,1,13,0.335227,0.685443,0.349872,0.650088,0.349872,-0.649884,0.335227,-0.685239,0.299872,-0.699884,-0.300152,-0.699884,-0.335507,-0.685239,-0.350152,-0.649884,-0.350152,0.650088,-0.335507,0.685443,-0.300152,0.700088,0.299872,0.700088,0.335227,0.685443,0.335227,0.685443,$1*%
G04 Aperture macros list end*
%TA.AperFunction,SMDPad,CuDef*%
%ADD10RoundRect,0.250000X-0.250000X-0.475000X0.250000X-0.475000X0.250000X0.475000X-0.250000X0.475000X0*%
%TD*%
%TA.AperFunction,SMDPad,CuDef*%
%ADD11R,0.532000X1.072000*%
%TD*%
%TA.AperFunction,SMDPad,CuDef*%
%ADD12C,1.000000*%
%TD*%
%TA.AperFunction,SMDPad,CuDef*%
%ADD13RoundRect,0.200000X0.275000X-0.200000X0.275000X0.200000X-0.275000X0.200000X-0.275000X-0.200000X0*%
%TD*%
%TA.AperFunction,SMDPad,CuDef*%
%ADD14R,2.000000X1.100000*%
%TD*%
%TA.AperFunction,SMDPad,CuDef*%
%ADD15R,1.105000X0.622000*%
%TD*%
%TA.AperFunction,SMDPad,CuDef*%
%ADD16RoundRect,0.200000X-0.200000X-0.275000X0.200000X-0.275000X0.200000X0.275000X-0.200000X0.275000X0*%
%TD*%
%TA.AperFunction,SMDPad,CuDef*%
%ADD17R,0.800000X0.400000*%
%TD*%
%TA.AperFunction,SMDPad,CuDef*%
%ADD18R,0.400000X0.800000*%
%TD*%
%TA.AperFunction,SMDPad,CuDef*%
%ADD19FreePoly0,0.000000*%
%TD*%
%TA.AperFunction,SMDPad,CuDef*%
%ADD20R,1.450000X1.450000*%
%TD*%
%TA.AperFunction,SMDPad,CuDef*%
%ADD21R,0.700000X0.700000*%
%TD*%
%TA.AperFunction,ComponentPad*%
%ADD22R,1.700000X1.700000*%
%TD*%
%TA.AperFunction,ComponentPad*%
%ADD23C,1.700000*%
%TD*%
%TA.AperFunction,SMDPad,CuDef*%
%ADD24RoundRect,0.250000X0.475000X-0.250000X0.475000X0.250000X-0.475000X0.250000X-0.475000X-0.250000X0*%
%TD*%
%TA.AperFunction,SMDPad,CuDef*%
%ADD25RoundRect,0.225000X-0.225000X-0.250000X0.225000X-0.250000X0.225000X0.250000X-0.225000X0.250000X0*%
%TD*%
%TA.AperFunction,ComponentPad*%
%ADD26C,0.750000*%
%TD*%
%TA.AperFunction,ComponentPad*%
%ADD27O,1.200000X2.000000*%
%TD*%
%TA.AperFunction,ComponentPad*%
%ADD28O,1.200000X1.800000*%
%TD*%
%TA.AperFunction,SMDPad,CuDef*%
%ADD29FreePoly1,0.000000*%
%TD*%
%TA.AperFunction,SMDPad,CuDef*%
%ADD30FreePoly2,0.000000*%
%TD*%
%TA.AperFunction,SMDPad,CuDef*%
%ADD31R,0.300000X1.300000*%
%TD*%
%TA.AperFunction,SMDPad,CuDef*%
%ADD32FreePoly3,0.000000*%
%TD*%
%TA.AperFunction,SMDPad,CuDef*%
%ADD33RoundRect,0.225000X0.250000X-0.225000X0.250000X0.225000X-0.250000X0.225000X-0.250000X-0.225000X0*%
%TD*%
%TA.AperFunction,SMDPad,CuDef*%
%ADD34R,1.550000X1.000000*%
%TD*%
%TA.AperFunction,ViaPad*%
%ADD35C,0.600000*%
%TD*%
%TA.AperFunction,Conductor*%
%ADD36C,0.200000*%
%TD*%
G04 APERTURE END LIST*
D10*
%TO.P,C3,1*%
%TO.N,+3V3*%
X11550000Y-18000000D03*
%TO.P,C3,2*%
%TO.N,GND*%
X13450000Y-18000000D03*
%TD*%
D11*
%TO.P,D2,1*%
%TO.N,USB_DP*%
X30050000Y-31150000D03*
%TO.P,D2,2*%
%TO.N,GND*%
X31000000Y-31150000D03*
%TO.P,D2,3*%
%TO.N,USB_DM*%
X31950000Y-31150000D03*
%TO.P,D2,4*%
%TO.N,N/C*%
X31950000Y-28850000D03*
%TO.P,D2,5*%
%TO.N,VBUS*%
X31000000Y-28850000D03*
%TO.P,D2,6*%
%TO.N,N/C*%
X30050000Y-28850000D03*
%TD*%
D12*
%TO.P,TP5,1*%
%TO.N,EN*%
X38000000Y-6000000D03*
%TD*%
D13*
%TO.P,R7,1*%
%TO.N,CC2*%
X21750000Y-32425000D03*
%TO.P,R7,2*%
%TO.N,GND*%
X21750000Y-30775000D03*
%TD*%
D12*
%TO.P,TP6,1*%
%TO.N,IO9*%
X38000000Y-18000000D03*
%TD*%
%TO.P,TP3,1*%
%TO.N,UART_RX*%
X3000000Y-16000000D03*
%TD*%
%TO.P,TP2,1*%
%TO.N,GND*%
X3000000Y-12000000D03*
%TD*%
D14*
%TO.P,D1,1*%
%TO.N,RGB_R*%
X17600000Y-22300000D03*
%TO.P,D1,2*%
%TO.N,GND*%
X17600000Y-24000000D03*
%TO.P,D1,3*%
%TO.N,RGB_G*%
X17600000Y-25700000D03*
%TO.P,D1,4*%
%TO.N,GND*%
X22400000Y-25700000D03*
%TO.P,D1,5*%
%TO.N,RGB_B*%
X22400000Y-24000000D03*
%TO.P,D1,6*%
%TO.N,N/C*%
X22400000Y-22300000D03*
%TD*%
D13*
%TO.P,R1,1*%
%TO.N,IO7*%
X14000000Y-23325000D03*
%TO.P,R1,2*%
%TO.N,RGB_R*%
X14000000Y-21675000D03*
%TD*%
D15*
%TO.P,U2,1*%
%TO.N,+5V*%
X7300000Y-23950000D03*
%TO.P,U2,2*%
%TO.N,GND*%
X7300000Y-23000000D03*
%TO.P,U2,3*%
%TO.N,+5V*%
X7300000Y-22050000D03*
%TO.P,U2,4*%
%TO.N,N/C*%
X4700000Y-22050000D03*
%TO.P,U2,5*%
%TO.N,+3V3*%
X4700000Y-23950000D03*
%TD*%
D16*
%TO.P,F1,1*%
%TO.N,VBUS*%
X9175000Y-30000000D03*
%TO.P,F1,2*%
%TO.N,+5V*%
X10825000Y-30000000D03*
%TD*%
D17*
%TO.P,U1,1*%
%TO.N,GND*%
X14100000Y-5500000D03*
%TO.P,U1,2*%
X14100000Y-6300000D03*
%TO.P,U1,3*%
%TO.N,+3V3*%
X14100000Y-7100000D03*
%TO.P,U1,4*%
%TO.N,N/C*%
X14100000Y-7900000D03*
%TO.P,U1,5*%
X14100000Y-8700000D03*
%TO.P,U1,6*%
X14100000Y-9500000D03*
%TO.P,U1,7*%
X14100000Y-10300000D03*
%TO.P,U1,8*%
%TO.N,EN*%
X14100000Y-11100000D03*
%TO.P,U1,9*%
%TO.N,N/C*%
X14100000Y-11900000D03*
%TO.P,U1,10*%
X14100000Y-12700000D03*
%TO.P,U1,11*%
%TO.N,GND*%
X14100000Y-13500000D03*
D18*
%TO.P,U1,12*%
%TO.N,N/C*%
X15200000Y-14400000D03*
%TO.P,U1,13*%
X16000000Y-14400000D03*
%TO.P,U1,14*%
%TO.N,GND*%
X16800000Y-14400000D03*
%TO.P,U1,15*%
%TO.N,N/C*%
X17600000Y-14400000D03*
%TO.P,U1,16*%
%TO.N,BTN*%
X18400000Y-14400000D03*
%TO.P,U1,17*%
%TO.N,N/C*%
X19200000Y-14400000D03*
%TO.P,U1,18*%
%TO.N,IO4*%
X20000000Y-14400000D03*
%TO.P,U1,19*%
%TO.N,IO5*%
X20800000Y-14400000D03*
%TO.P,U1,20*%
%TO.N,IO6*%
X21600000Y-14400000D03*
%TO.P,U1,21*%
%TO.N,IO7*%
X22400000Y-14400000D03*
%TO.P,U1,22*%
%TO.N,N/C*%
X23200000Y-14400000D03*
%TO.P,U1,23*%
%TO.N,IO9*%
X24000000Y-14400000D03*
%TO.P,U1,24*%
%TO.N,N/C*%
X24800000Y-14400000D03*
D17*
%TO.P,U1,25*%
X25900000Y-13500000D03*
%TO.P,U1,26*%
%TO.N,USB_DM*%
X25900000Y-12700000D03*
%TO.P,U1,27*%
%TO.N,USB_DP*%
X25900000Y-11900000D03*
%TO.P,U1,28*%
%TO.N,N/C*%
X25900000Y-11100000D03*
%TO.P,U1,29*%
X25900000Y-10300000D03*
%TO.P,U1,30*%
%TO.N,UART_RX*%
X25900000Y-9500000D03*
%TO.P,U1,31*%
%TO.N,UART_TX*%
X25900000Y-8700000D03*
%TO.P,U1,32*%
%TO.N,N/C*%
X25900000Y-7900000D03*
%TO.P,U1,33*%
X25900000Y-7100000D03*
%TO.P,U1,34*%
X25900000Y-6300000D03*
%TO.P,U1,35*%
X25900000Y-5500000D03*
D18*
%TO.P,U1,36*%
%TO.N,GND*%
X24800000Y-4600000D03*
%TO.P,U1,37*%
X24000000Y-4600000D03*
%TO.P,U1,38*%
X23200000Y-4600000D03*
%TO.P,U1,39*%
X22400000Y-4600000D03*
%TO.P,U1,40*%
X21600000Y-4600000D03*
%TO.P,U1,41*%
X20800000Y-4600000D03*
%TO.P,U1,42*%
X20000000Y-4600000D03*
%TO.P,U1,43*%
X19200000Y-4600000D03*
%TO.P,U1,44*%
X18400000Y-4600000D03*
%TO.P,U1,45*%
X17600000Y-4600000D03*
%TO.P,U1,46*%
X16800000Y-4600000D03*
%TO.P,U1,47*%
X16000000Y-4600000D03*
%TO.P,U1,48*%
X15200000Y-4600000D03*
D19*
%TO.P,U1,49*%
X18020000Y-7520000D03*
D20*
X18020000Y-9500000D03*
X18020000Y-11480000D03*
X20000000Y-7530000D03*
X20000000Y-9500000D03*
X20000000Y-11480000D03*
X21970000Y-7530000D03*
X21970000Y-9500000D03*
X21970000Y-11480000D03*
D21*
%TO.P,U1,50*%
X25950000Y-4550000D03*
%TO.P,U1,51*%
X25950000Y-14450000D03*
%TO.P,U1,52*%
X14050000Y-14450000D03*
%TO.P,U1,53*%
X14050000Y-4550000D03*
%TD*%
D13*
%TO.P,R4,1*%
%TO.N,IO4*%
X26000000Y-26825000D03*
%TO.P,R4,2*%
%TO.N,WS_DATA*%
X26000000Y-25175000D03*
%TD*%
D22*
%TO.P,P1,1*%
%TO.N,+5V*%
X35500000Y-24000000D03*
D23*
%TO.P,P1,2*%
%TO.N,WS_DATA*%
X35500000Y-26540000D03*
%TO.P,P1,3*%
%TO.N,GND*%
X35500000Y-29080000D03*
%TD*%
D24*
%TO.P,C6,1*%
%TO.N,+5V*%
X31000000Y-25950000D03*
%TO.P,C6,2*%
%TO.N,GND*%
X31000000Y-24050000D03*
%TD*%
D25*
%TO.P,C4,1*%
%TO.N,+3V3*%
X15225000Y-18000000D03*
%TO.P,C4,2*%
%TO.N,GND*%
X16775000Y-18000000D03*
%TD*%
D12*
%TO.P,TP1,1*%
%TO.N,+3V3*%
X3000000Y-8000000D03*
%TD*%
D13*
%TO.P,R2,1*%
%TO.N,IO6*%
X26000000Y-23325000D03*
%TO.P,R2,2*%
%TO.N,RGB_G*%
X26000000Y-21675000D03*
%TD*%
D16*
%TO.P,R5,1*%
%TO.N,+3V3*%
X23175000Y-18000000D03*
%TO.P,R5,2*%
%TO.N,EN*%
X24825000Y-18000000D03*
%TD*%
D13*
%TO.P,R3,1*%
%TO.N,IO5*%
X14000000Y-26825000D03*
%TO.P,R3,2*%
%TO.N,RGB_B*%
X14000000Y-25175000D03*
%TD*%
D26*
%TO.P,J1,*%
%TO.N,*%
X17100000Y-35090000D03*
X22900000Y-35090000D03*
D27*
%TO.P,J1,1*%
%TO.N,GND*%
X24330000Y-34590000D03*
D28*
%TO.P,J1,2*%
X24330000Y-38770000D03*
%TO.P,J1,3*%
X15670000Y-38770000D03*
D27*
%TO.P,J1,4*%
X15670000Y-34590000D03*
D29*
%TO.P,J1,A1B12*%
X16800000Y-33830000D03*
D30*
%TO.P,J1,A4B9*%
%TO.N,VBUS*%
X17600000Y-33830000D03*
D31*
%TO.P,J1,A5*%
%TO.N,CC1*%
X18750000Y-33830000D03*
%TO.P,J1,A6*%
%TO.N,USB_DP*%
X19750000Y-33830000D03*
%TO.P,J1,A7*%
%TO.N,USB_DM*%
X20250000Y-33830000D03*
%TO.P,J1,A8*%
%TO.N,N/C*%
X21250000Y-33830000D03*
D32*
%TO.P,J1,B1A12*%
%TO.N,GND*%
X23200000Y-33830000D03*
%TO.P,J1,B4A9*%
%TO.N,VBUS*%
X22400000Y-33830000D03*
D31*
%TO.P,J1,B5*%
%TO.N,CC2*%
X21750000Y-33830000D03*
%TO.P,J1,B6*%
%TO.N,USB_DP*%
X20750000Y-33830000D03*
%TO.P,J1,B7*%
%TO.N,USB_DM*%
X19250000Y-33830000D03*
%TO.P,J1,B8*%
%TO.N,N/C*%
X18250000Y-33830000D03*
%TD*%
D33*
%TO.P,C2,1*%
%TO.N,+3V3*%
X6000000Y-30775000D03*
%TO.P,C2,2*%
%TO.N,GND*%
X6000000Y-29225000D03*
%TD*%
D34*
%TO.P,SW1,1*%
%TO.N,BTN*%
X32375000Y-9150000D03*
X37625000Y-9150000D03*
%TO.P,SW1,2*%
%TO.N,GND*%
X32375000Y-10850000D03*
X37625000Y-10850000D03*
%TD*%
D16*
%TO.P,R6,1*%
%TO.N,CC1*%
X12175000Y-30000000D03*
%TO.P,R6,2*%
%TO.N,GND*%
X13825000Y-30000000D03*
%TD*%
D33*
%TO.P,C1,1*%
%TO.N,+5V*%
X6000000Y-27775000D03*
%TO.P,C1,2*%
%TO.N,GND*%
X6000000Y-26225000D03*
%TD*%
D12*
%TO.P,TP4,1*%
%TO.N,UART_TX*%
X3000000Y-20000000D03*
%TD*%
D25*
%TO.P,C5,1*%
%TO.N,EN*%
X26725000Y-18000000D03*
%TO.P,C5,2*%
%TO.N,GND*%
X28275000Y-18000000D03*
%TD*%
D35*
%TO.N,GND*%
X32922300Y-11927600D03*
%TO.N,USB_DP*%
X29199500Y-11900000D03*
X29199500Y-30948900D03*
%TO.N,USB_DM*%
X28565000Y-12700000D03*
X28317700Y-34781700D03*
%TO.N,EN*%
X27578200Y-18853200D03*
X16772300Y-11100000D03*
%TO.N,UART_RX*%
X17712700Y-13391600D03*
X11885100Y-16000000D03*
%TO.N,IO7*%
X19373800Y-15451300D03*
X15241400Y-23510500D03*
%TO.N,BTN*%
X27457500Y-9150000D03*
X27457500Y-16550400D03*
%TO.N,IO4*%
X27963300Y-27386300D03*
X19900300Y-13490300D03*
%TO.N,IO5*%
X20994600Y-13472000D03*
X20994600Y-27632800D03*
%TO.N,IO6*%
X22288600Y-13477600D03*
X24462100Y-23325000D03*
%TO.N,CC1*%
X13662700Y-30980600D03*
X13662700Y-36016700D03*
%TD*%
%TO.N,+3V3*%
D36*
X12484100Y-8000000D02*
X13384100Y-7100000D01*
X4806800Y-25310100D02*
X5554200Y-24562700D01*
X5554200Y-24562700D02*
X5554200Y-23950000D01*
X4700000Y-23950000D02*
X4956500Y-23950000D01*
X4956500Y-23950000D02*
X5554200Y-23950000D01*
X12486800Y-17063200D02*
X12486800Y-16957900D01*
X6000000Y-30775000D02*
X4806800Y-29581800D01*
X4956500Y-23458600D02*
X5815300Y-22599800D01*
X11550000Y-18000000D02*
X12486800Y-17063200D01*
X4806800Y-29581800D02*
X4806800Y-25310100D01*
X12484100Y-8000000D02*
X3000000Y-8000000D01*
X12486800Y-16957900D02*
X14182900Y-16957900D01*
X11550000Y-19230000D02*
X11550000Y-18000000D01*
X4956500Y-23950000D02*
X4956500Y-23458600D01*
X12486800Y-16957900D02*
X12486800Y-8002700D01*
X14182900Y-16957900D02*
X15225000Y-18000000D01*
X21945000Y-19230000D02*
X23175000Y-18000000D01*
X12486800Y-8002700D02*
X12484100Y-8000000D01*
X8778500Y-19230000D02*
X11550000Y-19230000D01*
X13384100Y-7100000D02*
X14100000Y-7100000D01*
X5815300Y-22599800D02*
X5815300Y-22193200D01*
X5815300Y-22193200D02*
X8778500Y-19230000D01*
X11550000Y-19230000D02*
X21945000Y-19230000D01*
%TO.N,GND*%
X22750800Y-3898300D02*
X23200000Y-3898300D01*
X27469100Y-17194100D02*
X28275000Y-18000000D01*
X10714100Y-33939100D02*
X6000000Y-29225000D01*
X21970000Y-7530000D02*
X20000000Y-7530000D01*
X14100000Y-5500000D02*
X14801700Y-5500000D01*
X16775000Y-18000000D02*
X16800000Y-17975000D01*
X14701700Y-4550000D02*
X14701700Y-4398700D01*
X16800000Y-4600000D02*
X16800000Y-4249100D01*
X13825000Y-30000000D02*
X13186800Y-29361800D01*
X17746800Y-12506700D02*
X16800000Y-13453500D01*
X21600000Y-4249100D02*
X21600000Y-3898300D01*
X2172500Y-7642500D02*
X2665000Y-7150000D01*
X21150800Y-3898300D02*
X21600000Y-3898300D01*
X24330000Y-34590000D02*
X24330000Y-33288300D01*
X21600000Y-4600000D02*
X21600000Y-4249100D01*
X22400000Y-4249100D02*
X22400000Y-3898300D01*
X25298300Y-4550000D02*
X25298300Y-4396600D01*
X19505000Y-7530000D02*
X18030000Y-7530000D01*
X6000000Y-23445800D02*
X6445800Y-23000000D01*
X16048300Y-24250000D02*
X16298300Y-24000000D01*
X18020000Y-7520000D02*
X16800000Y-6300000D01*
X24000000Y-4600000D02*
X24000000Y-4249100D01*
X13186800Y-29361800D02*
X13186800Y-24785400D01*
X32375000Y-10850000D02*
X31298300Y-10850000D01*
X14801700Y-6300000D02*
X14801700Y-5500000D01*
X16800000Y-13500000D02*
X14801700Y-13500000D01*
X23200000Y-4249100D02*
X23550800Y-3898300D01*
X35045500Y-28625500D02*
X35500000Y-29080000D01*
X15200000Y-4600000D02*
X15200000Y-4249100D01*
X16800000Y-14150000D02*
X16800000Y-14400000D01*
X14100000Y-13748300D02*
X14100000Y-13500000D01*
X19010000Y-9500000D02*
X18020000Y-9500000D01*
X2665000Y-7150000D02*
X6892900Y-7150000D01*
X16800000Y-17194100D02*
X16800000Y-14400000D01*
X16350800Y-3898300D02*
X16800000Y-3898300D01*
X19200000Y-4249100D02*
X19550800Y-3898300D01*
X23200000Y-4600000D02*
X23200000Y-4249100D01*
X3000000Y-12000000D02*
X2172500Y-11172500D01*
X31000000Y-30313800D02*
X31000000Y-30312300D01*
X14100000Y-4775000D02*
X14100000Y-5500000D01*
X5213000Y-28438000D02*
X5213000Y-27012000D01*
X19200000Y-4249100D02*
X19200000Y-3898300D01*
X37625000Y-10850000D02*
X32375000Y-10850000D01*
X16800000Y-14150000D02*
X16800000Y-13799100D01*
X13825000Y-30000000D02*
X20975000Y-30000000D01*
X23550800Y-3898300D02*
X24000000Y-3898300D01*
X14801700Y-6300000D02*
X14100000Y-6300000D01*
X24512700Y-28012300D02*
X34432300Y-28012300D01*
X16800000Y-33830000D02*
X16258300Y-33288300D01*
X21970000Y-9500000D02*
X20000000Y-9500000D01*
X24277100Y-25700000D02*
X22400000Y-25700000D01*
X16775000Y-18000000D02*
X15988100Y-18786900D01*
X14701700Y-4398700D02*
X15200000Y-3900400D01*
X31000000Y-31150000D02*
X31000000Y-30413100D01*
X30998500Y-30312300D02*
X27306000Y-30312300D01*
X15670000Y-37568300D02*
X24330000Y-37568300D01*
X14325000Y-4550000D02*
X14100000Y-4775000D01*
X31298300Y-10850000D02*
X27698300Y-14450000D01*
X2172500Y-11172500D02*
X2172500Y-7642500D01*
X14050000Y-4550000D02*
X14325000Y-4550000D01*
X7300000Y-23000000D02*
X6445800Y-23000000D01*
X24800000Y-4249100D02*
X24800000Y-3898300D01*
X21750000Y-30775000D02*
X24512700Y-28012300D01*
X19550800Y-3898300D02*
X20000000Y-3898300D01*
X25927100Y-24050000D02*
X24277100Y-25700000D01*
X17950800Y-3898300D02*
X18400000Y-3898300D01*
X24800000Y-4600000D02*
X24800000Y-4249100D01*
X21600000Y-4249100D02*
X21950800Y-3898300D01*
X23200000Y-33830000D02*
X23741700Y-33288300D01*
X27698300Y-14450000D02*
X25950000Y-14450000D01*
X25298300Y-4396600D02*
X24800000Y-3898300D01*
X19010000Y-11480000D02*
X19010000Y-9500000D01*
X20000000Y-4600000D02*
X20000000Y-4249100D01*
X20350800Y-3898300D02*
X20800000Y-3898300D01*
X14325000Y-4550000D02*
X14701700Y-4550000D01*
X18400000Y-4600000D02*
X18400000Y-4249100D01*
X17600000Y-4249100D02*
X17600000Y-3898300D01*
X15670000Y-33939100D02*
X10714100Y-33939100D01*
X25950000Y-4550000D02*
X25298300Y-4550000D01*
X18020000Y-11480000D02*
X18020000Y-12506700D01*
X20000000Y-4249100D02*
X20350800Y-3898300D01*
X24512700Y-28012300D02*
X24512700Y-25935600D01*
X36676700Y-23045500D02*
X36676700Y-26994300D01*
X17600000Y-4600000D02*
X17600000Y-4249100D01*
X17600000Y-24000000D02*
X16298300Y-24000000D01*
X16000000Y-4600000D02*
X16000000Y-4249100D01*
X23200000Y-4249100D02*
X23200000Y-3898300D01*
X19200000Y-4600000D02*
X19200000Y-4249100D01*
X24077400Y-18469800D02*
X25237800Y-19630200D01*
X31000000Y-24050000D02*
X25927100Y-24050000D01*
X15670000Y-33939100D02*
X15670000Y-33288300D01*
X24000000Y-4249100D02*
X24000000Y-3898300D01*
X24077400Y-17194100D02*
X27469100Y-17194100D01*
X15988100Y-18786900D02*
X14236900Y-18786900D01*
X18400000Y-4249100D02*
X18750800Y-3898300D01*
X20800000Y-4600000D02*
X20800000Y-4249100D01*
X20800000Y-4249100D02*
X21150800Y-3898300D01*
X27306000Y-30312300D02*
X24330000Y-33288300D01*
X6892900Y-7150000D02*
X7742900Y-6300000D01*
X5213000Y-27012000D02*
X6000000Y-26225000D01*
X14050000Y-13798300D02*
X14100000Y-13748300D01*
X35500000Y-29080000D02*
X34267700Y-30312300D01*
X16800000Y-17975000D02*
X16800000Y-17194100D01*
X22400000Y-4600000D02*
X22400000Y-4249100D01*
X34432300Y-28012300D02*
X35045500Y-28625500D01*
X15200000Y-4249100D02*
X15550800Y-3898300D01*
X16800000Y-17194100D02*
X24077400Y-17194100D01*
X31000000Y-30413100D02*
X31000000Y-30313800D01*
X16000000Y-4249100D02*
X16000000Y-3898300D01*
X20000000Y-9500000D02*
X19505000Y-9500000D01*
X6000000Y-26225000D02*
X6000000Y-23445800D01*
X31298300Y-10850000D02*
X32375900Y-11927600D01*
X23741700Y-33288300D02*
X24330000Y-33288300D01*
X6000000Y-29225000D02*
X5213000Y-28438000D01*
X17600000Y-4249100D02*
X17950800Y-3898300D01*
X20800000Y-4249100D02*
X20800000Y-3898300D01*
X21950800Y-3898300D02*
X22400000Y-3898300D01*
X18400000Y-4249100D02*
X18400000Y-3898300D01*
X16000000Y-4249100D02*
X16350800Y-3898300D01*
X16800000Y-4249100D02*
X16800000Y-3898300D01*
X18030000Y-7530000D02*
X18020000Y-7520000D01*
X18020000Y-12506700D02*
X17746800Y-12506700D01*
X24000000Y-4249100D02*
X24800000Y-4249100D01*
X15670000Y-38770000D02*
X15670000Y-37568300D01*
X15550800Y-3898300D02*
X16000000Y-3898300D01*
X24077400Y-17194100D02*
X24077400Y-18469800D01*
X20975000Y-30000000D02*
X21750000Y-30775000D01*
X22400000Y-4249100D02*
X22750800Y-3898300D01*
X20000000Y-11480000D02*
X19010000Y-11480000D01*
X34267700Y-30312300D02*
X31000000Y-30312300D01*
X16800000Y-6300000D02*
X14801700Y-6300000D01*
X25237800Y-19630200D02*
X33261400Y-19630200D01*
X16800000Y-13453500D02*
X16800000Y-13500000D01*
X32375900Y-11927600D02*
X32922300Y-11927600D01*
X14050000Y-14450000D02*
X14050000Y-13798300D01*
X16800000Y-4249100D02*
X17150800Y-3898300D01*
X31000000Y-30313800D02*
X30998500Y-30312300D01*
X7742900Y-6300000D02*
X14100000Y-6300000D01*
X16258300Y-33288300D02*
X15670000Y-33288300D01*
X33261400Y-19630200D02*
X36676700Y-23045500D01*
X17150800Y-3898300D02*
X17600000Y-3898300D01*
X20000000Y-7530000D02*
X19505000Y-7530000D01*
X19505000Y-9500000D02*
X19010000Y-9500000D01*
X18750800Y-3898300D02*
X19200000Y-3898300D01*
X24512700Y-25935600D02*
X24277100Y-25700000D01*
X16800000Y-13500000D02*
X16800000Y-13799100D01*
X20000000Y-4249100D02*
X20000000Y-3898300D01*
X21970000Y-11480000D02*
X20000000Y-11480000D01*
X15670000Y-34590000D02*
X15670000Y-33939100D01*
X14236900Y-18786900D02*
X13450000Y-18000000D01*
X15200000Y-4249100D02*
X15200000Y-3900400D01*
X36676700Y-26994300D02*
X35045500Y-28625500D01*
X24330000Y-38770000D02*
X24330000Y-37568300D01*
X13722200Y-24250000D02*
X16048300Y-24250000D01*
X19010000Y-11480000D02*
X18020000Y-11480000D01*
X14100000Y-13500000D02*
X14801700Y-13500000D01*
X19505000Y-9500000D02*
X19505000Y-7530000D01*
X13186800Y-24785400D02*
X13722200Y-24250000D01*
%TO.N,USB_DP*%
X20750000Y-32878300D02*
X19750000Y-32878300D01*
X20750000Y-33354100D02*
X20750000Y-32878300D01*
X22253100Y-36059800D02*
X20750000Y-34556700D01*
X29848900Y-30948900D02*
X30050000Y-31150000D01*
X30050000Y-31987700D02*
X25977900Y-36059800D01*
X25900000Y-11900000D02*
X29199500Y-11900000D01*
X25977900Y-36059800D02*
X22253100Y-36059800D01*
X19750000Y-33830000D02*
X19750000Y-32878300D01*
X20750000Y-33354100D02*
X20750000Y-33830000D01*
X20750000Y-34556700D02*
X20750000Y-33830000D01*
X29199500Y-30948900D02*
X29848900Y-30948900D01*
X30050000Y-31150000D02*
X30050000Y-31987700D01*
%TO.N,USB_DM*%
X20250000Y-33830000D02*
X20250000Y-34680800D01*
X31950000Y-31987700D02*
X29156000Y-34781700D01*
X21931300Y-36461500D02*
X26637900Y-36461500D01*
X25900000Y-12700000D02*
X28565000Y-12700000D01*
X20250000Y-34680800D02*
X20250000Y-34780200D01*
X20250000Y-34780200D02*
X21931300Y-36461500D01*
X20250000Y-34780200D02*
X20250000Y-34781700D01*
X26637900Y-36461500D02*
X28317700Y-34781700D01*
X31950000Y-31150000D02*
X31950000Y-31987700D01*
X19250000Y-34781700D02*
X20250000Y-34781700D01*
X19250000Y-33830000D02*
X19250000Y-34781700D01*
X29156000Y-34781700D02*
X28317700Y-34781700D01*
%TO.N,VBUS*%
X19086600Y-31672200D02*
X17600000Y-33158800D01*
X31000000Y-29687700D02*
X25878700Y-29687700D01*
X23051200Y-32515200D02*
X22208200Y-31672200D01*
X23051200Y-32515200D02*
X22400000Y-33166400D01*
X17080800Y-32639600D02*
X17600000Y-33158800D01*
X17600000Y-33158800D02*
X17600000Y-33830000D01*
X9175000Y-30000000D02*
X11814600Y-32639600D01*
X11814600Y-32639600D02*
X17080800Y-32639600D01*
X22208200Y-31672200D02*
X19086600Y-31672200D01*
X25878700Y-29687700D02*
X23051200Y-32515200D01*
X22400000Y-33166400D02*
X22400000Y-33830000D01*
X31000000Y-28850000D02*
X31000000Y-29687700D01*
%TO.N,EN*%
X27578200Y-18853200D02*
X26725000Y-18000000D01*
X38805000Y-18385900D02*
X38337700Y-18853200D01*
X24825000Y-18000000D02*
X26725000Y-18000000D01*
X38000000Y-6000000D02*
X38805000Y-6805000D01*
X38805000Y-6805000D02*
X38805000Y-18385900D01*
X14100000Y-11100000D02*
X16772300Y-11100000D01*
X38337700Y-18853200D02*
X27578200Y-18853200D01*
%TO.N,CC2*%
X21750000Y-33830000D02*
X21750000Y-32420000D01*
%TO.N,IO9*%
X24000000Y-15101700D02*
X35101700Y-15101700D01*
X24000000Y-14400000D02*
X24000000Y-15101700D01*
X35101700Y-15101700D02*
X38000000Y-18000000D01*
%TO.N,UART_RX*%
X25198300Y-10157500D02*
X25198300Y-9500000D01*
X3000000Y-16000000D02*
X11885100Y-16000000D01*
X17712700Y-13391600D02*
X18295800Y-12808500D01*
X18295800Y-12808500D02*
X22547300Y-12808500D01*
X22547300Y-12808500D02*
X25198300Y-10157500D01*
X25900000Y-9500000D02*
X25198300Y-9500000D01*
%TO.N,RGB_R*%
X16298300Y-22300000D02*
X15673300Y-21675000D01*
X17600000Y-22300000D02*
X16298300Y-22300000D01*
X15673300Y-21675000D02*
X14000000Y-21675000D01*
%TO.N,RGB_G*%
X18901700Y-23813200D02*
X21294100Y-21420800D01*
X21294100Y-21420800D02*
X25745800Y-21420800D01*
X17600000Y-25700000D02*
X18901700Y-25700000D01*
X18901700Y-25700000D02*
X18901700Y-23813200D01*
X25745800Y-21420800D02*
X26000000Y-21675000D01*
%TO.N,RGB_B*%
X22400000Y-24000000D02*
X21098300Y-24000000D01*
X18759500Y-26551700D02*
X15376700Y-26551700D01*
X21098300Y-24212900D02*
X18759500Y-26551700D01*
X15376700Y-26551700D02*
X14000000Y-25175000D01*
X21098300Y-24000000D02*
X21098300Y-24212900D01*
%TO.N,IO7*%
X22400000Y-15101700D02*
X19723400Y-15101700D01*
X15241400Y-23510500D02*
X14185500Y-23510500D01*
X22400000Y-14400000D02*
X22400000Y-15101700D01*
X14185500Y-23510500D02*
X14000000Y-23325000D01*
X19723400Y-15101700D02*
X19373800Y-15451300D01*
%TO.N,+5V*%
X32706300Y-24243700D02*
X31000000Y-25950000D01*
X29387300Y-20924800D02*
X32706300Y-24243700D01*
X8154200Y-27775000D02*
X8600000Y-27775000D01*
X7300000Y-22050000D02*
X8053400Y-22050000D01*
X8053400Y-22050000D02*
X8152700Y-22050000D01*
X7300000Y-23950000D02*
X8152700Y-23950000D01*
X8152700Y-22050000D02*
X8154200Y-22050000D01*
X6000000Y-27775000D02*
X8154200Y-27775000D01*
X35500000Y-24000000D02*
X34924200Y-24000000D01*
X8154200Y-22050000D02*
X8154200Y-23948500D01*
X34924200Y-24000000D02*
X32950000Y-24000000D01*
X8152700Y-23950000D02*
X8154200Y-23950000D01*
X32950000Y-24000000D02*
X32706300Y-24243700D01*
X8600000Y-27775000D02*
X10825000Y-30000000D01*
X8152700Y-22050000D02*
X9277900Y-20924800D01*
X9277900Y-20924800D02*
X29387300Y-20924800D01*
X8154200Y-27775000D02*
X8154200Y-23950000D01*
X8154200Y-23948500D02*
X8152700Y-23950000D01*
%TO.N,BTN*%
X18400000Y-15328400D02*
X19622000Y-16550400D01*
X19622000Y-16550400D02*
X27457500Y-16550400D01*
X18400000Y-15101700D02*
X18400000Y-15328400D01*
X32375000Y-9150000D02*
X27457500Y-9150000D01*
X18400000Y-14400000D02*
X18400000Y-15101700D01*
X37625000Y-9150000D02*
X32375000Y-9150000D01*
%TO.N,IO4*%
X20000000Y-13698300D02*
X19900300Y-13598600D01*
X20000000Y-14400000D02*
X20000000Y-13698300D01*
X26561300Y-27386300D02*
X26000000Y-26825000D01*
X27963300Y-27386300D02*
X26561300Y-27386300D01*
X19900300Y-13598600D02*
X19900300Y-13490300D01*
%TO.N,IO5*%
X20800000Y-14400000D02*
X20800000Y-13698300D01*
X20994600Y-13503700D02*
X20994600Y-13472000D01*
X14000000Y-26825000D02*
X14807800Y-27632800D01*
X20800000Y-13698300D02*
X20994600Y-13503700D01*
X14807800Y-27632800D02*
X20994600Y-27632800D01*
%TO.N,IO6*%
X21600000Y-13698300D02*
X22067900Y-13698300D01*
X21600000Y-14400000D02*
X21600000Y-13698300D01*
X22067900Y-13698300D02*
X22288600Y-13477600D01*
X26000000Y-23325000D02*
X24462100Y-23325000D01*
%TO.N,UART_TX*%
X5779600Y-3467400D02*
X1770800Y-7476200D01*
X1770800Y-7476200D02*
X1770800Y-18770800D01*
X25900000Y-8700000D02*
X26601700Y-8700000D01*
X26601700Y-4047400D02*
X26021700Y-3467400D01*
X26021700Y-3467400D02*
X5779600Y-3467400D01*
X26601700Y-8700000D02*
X26601700Y-4047400D01*
X1770800Y-18770800D02*
X3000000Y-20000000D01*
%TO.N,WS_DATA*%
X27585400Y-26760400D02*
X35279600Y-26760400D01*
X35279600Y-26760400D02*
X35500000Y-26540000D01*
X26000000Y-25175000D02*
X27585400Y-26760400D01*
%TO.N,CC1*%
X18750000Y-34781700D02*
X17515000Y-36016700D01*
X13662700Y-30980600D02*
X13155600Y-30980600D01*
X17515000Y-36016700D02*
X13662700Y-36016700D01*
X13155600Y-30980600D02*
X12175000Y-30000000D01*
X18750000Y-33830000D02*
X18750000Y-34781700D01*
%TD*%
%TA.AperFunction,Conductor*%
%TO.N,GND*%
G36*
X5959191Y-718907D02*
G01*
X5995155Y-768407D01*
X6000000Y-799000D01*
X6000000Y-2800000D01*
X6000001Y-2800000D01*
X33999999Y-2800000D01*
X34000000Y-2800000D01*
X34000000Y-799000D01*
X34018907Y-740809D01*
X34068407Y-704845D01*
X34099000Y-700000D01*
X39201000Y-700000D01*
X39259191Y-718907D01*
X39295155Y-768407D01*
X39300000Y-799000D01*
X39300000Y-6494881D01*
X39281093Y-6553072D01*
X39231593Y-6589036D01*
X39170407Y-6589036D01*
X39131909Y-6561833D01*
X39130068Y-6563675D01*
X38812156Y-6245762D01*
X38784379Y-6191246D01*
X38785061Y-6156451D01*
X38800500Y-6078842D01*
X38800500Y-5921158D01*
X38769737Y-5766503D01*
X38709394Y-5620821D01*
X38709393Y-5620819D01*
X38709390Y-5620814D01*
X38664361Y-5553424D01*
X38621789Y-5489711D01*
X38510289Y-5378211D01*
X38458059Y-5343312D01*
X38379185Y-5290609D01*
X38379174Y-5290603D01*
X38233497Y-5230263D01*
X38078844Y-5199500D01*
X38078842Y-5199500D01*
X37921158Y-5199500D01*
X37921155Y-5199500D01*
X37766503Y-5230263D01*
X37766501Y-5230263D01*
X37620825Y-5290603D01*
X37620814Y-5290609D01*
X37489711Y-5378211D01*
X37489707Y-5378214D01*
X37378214Y-5489707D01*
X37378211Y-5489711D01*
X37290609Y-5620814D01*
X37290603Y-5620825D01*
X37230263Y-5766501D01*
X37230263Y-5766503D01*
X37199500Y-5921155D01*
X37199500Y-6078844D01*
X37230263Y-6233496D01*
X37230263Y-6233498D01*
X37290603Y-6379174D01*
X37290609Y-6379185D01*
X37336462Y-6447807D01*
X37378211Y-6510289D01*
X37489711Y-6621789D01*
X37532550Y-6650413D01*
X37620814Y-6709390D01*
X37620825Y-6709396D01*
X37662826Y-6726793D01*
X37766503Y-6769737D01*
X37921158Y-6800500D01*
X37921159Y-6800500D01*
X38078836Y-6800500D01*
X38078842Y-6800500D01*
X38156448Y-6785062D01*
X38173893Y-6787127D01*
X38191246Y-6784379D01*
X38203521Y-6790633D01*
X38217205Y-6792253D01*
X38245763Y-6812156D01*
X38375504Y-6941897D01*
X38403281Y-6996414D01*
X38404500Y-7011901D01*
X38404500Y-8250500D01*
X38385593Y-8308691D01*
X38336093Y-8344655D01*
X38305500Y-8349500D01*
X36805139Y-8349500D01*
X36805136Y-8349501D01*
X36780009Y-8352414D01*
X36677235Y-8397794D01*
X36597794Y-8477235D01*
X36552414Y-8580011D01*
X36549500Y-8605130D01*
X36549500Y-8650500D01*
X36530593Y-8708691D01*
X36481093Y-8744655D01*
X36450500Y-8749500D01*
X33549499Y-8749500D01*
X33491308Y-8730593D01*
X33455344Y-8681093D01*
X33450499Y-8650500D01*
X33450499Y-8605139D01*
X33450499Y-8605136D01*
X33447585Y-8580009D01*
X33402206Y-8477235D01*
X33322765Y-8397794D01*
X33219991Y-8352415D01*
X33219990Y-8352414D01*
X33219988Y-8352414D01*
X33194868Y-8349500D01*
X31555139Y-8349500D01*
X31555136Y-8349501D01*
X31530009Y-8352414D01*
X31427235Y-8397794D01*
X31347794Y-8477235D01*
X31302414Y-8580011D01*
X31299500Y-8605130D01*
X31299500Y-8650500D01*
X31280593Y-8708691D01*
X31231093Y-8744655D01*
X31200500Y-8749500D01*
X27947244Y-8749500D01*
X27889053Y-8730593D01*
X27877241Y-8720504D01*
X27826218Y-8669482D01*
X27826216Y-8669480D01*
X27689284Y-8590423D01*
X27536557Y-8549500D01*
X27378443Y-8549500D01*
X27307243Y-8568578D01*
X27225714Y-8590423D01*
X27150699Y-8633733D01*
X27090851Y-8646454D01*
X27034955Y-8621567D01*
X27004363Y-8568578D01*
X27002200Y-8547996D01*
X27002200Y-3994674D01*
X27002200Y-3994673D01*
X26974907Y-3892813D01*
X26974907Y-3892812D01*
X26974907Y-3892811D01*
X26922183Y-3801491D01*
X26922181Y-3801489D01*
X26922180Y-3801487D01*
X26267613Y-3146920D01*
X26267610Y-3146918D01*
X26267608Y-3146916D01*
X26176291Y-3094194D01*
X26176293Y-3094194D01*
X26136770Y-3083604D01*
X26074427Y-3066900D01*
X5726873Y-3066900D01*
X5625013Y-3094193D01*
X5625012Y-3094193D01*
X5625010Y-3094194D01*
X5625009Y-3094194D01*
X5533689Y-3146918D01*
X1450316Y-7230291D01*
X1397593Y-7321611D01*
X1397592Y-7321611D01*
X1397593Y-7321612D01*
X1384630Y-7369991D01*
X1370300Y-7423473D01*
X1370300Y-18718073D01*
X1370300Y-18823527D01*
X1379214Y-18856794D01*
X1397594Y-18925392D01*
X1450316Y-19016708D01*
X1450317Y-19016709D01*
X1450318Y-19016710D01*
X1450320Y-19016713D01*
X1846383Y-19412776D01*
X2187842Y-19754235D01*
X2215619Y-19808752D01*
X2214936Y-19843552D01*
X2199500Y-19921152D01*
X2199500Y-20078844D01*
X2230263Y-20233496D01*
X2230263Y-20233498D01*
X2290603Y-20379174D01*
X2290609Y-20379185D01*
X2343312Y-20458059D01*
X2378211Y-20510289D01*
X2489711Y-20621789D01*
X2567876Y-20674017D01*
X2620814Y-20709390D01*
X2620825Y-20709396D01*
X2674638Y-20731685D01*
X2766503Y-20769737D01*
X2921158Y-20800500D01*
X2921159Y-20800500D01*
X3078841Y-20800500D01*
X3078842Y-20800500D01*
X3233497Y-20769737D01*
X3379179Y-20709394D01*
X3510289Y-20621789D01*
X3621789Y-20510289D01*
X3709394Y-20379179D01*
X3769737Y-20233497D01*
X3800500Y-20078842D01*
X3800500Y-19921158D01*
X3769737Y-19766503D01*
X3709394Y-19620821D01*
X3709393Y-19620819D01*
X3709390Y-19620814D01*
X3674017Y-19567876D01*
X3621789Y-19489711D01*
X3510289Y-19378211D01*
X3443699Y-19333717D01*
X3379185Y-19290609D01*
X3379174Y-19290603D01*
X3233497Y-19230263D01*
X3078844Y-19199500D01*
X3078842Y-19199500D01*
X2921158Y-19199500D01*
X2921152Y-19199500D01*
X2843552Y-19214936D01*
X2782791Y-19207744D01*
X2754235Y-19187842D01*
X2200296Y-18633903D01*
X2172519Y-18579386D01*
X2171300Y-18563899D01*
X2171300Y-16526983D01*
X2190207Y-16468792D01*
X2239707Y-16432828D01*
X2300893Y-16432828D01*
X2350393Y-16468792D01*
X2352592Y-16471948D01*
X2378211Y-16510289D01*
X2489711Y-16621789D01*
X2567876Y-16674017D01*
X2620814Y-16709390D01*
X2620825Y-16709396D01*
X2674638Y-16731685D01*
X2766503Y-16769737D01*
X2921158Y-16800500D01*
X2921159Y-16800500D01*
X3078841Y-16800500D01*
X3078842Y-16800500D01*
X3233497Y-16769737D01*
X3379179Y-16709394D01*
X3510289Y-16621789D01*
X3621789Y-16510289D01*
X3665749Y-16444497D01*
X3713799Y-16406619D01*
X3748064Y-16400500D01*
X11395356Y-16400500D01*
X11453547Y-16419407D01*
X11465359Y-16429496D01*
X11494264Y-16458400D01*
X11516384Y-16480520D01*
X11653316Y-16559577D01*
X11806043Y-16600500D01*
X11806045Y-16600500D01*
X11964158Y-16600500D01*
X11970591Y-16599653D01*
X11970853Y-16601646D01*
X11989756Y-16602636D01*
X12017893Y-16602636D01*
X12020077Y-16604222D01*
X12022772Y-16604364D01*
X12044629Y-16622061D01*
X12067393Y-16638600D01*
X12068227Y-16641167D01*
X12070325Y-16642866D01*
X12086300Y-16696791D01*
X12086300Y-16856299D01*
X12067393Y-16914490D01*
X12057302Y-16926304D01*
X12024735Y-16958870D01*
X11970219Y-16986646D01*
X11937949Y-16985187D01*
X11937866Y-16985880D01*
X11931564Y-16985123D01*
X11892001Y-16980372D01*
X11843106Y-16974500D01*
X11843102Y-16974500D01*
X11256898Y-16974500D01*
X11256893Y-16974500D01*
X11168434Y-16985123D01*
X11027660Y-17040637D01*
X11027656Y-17040640D01*
X10907081Y-17132075D01*
X10907075Y-17132081D01*
X10815640Y-17252656D01*
X10815637Y-17252660D01*
X10760123Y-17393434D01*
X10749500Y-17481893D01*
X10749500Y-18518106D01*
X10760123Y-18606565D01*
X10794675Y-18694181D01*
X10798434Y-18755251D01*
X10765579Y-18806867D01*
X10708660Y-18829313D01*
X10702578Y-18829500D01*
X8837306Y-18829500D01*
X8837290Y-18829499D01*
X8831227Y-18829499D01*
X8725773Y-18829499D01*
X8725770Y-18829499D01*
X8623913Y-18856792D01*
X8623909Y-18856794D01*
X8532587Y-18909519D01*
X8458019Y-18984086D01*
X8458020Y-18984087D01*
X8458018Y-18984089D01*
X5718021Y-21724084D01*
X5663504Y-21751861D01*
X5603072Y-21742290D01*
X5559807Y-21699025D01*
X5552845Y-21675975D01*
X5552040Y-21676195D01*
X5550085Y-21669010D01*
X5536764Y-21638840D01*
X5504706Y-21566235D01*
X5425265Y-21486794D01*
X5322491Y-21441415D01*
X5322490Y-21441414D01*
X5322488Y-21441414D01*
X5297368Y-21438500D01*
X4102639Y-21438500D01*
X4102636Y-21438501D01*
X4077509Y-21441414D01*
X3974735Y-21486794D01*
X3895294Y-21566235D01*
X3849914Y-21669011D01*
X3847000Y-21694130D01*
X3847000Y-22405860D01*
X3847001Y-22405863D01*
X3849914Y-22430990D01*
X3875256Y-22488385D01*
X3895294Y-22533765D01*
X3974735Y-22613206D01*
X4077509Y-22658585D01*
X4102635Y-22661500D01*
X4948200Y-22661499D01*
X5006391Y-22680406D01*
X5042355Y-22729906D01*
X5042355Y-22791092D01*
X5018204Y-22830502D01*
X4636020Y-23212686D01*
X4631795Y-23220004D01*
X4591959Y-23289001D01*
X4546491Y-23329941D01*
X4506224Y-23338500D01*
X4102639Y-23338500D01*
X4102636Y-23338501D01*
X4077509Y-23341414D01*
X3974735Y-23386794D01*
X3895294Y-23466235D01*
X3849914Y-23569011D01*
X3847000Y-23594130D01*
X3847000Y-24305860D01*
X3847001Y-24305863D01*
X3849914Y-24330990D01*
X3858302Y-24349986D01*
X3895294Y-24433765D01*
X3974735Y-24513206D01*
X4077509Y-24558585D01*
X4102635Y-24561500D01*
X4749999Y-24561499D01*
X4808190Y-24580406D01*
X4844154Y-24629906D01*
X4844154Y-24691092D01*
X4820003Y-24730502D01*
X4486320Y-25064186D01*
X4486316Y-25064191D01*
X4433594Y-25155507D01*
X4432190Y-25160747D01*
X4406300Y-25257373D01*
X4406300Y-29529073D01*
X4406300Y-29634527D01*
X4420226Y-29686499D01*
X4433594Y-29736392D01*
X4486316Y-29827708D01*
X4486318Y-29827710D01*
X4486320Y-29827713D01*
X4860898Y-30202290D01*
X5195504Y-30536896D01*
X5223281Y-30591413D01*
X5224500Y-30606900D01*
X5224500Y-31041148D01*
X5234641Y-31125591D01*
X5287634Y-31259972D01*
X5287635Y-31259974D01*
X5287636Y-31259975D01*
X5374922Y-31375078D01*
X5490025Y-31462364D01*
X5490026Y-31462364D01*
X5490027Y-31462365D01*
X5530509Y-31478329D01*
X5624410Y-31515359D01*
X5708856Y-31525500D01*
X5708858Y-31525500D01*
X6291142Y-31525500D01*
X6291144Y-31525500D01*
X6375590Y-31515359D01*
X6509975Y-31462364D01*
X6625078Y-31375078D01*
X6712364Y-31259975D01*
X6765359Y-31125590D01*
X6775500Y-31041144D01*
X6775500Y-30508856D01*
X6765359Y-30424410D01*
X6725317Y-30322872D01*
X6712365Y-30290027D01*
X6712364Y-30290026D01*
X6712364Y-30290025D01*
X6670348Y-30234619D01*
X6636976Y-30190611D01*
X6616881Y-30132820D01*
X6634592Y-30074254D01*
X6663888Y-30046531D01*
X6702731Y-30022572D01*
X6822574Y-29902729D01*
X6911545Y-29758487D01*
X6964856Y-29597603D01*
X6975000Y-29498323D01*
X6975000Y-29475001D01*
X6974999Y-29475000D01*
X6099000Y-29475000D01*
X6040809Y-29456093D01*
X6004845Y-29406593D01*
X6000000Y-29376000D01*
X6000000Y-29074000D01*
X6018907Y-29015809D01*
X6068407Y-28979845D01*
X6099000Y-28975000D01*
X6974998Y-28975000D01*
X6974999Y-28974999D01*
X6974999Y-28951677D01*
X6964857Y-28852402D01*
X6964854Y-28852390D01*
X6911545Y-28691512D01*
X6822574Y-28547270D01*
X6698654Y-28423350D01*
X6700203Y-28421800D01*
X6692372Y-28417130D01*
X6683724Y-28396942D01*
X6671548Y-28378656D01*
X6671926Y-28369399D01*
X6668280Y-28360887D01*
X6672939Y-28344630D01*
X6674048Y-28317522D01*
X6681847Y-28301225D01*
X6684661Y-28296506D01*
X6712364Y-28259975D01*
X6723910Y-28230696D01*
X6728029Y-28223790D01*
X6745296Y-28208680D01*
X6759895Y-28190984D01*
X6768325Y-28188528D01*
X6774074Y-28183498D01*
X6790815Y-28181977D01*
X6813056Y-28175500D01*
X8101473Y-28175500D01*
X8206927Y-28175500D01*
X8393099Y-28175500D01*
X8451290Y-28194407D01*
X8463103Y-28204496D01*
X9314103Y-29055496D01*
X9341880Y-29110013D01*
X9332309Y-29170445D01*
X9289044Y-29213710D01*
X9244099Y-29224500D01*
X8927133Y-29224500D01*
X8927129Y-29224500D01*
X8927128Y-29224501D01*
X8919949Y-29225272D01*
X8867519Y-29230908D01*
X8867514Y-29230909D01*
X8732670Y-29281202D01*
X8617458Y-29367450D01*
X8617450Y-29367458D01*
X8531202Y-29482670D01*
X8480910Y-29617511D01*
X8480908Y-29617522D01*
X8477729Y-29647090D01*
X8475437Y-29668417D01*
X8474500Y-29677129D01*
X8474500Y-30322866D01*
X8474501Y-30322870D01*
X8480908Y-30382480D01*
X8480909Y-30382485D01*
X8531202Y-30517329D01*
X8598255Y-30606900D01*
X8617454Y-30632546D01*
X8617457Y-30632548D01*
X8617458Y-30632549D01*
X8732670Y-30718797D01*
X8867511Y-30769089D01*
X8867512Y-30769089D01*
X8867517Y-30769091D01*
X8927127Y-30775500D01*
X9343098Y-30775499D01*
X9401289Y-30794406D01*
X9413102Y-30804495D01*
X11568687Y-32960080D01*
X11568689Y-32960081D01*
X11568690Y-32960082D01*
X11568691Y-32960083D01*
X11660008Y-33012805D01*
X11660006Y-33012805D01*
X11660010Y-33012806D01*
X11660012Y-33012807D01*
X11761873Y-33040100D01*
X15091484Y-33040100D01*
X15149675Y-33059007D01*
X15185639Y-33108507D01*
X15185639Y-33169693D01*
X15149675Y-33219193D01*
X15136429Y-33227310D01*
X15093475Y-33249195D01*
X15093471Y-33249197D01*
X14953403Y-33350962D01*
X14830962Y-33473403D01*
X14729197Y-33613471D01*
X14729195Y-33613475D01*
X14650588Y-33767751D01*
X14597084Y-33932420D01*
X14570000Y-34103424D01*
X14570000Y-34339999D01*
X14570001Y-34340000D01*
X15270001Y-34340000D01*
X15270001Y-34840000D01*
X14570001Y-34840000D01*
X14570000Y-34840001D01*
X14570000Y-35076575D01*
X14597084Y-35247579D01*
X14650589Y-35412251D01*
X14681163Y-35472256D01*
X14690734Y-35532688D01*
X14662956Y-35587204D01*
X14608439Y-35614981D01*
X14592953Y-35616200D01*
X14152444Y-35616200D01*
X14094253Y-35597293D01*
X14082441Y-35587204D01*
X14031418Y-35536182D01*
X14031416Y-35536180D01*
X13894484Y-35457123D01*
X13741757Y-35416200D01*
X13583643Y-35416200D01*
X13430916Y-35457123D01*
X13293984Y-35536180D01*
X13182180Y-35647984D01*
X13103123Y-35784916D01*
X13062200Y-35937643D01*
X13062200Y-36095757D01*
X13103123Y-36248484D01*
X13182180Y-36385416D01*
X13293984Y-36497220D01*
X13430916Y-36576277D01*
X13583643Y-36617200D01*
X13583645Y-36617200D01*
X13741755Y-36617200D01*
X13741757Y-36617200D01*
X13894484Y-36576277D01*
X14031416Y-36497220D01*
X14056929Y-36471706D01*
X14082441Y-36446196D01*
X14136958Y-36418419D01*
X14152444Y-36417200D01*
X17567725Y-36417200D01*
X17567727Y-36417200D01*
X17669588Y-36389907D01*
X17669590Y-36389905D01*
X17669592Y-36389905D01*
X17760908Y-36337183D01*
X17760908Y-36337182D01*
X17760913Y-36337180D01*
X18945190Y-35152900D01*
X18999705Y-35125125D01*
X19060137Y-35134696D01*
X19064668Y-35137156D01*
X19095413Y-35154907D01*
X19197273Y-35182200D01*
X19302727Y-35182200D01*
X20044599Y-35182200D01*
X20102790Y-35201107D01*
X20114603Y-35211196D01*
X21685387Y-36781980D01*
X21685389Y-36781981D01*
X21685390Y-36781982D01*
X21685391Y-36781983D01*
X21776708Y-36834705D01*
X21776706Y-36834705D01*
X21776710Y-36834706D01*
X21776712Y-36834707D01*
X21878573Y-36862000D01*
X21878575Y-36862000D01*
X26690625Y-36862000D01*
X26690627Y-36862000D01*
X26792488Y-36834707D01*
X26792490Y-36834705D01*
X26792492Y-36834705D01*
X26883808Y-36781983D01*
X26883808Y-36781982D01*
X26883813Y-36781980D01*
X28254597Y-35411196D01*
X28309114Y-35383419D01*
X28324601Y-35382200D01*
X28396755Y-35382200D01*
X28396757Y-35382200D01*
X28549484Y-35341277D01*
X28686416Y-35262220D01*
X28713044Y-35235592D01*
X28737441Y-35211196D01*
X28791958Y-35183419D01*
X28807444Y-35182200D01*
X29208725Y-35182200D01*
X29208727Y-35182200D01*
X29310588Y-35154907D01*
X29310590Y-35154905D01*
X29310592Y-35154905D01*
X29401908Y-35102183D01*
X29401908Y-35102182D01*
X29401913Y-35102180D01*
X32195910Y-32308181D01*
X32195913Y-32308180D01*
X32270480Y-32233613D01*
X32323207Y-32142287D01*
X32330599Y-32114700D01*
X32350501Y-32040427D01*
X32350501Y-32007370D01*
X32352208Y-31998297D01*
X32362667Y-31979157D01*
X32369408Y-31958410D01*
X32379218Y-31948868D01*
X32381548Y-31944605D01*
X32383100Y-31943869D01*
X32388761Y-31938207D01*
X32388765Y-31938206D01*
X32468206Y-31858765D01*
X32513585Y-31755991D01*
X32516500Y-31730865D01*
X32516499Y-30569136D01*
X32513585Y-30544009D01*
X32468206Y-30441235D01*
X32388765Y-30361794D01*
X32285991Y-30316415D01*
X32285990Y-30316414D01*
X32285988Y-30316414D01*
X32260869Y-30313500D01*
X31715182Y-30313500D01*
X31656991Y-30294593D01*
X31646664Y-30285959D01*
X31591609Y-30233170D01*
X31508090Y-30170647D01*
X31508088Y-30170646D01*
X31373381Y-30120403D01*
X31373364Y-30120399D01*
X31362692Y-30119252D01*
X31306857Y-30094230D01*
X31276393Y-30041168D01*
X31282936Y-29980334D01*
X31303274Y-29950818D01*
X31320480Y-29933613D01*
X31373207Y-29842287D01*
X31400500Y-29740427D01*
X31400500Y-29740424D01*
X31401347Y-29733993D01*
X31402794Y-29734183D01*
X31419407Y-29683054D01*
X31468907Y-29647090D01*
X31530093Y-29647090D01*
X31539473Y-29650674D01*
X31614009Y-29683585D01*
X31639135Y-29686500D01*
X32260864Y-29686499D01*
X32285991Y-29683585D01*
X32388765Y-29638206D01*
X32468206Y-29558765D01*
X32513585Y-29455991D01*
X32516500Y-29430865D01*
X32516499Y-28772993D01*
X32516499Y-28269139D01*
X32516499Y-28269136D01*
X32513585Y-28244009D01*
X32468206Y-28141235D01*
X32388765Y-28061794D01*
X32285991Y-28016415D01*
X32285990Y-28016414D01*
X32285988Y-28016414D01*
X32260868Y-28013500D01*
X31639139Y-28013500D01*
X31639136Y-28013501D01*
X31614009Y-28016414D01*
X31514987Y-28060137D01*
X31454117Y-28066345D01*
X31435015Y-28060138D01*
X31335991Y-28016415D01*
X31335990Y-28016414D01*
X31335988Y-28016414D01*
X31310868Y-28013500D01*
X30689139Y-28013500D01*
X30689136Y-28013501D01*
X30664009Y-28016414D01*
X30564987Y-28060137D01*
X30504117Y-28066345D01*
X30485015Y-28060138D01*
X30385991Y-28016415D01*
X30385990Y-28016414D01*
X30385988Y-28016414D01*
X30360868Y-28013500D01*
X29739139Y-28013500D01*
X29739136Y-28013501D01*
X29714009Y-28016414D01*
X29611235Y-28061794D01*
X29531794Y-28141235D01*
X29486414Y-28244011D01*
X29483500Y-28269130D01*
X29483500Y-28269132D01*
X29483500Y-28269135D01*
X29483500Y-28772993D01*
X29483501Y-29188200D01*
X29464594Y-29246391D01*
X29415094Y-29282355D01*
X29384501Y-29287200D01*
X25931427Y-29287200D01*
X25825973Y-29287200D01*
X25763629Y-29303904D01*
X25724107Y-29314494D01*
X25632791Y-29367216D01*
X23121204Y-31878803D01*
X23066687Y-31906580D01*
X23006255Y-31897009D01*
X22981196Y-31878803D01*
X22609371Y-31506978D01*
X22581594Y-31452461D01*
X22591165Y-31392029D01*
X22594653Y-31385757D01*
X22668017Y-31264399D01*
X22668020Y-31264392D01*
X22718589Y-31102110D01*
X22718591Y-31102104D01*
X22724999Y-31031581D01*
X22725000Y-31031568D01*
X22725000Y-31025001D01*
X22724999Y-31025000D01*
X20775002Y-31025000D01*
X20775001Y-31025001D01*
X20775001Y-31031582D01*
X20781408Y-31102103D01*
X20781410Y-31102109D01*
X20794229Y-31143247D01*
X20793490Y-31204428D01*
X20756931Y-31253490D01*
X20699712Y-31271700D01*
X19139327Y-31271700D01*
X19033873Y-31271700D01*
X18971529Y-31288404D01*
X18932007Y-31298994D01*
X18840691Y-31351716D01*
X18840686Y-31351720D01*
X17670001Y-32522403D01*
X17615485Y-32550180D01*
X17555053Y-32540609D01*
X17529994Y-32522402D01*
X17460590Y-32452998D01*
X17326713Y-32319120D01*
X17326708Y-32319116D01*
X17235391Y-32266394D01*
X17235393Y-32266394D01*
X17195870Y-32255804D01*
X17133527Y-32239100D01*
X17133525Y-32239100D01*
X12021501Y-32239100D01*
X11963310Y-32220193D01*
X11951497Y-32210104D01*
X10685896Y-30944503D01*
X10658119Y-30889986D01*
X10667690Y-30829554D01*
X10710955Y-30786289D01*
X10755897Y-30775499D01*
X11072872Y-30775499D01*
X11132483Y-30769091D01*
X11199907Y-30743943D01*
X11267329Y-30718797D01*
X11267329Y-30718796D01*
X11267331Y-30718796D01*
X11382546Y-30632546D01*
X11420747Y-30581515D01*
X11470755Y-30546263D01*
X11531934Y-30547137D01*
X11579252Y-30581515D01*
X11617454Y-30632546D01*
X11617457Y-30632548D01*
X11617458Y-30632549D01*
X11732670Y-30718797D01*
X11867511Y-30769089D01*
X11867512Y-30769089D01*
X11867517Y-30769091D01*
X11927127Y-30775500D01*
X12343098Y-30775499D01*
X12401289Y-30794406D01*
X12413102Y-30804495D01*
X12909687Y-31301080D01*
X12909689Y-31301081D01*
X12909690Y-31301082D01*
X12909691Y-31301083D01*
X13001008Y-31353805D01*
X13001006Y-31353805D01*
X13001010Y-31353806D01*
X13001012Y-31353807D01*
X13102873Y-31381100D01*
X13172956Y-31381100D01*
X13231147Y-31400007D01*
X13242959Y-31410096D01*
X13285325Y-31452461D01*
X13293984Y-31461120D01*
X13430916Y-31540177D01*
X13583643Y-31581100D01*
X13583645Y-31581100D01*
X13741755Y-31581100D01*
X13741757Y-31581100D01*
X13894484Y-31540177D01*
X14031416Y-31461120D01*
X14143220Y-31349316D01*
X14222277Y-31212384D01*
X14263200Y-31059657D01*
X14263200Y-31004804D01*
X14282107Y-30946613D01*
X14310984Y-30920082D01*
X14459870Y-30830077D01*
X14580075Y-30709872D01*
X14668017Y-30564400D01*
X14668020Y-30564392D01*
X14682347Y-30518418D01*
X20775000Y-30518418D01*
X20775000Y-30524999D01*
X20775001Y-30525000D01*
X21499999Y-30525000D01*
X21500000Y-30524999D01*
X21500000Y-29875001D01*
X22000000Y-29875001D01*
X22000000Y-30524999D01*
X22000001Y-30525000D01*
X22724998Y-30525000D01*
X22724999Y-30524999D01*
X22724999Y-30518433D01*
X22724998Y-30518417D01*
X22718591Y-30447896D01*
X22718589Y-30447890D01*
X22668020Y-30285607D01*
X22668017Y-30285599D01*
X22580075Y-30140127D01*
X22459872Y-30019924D01*
X22314400Y-29931982D01*
X22314392Y-29931979D01*
X22152110Y-29881410D01*
X22152104Y-29881408D01*
X22081581Y-29875000D01*
X22000001Y-29875000D01*
X22000000Y-29875001D01*
X21500000Y-29875001D01*
X21499998Y-29874999D01*
X21418434Y-29875000D01*
X21418417Y-29875001D01*
X21347896Y-29881408D01*
X21347890Y-29881410D01*
X21185607Y-29931979D01*
X21185599Y-29931982D01*
X21040127Y-30019924D01*
X20919924Y-30140127D01*
X20831982Y-30285599D01*
X20831979Y-30285607D01*
X20781410Y-30447889D01*
X20781408Y-30447895D01*
X20775000Y-30518418D01*
X14682347Y-30518418D01*
X14692222Y-30486729D01*
X14718589Y-30402110D01*
X14718591Y-30402104D01*
X14724999Y-30331581D01*
X14725000Y-30331568D01*
X14725000Y-30250001D01*
X14724999Y-30250000D01*
X13924000Y-30250000D01*
X13865809Y-30231093D01*
X13829845Y-30181593D01*
X13825000Y-30151000D01*
X13825000Y-30000001D01*
X13824999Y-30000000D01*
X13674000Y-30000000D01*
X13615809Y-29981093D01*
X13579845Y-29931593D01*
X13575000Y-29901000D01*
X13575000Y-29025001D01*
X14075000Y-29025001D01*
X14075000Y-29749999D01*
X14075001Y-29750000D01*
X14724998Y-29750000D01*
X14724999Y-29749999D01*
X14724999Y-29668433D01*
X14724998Y-29668417D01*
X14718591Y-29597896D01*
X14718589Y-29597890D01*
X14668020Y-29435607D01*
X14668017Y-29435599D01*
X14580075Y-29290127D01*
X14459872Y-29169924D01*
X14314400Y-29081982D01*
X14314392Y-29081979D01*
X14152110Y-29031410D01*
X14152104Y-29031408D01*
X14081581Y-29025000D01*
X14075001Y-29025000D01*
X14075000Y-29025001D01*
X13575000Y-29025001D01*
X13574998Y-29024999D01*
X13568425Y-29025000D01*
X13497896Y-29031408D01*
X13497890Y-29031410D01*
X13335607Y-29081979D01*
X13335599Y-29081982D01*
X13190127Y-29169924D01*
X13069924Y-29290127D01*
X12981982Y-29435599D01*
X12981978Y-29435609D01*
X12981306Y-29437767D01*
X12980487Y-29438922D01*
X12979523Y-29441065D01*
X12979103Y-29440876D01*
X12945937Y-29487693D01*
X12887977Y-29507296D01*
X12829564Y-29489086D01*
X12807539Y-29467632D01*
X12798822Y-29455988D01*
X12732546Y-29367454D01*
X12732541Y-29367450D01*
X12617329Y-29281202D01*
X12482488Y-29230910D01*
X12482483Y-29230909D01*
X12482481Y-29230908D01*
X12482477Y-29230908D01*
X12451249Y-29227550D01*
X12422873Y-29224500D01*
X12422870Y-29224500D01*
X11927133Y-29224500D01*
X11927129Y-29224500D01*
X11927128Y-29224501D01*
X11919949Y-29225272D01*
X11867519Y-29230908D01*
X11867514Y-29230909D01*
X11732670Y-29281202D01*
X11617458Y-29367450D01*
X11617453Y-29367455D01*
X11579253Y-29418484D01*
X11529244Y-29453736D01*
X11468065Y-29452862D01*
X11420747Y-29418484D01*
X11397183Y-29387007D01*
X11382546Y-29367454D01*
X11382541Y-29367450D01*
X11267329Y-29281202D01*
X11132488Y-29230910D01*
X11132483Y-29230909D01*
X11132481Y-29230908D01*
X11132477Y-29230908D01*
X11101249Y-29227550D01*
X11072873Y-29224500D01*
X11072870Y-29224500D01*
X10656901Y-29224500D01*
X10598710Y-29205593D01*
X10586897Y-29195504D01*
X9736023Y-28344630D01*
X8845913Y-27454520D01*
X8845910Y-27454518D01*
X8845909Y-27454517D01*
X8845908Y-27454516D01*
X8754591Y-27401794D01*
X8754593Y-27401794D01*
X8652724Y-27374499D01*
X8646293Y-27373653D01*
X8646489Y-27372157D01*
X8595509Y-27355593D01*
X8559545Y-27306093D01*
X8554700Y-27275500D01*
X8554700Y-23077129D01*
X13224500Y-23077129D01*
X13224500Y-23572866D01*
X13224500Y-23572869D01*
X13224501Y-23572872D01*
X13224923Y-23576794D01*
X13230908Y-23632480D01*
X13230909Y-23632485D01*
X13281202Y-23767329D01*
X13364960Y-23879215D01*
X13367454Y-23882546D01*
X13367457Y-23882548D01*
X13367458Y-23882549D01*
X13482670Y-23968797D01*
X13617511Y-24019089D01*
X13617512Y-24019089D01*
X13617517Y-24019091D01*
X13677127Y-24025500D01*
X14322872Y-24025499D01*
X14382483Y-24019091D01*
X14489726Y-23979092D01*
X14517329Y-23968797D01*
X14517329Y-23968796D01*
X14517331Y-23968796D01*
X14568158Y-23930746D01*
X14568859Y-23930507D01*
X14569296Y-23929907D01*
X14597749Y-23920662D01*
X14626072Y-23911010D01*
X14627487Y-23911000D01*
X14751656Y-23911000D01*
X14809847Y-23929907D01*
X14821659Y-23939996D01*
X14850460Y-23968796D01*
X14872684Y-23991020D01*
X15009616Y-24070077D01*
X15162343Y-24111000D01*
X15162345Y-24111000D01*
X15320455Y-24111000D01*
X15320457Y-24111000D01*
X15473184Y-24070077D01*
X15610116Y-23991020D01*
X15721920Y-23879216D01*
X15800977Y-23742284D01*
X15841900Y-23589557D01*
X15841900Y-23431443D01*
X15800977Y-23278716D01*
X15721920Y-23141784D01*
X15610116Y-23029980D01*
X15473184Y-22950923D01*
X15320457Y-22910000D01*
X15162343Y-22910000D01*
X15085979Y-22930461D01*
X15009614Y-22950923D01*
X14892627Y-23018465D01*
X14832779Y-23031186D01*
X14776883Y-23006299D01*
X14750370Y-22967324D01*
X14746252Y-22956284D01*
X14738505Y-22935512D01*
X14718797Y-22882670D01*
X14632549Y-22767458D01*
X14632548Y-22767457D01*
X14632546Y-22767454D01*
X14620664Y-22758559D01*
X14517329Y-22681202D01*
X14382488Y-22630910D01*
X14382483Y-22630909D01*
X14382481Y-22630908D01*
X14382477Y-22630908D01*
X14351249Y-22627550D01*
X14322873Y-22624500D01*
X14322870Y-22624500D01*
X13677133Y-22624500D01*
X13677129Y-22624500D01*
X13677128Y-22624501D01*
X13669949Y-22625272D01*
X13617519Y-22630908D01*
X13617514Y-22630909D01*
X13482670Y-22681202D01*
X13367458Y-22767450D01*
X13367450Y-22767458D01*
X13281202Y-22882670D01*
X13230910Y-23017511D01*
X13230908Y-23017522D01*
X13226550Y-23058062D01*
X13224802Y-23074324D01*
X13224500Y-23077129D01*
X8554700Y-23077129D01*
X8554700Y-22255401D01*
X8573607Y-22197210D01*
X8583696Y-22185397D01*
X9414797Y-21354296D01*
X9469314Y-21326519D01*
X9484801Y-21325300D01*
X13125509Y-21325300D01*
X13183700Y-21344207D01*
X13219664Y-21393707D01*
X13223734Y-21424476D01*
X13224500Y-21424476D01*
X13224500Y-21922866D01*
X13224501Y-21922870D01*
X13230908Y-21982480D01*
X13230909Y-21982485D01*
X13281202Y-22117329D01*
X13367450Y-22232541D01*
X13367454Y-22232546D01*
X13367457Y-22232548D01*
X13367458Y-22232549D01*
X13482670Y-22318797D01*
X13617511Y-22369089D01*
X13617512Y-22369089D01*
X13617517Y-22369091D01*
X13677127Y-22375500D01*
X14322872Y-22375499D01*
X14382483Y-22369091D01*
X14506014Y-22323017D01*
X14517329Y-22318797D01*
X14517329Y-22318796D01*
X14517331Y-22318796D01*
X14632546Y-22232546D01*
X14718796Y-22117331D01*
X14718795Y-22117331D01*
X14720413Y-22115171D01*
X14770421Y-22079918D01*
X14799666Y-22075500D01*
X15466399Y-22075500D01*
X15524590Y-22094407D01*
X15536403Y-22104496D01*
X15977820Y-22545913D01*
X15977819Y-22545913D01*
X16045112Y-22613205D01*
X16052387Y-22620480D01*
X16143713Y-22673207D01*
X16226125Y-22695289D01*
X16249360Y-22710378D01*
X16273475Y-22724013D01*
X16274529Y-22726723D01*
X16277438Y-22728612D01*
X16298862Y-22779683D01*
X16299501Y-22785278D01*
X16299501Y-22894864D01*
X16302415Y-22919991D01*
X16319233Y-22958080D01*
X16320943Y-22973054D01*
X16317704Y-22988992D01*
X16319354Y-23005170D01*
X16311765Y-23018220D01*
X16308759Y-23033014D01*
X16296771Y-23044003D01*
X16288597Y-23058062D01*
X16281913Y-23063538D01*
X16242814Y-23092808D01*
X16242807Y-23092815D01*
X16156647Y-23207909D01*
X16156646Y-23207911D01*
X16106403Y-23342618D01*
X16106401Y-23342629D01*
X16100000Y-23402175D01*
X16100000Y-23749999D01*
X16100001Y-23750000D01*
X17501000Y-23750000D01*
X17559191Y-23768907D01*
X17595155Y-23818407D01*
X17600000Y-23849000D01*
X17600000Y-24151000D01*
X17581093Y-24209191D01*
X17531593Y-24245155D01*
X17501000Y-24250000D01*
X16100001Y-24250000D01*
X16100000Y-24250001D01*
X16100000Y-24597824D01*
X16099999Y-24597824D01*
X16106401Y-24657370D01*
X16106403Y-24657381D01*
X16156646Y-24792088D01*
X16156647Y-24792090D01*
X16242807Y-24907184D01*
X16242811Y-24907188D01*
X16281911Y-24936458D01*
X16317164Y-24986467D01*
X16316290Y-25047646D01*
X16313148Y-25055697D01*
X16302416Y-25080003D01*
X16302414Y-25080010D01*
X16299500Y-25105130D01*
X16299500Y-25105132D01*
X16299500Y-25105135D01*
X16299500Y-25617331D01*
X16299501Y-26052200D01*
X16280594Y-26110391D01*
X16231094Y-26146355D01*
X16200501Y-26151200D01*
X15583601Y-26151200D01*
X15525410Y-26132293D01*
X15513597Y-26122204D01*
X14804495Y-25413102D01*
X14776718Y-25358585D01*
X14775499Y-25343098D01*
X14775499Y-24927133D01*
X14775499Y-24927128D01*
X14769091Y-24867517D01*
X14762744Y-24850499D01*
X14718797Y-24732670D01*
X14632549Y-24617458D01*
X14632548Y-24617457D01*
X14632546Y-24617454D01*
X14632541Y-24617450D01*
X14517329Y-24531202D01*
X14382488Y-24480910D01*
X14382483Y-24480909D01*
X14382481Y-24480908D01*
X14382477Y-24480908D01*
X14351249Y-24477550D01*
X14322873Y-24474500D01*
X14322870Y-24474500D01*
X13677133Y-24474500D01*
X13677129Y-24474500D01*
X13677128Y-24474501D01*
X13669949Y-24475272D01*
X13617519Y-24480908D01*
X13617514Y-24480909D01*
X13482670Y-24531202D01*
X13367458Y-24617450D01*
X13367450Y-24617458D01*
X13281202Y-24732670D01*
X13230910Y-24867511D01*
X13230908Y-24867522D01*
X13224500Y-24927129D01*
X13224500Y-25422866D01*
X13224500Y-25422869D01*
X13224501Y-25422872D01*
X13225016Y-25427660D01*
X13230908Y-25482480D01*
X13230909Y-25482485D01*
X13281202Y-25617329D01*
X13314979Y-25662449D01*
X13367454Y-25732546D01*
X13367457Y-25732548D01*
X13367458Y-25732549D01*
X13482670Y-25818797D01*
X13617511Y-25869089D01*
X13617512Y-25869089D01*
X13617517Y-25869091D01*
X13677127Y-25875500D01*
X14093098Y-25875499D01*
X14100695Y-25877967D01*
X14108585Y-25876718D01*
X14129240Y-25887242D01*
X14151289Y-25894406D01*
X14163102Y-25904495D01*
X14214103Y-25955496D01*
X14241880Y-26010013D01*
X14232309Y-26070445D01*
X14189044Y-26113710D01*
X14144099Y-26124500D01*
X13677133Y-26124500D01*
X13677129Y-26124500D01*
X13677128Y-26124501D01*
X13669949Y-26125272D01*
X13617519Y-26130908D01*
X13617514Y-26130909D01*
X13482670Y-26181202D01*
X13367458Y-26267450D01*
X13367450Y-26267458D01*
X13281202Y-26382670D01*
X13230910Y-26517511D01*
X13230908Y-26517522D01*
X13224500Y-26577129D01*
X13224500Y-27072866D01*
X13224501Y-27072870D01*
X13230908Y-27132480D01*
X13230909Y-27132485D01*
X13281202Y-27267329D01*
X13367450Y-27382541D01*
X13367454Y-27382546D01*
X13367457Y-27382548D01*
X13367458Y-27382549D01*
X13482670Y-27468797D01*
X13617511Y-27519089D01*
X13617512Y-27519089D01*
X13617517Y-27519091D01*
X13677127Y-27525500D01*
X14093099Y-27525499D01*
X14151290Y-27544406D01*
X14163102Y-27554495D01*
X14483857Y-27875249D01*
X14483862Y-27875255D01*
X14483863Y-27875255D01*
X14487318Y-27878710D01*
X14487320Y-27878713D01*
X14561887Y-27953280D01*
X14592441Y-27970920D01*
X14631182Y-27993288D01*
X14631185Y-27993289D01*
X14653213Y-28006007D01*
X14755070Y-28033300D01*
X14755072Y-28033301D01*
X14755073Y-28033301D01*
X14866590Y-28033301D01*
X14866606Y-28033300D01*
X20504856Y-28033300D01*
X20563047Y-28052207D01*
X20574859Y-28062296D01*
X20610593Y-28098029D01*
X20625884Y-28113320D01*
X20762816Y-28192377D01*
X20915543Y-28233300D01*
X20915545Y-28233300D01*
X21073655Y-28233300D01*
X21073657Y-28233300D01*
X21226384Y-28192377D01*
X21363316Y-28113320D01*
X21475120Y-28001516D01*
X21554177Y-27864584D01*
X21595100Y-27711857D01*
X21595100Y-27553743D01*
X21554177Y-27401016D01*
X21475120Y-27264084D01*
X21363316Y-27152280D01*
X21226384Y-27073223D01*
X21073657Y-27032300D01*
X20915543Y-27032300D01*
X20762816Y-27073223D01*
X20641974Y-27142991D01*
X20625881Y-27152282D01*
X20574859Y-27203304D01*
X20520342Y-27231081D01*
X20504856Y-27232300D01*
X15014700Y-27232300D01*
X14956509Y-27213393D01*
X14944696Y-27203304D01*
X14804495Y-27063103D01*
X14776718Y-27008586D01*
X14775499Y-26993099D01*
X14775499Y-26755899D01*
X14794406Y-26697708D01*
X14843906Y-26661744D01*
X14905092Y-26661744D01*
X14944500Y-26685893D01*
X15130787Y-26872180D01*
X15130789Y-26872181D01*
X15130791Y-26872183D01*
X15222108Y-26924905D01*
X15222106Y-26924905D01*
X15222110Y-26924906D01*
X15222112Y-26924907D01*
X15323973Y-26952200D01*
X15323975Y-26952200D01*
X18812225Y-26952200D01*
X18812227Y-26952200D01*
X18914088Y-26924907D01*
X18914090Y-26924905D01*
X18914092Y-26924905D01*
X19005408Y-26872183D01*
X19005408Y-26872182D01*
X19005413Y-26872180D01*
X19579768Y-26297824D01*
X20899999Y-26297824D01*
X20906401Y-26357370D01*
X20906403Y-26357381D01*
X20956646Y-26492088D01*
X20956647Y-26492090D01*
X21042807Y-26607184D01*
X21042815Y-26607192D01*
X21157909Y-26693352D01*
X21157911Y-26693353D01*
X21292618Y-26743596D01*
X21292629Y-26743598D01*
X21352176Y-26750000D01*
X22149999Y-26750000D01*
X22150000Y-26749999D01*
X22150000Y-25950001D01*
X22650000Y-25950001D01*
X22650000Y-26749999D01*
X22650001Y-26750000D01*
X23447824Y-26750000D01*
X23507370Y-26743598D01*
X23507381Y-26743596D01*
X23642088Y-26693353D01*
X23642090Y-26693352D01*
X23757184Y-26607192D01*
X23757192Y-26607184D01*
X23843352Y-26492090D01*
X23843353Y-26492088D01*
X23893596Y-26357381D01*
X23893598Y-26357370D01*
X23900000Y-26297824D01*
X23900000Y-25950001D01*
X23899999Y-25950000D01*
X22650001Y-25950000D01*
X22650000Y-25950001D01*
X22150000Y-25950001D01*
X22149999Y-25950000D01*
X20900001Y-25950000D01*
X20900000Y-25950001D01*
X20900000Y-26297824D01*
X20899999Y-26297824D01*
X19579768Y-26297824D01*
X20730998Y-25146592D01*
X20785513Y-25118817D01*
X20845945Y-25128388D01*
X20889210Y-25171653D01*
X20900000Y-25216598D01*
X20900000Y-25449999D01*
X20900001Y-25450000D01*
X23899999Y-25450000D01*
X23900000Y-25449999D01*
X23900000Y-25102175D01*
X23893598Y-25042629D01*
X23893596Y-25042618D01*
X23843353Y-24907911D01*
X23843352Y-24907909D01*
X23757192Y-24792815D01*
X23757184Y-24792807D01*
X23718087Y-24763539D01*
X23682834Y-24713530D01*
X23683708Y-24652351D01*
X23686847Y-24644310D01*
X23697585Y-24619991D01*
X23700500Y-24594865D01*
X23700499Y-23554798D01*
X23719406Y-23496608D01*
X23768906Y-23460644D01*
X23830092Y-23460644D01*
X23879592Y-23496608D01*
X23895124Y-23529173D01*
X23902523Y-23556784D01*
X23981580Y-23693716D01*
X24093384Y-23805520D01*
X24230316Y-23884577D01*
X24383043Y-23925500D01*
X24383045Y-23925500D01*
X24541155Y-23925500D01*
X24541157Y-23925500D01*
X24693884Y-23884577D01*
X24830816Y-23805520D01*
X24869007Y-23767329D01*
X24881841Y-23754496D01*
X24936358Y-23726719D01*
X24951844Y-23725500D01*
X25200334Y-23725500D01*
X25258525Y-23744407D01*
X25279587Y-23765171D01*
X25356869Y-23868407D01*
X25367454Y-23882546D01*
X25367457Y-23882548D01*
X25367458Y-23882549D01*
X25482670Y-23968797D01*
X25617511Y-24019089D01*
X25617512Y-24019089D01*
X25617517Y-24019091D01*
X25677127Y-24025500D01*
X26322872Y-24025499D01*
X26382483Y-24019091D01*
X26489726Y-23979092D01*
X26517329Y-23968797D01*
X26517329Y-23968796D01*
X26517331Y-23968796D01*
X26632546Y-23882546D01*
X26718796Y-23767331D01*
X26725257Y-23750010D01*
X26755775Y-23668184D01*
X26769091Y-23632483D01*
X26775500Y-23572873D01*
X26775499Y-23077128D01*
X26769091Y-23017517D01*
X26754067Y-22977235D01*
X26718797Y-22882670D01*
X26632549Y-22767458D01*
X26632548Y-22767457D01*
X26632546Y-22767454D01*
X26620664Y-22758559D01*
X26517329Y-22681202D01*
X26382488Y-22630910D01*
X26382483Y-22630909D01*
X26382481Y-22630908D01*
X26382477Y-22630908D01*
X26351249Y-22627550D01*
X26322873Y-22624500D01*
X26322870Y-22624500D01*
X25677133Y-22624500D01*
X25677129Y-22624500D01*
X25677128Y-22624501D01*
X25669949Y-22625272D01*
X25617519Y-22630908D01*
X25617514Y-22630909D01*
X25482670Y-22681202D01*
X25367458Y-22767450D01*
X25367450Y-22767458D01*
X25279587Y-22884829D01*
X25229579Y-22920082D01*
X25200334Y-22924500D01*
X24951844Y-22924500D01*
X24893653Y-22905593D01*
X24881841Y-22895504D01*
X24830818Y-22844482D01*
X24830816Y-22844480D01*
X24693884Y-22765423D01*
X24541157Y-22724500D01*
X24383043Y-22724500D01*
X24230316Y-22765423D01*
X24093384Y-22844480D01*
X23981580Y-22956284D01*
X23902523Y-23093216D01*
X23868551Y-23220004D01*
X23861600Y-23245944D01*
X23861600Y-23282156D01*
X23842693Y-23340347D01*
X23793193Y-23376311D01*
X23732007Y-23376311D01*
X23682970Y-23340978D01*
X23676459Y-23332164D01*
X23652206Y-23277235D01*
X23589743Y-23214772D01*
X23585348Y-23208822D01*
X23577892Y-23186478D01*
X23567197Y-23165487D01*
X23568384Y-23157986D01*
X23565981Y-23150782D01*
X23573083Y-23128321D01*
X23576768Y-23105055D01*
X23583270Y-23096105D01*
X23584428Y-23092444D01*
X23587670Y-23090048D01*
X23594971Y-23079999D01*
X23652206Y-23022765D01*
X23697585Y-22919991D01*
X23700500Y-22894865D01*
X23700499Y-21920299D01*
X23719406Y-21862109D01*
X23768906Y-21826145D01*
X23799499Y-21821300D01*
X25125501Y-21821300D01*
X25183692Y-21840207D01*
X25219656Y-21889707D01*
X25224501Y-21920300D01*
X25224501Y-21922870D01*
X25230908Y-21982480D01*
X25230909Y-21982485D01*
X25281202Y-22117329D01*
X25367450Y-22232541D01*
X25367454Y-22232546D01*
X25367457Y-22232548D01*
X25367458Y-22232549D01*
X25482670Y-22318797D01*
X25617511Y-22369089D01*
X25617512Y-22369089D01*
X25617517Y-22369091D01*
X25677127Y-22375500D01*
X26322872Y-22375499D01*
X26382483Y-22369091D01*
X26506014Y-22323017D01*
X26517329Y-22318797D01*
X26517329Y-22318796D01*
X26517331Y-22318796D01*
X26632546Y-22232546D01*
X26718796Y-22117331D01*
X26769091Y-21982483D01*
X26775500Y-21922873D01*
X26775499Y-21427128D01*
X26775499Y-21427127D01*
X26775499Y-21424477D01*
X26776926Y-21424477D01*
X26791546Y-21370252D01*
X26839155Y-21331820D01*
X26874490Y-21325300D01*
X29180405Y-21325300D01*
X29238596Y-21344207D01*
X29250407Y-21354294D01*
X29339746Y-21443630D01*
X30777153Y-22880995D01*
X30804931Y-22935512D01*
X30795360Y-22995944D01*
X30752096Y-23039209D01*
X30707150Y-23050000D01*
X30475013Y-23050000D01*
X30372312Y-23060492D01*
X30372300Y-23060495D01*
X30205875Y-23115643D01*
X30056659Y-23207680D01*
X29932680Y-23331659D01*
X29840643Y-23480875D01*
X29785493Y-23647306D01*
X29775001Y-23750000D01*
X29775000Y-23750010D01*
X29775000Y-23799999D01*
X29775001Y-23800000D01*
X30901000Y-23800000D01*
X30959191Y-23818907D01*
X30995155Y-23868407D01*
X31000000Y-23899000D01*
X31000000Y-24201000D01*
X30981093Y-24259191D01*
X30931593Y-24295155D01*
X30901000Y-24300000D01*
X29775002Y-24300000D01*
X29775001Y-24300001D01*
X29775001Y-24349986D01*
X29785492Y-24452687D01*
X29785495Y-24452699D01*
X29840643Y-24619124D01*
X29932680Y-24768340D01*
X30056659Y-24892319D01*
X30205875Y-24984356D01*
X30290779Y-25012491D01*
X30340069Y-25048742D01*
X30358637Y-25107042D01*
X30339392Y-25165122D01*
X30295959Y-25198563D01*
X30252658Y-25215638D01*
X30252656Y-25215640D01*
X30132081Y-25307075D01*
X30132075Y-25307081D01*
X30040640Y-25427656D01*
X30040637Y-25427660D01*
X29985123Y-25568434D01*
X29974500Y-25656893D01*
X29974500Y-26243113D01*
X29975219Y-26249092D01*
X29963387Y-26309123D01*
X29918530Y-26350734D01*
X29876926Y-26359900D01*
X27792301Y-26359900D01*
X27734110Y-26340993D01*
X27722297Y-26330904D01*
X26804495Y-25413102D01*
X26776718Y-25358585D01*
X26775499Y-25343098D01*
X26775499Y-24927133D01*
X26775499Y-24927128D01*
X26769091Y-24867517D01*
X26762744Y-24850499D01*
X26718797Y-24732670D01*
X26632549Y-24617458D01*
X26632548Y-24617457D01*
X26632546Y-24617454D01*
X26632541Y-24617450D01*
X26517329Y-24531202D01*
X26382488Y-24480910D01*
X26382483Y-24480909D01*
X26382481Y-24480908D01*
X26382477Y-24480908D01*
X26351249Y-24477550D01*
X26322873Y-24474500D01*
X26322870Y-24474500D01*
X25677133Y-24474500D01*
X25677129Y-24474500D01*
X25677128Y-24474501D01*
X25669949Y-24475272D01*
X25617519Y-24480908D01*
X25617514Y-24480909D01*
X25482670Y-24531202D01*
X25367458Y-24617450D01*
X25367450Y-24617458D01*
X25281202Y-24732670D01*
X25230910Y-24867511D01*
X25230908Y-24867522D01*
X25224500Y-24927129D01*
X25224500Y-25422866D01*
X25224500Y-25422869D01*
X25224501Y-25422872D01*
X25225016Y-25427660D01*
X25230908Y-25482480D01*
X25230909Y-25482485D01*
X25281202Y-25617329D01*
X25314979Y-25662449D01*
X25367454Y-25732546D01*
X25367457Y-25732548D01*
X25367458Y-25732549D01*
X25482670Y-25818797D01*
X25617511Y-25869089D01*
X25617512Y-25869089D01*
X25617517Y-25869091D01*
X25677127Y-25875500D01*
X26093098Y-25875499D01*
X26100695Y-25877967D01*
X26108585Y-25876718D01*
X26129240Y-25887242D01*
X26151289Y-25894406D01*
X26163102Y-25904495D01*
X26214103Y-25955496D01*
X26241880Y-26010013D01*
X26232309Y-26070445D01*
X26189044Y-26113710D01*
X26144099Y-26124500D01*
X25677133Y-26124500D01*
X25677129Y-26124500D01*
X25677128Y-26124501D01*
X25669949Y-26125272D01*
X25617519Y-26130908D01*
X25617514Y-26130909D01*
X25482670Y-26181202D01*
X25367458Y-26267450D01*
X25367450Y-26267458D01*
X25281202Y-26382670D01*
X25230910Y-26517511D01*
X25230908Y-26517522D01*
X25224500Y-26577129D01*
X25224500Y-27072866D01*
X25224501Y-27072870D01*
X25230908Y-27132480D01*
X25230909Y-27132485D01*
X25281202Y-27267329D01*
X25367450Y-27382541D01*
X25367454Y-27382546D01*
X25367457Y-27382548D01*
X25367458Y-27382549D01*
X25482670Y-27468797D01*
X25617511Y-27519089D01*
X25617512Y-27519089D01*
X25617517Y-27519091D01*
X25677127Y-27525500D01*
X26093098Y-27525499D01*
X26151289Y-27544406D01*
X26163101Y-27554495D01*
X26315386Y-27706779D01*
X26315391Y-27706783D01*
X26406708Y-27759505D01*
X26406706Y-27759505D01*
X26406710Y-27759506D01*
X26406712Y-27759507D01*
X26508573Y-27786800D01*
X27473556Y-27786800D01*
X27531747Y-27805707D01*
X27543559Y-27815796D01*
X27592347Y-27864583D01*
X27594584Y-27866820D01*
X27731516Y-27945877D01*
X27884243Y-27986800D01*
X27884245Y-27986800D01*
X28042355Y-27986800D01*
X28042357Y-27986800D01*
X28195084Y-27945877D01*
X28332016Y-27866820D01*
X28443820Y-27755016D01*
X28522877Y-27618084D01*
X28563800Y-27465357D01*
X28563800Y-27307243D01*
X28557980Y-27285522D01*
X28561183Y-27224420D01*
X28599689Y-27176871D01*
X28653607Y-27160900D01*
X34478570Y-27160900D01*
X34536761Y-27179807D01*
X34558660Y-27201706D01*
X34622447Y-27289501D01*
X34750499Y-27417553D01*
X34897006Y-27523996D01*
X35058361Y-27606211D01*
X35069483Y-27609824D01*
X35072983Y-27610962D01*
X35122483Y-27646926D01*
X35141391Y-27705116D01*
X35122484Y-27763307D01*
X35072985Y-27799271D01*
X35072984Y-27799272D01*
X34981784Y-27828904D01*
X34792446Y-27925376D01*
X34792442Y-27925378D01*
X34738282Y-27964728D01*
X35370591Y-28597037D01*
X35307007Y-28614075D01*
X35192993Y-28679901D01*
X35099901Y-28772993D01*
X35034075Y-28887007D01*
X35017037Y-28950591D01*
X34384728Y-28318282D01*
X34345378Y-28372442D01*
X34345376Y-28372446D01*
X34248904Y-28561784D01*
X34183240Y-28763878D01*
X34150000Y-28973749D01*
X34150000Y-29186250D01*
X34183240Y-29396121D01*
X34248904Y-29598215D01*
X34345376Y-29787553D01*
X34345380Y-29787559D01*
X34384728Y-29841716D01*
X34384729Y-29841716D01*
X35017037Y-29209407D01*
X35034075Y-29272993D01*
X35099901Y-29387007D01*
X35192993Y-29480099D01*
X35307007Y-29545925D01*
X35370589Y-29562962D01*
X34738282Y-30195269D01*
X34738282Y-30195270D01*
X34792440Y-30234619D01*
X34792446Y-30234623D01*
X34981784Y-30331095D01*
X35183878Y-30396759D01*
X35393750Y-30430000D01*
X35606250Y-30430000D01*
X35816121Y-30396759D01*
X36018215Y-30331095D01*
X36207556Y-30234620D01*
X36261716Y-30195270D01*
X35629408Y-29562962D01*
X35692993Y-29545925D01*
X35807007Y-29480099D01*
X35900099Y-29387007D01*
X35965925Y-29272993D01*
X35982962Y-29209408D01*
X36615270Y-29841716D01*
X36654620Y-29787556D01*
X36751095Y-29598215D01*
X36816759Y-29396121D01*
X36850000Y-29186250D01*
X36850000Y-28973749D01*
X36816759Y-28763878D01*
X36751095Y-28561784D01*
X36654623Y-28372446D01*
X36654619Y-28372440D01*
X36615270Y-28318282D01*
X36615269Y-28318282D01*
X35982962Y-28950589D01*
X35965925Y-28887007D01*
X35900099Y-28772993D01*
X35807007Y-28679901D01*
X35692993Y-28614075D01*
X35629407Y-28597037D01*
X36261716Y-27964729D01*
X36261716Y-27964728D01*
X36207559Y-27925380D01*
X36207553Y-27925376D01*
X36018215Y-27828904D01*
X35927015Y-27799272D01*
X35877515Y-27763308D01*
X35858608Y-27705117D01*
X35877515Y-27646926D01*
X35927013Y-27610962D01*
X35927017Y-27610962D01*
X35927018Y-27610962D01*
X35941633Y-27606213D01*
X35941633Y-27606212D01*
X35941639Y-27606211D01*
X36102994Y-27523996D01*
X36249501Y-27417553D01*
X36377553Y-27289501D01*
X36483996Y-27142994D01*
X36566211Y-26981639D01*
X36622171Y-26809409D01*
X36639863Y-26697708D01*
X36650500Y-26630549D01*
X36650500Y-26449450D01*
X36626484Y-26297824D01*
X36622171Y-26270591D01*
X36566211Y-26098361D01*
X36483996Y-25937006D01*
X36377553Y-25790499D01*
X36249501Y-25662447D01*
X36102994Y-25556004D01*
X36102993Y-25556003D01*
X36102991Y-25556002D01*
X35941637Y-25473788D01*
X35769406Y-25417828D01*
X35590549Y-25389500D01*
X35590546Y-25389500D01*
X35409454Y-25389500D01*
X35409451Y-25389500D01*
X35230593Y-25417828D01*
X35058362Y-25473788D01*
X34897008Y-25556002D01*
X34823752Y-25609225D01*
X34750499Y-25662447D01*
X34622447Y-25790499D01*
X34587217Y-25838989D01*
X34516002Y-25937008D01*
X34433788Y-26098362D01*
X34377828Y-26270590D01*
X34376912Y-26276382D01*
X34349137Y-26330900D01*
X34294622Y-26358680D01*
X34279130Y-26359900D01*
X32123074Y-26359900D01*
X32064883Y-26340993D01*
X32028919Y-26291493D01*
X32024781Y-26249092D01*
X32025499Y-26243113D01*
X32025500Y-26243100D01*
X32025500Y-25656899D01*
X32025499Y-25656893D01*
X32020748Y-25617331D01*
X32014877Y-25568436D01*
X32014876Y-25568435D01*
X32014120Y-25562134D01*
X32015660Y-25561949D01*
X32019217Y-25508489D01*
X32041125Y-25475266D01*
X32944062Y-24572328D01*
X32944066Y-24572326D01*
X32952211Y-24564180D01*
X32952213Y-24564180D01*
X33047486Y-24468907D01*
X33086898Y-24429496D01*
X33141414Y-24401719D01*
X33156901Y-24400500D01*
X34250501Y-24400500D01*
X34308692Y-24419407D01*
X34344656Y-24468907D01*
X34349501Y-24499500D01*
X34349501Y-24894863D01*
X34352414Y-24919990D01*
X34377691Y-24977235D01*
X34397794Y-25022765D01*
X34477235Y-25102206D01*
X34580009Y-25147585D01*
X34605135Y-25150500D01*
X36394864Y-25150499D01*
X36419991Y-25147585D01*
X36522765Y-25102206D01*
X36602206Y-25022765D01*
X36647585Y-24919991D01*
X36650500Y-24894865D01*
X36650499Y-23105136D01*
X36647585Y-23080009D01*
X36602206Y-22977235D01*
X36522765Y-22897794D01*
X36419991Y-22852415D01*
X36419990Y-22852414D01*
X36419988Y-22852414D01*
X36394868Y-22849500D01*
X34605139Y-22849500D01*
X34605136Y-22849501D01*
X34580009Y-22852414D01*
X34477235Y-22897794D01*
X34397794Y-22977235D01*
X34352414Y-23080011D01*
X34349500Y-23105130D01*
X34349500Y-23500500D01*
X34330593Y-23558691D01*
X34281093Y-23594655D01*
X34250500Y-23599500D01*
X33002727Y-23599500D01*
X32897273Y-23599500D01*
X32795412Y-23626793D01*
X32795411Y-23626793D01*
X32795409Y-23626794D01*
X32772673Y-23639921D01*
X32712824Y-23652642D01*
X32656929Y-23627754D01*
X32653171Y-23624189D01*
X32633693Y-23604712D01*
X29650682Y-20621789D01*
X29650682Y-20621788D01*
X29633212Y-20604319D01*
X29633209Y-20604317D01*
X29633208Y-20604316D01*
X29582373Y-20574967D01*
X29582372Y-20574966D01*
X29541885Y-20551591D01*
X29488837Y-20537377D01*
X29488837Y-20537376D01*
X29440029Y-20524300D01*
X29440022Y-20524299D01*
X29440021Y-20524299D01*
X29440018Y-20524299D01*
X29334567Y-20524300D01*
X9330627Y-20524300D01*
X9225173Y-20524300D01*
X9162829Y-20541004D01*
X9123307Y-20551594D01*
X9031991Y-20604316D01*
X8157132Y-21479175D01*
X8102615Y-21506952D01*
X8042183Y-21497381D01*
X8031180Y-21490846D01*
X8025266Y-21486795D01*
X8025265Y-21486794D01*
X7922491Y-21441415D01*
X7922490Y-21441414D01*
X7922488Y-21441414D01*
X7897369Y-21438500D01*
X7897365Y-21438500D01*
X7375400Y-21438500D01*
X7317209Y-21419593D01*
X7281245Y-21370093D01*
X7281245Y-21308907D01*
X7305396Y-21269496D01*
X8915396Y-19659496D01*
X8969913Y-19631719D01*
X8985400Y-19630500D01*
X21997725Y-19630500D01*
X21997727Y-19630500D01*
X22099588Y-19603207D01*
X22099590Y-19603205D01*
X22099592Y-19603205D01*
X22190908Y-19550483D01*
X22190908Y-19550482D01*
X22190913Y-19550480D01*
X22936895Y-18804495D01*
X22991412Y-18776718D01*
X23006899Y-18775499D01*
X23422867Y-18775499D01*
X23422872Y-18775499D01*
X23482483Y-18769091D01*
X23549907Y-18743943D01*
X23617329Y-18718797D01*
X23617329Y-18718796D01*
X23617331Y-18718796D01*
X23732546Y-18632546D01*
X23818796Y-18517331D01*
X23869091Y-18382483D01*
X23875500Y-18322873D01*
X23875499Y-17677128D01*
X23869091Y-17617517D01*
X23869089Y-17617511D01*
X23818797Y-17482670D01*
X23732549Y-17367458D01*
X23732548Y-17367457D01*
X23732546Y-17367454D01*
X23726627Y-17363023D01*
X23617329Y-17281202D01*
X23482488Y-17230910D01*
X23482483Y-17230909D01*
X23482481Y-17230908D01*
X23482477Y-17230908D01*
X23451249Y-17227550D01*
X23422873Y-17224500D01*
X23422870Y-17224500D01*
X22927133Y-17224500D01*
X22927129Y-17224500D01*
X22927128Y-17224501D01*
X22920067Y-17225260D01*
X22867519Y-17230908D01*
X22867514Y-17230909D01*
X22732670Y-17281202D01*
X22617458Y-17367450D01*
X22617450Y-17367458D01*
X22531202Y-17482670D01*
X22480910Y-17617511D01*
X22480908Y-17617522D01*
X22474500Y-17677129D01*
X22474500Y-18093098D01*
X22455593Y-18151289D01*
X22445504Y-18163102D01*
X21808103Y-18800504D01*
X21753586Y-18828281D01*
X21738099Y-18829500D01*
X17671763Y-18829500D01*
X17613572Y-18810593D01*
X17577608Y-18761093D01*
X17577608Y-18699907D01*
X17587503Y-18678527D01*
X17661545Y-18558487D01*
X17714856Y-18397603D01*
X17725000Y-18298323D01*
X17725000Y-18250001D01*
X17724999Y-18250000D01*
X16874000Y-18250000D01*
X16815809Y-18231093D01*
X16779845Y-18181593D01*
X16775000Y-18151000D01*
X16775000Y-18000001D01*
X16774999Y-18000000D01*
X16624000Y-18000000D01*
X16565809Y-17981093D01*
X16529845Y-17931593D01*
X16525000Y-17901000D01*
X16525000Y-17025001D01*
X17025000Y-17025001D01*
X17025000Y-17749999D01*
X17025001Y-17750000D01*
X17724998Y-17750000D01*
X17724999Y-17749999D01*
X17724999Y-17701677D01*
X17714857Y-17602402D01*
X17714854Y-17602390D01*
X17661545Y-17441512D01*
X17572574Y-17297270D01*
X17452729Y-17177425D01*
X17308487Y-17088454D01*
X17147603Y-17035143D01*
X17048323Y-17025000D01*
X17025001Y-17025000D01*
X17025000Y-17025001D01*
X16525000Y-17025001D01*
X16525000Y-17025000D01*
X16524999Y-17024999D01*
X16501689Y-17025000D01*
X16501684Y-17025001D01*
X16402401Y-17035142D01*
X16402390Y-17035145D01*
X16241512Y-17088454D01*
X16097270Y-17177425D01*
X15977426Y-17297269D01*
X15953465Y-17336114D01*
X15906822Y-17375714D01*
X15845812Y-17380335D01*
X15809388Y-17363024D01*
X15709975Y-17287636D01*
X15709972Y-17287634D01*
X15575591Y-17234641D01*
X15491148Y-17224500D01*
X15491144Y-17224500D01*
X15056901Y-17224500D01*
X14998710Y-17205593D01*
X14986897Y-17195504D01*
X14710509Y-16919116D01*
X14428813Y-16637420D01*
X14428810Y-16637418D01*
X14428809Y-16637417D01*
X14428808Y-16637416D01*
X14337491Y-16584694D01*
X14337493Y-16584694D01*
X14297970Y-16574104D01*
X14235627Y-16557400D01*
X14235625Y-16557400D01*
X12986300Y-16557400D01*
X12928109Y-16538493D01*
X12892145Y-16488993D01*
X12887300Y-16458400D01*
X12887300Y-14847824D01*
X13199999Y-14847824D01*
X13206401Y-14907370D01*
X13206403Y-14907381D01*
X13256646Y-15042088D01*
X13256647Y-15042090D01*
X13342807Y-15157184D01*
X13342815Y-15157192D01*
X13457909Y-15243352D01*
X13457911Y-15243353D01*
X13592618Y-15293596D01*
X13592629Y-15293598D01*
X13652176Y-15300000D01*
X13799999Y-15300000D01*
X13800000Y-15299999D01*
X13800000Y-14700001D01*
X13799999Y-14700000D01*
X13200001Y-14700000D01*
X13200000Y-14700001D01*
X13200000Y-14847824D01*
X13199999Y-14847824D01*
X12887300Y-14847824D01*
X12887300Y-13747824D01*
X13199999Y-13747824D01*
X13206401Y-13807370D01*
X13206402Y-13807377D01*
X13228045Y-13865405D01*
X13230664Y-13926534D01*
X13228045Y-13934595D01*
X13206402Y-13992622D01*
X13206401Y-13992629D01*
X13200000Y-14052175D01*
X13200000Y-14199999D01*
X13200001Y-14200000D01*
X13951000Y-14200000D01*
X14009191Y-14218907D01*
X14045155Y-14268407D01*
X14050000Y-14299000D01*
X14050000Y-14449999D01*
X14050001Y-14450000D01*
X14201000Y-14450000D01*
X14259191Y-14468907D01*
X14295155Y-14518407D01*
X14300000Y-14549000D01*
X14300000Y-15299999D01*
X14300001Y-15300000D01*
X14447824Y-15300000D01*
X14507370Y-15293598D01*
X14507381Y-15293596D01*
X14642088Y-15243353D01*
X14642090Y-15243352D01*
X14757184Y-15157192D01*
X14757190Y-15157186D01*
X14786459Y-15118088D01*
X14836467Y-15082834D01*
X14897647Y-15083708D01*
X14905693Y-15086848D01*
X14930009Y-15097585D01*
X14955135Y-15100500D01*
X15444864Y-15100499D01*
X15469991Y-15097585D01*
X15560012Y-15057836D01*
X15620881Y-15051628D01*
X15639979Y-15057833D01*
X15730009Y-15097585D01*
X15755135Y-15100500D01*
X16150816Y-15100499D01*
X16209007Y-15119406D01*
X16230068Y-15140168D01*
X16242810Y-15157188D01*
X16357909Y-15243352D01*
X16357911Y-15243353D01*
X16492618Y-15293596D01*
X16492629Y-15293598D01*
X16552176Y-15300000D01*
X16599999Y-15300000D01*
X16600000Y-15299999D01*
X16600000Y-13500001D01*
X16599999Y-13500000D01*
X16552176Y-13500000D01*
X16492629Y-13506401D01*
X16492618Y-13506403D01*
X16357911Y-13556646D01*
X16357909Y-13556647D01*
X16242815Y-13642807D01*
X16242807Y-13642815D01*
X16230068Y-13659832D01*
X16180058Y-13695083D01*
X16150817Y-13699500D01*
X15755139Y-13699500D01*
X15755136Y-13699501D01*
X15730009Y-13702414D01*
X15639987Y-13742163D01*
X15579117Y-13748371D01*
X15560014Y-13742164D01*
X15469991Y-13702415D01*
X15469990Y-13702414D01*
X15469988Y-13702414D01*
X15444868Y-13699500D01*
X14955139Y-13699500D01*
X14952286Y-13699666D01*
X14952281Y-13699586D01*
X14945113Y-13700000D01*
X13200001Y-13700000D01*
X13200000Y-13700001D01*
X13200000Y-13747818D01*
X13199999Y-13747824D01*
X12887300Y-13747824D01*
X12887300Y-8204200D01*
X12906207Y-8146009D01*
X12916296Y-8134197D01*
X12971651Y-8078842D01*
X13230496Y-7819995D01*
X13285013Y-7792218D01*
X13345445Y-7801789D01*
X13388710Y-7845054D01*
X13399500Y-7889999D01*
X13399500Y-8144860D01*
X13399501Y-8144863D01*
X13402414Y-8169990D01*
X13442163Y-8260012D01*
X13448371Y-8320882D01*
X13442163Y-8339987D01*
X13402415Y-8430009D01*
X13402414Y-8430011D01*
X13399500Y-8455130D01*
X13399500Y-8944860D01*
X13399501Y-8944863D01*
X13402414Y-8969990D01*
X13442163Y-9060012D01*
X13448371Y-9120882D01*
X13442163Y-9139987D01*
X13402415Y-9230009D01*
X13402414Y-9230011D01*
X13399500Y-9255130D01*
X13399500Y-9744860D01*
X13399501Y-9744863D01*
X13402414Y-9769990D01*
X13442163Y-9860012D01*
X13448371Y-9920882D01*
X13442163Y-9939987D01*
X13402415Y-10030009D01*
X13402414Y-10030011D01*
X13399500Y-10055130D01*
X13399500Y-10544860D01*
X13399501Y-10544863D01*
X13402414Y-10569990D01*
X13442163Y-10660012D01*
X13448371Y-10720882D01*
X13442163Y-10739987D01*
X13402415Y-10830009D01*
X13402414Y-10830011D01*
X13399500Y-10855130D01*
X13399500Y-11344860D01*
X13399501Y-11344863D01*
X13402414Y-11369990D01*
X13442163Y-11460012D01*
X13448371Y-11520882D01*
X13442163Y-11539987D01*
X13402415Y-11630009D01*
X13402414Y-11630011D01*
X13399500Y-11655130D01*
X13399500Y-12144860D01*
X13399501Y-12144863D01*
X13402414Y-12169990D01*
X13442163Y-12260012D01*
X13448371Y-12320882D01*
X13442163Y-12339987D01*
X13402415Y-12430009D01*
X13402414Y-12430011D01*
X13399500Y-12455130D01*
X13399500Y-12850817D01*
X13380593Y-12909008D01*
X13359832Y-12930068D01*
X13342814Y-12942808D01*
X13342807Y-12942815D01*
X13256647Y-13057909D01*
X13256646Y-13057911D01*
X13206403Y-13192618D01*
X13206401Y-13192629D01*
X13200000Y-13252175D01*
X13200000Y-13299999D01*
X13200001Y-13300000D01*
X14999999Y-13300000D01*
X15000000Y-13299999D01*
X15000000Y-13252175D01*
X14993598Y-13192629D01*
X14993596Y-13192618D01*
X14943353Y-13057911D01*
X14943352Y-13057909D01*
X14857192Y-12942815D01*
X14857183Y-12942806D01*
X14840169Y-12930069D01*
X14804917Y-12880060D01*
X14800499Y-12850822D01*
X14800499Y-12455136D01*
X14797585Y-12430009D01*
X14757835Y-12339985D01*
X14751628Y-12279118D01*
X14757834Y-12260017D01*
X14797585Y-12169991D01*
X14800500Y-12144865D01*
X14800499Y-11655136D01*
X14797585Y-11630009D01*
X14797583Y-11630006D01*
X14796356Y-11625491D01*
X14799323Y-11564378D01*
X14837644Y-11516680D01*
X14891883Y-11500500D01*
X16282556Y-11500500D01*
X16340747Y-11519407D01*
X16352559Y-11529496D01*
X16387442Y-11564378D01*
X16403584Y-11580520D01*
X16540516Y-11659577D01*
X16693243Y-11700500D01*
X16693245Y-11700500D01*
X16696000Y-11700500D01*
X16697877Y-11701110D01*
X16699677Y-11701347D01*
X16699633Y-11701680D01*
X16754191Y-11719407D01*
X16790155Y-11768907D01*
X16795000Y-11799500D01*
X16795000Y-12252824D01*
X16794999Y-12252824D01*
X16801401Y-12312370D01*
X16801403Y-12312381D01*
X16851646Y-12447088D01*
X16851647Y-12447090D01*
X16937807Y-12562184D01*
X16937815Y-12562192D01*
X17052909Y-12648352D01*
X17052911Y-12648353D01*
X17187618Y-12698596D01*
X17187629Y-12698598D01*
X17247176Y-12705000D01*
X17331453Y-12705000D01*
X17389644Y-12723907D01*
X17425608Y-12773407D01*
X17425608Y-12834593D01*
X17389644Y-12884093D01*
X17380965Y-12889729D01*
X17343984Y-12911080D01*
X17232180Y-13022884D01*
X17153123Y-13159816D01*
X17116151Y-13297800D01*
X17112200Y-13312544D01*
X17112200Y-13401000D01*
X17093293Y-13459191D01*
X17043793Y-13495155D01*
X17013200Y-13500000D01*
X17000001Y-13500000D01*
X17000000Y-13500001D01*
X17000000Y-15299999D01*
X17000001Y-15300000D01*
X17047824Y-15300000D01*
X17107370Y-15293598D01*
X17107381Y-15293596D01*
X17242088Y-15243353D01*
X17242090Y-15243352D01*
X17357184Y-15157192D01*
X17357194Y-15157182D01*
X17369928Y-15140172D01*
X17419936Y-15104918D01*
X17449176Y-15100499D01*
X17844864Y-15100499D01*
X17869991Y-15097585D01*
X17869995Y-15097583D01*
X17874509Y-15096356D01*
X17935622Y-15099323D01*
X17983320Y-15137644D01*
X17999500Y-15191883D01*
X17999500Y-15275673D01*
X17999500Y-15381127D01*
X18004182Y-15398601D01*
X18026794Y-15482992D01*
X18079516Y-15574308D01*
X18079518Y-15574310D01*
X18079520Y-15574313D01*
X19376087Y-16870880D01*
X19376089Y-16870881D01*
X19376091Y-16870883D01*
X19467408Y-16923605D01*
X19467406Y-16923605D01*
X19467410Y-16923606D01*
X19467412Y-16923607D01*
X19569273Y-16950900D01*
X26967756Y-16950900D01*
X26970829Y-16951898D01*
X26973959Y-16951095D01*
X26988348Y-16957590D01*
X27025947Y-16969807D01*
X27030851Y-16973611D01*
X27034459Y-16976595D01*
X27088784Y-17030920D01*
X27126409Y-17052642D01*
X27132807Y-17057934D01*
X27144969Y-17077093D01*
X27160152Y-17093955D01*
X27161040Y-17102409D01*
X27165599Y-17109590D01*
X27164176Y-17132240D01*
X27166549Y-17154805D01*
X27162297Y-17162168D01*
X27161765Y-17170655D01*
X27147301Y-17188143D01*
X27135957Y-17207793D01*
X27128190Y-17211251D01*
X27122770Y-17217805D01*
X27100791Y-17223450D01*
X27080062Y-17232681D01*
X27065285Y-17232571D01*
X27063509Y-17233028D01*
X27062299Y-17232549D01*
X27057909Y-17232517D01*
X26991151Y-17224500D01*
X26991144Y-17224500D01*
X26458856Y-17224500D01*
X26458851Y-17224500D01*
X26374408Y-17234641D01*
X26240027Y-17287634D01*
X26146709Y-17358400D01*
X26124922Y-17374922D01*
X26043215Y-17482669D01*
X26037634Y-17490028D01*
X26019182Y-17536819D01*
X25980245Y-17584016D01*
X25927085Y-17599500D01*
X25581108Y-17599500D01*
X25522917Y-17580593D01*
X25488350Y-17535098D01*
X25468796Y-17482669D01*
X25468215Y-17481893D01*
X25382549Y-17367458D01*
X25382548Y-17367457D01*
X25382546Y-17367454D01*
X25376627Y-17363023D01*
X25267329Y-17281202D01*
X25132488Y-17230910D01*
X25132483Y-17230909D01*
X25132481Y-17230908D01*
X25132477Y-17230908D01*
X25101249Y-17227550D01*
X25072873Y-17224500D01*
X25072870Y-17224500D01*
X24577133Y-17224500D01*
X24577129Y-17224500D01*
X24577128Y-17224501D01*
X24570067Y-17225260D01*
X24517519Y-17230908D01*
X24517514Y-17230909D01*
X24382670Y-17281202D01*
X24267458Y-17367450D01*
X24267450Y-17367458D01*
X24181202Y-17482670D01*
X24130910Y-17617511D01*
X24130908Y-17617522D01*
X24124500Y-17677129D01*
X24124500Y-18322866D01*
X24124501Y-18322870D01*
X24130908Y-18382480D01*
X24130909Y-18382485D01*
X24181202Y-18517329D01*
X24261863Y-18625078D01*
X24267454Y-18632546D01*
X24267457Y-18632548D01*
X24267458Y-18632549D01*
X24382670Y-18718797D01*
X24517511Y-18769089D01*
X24517512Y-18769089D01*
X24517517Y-18769091D01*
X24577127Y-18775500D01*
X25072872Y-18775499D01*
X25132483Y-18769091D01*
X25199907Y-18743943D01*
X25267329Y-18718797D01*
X25267329Y-18718796D01*
X25267331Y-18718796D01*
X25382546Y-18632546D01*
X25468796Y-18517331D01*
X25488350Y-18464901D01*
X25526400Y-18416989D01*
X25581108Y-18400500D01*
X25927085Y-18400500D01*
X25985276Y-18419407D01*
X26019182Y-18463181D01*
X26037634Y-18509971D01*
X26037636Y-18509975D01*
X26124922Y-18625078D01*
X26240025Y-18712364D01*
X26240026Y-18712364D01*
X26240027Y-18712365D01*
X26307217Y-18738861D01*
X26374410Y-18765359D01*
X26458856Y-18775500D01*
X26878700Y-18775500D01*
X26936891Y-18794407D01*
X26972855Y-18843907D01*
X26977700Y-18874500D01*
X26977700Y-18932257D01*
X27018623Y-19084984D01*
X27097680Y-19221916D01*
X27209484Y-19333720D01*
X27346416Y-19412777D01*
X27499143Y-19453700D01*
X27499145Y-19453700D01*
X27657255Y-19453700D01*
X27657257Y-19453700D01*
X27809984Y-19412777D01*
X27946916Y-19333720D01*
X27972429Y-19308206D01*
X27997941Y-19282696D01*
X28052458Y-19254919D01*
X28067944Y-19253700D01*
X38390425Y-19253700D01*
X38390427Y-19253700D01*
X38492288Y-19226407D01*
X38492290Y-19226405D01*
X38492292Y-19226405D01*
X38583608Y-19173683D01*
X38583608Y-19173682D01*
X38583613Y-19173680D01*
X39125480Y-18631813D01*
X39125481Y-18631810D01*
X39130068Y-18627224D01*
X39132025Y-18629181D01*
X39172859Y-18601102D01*
X39234024Y-18602688D01*
X39282575Y-18639924D01*
X39300000Y-18696018D01*
X39300000Y-39201000D01*
X39281093Y-39259191D01*
X39231593Y-39295155D01*
X39201000Y-39300000D01*
X25523198Y-39300000D01*
X25465007Y-39281093D01*
X25429043Y-39231593D01*
X25425417Y-39185514D01*
X25430000Y-39156576D01*
X25430000Y-39020001D01*
X25429999Y-39020000D01*
X24729999Y-39020000D01*
X24729999Y-38520000D01*
X25429999Y-38520000D01*
X25430000Y-38519999D01*
X25430000Y-38383424D01*
X25402915Y-38212420D01*
X25349411Y-38047751D01*
X25270804Y-37893475D01*
X25270802Y-37893471D01*
X25169037Y-37753403D01*
X25046596Y-37630962D01*
X24906528Y-37529197D01*
X24906524Y-37529195D01*
X24752248Y-37450588D01*
X24587586Y-37397086D01*
X24580000Y-37395884D01*
X24580000Y-38154316D01*
X24575605Y-38149921D01*
X24484394Y-38097260D01*
X24382661Y-38070001D01*
X24277339Y-38070001D01*
X24175606Y-38097260D01*
X24084395Y-38149921D01*
X24080000Y-38154316D01*
X24080000Y-37395884D01*
X24072413Y-37397086D01*
X23907751Y-37450588D01*
X23753475Y-37529195D01*
X23753471Y-37529197D01*
X23613403Y-37630962D01*
X23490962Y-37753403D01*
X23389197Y-37893471D01*
X23389195Y-37893475D01*
X23310588Y-38047751D01*
X23257084Y-38212420D01*
X23230000Y-38383424D01*
X23230000Y-38519999D01*
X23230001Y-38520000D01*
X23930001Y-38520000D01*
X23930001Y-39020000D01*
X23230001Y-39020000D01*
X23230000Y-39020001D01*
X23230000Y-39156576D01*
X23229999Y-39156576D01*
X23234583Y-39185514D01*
X23225011Y-39245946D01*
X23181746Y-39289210D01*
X23136802Y-39300000D01*
X16863198Y-39300000D01*
X16805007Y-39281093D01*
X16769043Y-39231593D01*
X16765417Y-39185514D01*
X16770000Y-39156576D01*
X16770000Y-39020001D01*
X16769999Y-39020000D01*
X16069999Y-39020000D01*
X16069999Y-38520000D01*
X16769999Y-38520000D01*
X16770000Y-38519999D01*
X16770000Y-38383424D01*
X16742915Y-38212420D01*
X16689411Y-38047751D01*
X16610804Y-37893475D01*
X16610802Y-37893471D01*
X16509037Y-37753403D01*
X16386596Y-37630962D01*
X16246528Y-37529197D01*
X16246524Y-37529195D01*
X16092248Y-37450588D01*
X15927586Y-37397086D01*
X15920000Y-37395884D01*
X15920000Y-38154316D01*
X15915605Y-38149921D01*
X15824394Y-38097260D01*
X15722661Y-38070001D01*
X15617339Y-38070001D01*
X15515606Y-38097260D01*
X15424395Y-38149921D01*
X15420000Y-38154316D01*
X15420000Y-37395884D01*
X15412413Y-37397086D01*
X15247751Y-37450588D01*
X15093475Y-37529195D01*
X15093471Y-37529197D01*
X14953403Y-37630962D01*
X14830962Y-37753403D01*
X14729197Y-37893471D01*
X14729195Y-37893475D01*
X14650588Y-38047751D01*
X14597084Y-38212420D01*
X14570000Y-38383424D01*
X14570000Y-38519999D01*
X14570001Y-38520000D01*
X15270001Y-38520000D01*
X15270001Y-39020000D01*
X14570001Y-39020000D01*
X14570000Y-39020001D01*
X14570000Y-39156576D01*
X14569999Y-39156576D01*
X14574583Y-39185514D01*
X14565011Y-39245946D01*
X14521746Y-39289210D01*
X14476802Y-39300000D01*
X799000Y-39300000D01*
X740809Y-39281093D01*
X704845Y-39231593D01*
X700000Y-39201000D01*
X700000Y-799000D01*
X718907Y-740809D01*
X768407Y-704845D01*
X799000Y-700000D01*
X5901000Y-700000D01*
X5959191Y-718907D01*
G37*
%TD.AperFunction*%
%TA.AperFunction,Conductor*%
G36*
X30323203Y-30093654D02*
G01*
X30340841Y-30094378D01*
X30351580Y-30102874D01*
X30364606Y-30107107D01*
X30374983Y-30121389D01*
X30388825Y-30132341D01*
X30392519Y-30145526D01*
X30400570Y-30156607D01*
X30400570Y-30174260D01*
X30405332Y-30191257D01*
X30400570Y-30204096D01*
X30400570Y-30217793D01*
X30387703Y-30238789D01*
X30384056Y-30248624D01*
X30362458Y-30275924D01*
X30338041Y-30292177D01*
X30314058Y-30309083D01*
X30312675Y-30309063D01*
X30311525Y-30309829D01*
X30284817Y-30313500D01*
X29739139Y-30313500D01*
X29739136Y-30313501D01*
X29714009Y-30316414D01*
X29611235Y-30361794D01*
X29581629Y-30391399D01*
X29527111Y-30419175D01*
X29466679Y-30409601D01*
X29462129Y-30407130D01*
X29431288Y-30389325D01*
X29431286Y-30389324D01*
X29431284Y-30389323D01*
X29278557Y-30348400D01*
X29120443Y-30348400D01*
X28967716Y-30389323D01*
X28830784Y-30468380D01*
X28718980Y-30580184D01*
X28639923Y-30717116D01*
X28599000Y-30869843D01*
X28599000Y-31027957D01*
X28639923Y-31180684D01*
X28718980Y-31317616D01*
X28830784Y-31429420D01*
X28967716Y-31508477D01*
X29120443Y-31549400D01*
X29120445Y-31549400D01*
X29278556Y-31549400D01*
X29278557Y-31549400D01*
X29358877Y-31527878D01*
X29419978Y-31531079D01*
X29467528Y-31569584D01*
X29483500Y-31623503D01*
X29483500Y-31730859D01*
X29483501Y-31730864D01*
X29486414Y-31755990D01*
X29529134Y-31852741D01*
X29535342Y-31913611D01*
X29508573Y-31962733D01*
X25841003Y-35630304D01*
X25786486Y-35658081D01*
X25770999Y-35659300D01*
X25385086Y-35659300D01*
X25326895Y-35640393D01*
X25290931Y-35590893D01*
X25290931Y-35529707D01*
X25296876Y-35515355D01*
X25349411Y-35412248D01*
X25402915Y-35247579D01*
X25430000Y-35076575D01*
X25430000Y-34840001D01*
X25429999Y-34840000D01*
X24729999Y-34840000D01*
X24729999Y-34340000D01*
X25429999Y-34340000D01*
X25430000Y-34339999D01*
X25430000Y-34103424D01*
X25402915Y-33932420D01*
X25349411Y-33767751D01*
X25270804Y-33613475D01*
X25270802Y-33613471D01*
X25169037Y-33473403D01*
X25046596Y-33350962D01*
X24906528Y-33249197D01*
X24906524Y-33249195D01*
X24752248Y-33170588D01*
X24587586Y-33117086D01*
X24580000Y-33115884D01*
X24580000Y-33874329D01*
X24575605Y-33869934D01*
X24484394Y-33817273D01*
X24382661Y-33790014D01*
X24277339Y-33790014D01*
X24175606Y-33817273D01*
X24084395Y-33869934D01*
X24080000Y-33874329D01*
X24080000Y-33115884D01*
X24071153Y-33108329D01*
X24039519Y-33057528D01*
X24021431Y-32986657D01*
X24005322Y-32947766D01*
X23953580Y-32853009D01*
X23953576Y-32853003D01*
X23855632Y-32747806D01*
X23732013Y-32674459D01*
X23693137Y-32658357D01*
X23693114Y-32658348D01*
X23679632Y-32653592D01*
X23631046Y-32616402D01*
X23613599Y-32557757D01*
X23633954Y-32500057D01*
X23642549Y-32490243D01*
X26015597Y-30117196D01*
X26070114Y-30089419D01*
X26085601Y-30088200D01*
X30306415Y-30088200D01*
X30323203Y-30093654D01*
G37*
%TD.AperFunction*%
%TA.AperFunction,Conductor*%
G36*
X31209191Y-31168907D02*
G01*
X31245155Y-31218407D01*
X31250000Y-31249000D01*
X31250000Y-32080299D01*
X31231093Y-32138490D01*
X31221004Y-32150303D01*
X29019103Y-34352204D01*
X28964586Y-34379981D01*
X28949099Y-34381200D01*
X28807444Y-34381200D01*
X28749253Y-34362293D01*
X28737441Y-34352204D01*
X28686415Y-34301179D01*
X28555018Y-34225317D01*
X28514077Y-34179848D01*
X28507681Y-34118998D01*
X28534512Y-34069579D01*
X30370480Y-32233613D01*
X30399654Y-32183081D01*
X30445122Y-32142141D01*
X30505972Y-32135745D01*
X30519987Y-32139824D01*
X30626622Y-32179596D01*
X30626629Y-32179598D01*
X30686176Y-32186000D01*
X30749999Y-32186000D01*
X30750000Y-32185999D01*
X30750000Y-31249000D01*
X30768907Y-31190809D01*
X30818407Y-31154845D01*
X30849000Y-31150000D01*
X31151000Y-31150000D01*
X31209191Y-31168907D01*
G37*
%TD.AperFunction*%
%TA.AperFunction,Conductor*%
G36*
X7259191Y-22768907D02*
G01*
X7295155Y-22818407D01*
X7300000Y-22849000D01*
X7300000Y-23151000D01*
X7281093Y-23209191D01*
X7231593Y-23245155D01*
X7201000Y-23250000D01*
X6247501Y-23250000D01*
X6247500Y-23250001D01*
X6247500Y-23358824D01*
X6247499Y-23358824D01*
X6253901Y-23418370D01*
X6253903Y-23418381D01*
X6304146Y-23553088D01*
X6304147Y-23553090D01*
X6390307Y-23668184D01*
X6390316Y-23668193D01*
X6407327Y-23680927D01*
X6442581Y-23730935D01*
X6447000Y-23760181D01*
X6447000Y-24305860D01*
X6447001Y-24305863D01*
X6449914Y-24330990D01*
X6458302Y-24349986D01*
X6495294Y-24433765D01*
X6574735Y-24513206D01*
X6677509Y-24558585D01*
X6702635Y-24561500D01*
X7654700Y-24561499D01*
X7712891Y-24580406D01*
X7748855Y-24629906D01*
X7753700Y-24660499D01*
X7753700Y-27275500D01*
X7734793Y-27333691D01*
X7685293Y-27369655D01*
X7654700Y-27374500D01*
X6813056Y-27374500D01*
X6754865Y-27355593D01*
X6730873Y-27330700D01*
X6724893Y-27321797D01*
X6712364Y-27290025D01*
X6635260Y-27188349D01*
X6633677Y-27185992D01*
X6626039Y-27159157D01*
X6616881Y-27132820D01*
X6617736Y-27129989D01*
X6616927Y-27127144D01*
X6626519Y-27100949D01*
X6634592Y-27074254D01*
X6637197Y-27071788D01*
X6637966Y-27069689D01*
X6642962Y-27066333D01*
X6663888Y-27046531D01*
X6702731Y-27022572D01*
X6822574Y-26902729D01*
X6911545Y-26758487D01*
X6964856Y-26597603D01*
X6975000Y-26498323D01*
X6975000Y-26475001D01*
X6974999Y-26475000D01*
X6099000Y-26475000D01*
X6040809Y-26456093D01*
X6004845Y-26406593D01*
X6000000Y-26376000D01*
X6000000Y-26225001D01*
X5999999Y-26225000D01*
X5849000Y-26225000D01*
X5790809Y-26206093D01*
X5754845Y-26156593D01*
X5750000Y-26126000D01*
X5750000Y-25275001D01*
X6250000Y-25275001D01*
X6250000Y-25974999D01*
X6250001Y-25975000D01*
X6974998Y-25975000D01*
X6974999Y-25974999D01*
X6974999Y-25951677D01*
X6964857Y-25852402D01*
X6964854Y-25852390D01*
X6911545Y-25691512D01*
X6822574Y-25547270D01*
X6702729Y-25427425D01*
X6558487Y-25338454D01*
X6397603Y-25285143D01*
X6298323Y-25275000D01*
X6250001Y-25275000D01*
X6250000Y-25275001D01*
X5750000Y-25275001D01*
X5750000Y-25274999D01*
X5701686Y-25275000D01*
X5651745Y-25280102D01*
X5591934Y-25267205D01*
X5551126Y-25221616D01*
X5544909Y-25160747D01*
X5571680Y-25111612D01*
X5874680Y-24808613D01*
X5927407Y-24717288D01*
X5954700Y-24615427D01*
X5954700Y-24509973D01*
X5954700Y-23897273D01*
X5927407Y-23795413D01*
X5907234Y-23760473D01*
X5874681Y-23704089D01*
X5874680Y-23704087D01*
X5800113Y-23629520D01*
X5800110Y-23629518D01*
X5708790Y-23576794D01*
X5708787Y-23576793D01*
X5634588Y-23556911D01*
X5583275Y-23523587D01*
X5561349Y-23466466D01*
X5577185Y-23407365D01*
X5590204Y-23391286D01*
X6061210Y-22920281D01*
X6061213Y-22920280D01*
X6135780Y-22845713D01*
X6166768Y-22792040D01*
X6172294Y-22785441D01*
X6191280Y-22773550D01*
X6207930Y-22758559D01*
X6218962Y-22756214D01*
X6224150Y-22752965D01*
X6231775Y-22753490D01*
X6248197Y-22750000D01*
X7201000Y-22750000D01*
X7259191Y-22768907D01*
G37*
%TD.AperFunction*%
%TA.AperFunction,Conductor*%
G36*
X22922425Y-15097098D02*
G01*
X22922825Y-15095630D01*
X22930005Y-15097583D01*
X22930009Y-15097585D01*
X22955135Y-15100500D01*
X23444864Y-15100499D01*
X23469991Y-15097585D01*
X23469992Y-15097584D01*
X23477177Y-15095630D01*
X23477817Y-15097983D01*
X23527328Y-15092927D01*
X23580226Y-15123676D01*
X23602085Y-15164078D01*
X23626793Y-15256287D01*
X23626794Y-15256289D01*
X23626794Y-15256290D01*
X23679518Y-15347610D01*
X23679520Y-15347613D01*
X23754087Y-15422180D01*
X23845413Y-15474907D01*
X23947273Y-15502200D01*
X24052727Y-15502200D01*
X34894799Y-15502200D01*
X34952990Y-15521107D01*
X34964803Y-15531196D01*
X37187842Y-17754235D01*
X37215619Y-17808752D01*
X37214936Y-17843552D01*
X37199500Y-17921152D01*
X37199500Y-18078844D01*
X37230263Y-18233496D01*
X37230263Y-18233498D01*
X37264360Y-18315815D01*
X37269161Y-18376811D01*
X37237191Y-18428980D01*
X37180663Y-18452395D01*
X37172896Y-18452700D01*
X29318857Y-18452700D01*
X29260666Y-18433793D01*
X29224702Y-18384293D01*
X29220370Y-18343637D01*
X29225000Y-18298322D01*
X29225000Y-18250001D01*
X29224999Y-18250000D01*
X28374000Y-18250000D01*
X28315809Y-18231093D01*
X28279845Y-18181593D01*
X28275000Y-18151000D01*
X28275000Y-18000001D01*
X28274999Y-18000000D01*
X28124000Y-18000000D01*
X28065809Y-17981093D01*
X28029845Y-17931593D01*
X28025000Y-17901000D01*
X28025000Y-17032836D01*
X28014781Y-17025001D01*
X28525000Y-17025001D01*
X28525000Y-17749999D01*
X28525001Y-17750000D01*
X29224998Y-17750000D01*
X29224999Y-17749999D01*
X29224999Y-17701677D01*
X29214857Y-17602402D01*
X29214854Y-17602390D01*
X29161545Y-17441512D01*
X29072574Y-17297270D01*
X28952729Y-17177425D01*
X28808487Y-17088454D01*
X28647603Y-17035143D01*
X28548323Y-17025000D01*
X28525001Y-17025000D01*
X28525000Y-17025001D01*
X28014781Y-17025001D01*
X27988123Y-17004562D01*
X27971484Y-16980372D01*
X27954206Y-16956591D01*
X27954206Y-16955252D01*
X27953448Y-16954151D01*
X27954206Y-16924788D01*
X27954206Y-16895405D01*
X27955011Y-16893596D01*
X27955027Y-16892986D01*
X27955637Y-16892189D01*
X27962625Y-16876498D01*
X28017075Y-16782187D01*
X28017077Y-16782184D01*
X28058000Y-16629457D01*
X28058000Y-16471343D01*
X28017077Y-16318616D01*
X27938020Y-16181684D01*
X27826216Y-16069880D01*
X27689284Y-15990823D01*
X27536557Y-15949900D01*
X27378443Y-15949900D01*
X27225716Y-15990823D01*
X27088781Y-16069882D01*
X27037759Y-16120904D01*
X26983242Y-16148681D01*
X26967756Y-16149900D01*
X19828901Y-16149900D01*
X19821303Y-16147431D01*
X19813414Y-16148681D01*
X19792758Y-16138156D01*
X19770710Y-16130993D01*
X19758897Y-16120904D01*
X19724256Y-16086263D01*
X19696479Y-16031746D01*
X19706050Y-15971314D01*
X19738452Y-15937180D01*
X19737370Y-15935769D01*
X19742509Y-15931825D01*
X19742511Y-15931822D01*
X19742516Y-15931820D01*
X19854320Y-15820016D01*
X19933377Y-15683084D01*
X19962183Y-15575576D01*
X19995507Y-15524263D01*
X20052629Y-15502336D01*
X20057810Y-15502200D01*
X22452725Y-15502200D01*
X22452727Y-15502200D01*
X22554587Y-15474907D01*
X22645913Y-15422180D01*
X22720480Y-15347613D01*
X22773207Y-15256287D01*
X22797913Y-15164078D01*
X22831237Y-15112766D01*
X22888358Y-15090839D01*
X22922425Y-15097098D01*
G37*
%TD.AperFunction*%
%TA.AperFunction,Conductor*%
G36*
X26760459Y-9081085D02*
G01*
X26788593Y-9081085D01*
X26790780Y-9082674D01*
X26793480Y-9082816D01*
X26815331Y-9100511D01*
X26838093Y-9117049D01*
X26838928Y-9119621D01*
X26841029Y-9121322D01*
X26857000Y-9175240D01*
X26857000Y-9229057D01*
X26897923Y-9381784D01*
X26976980Y-9518716D01*
X27088784Y-9630520D01*
X27225716Y-9709577D01*
X27378443Y-9750500D01*
X27378445Y-9750500D01*
X27536555Y-9750500D01*
X27536557Y-9750500D01*
X27689284Y-9709577D01*
X27826216Y-9630520D01*
X27851729Y-9605006D01*
X27877241Y-9579496D01*
X27931758Y-9551719D01*
X27947244Y-9550500D01*
X31200501Y-9550500D01*
X31258692Y-9569407D01*
X31294656Y-9618907D01*
X31299501Y-9649500D01*
X31299501Y-9694863D01*
X31302414Y-9719990D01*
X31315886Y-9750500D01*
X31346333Y-9819456D01*
X31352541Y-9880324D01*
X31321785Y-9933218D01*
X31315098Y-9938695D01*
X31242816Y-9992806D01*
X31242807Y-9992815D01*
X31156647Y-10107909D01*
X31156646Y-10107911D01*
X31106403Y-10242618D01*
X31106401Y-10242629D01*
X31100000Y-10302175D01*
X31100000Y-10599999D01*
X31100001Y-10600000D01*
X33649999Y-10600000D01*
X33650000Y-10599999D01*
X33650000Y-10302175D01*
X33643598Y-10242629D01*
X33643596Y-10242618D01*
X33593353Y-10107911D01*
X33593352Y-10107909D01*
X33507192Y-9992815D01*
X33507187Y-9992810D01*
X33434901Y-9938696D01*
X33399649Y-9888687D01*
X33400523Y-9827508D01*
X33403659Y-9819472D01*
X33447585Y-9719991D01*
X33450500Y-9694865D01*
X33450500Y-9649500D01*
X33469407Y-9591309D01*
X33518907Y-9555345D01*
X33549500Y-9550500D01*
X36450501Y-9550500D01*
X36508692Y-9569407D01*
X36544656Y-9618907D01*
X36549501Y-9649500D01*
X36549501Y-9694863D01*
X36552414Y-9719990D01*
X36565886Y-9750500D01*
X36596333Y-9819456D01*
X36602541Y-9880324D01*
X36571785Y-9933218D01*
X36565098Y-9938695D01*
X36492816Y-9992806D01*
X36492807Y-9992815D01*
X36406647Y-10107909D01*
X36406646Y-10107911D01*
X36356403Y-10242618D01*
X36356401Y-10242629D01*
X36350000Y-10302175D01*
X36350000Y-10599999D01*
X36350001Y-10600000D01*
X37526000Y-10600000D01*
X37584191Y-10618907D01*
X37620155Y-10668407D01*
X37625000Y-10699000D01*
X37625000Y-10849999D01*
X37625001Y-10850000D01*
X37776000Y-10850000D01*
X37834191Y-10868907D01*
X37870155Y-10918407D01*
X37875000Y-10949000D01*
X37875000Y-11849999D01*
X37875001Y-11850000D01*
X38305500Y-11850000D01*
X38363691Y-11868907D01*
X38399655Y-11918407D01*
X38404500Y-11949000D01*
X38404500Y-17152931D01*
X38385593Y-17211122D01*
X38336093Y-17247086D01*
X38274907Y-17247086D01*
X38267615Y-17244395D01*
X38233497Y-17230263D01*
X38078844Y-17199500D01*
X38078842Y-17199500D01*
X37921158Y-17199500D01*
X37921152Y-17199500D01*
X37843552Y-17214936D01*
X37782791Y-17207744D01*
X37754235Y-17187842D01*
X36557216Y-15990823D01*
X35347613Y-14781220D01*
X35347610Y-14781218D01*
X35347609Y-14781217D01*
X35347608Y-14781216D01*
X35256291Y-14728494D01*
X35256293Y-14728494D01*
X35216770Y-14717904D01*
X35154427Y-14701200D01*
X35154425Y-14701200D01*
X26842207Y-14701200D01*
X26838514Y-14700000D01*
X26049000Y-14700000D01*
X25990809Y-14681093D01*
X25954845Y-14631593D01*
X25950000Y-14601000D01*
X25950000Y-14299000D01*
X25968907Y-14240809D01*
X26018407Y-14204845D01*
X26049000Y-14200000D01*
X26799999Y-14200000D01*
X26800000Y-14199999D01*
X26800000Y-14052175D01*
X26793598Y-13992629D01*
X26793596Y-13992618D01*
X26743353Y-13857911D01*
X26743352Y-13857909D01*
X26657192Y-13742815D01*
X26657183Y-13742806D01*
X26640169Y-13730069D01*
X26604917Y-13680060D01*
X26600499Y-13650822D01*
X26600499Y-13255136D01*
X26597585Y-13230009D01*
X26597583Y-13230006D01*
X26596356Y-13225491D01*
X26599323Y-13164378D01*
X26637644Y-13116680D01*
X26691883Y-13100500D01*
X28075256Y-13100500D01*
X28133447Y-13119407D01*
X28145259Y-13129496D01*
X28175580Y-13159816D01*
X28196284Y-13180520D01*
X28333216Y-13259577D01*
X28485943Y-13300500D01*
X28485945Y-13300500D01*
X28644055Y-13300500D01*
X28644057Y-13300500D01*
X28796784Y-13259577D01*
X28933716Y-13180520D01*
X29045520Y-13068716D01*
X29124577Y-12931784D01*
X29165500Y-12779057D01*
X29165500Y-12620943D01*
X29165500Y-12620942D01*
X29164653Y-12614509D01*
X29167192Y-12614174D01*
X29169826Y-12564013D01*
X29208336Y-12516467D01*
X29262247Y-12500500D01*
X29278555Y-12500500D01*
X29278557Y-12500500D01*
X29431284Y-12459577D01*
X29568216Y-12380520D01*
X29680020Y-12268716D01*
X29759077Y-12131784D01*
X29800000Y-11979057D01*
X29800000Y-11820943D01*
X29759077Y-11668216D01*
X29680020Y-11531284D01*
X29568216Y-11419480D01*
X29530706Y-11397824D01*
X31099999Y-11397824D01*
X31106401Y-11457370D01*
X31106403Y-11457381D01*
X31156646Y-11592088D01*
X31156647Y-11592090D01*
X31242807Y-11707184D01*
X31242815Y-11707192D01*
X31357909Y-11793352D01*
X31357911Y-11793353D01*
X31492618Y-11843596D01*
X31492629Y-11843598D01*
X31552176Y-11850000D01*
X32124999Y-11850000D01*
X32125000Y-11849999D01*
X32125000Y-11100001D01*
X32625000Y-11100001D01*
X32625000Y-11849999D01*
X32625001Y-11850000D01*
X33197824Y-11850000D01*
X33257370Y-11843598D01*
X33257381Y-11843596D01*
X33392088Y-11793353D01*
X33392090Y-11793352D01*
X33507184Y-11707192D01*
X33507192Y-11707184D01*
X33593352Y-11592090D01*
X33593353Y-11592088D01*
X33643596Y-11457381D01*
X33643598Y-11457370D01*
X33650000Y-11397824D01*
X36349999Y-11397824D01*
X36356401Y-11457370D01*
X36356403Y-11457381D01*
X36406646Y-11592088D01*
X36406647Y-11592090D01*
X36492807Y-11707184D01*
X36492815Y-11707192D01*
X36607909Y-11793352D01*
X36607911Y-11793353D01*
X36742618Y-11843596D01*
X36742629Y-11843598D01*
X36802176Y-11850000D01*
X37374999Y-11850000D01*
X37375000Y-11849999D01*
X37375000Y-11100001D01*
X37374999Y-11100000D01*
X36350001Y-11100000D01*
X36350000Y-11100001D01*
X36350000Y-11397824D01*
X36349999Y-11397824D01*
X33650000Y-11397824D01*
X33650000Y-11100001D01*
X33649999Y-11100000D01*
X32625001Y-11100000D01*
X32625000Y-11100001D01*
X32125000Y-11100001D01*
X32124999Y-11100000D01*
X31100001Y-11100000D01*
X31100000Y-11100001D01*
X31100000Y-11397824D01*
X31099999Y-11397824D01*
X29530706Y-11397824D01*
X29431284Y-11340423D01*
X29278557Y-11299500D01*
X29120443Y-11299500D01*
X28967716Y-11340423D01*
X28830781Y-11419482D01*
X28779759Y-11470504D01*
X28725242Y-11498281D01*
X28709756Y-11499500D01*
X26691883Y-11499500D01*
X26633692Y-11480593D01*
X26597728Y-11431093D01*
X26596355Y-11374510D01*
X26597581Y-11369999D01*
X26597585Y-11369991D01*
X26600500Y-11344865D01*
X26600499Y-10855136D01*
X26597585Y-10830009D01*
X26557835Y-10739985D01*
X26551628Y-10679118D01*
X26557834Y-10660017D01*
X26597585Y-10569991D01*
X26600500Y-10544865D01*
X26600499Y-10055136D01*
X26597585Y-10030009D01*
X26557835Y-9939985D01*
X26551628Y-9879118D01*
X26557834Y-9860017D01*
X26597585Y-9769991D01*
X26600500Y-9744865D01*
X26600499Y-9255136D01*
X26597585Y-9230009D01*
X26595630Y-9222823D01*
X26597982Y-9222183D01*
X26592930Y-9172660D01*
X26623684Y-9119766D01*
X26664076Y-9097914D01*
X26732379Y-9079613D01*
X26760459Y-9081085D01*
G37*
%TD.AperFunction*%
%TA.AperFunction,Conductor*%
G36*
X12045491Y-8419407D02*
G01*
X12081455Y-8468907D01*
X12086300Y-8499500D01*
X12086300Y-15303208D01*
X12067393Y-15361399D01*
X12017893Y-15397363D01*
X11970818Y-15398601D01*
X11970589Y-15400347D01*
X11964157Y-15399500D01*
X11806043Y-15399500D01*
X11653316Y-15440423D01*
X11593588Y-15474907D01*
X11516381Y-15519482D01*
X11465359Y-15570504D01*
X11410842Y-15598281D01*
X11395356Y-15599500D01*
X3748064Y-15599500D01*
X3689873Y-15580593D01*
X3665749Y-15555502D01*
X3621789Y-15489711D01*
X3510289Y-15378211D01*
X3458059Y-15343312D01*
X3379185Y-15290609D01*
X3379174Y-15290603D01*
X3233497Y-15230263D01*
X3078844Y-15199500D01*
X3078842Y-15199500D01*
X2921158Y-15199500D01*
X2921155Y-15199500D01*
X2766503Y-15230263D01*
X2766501Y-15230263D01*
X2620825Y-15290603D01*
X2620814Y-15290609D01*
X2489711Y-15378211D01*
X2489707Y-15378214D01*
X2378210Y-15489711D01*
X2352615Y-15528018D01*
X2304565Y-15565897D01*
X2243426Y-15568299D01*
X2192553Y-15534305D01*
X2171376Y-15476902D01*
X2171300Y-15473016D01*
X2171300Y-12862574D01*
X2490979Y-12862574D01*
X2526324Y-12886190D01*
X2708310Y-12961570D01*
X2901506Y-12999999D01*
X2901510Y-13000000D01*
X3098490Y-13000000D01*
X3098493Y-12999999D01*
X3291688Y-12961570D01*
X3291690Y-12961570D01*
X3473675Y-12886190D01*
X3509019Y-12862574D01*
X2999999Y-12353554D01*
X2490979Y-12862574D01*
X2171300Y-12862574D01*
X2171300Y-12516153D01*
X2190207Y-12457962D01*
X2200296Y-12446149D01*
X2646446Y-11999999D01*
X3353554Y-11999999D01*
X3862574Y-12509019D01*
X3886190Y-12473675D01*
X3961570Y-12291690D01*
X3961570Y-12291688D01*
X3999999Y-12098493D01*
X4000000Y-12098490D01*
X4000000Y-11901509D01*
X3999999Y-11901506D01*
X3961570Y-11708311D01*
X3961570Y-11708309D01*
X3886190Y-11526324D01*
X3862574Y-11490979D01*
X3353554Y-11999999D01*
X2646446Y-11999999D01*
X2200296Y-11553849D01*
X2172519Y-11499333D01*
X2171300Y-11483846D01*
X2171300Y-11137424D01*
X2490979Y-11137424D01*
X2999999Y-11646444D01*
X3509019Y-11137424D01*
X3473678Y-11113811D01*
X3473678Y-11113810D01*
X3291689Y-11038429D01*
X3098493Y-11000000D01*
X2901506Y-11000000D01*
X2708311Y-11038429D01*
X2708309Y-11038429D01*
X2526324Y-11113809D01*
X2526314Y-11113815D01*
X2490979Y-11137424D01*
X2171300Y-11137424D01*
X2171300Y-8526983D01*
X2190207Y-8468792D01*
X2239707Y-8432828D01*
X2300893Y-8432828D01*
X2350393Y-8468792D01*
X2352592Y-8471948D01*
X2378211Y-8510289D01*
X2489711Y-8621789D01*
X2561086Y-8669480D01*
X2620814Y-8709390D01*
X2620825Y-8709396D01*
X2647643Y-8720504D01*
X2766503Y-8769737D01*
X2921158Y-8800500D01*
X2921159Y-8800500D01*
X3078841Y-8800500D01*
X3078842Y-8800500D01*
X3233497Y-8769737D01*
X3379179Y-8709394D01*
X3510289Y-8621789D01*
X3621789Y-8510289D01*
X3665749Y-8444497D01*
X3713799Y-8406619D01*
X3748064Y-8400500D01*
X11987300Y-8400500D01*
X12045491Y-8419407D01*
G37*
%TD.AperFunction*%
%TA.AperFunction,Conductor*%
G36*
X13205823Y-3886807D02*
G01*
X13241787Y-3936307D01*
X13241787Y-3997493D01*
X13240390Y-4001496D01*
X13206403Y-4092618D01*
X13206401Y-4092629D01*
X13200000Y-4152175D01*
X13200000Y-4299999D01*
X13200001Y-4300000D01*
X14906000Y-4300000D01*
X14964191Y-4318907D01*
X15000155Y-4368407D01*
X15005000Y-4399000D01*
X15005000Y-4399999D01*
X15005001Y-4400000D01*
X24994999Y-4400000D01*
X24995000Y-4399999D01*
X24995000Y-4399000D01*
X25013907Y-4340809D01*
X25063407Y-4304845D01*
X25094000Y-4300000D01*
X25851000Y-4300000D01*
X25909191Y-4318907D01*
X25945155Y-4368407D01*
X25950000Y-4399000D01*
X25950000Y-4701000D01*
X25931093Y-4759191D01*
X25881593Y-4795155D01*
X25851000Y-4800000D01*
X25000001Y-4800000D01*
X25000000Y-4800001D01*
X25000000Y-5499999D01*
X25000001Y-5500000D01*
X25047822Y-5500000D01*
X25089916Y-5495474D01*
X25149795Y-5508052D01*
X25190845Y-5553424D01*
X25199500Y-5593906D01*
X25199500Y-5744859D01*
X25199501Y-5744864D01*
X25202414Y-5769990D01*
X25242163Y-5860012D01*
X25248371Y-5920882D01*
X25242163Y-5939987D01*
X25202415Y-6030009D01*
X25202414Y-6030011D01*
X25199500Y-6055130D01*
X25199500Y-6544860D01*
X25199501Y-6544863D01*
X25202414Y-6569990D01*
X25242163Y-6660012D01*
X25248371Y-6720882D01*
X25242163Y-6739987D01*
X25202415Y-6830009D01*
X25202414Y-6830011D01*
X25199500Y-6855130D01*
X25199500Y-7344860D01*
X25199501Y-7344863D01*
X25202414Y-7369990D01*
X25242163Y-7460012D01*
X25248371Y-7520882D01*
X25242163Y-7539987D01*
X25202415Y-7630009D01*
X25202414Y-7630011D01*
X25199500Y-7655130D01*
X25199500Y-8144860D01*
X25199501Y-8144863D01*
X25202414Y-8169990D01*
X25242163Y-8260012D01*
X25248371Y-8320882D01*
X25242163Y-8339987D01*
X25202415Y-8430009D01*
X25202414Y-8430011D01*
X25199500Y-8455130D01*
X25199500Y-8944860D01*
X25199501Y-8944863D01*
X25202414Y-8969990D01*
X25204370Y-8977177D01*
X25202019Y-8977816D01*
X25207066Y-9027352D01*
X25176305Y-9080242D01*
X25135919Y-9102086D01*
X25043713Y-9126793D01*
X25043711Y-9126794D01*
X25043709Y-9126794D01*
X24952389Y-9179518D01*
X24877818Y-9254089D01*
X24825094Y-9345409D01*
X24825094Y-9345410D01*
X24797800Y-9447274D01*
X24797800Y-9950599D01*
X24778893Y-10008790D01*
X24768804Y-10020603D01*
X23364004Y-11425403D01*
X23309487Y-11453180D01*
X23249055Y-11443609D01*
X23205790Y-11400344D01*
X23195000Y-11355399D01*
X23195000Y-10707175D01*
X23188598Y-10647629D01*
X23188596Y-10647621D01*
X23142711Y-10524597D01*
X23140091Y-10463468D01*
X23142711Y-10455403D01*
X23188596Y-10332378D01*
X23188598Y-10332370D01*
X23195000Y-10272824D01*
X23195000Y-9750001D01*
X23194999Y-9750000D01*
X22220001Y-9750000D01*
X22220000Y-9750001D01*
X22220000Y-11381000D01*
X22201093Y-11439191D01*
X22151593Y-11475155D01*
X22121000Y-11480000D01*
X21970001Y-11480000D01*
X21970000Y-11480001D01*
X21970000Y-11631000D01*
X21951093Y-11689191D01*
X21901593Y-11725155D01*
X21871000Y-11730000D01*
X18119000Y-11730000D01*
X18060809Y-11711093D01*
X18024845Y-11661593D01*
X18020000Y-11631000D01*
X18020000Y-11480001D01*
X18019999Y-11480000D01*
X17869000Y-11480000D01*
X17810809Y-11461093D01*
X17774845Y-11411593D01*
X17770000Y-11381000D01*
X17770000Y-9750001D01*
X18270000Y-9750001D01*
X18270000Y-11229999D01*
X18270001Y-11230000D01*
X19749999Y-11230000D01*
X19750000Y-11229999D01*
X19750000Y-9750001D01*
X20250000Y-9750001D01*
X20250000Y-11229999D01*
X20250001Y-11230000D01*
X21719999Y-11230000D01*
X21720000Y-11229999D01*
X21720000Y-9750001D01*
X21719999Y-9750000D01*
X20250001Y-9750000D01*
X20250000Y-9750001D01*
X19750000Y-9750001D01*
X19749999Y-9750000D01*
X18270001Y-9750000D01*
X18270000Y-9750001D01*
X17770000Y-9750001D01*
X17769999Y-9750000D01*
X16795001Y-9750000D01*
X16795000Y-9750001D01*
X16795000Y-10272824D01*
X16794999Y-10272824D01*
X16801401Y-10332370D01*
X16801403Y-10332381D01*
X16813907Y-10365904D01*
X16816527Y-10427033D01*
X16782716Y-10478028D01*
X16725388Y-10499409D01*
X16721149Y-10499500D01*
X16693243Y-10499500D01*
X16540516Y-10540423D01*
X16404577Y-10618907D01*
X16403581Y-10619482D01*
X16352559Y-10670504D01*
X16298042Y-10698281D01*
X16282556Y-10699500D01*
X14891883Y-10699500D01*
X14833692Y-10680593D01*
X14797728Y-10631093D01*
X14796355Y-10574510D01*
X14797581Y-10569999D01*
X14797585Y-10569991D01*
X14800500Y-10544865D01*
X14800499Y-10055136D01*
X14797585Y-10030009D01*
X14757835Y-9939985D01*
X14751628Y-9879118D01*
X14757834Y-9860017D01*
X14797585Y-9769991D01*
X14800500Y-9744865D01*
X14800499Y-9255136D01*
X14797585Y-9230009D01*
X14757835Y-9139985D01*
X14751628Y-9079118D01*
X14757834Y-9060017D01*
X14797585Y-8969991D01*
X14800500Y-8944865D01*
X14800499Y-8455136D01*
X14797585Y-8430009D01*
X14757835Y-8339985D01*
X14751628Y-8279118D01*
X14757834Y-8260017D01*
X14797585Y-8169991D01*
X14800500Y-8144865D01*
X14800499Y-7655136D01*
X14797585Y-7630009D01*
X14757835Y-7539985D01*
X14756869Y-7530509D01*
X14751957Y-7522349D01*
X14753917Y-7501565D01*
X14751628Y-7479118D01*
X14757239Y-7461392D01*
X14757505Y-7460763D01*
X14786474Y-7395154D01*
X16734982Y-7395154D01*
X16734982Y-8245146D01*
X16737874Y-8299123D01*
X16773423Y-8438400D01*
X16789526Y-8477277D01*
X16789531Y-8477287D01*
X16817096Y-8527771D01*
X16828388Y-8587906D01*
X16822963Y-8609812D01*
X16801402Y-8667620D01*
X16795000Y-8727175D01*
X16795000Y-9249999D01*
X16795001Y-9250000D01*
X19749999Y-9250000D01*
X19750000Y-9249999D01*
X19750000Y-7780001D01*
X20250000Y-7780001D01*
X20250000Y-9249999D01*
X20250001Y-9250000D01*
X21719999Y-9250000D01*
X21720000Y-9249999D01*
X21720000Y-7780001D01*
X22220000Y-7780001D01*
X22220000Y-9249999D01*
X22220001Y-9250000D01*
X23194999Y-9250000D01*
X23195000Y-9249999D01*
X23195000Y-8727175D01*
X23188598Y-8667629D01*
X23188596Y-8667621D01*
X23144576Y-8549597D01*
X23141956Y-8488468D01*
X23144576Y-8480403D01*
X23188596Y-8362378D01*
X23188598Y-8362370D01*
X23195000Y-8302824D01*
X23195000Y-7780001D01*
X23194999Y-7780000D01*
X22220001Y-7780000D01*
X22220000Y-7780001D01*
X21720000Y-7780001D01*
X21719999Y-7780000D01*
X20250001Y-7780000D01*
X20250000Y-7780001D01*
X19750000Y-7780001D01*
X19750000Y-6305001D01*
X20250000Y-6305001D01*
X20250000Y-7279999D01*
X20250001Y-7280000D01*
X21719999Y-7280000D01*
X21720000Y-7279999D01*
X21720000Y-6305001D01*
X22220000Y-6305001D01*
X22220000Y-7279999D01*
X22220001Y-7280000D01*
X23194999Y-7280000D01*
X23195000Y-7279999D01*
X23195000Y-6757175D01*
X23188598Y-6697629D01*
X23188596Y-6697618D01*
X23138353Y-6562911D01*
X23138352Y-6562909D01*
X23052192Y-6447815D01*
X23052184Y-6447807D01*
X22937090Y-6361647D01*
X22937088Y-6361646D01*
X22802381Y-6311403D01*
X22802370Y-6311401D01*
X22742824Y-6305000D01*
X22220001Y-6305000D01*
X22220000Y-6305001D01*
X21720000Y-6305001D01*
X21719999Y-6305000D01*
X21197176Y-6305000D01*
X21137629Y-6311401D01*
X21137618Y-6311403D01*
X21019596Y-6355423D01*
X20958467Y-6358043D01*
X20950404Y-6355423D01*
X20832381Y-6311403D01*
X20832370Y-6311401D01*
X20772824Y-6305000D01*
X20250001Y-6305000D01*
X20250000Y-6305001D01*
X19750000Y-6305001D01*
X19749999Y-6305000D01*
X19227176Y-6305000D01*
X19167629Y-6311401D01*
X19167622Y-6311402D01*
X19117472Y-6330107D01*
X19056343Y-6332726D01*
X19032360Y-6322489D01*
X18977113Y-6289709D01*
X18938232Y-6273605D01*
X18938209Y-6273596D01*
X18887240Y-6255615D01*
X18744971Y-6235160D01*
X17894979Y-6235160D01*
X17841002Y-6238052D01*
X17701721Y-6273602D01*
X17662854Y-6289701D01*
X17614067Y-6313042D01*
X17499005Y-6399176D01*
X16898995Y-6999187D01*
X16898981Y-6999201D01*
X16862878Y-7039395D01*
X16862873Y-7039401D01*
X16789531Y-7163012D01*
X16773427Y-7201893D01*
X16773418Y-7201916D01*
X16755437Y-7252885D01*
X16734982Y-7395154D01*
X14786474Y-7395154D01*
X14797585Y-7369991D01*
X14800500Y-7344865D01*
X14800499Y-6949181D01*
X14819406Y-6890991D01*
X14840171Y-6869928D01*
X14857186Y-6857190D01*
X14857192Y-6857184D01*
X14943352Y-6742090D01*
X14943353Y-6742088D01*
X14993596Y-6607381D01*
X14993598Y-6607370D01*
X15000000Y-6547824D01*
X15000000Y-6500001D01*
X14999999Y-6500000D01*
X13200001Y-6500000D01*
X13200000Y-6500001D01*
X13200000Y-6547824D01*
X13199999Y-6547824D01*
X13206401Y-6607370D01*
X13206403Y-6607381D01*
X13217880Y-6638151D01*
X13220500Y-6699280D01*
X13186689Y-6750275D01*
X13174623Y-6758483D01*
X13138189Y-6779518D01*
X12347203Y-7570504D01*
X12292686Y-7598281D01*
X12277199Y-7599500D01*
X3748064Y-7599500D01*
X3689873Y-7580593D01*
X3665749Y-7555502D01*
X3621789Y-7489711D01*
X3510289Y-7378211D01*
X3458059Y-7343312D01*
X3379185Y-7290609D01*
X3379174Y-7290603D01*
X3233497Y-7230263D01*
X3078844Y-7199500D01*
X3078842Y-7199500D01*
X2921158Y-7199500D01*
X2921155Y-7199500D01*
X2857687Y-7212125D01*
X2796926Y-7204933D01*
X2751996Y-7163401D01*
X2740059Y-7103391D01*
X2765675Y-7047826D01*
X2768344Y-7045048D01*
X4065569Y-5747824D01*
X13199999Y-5747824D01*
X13206401Y-5807370D01*
X13206402Y-5807377D01*
X13228045Y-5865405D01*
X13230664Y-5926534D01*
X13228045Y-5934595D01*
X13206402Y-5992622D01*
X13206401Y-5992629D01*
X13200000Y-6052175D01*
X13200000Y-6099999D01*
X13200001Y-6100000D01*
X13899999Y-6100000D01*
X13900000Y-6099999D01*
X13900000Y-5700001D01*
X13899999Y-5700000D01*
X13200001Y-5700000D01*
X13200000Y-5700001D01*
X13200000Y-5747824D01*
X13199999Y-5747824D01*
X4065569Y-5747824D01*
X4865569Y-4947824D01*
X13199999Y-4947824D01*
X13206401Y-5007370D01*
X13206402Y-5007377D01*
X13228045Y-5065405D01*
X13230664Y-5126534D01*
X13228045Y-5134595D01*
X13206402Y-5192622D01*
X13206401Y-5192629D01*
X13200000Y-5252175D01*
X13200000Y-5299999D01*
X13200001Y-5300000D01*
X13799999Y-5300000D01*
X13800000Y-5299999D01*
X13800000Y-4800001D01*
X14300000Y-4800001D01*
X14300000Y-6099999D01*
X14300001Y-6100000D01*
X14999999Y-6100000D01*
X15000000Y-6099999D01*
X15000000Y-6052175D01*
X14993598Y-5992629D01*
X14993597Y-5992625D01*
X14971954Y-5934598D01*
X14969333Y-5873469D01*
X14971954Y-5865402D01*
X14993597Y-5807374D01*
X14993598Y-5807370D01*
X15000000Y-5747824D01*
X15000000Y-4800001D01*
X15400000Y-4800001D01*
X15400000Y-5499999D01*
X15400001Y-5500000D01*
X15447824Y-5500000D01*
X15507370Y-5493598D01*
X15507374Y-5493597D01*
X15565402Y-5471954D01*
X15626531Y-5469333D01*
X15634598Y-5471954D01*
X15692625Y-5493597D01*
X15692629Y-5493598D01*
X15752176Y-5500000D01*
X15799999Y-5500000D01*
X15800000Y-5499999D01*
X15800000Y-4800001D01*
X16200000Y-4800001D01*
X16200000Y-5499999D01*
X16200001Y-5500000D01*
X16247824Y-5500000D01*
X16307370Y-5493598D01*
X16307374Y-5493597D01*
X16365402Y-5471954D01*
X16426531Y-5469333D01*
X16434598Y-5471954D01*
X16492625Y-5493597D01*
X16492629Y-5493598D01*
X16552176Y-5500000D01*
X16599999Y-5500000D01*
X16600000Y-5499999D01*
X16600000Y-4800001D01*
X17000000Y-4800001D01*
X17000000Y-5499999D01*
X17000001Y-5500000D01*
X17047824Y-5500000D01*
X17107370Y-5493598D01*
X17107374Y-5493597D01*
X17165402Y-5471954D01*
X17226531Y-5469333D01*
X17234598Y-5471954D01*
X17292625Y-5493597D01*
X17292629Y-5493598D01*
X17352176Y-5500000D01*
X17399999Y-5500000D01*
X17400000Y-5499999D01*
X17400000Y-4800001D01*
X17800000Y-4800001D01*
X17800000Y-5499999D01*
X17800001Y-5500000D01*
X17847824Y-5500000D01*
X17907370Y-5493598D01*
X17907374Y-5493597D01*
X17965402Y-5471954D01*
X18026531Y-5469333D01*
X18034598Y-5471954D01*
X18092625Y-5493597D01*
X18092629Y-5493598D01*
X18152176Y-5500000D01*
X18199999Y-5500000D01*
X18200000Y-5499999D01*
X18200000Y-4800001D01*
X18600000Y-4800001D01*
X18600000Y-5499999D01*
X18600001Y-5500000D01*
X18647824Y-5500000D01*
X18707370Y-5493598D01*
X18707374Y-5493597D01*
X18765402Y-5471954D01*
X18826531Y-5469333D01*
X18834598Y-5471954D01*
X18892625Y-5493597D01*
X18892629Y-5493598D01*
X18952176Y-5500000D01*
X18999999Y-5500000D01*
X19000000Y-5499999D01*
X19000000Y-4800001D01*
X19400000Y-4800001D01*
X19400000Y-5499999D01*
X19400001Y-5500000D01*
X19447824Y-5500000D01*
X19507370Y-5493598D01*
X19507374Y-5493597D01*
X19565402Y-5471954D01*
X19626531Y-5469333D01*
X19634598Y-5471954D01*
X19692625Y-5493597D01*
X19692629Y-5493598D01*
X19752176Y-5500000D01*
X19799999Y-5500000D01*
X19800000Y-5499999D01*
X19800000Y-4800001D01*
X20200000Y-4800001D01*
X20200000Y-5499999D01*
X20200001Y-5500000D01*
X20247824Y-5500000D01*
X20307370Y-5493598D01*
X20307374Y-5493597D01*
X20365402Y-5471954D01*
X20426531Y-5469333D01*
X20434598Y-5471954D01*
X20492625Y-5493597D01*
X20492629Y-5493598D01*
X20552176Y-5500000D01*
X20599999Y-5500000D01*
X20600000Y-5499999D01*
X20600000Y-4800001D01*
X21000000Y-4800001D01*
X21000000Y-5499999D01*
X21000001Y-5500000D01*
X21047824Y-5500000D01*
X21107370Y-5493598D01*
X21107374Y-5493597D01*
X21165402Y-5471954D01*
X21226531Y-5469333D01*
X21234598Y-5471954D01*
X21292625Y-5493597D01*
X21292629Y-5493598D01*
X21352176Y-5500000D01*
X21399999Y-5500000D01*
X21400000Y-5499999D01*
X21400000Y-4800001D01*
X21800000Y-4800001D01*
X21800000Y-5499999D01*
X21800001Y-5500000D01*
X21847824Y-5500000D01*
X21907370Y-5493598D01*
X21907374Y-5493597D01*
X21965402Y-5471954D01*
X22026531Y-5469333D01*
X22034598Y-5471954D01*
X22092625Y-5493597D01*
X22092629Y-5493598D01*
X22152176Y-5500000D01*
X22199999Y-5500000D01*
X22200000Y-5499999D01*
X22200000Y-4800001D01*
X22600000Y-4800001D01*
X22600000Y-5499999D01*
X22600001Y-5500000D01*
X22647824Y-5500000D01*
X22707370Y-5493598D01*
X22707374Y-5493597D01*
X22765402Y-5471954D01*
X22826531Y-5469333D01*
X22834598Y-5471954D01*
X22892625Y-5493597D01*
X22892629Y-5493598D01*
X22952176Y-5500000D01*
X22999999Y-5500000D01*
X23000000Y-5499999D01*
X23000000Y-4800001D01*
X23400000Y-4800001D01*
X23400000Y-5499999D01*
X23400001Y-5500000D01*
X23447824Y-5500000D01*
X23507370Y-5493598D01*
X23507374Y-5493597D01*
X23565402Y-5471954D01*
X23626531Y-5469333D01*
X23634598Y-5471954D01*
X23692625Y-5493597D01*
X23692629Y-5493598D01*
X23752176Y-5500000D01*
X23799999Y-5500000D01*
X23800000Y-5499999D01*
X23800000Y-4800001D01*
X24200000Y-4800001D01*
X24200000Y-5499999D01*
X24200001Y-5500000D01*
X24247824Y-5500000D01*
X24307370Y-5493598D01*
X24307374Y-5493597D01*
X24365402Y-5471954D01*
X24426531Y-5469333D01*
X24434598Y-5471954D01*
X24492625Y-5493597D01*
X24492629Y-5493598D01*
X24552176Y-5500000D01*
X24599999Y-5500000D01*
X24600000Y-5499999D01*
X24600000Y-4800001D01*
X24599999Y-4800000D01*
X24200001Y-4800000D01*
X24200000Y-4800001D01*
X23800000Y-4800001D01*
X23799999Y-4800000D01*
X23400001Y-4800000D01*
X23400000Y-4800001D01*
X23000000Y-4800001D01*
X22999999Y-4800000D01*
X22600001Y-4800000D01*
X22600000Y-4800001D01*
X22200000Y-4800001D01*
X22199999Y-4800000D01*
X21800001Y-4800000D01*
X21800000Y-4800001D01*
X21400000Y-4800001D01*
X21399999Y-4800000D01*
X21000001Y-4800000D01*
X21000000Y-4800001D01*
X20600000Y-4800001D01*
X20599999Y-4800000D01*
X20200001Y-4800000D01*
X20200000Y-4800001D01*
X19800000Y-4800001D01*
X19799999Y-4800000D01*
X19400001Y-4800000D01*
X19400000Y-4800001D01*
X19000000Y-4800001D01*
X18999999Y-4800000D01*
X18600001Y-4800000D01*
X18600000Y-4800001D01*
X18200000Y-4800001D01*
X18199999Y-4800000D01*
X17800001Y-4800000D01*
X17800000Y-4800001D01*
X17400000Y-4800001D01*
X17399999Y-4800000D01*
X17000001Y-4800000D01*
X17000000Y-4800001D01*
X16600000Y-4800001D01*
X16599999Y-4800000D01*
X16200001Y-4800000D01*
X16200000Y-4800001D01*
X15800000Y-4800001D01*
X15799999Y-4800000D01*
X15400001Y-4800000D01*
X15400000Y-4800001D01*
X15000000Y-4800001D01*
X14999999Y-4800000D01*
X14300001Y-4800000D01*
X14300000Y-4800001D01*
X13800000Y-4800001D01*
X13799999Y-4800000D01*
X13200001Y-4800000D01*
X13200000Y-4800001D01*
X13200000Y-4947824D01*
X13199999Y-4947824D01*
X4865569Y-4947824D01*
X5916497Y-3896896D01*
X5971014Y-3869119D01*
X5986501Y-3867900D01*
X13147632Y-3867900D01*
X13205823Y-3886807D01*
G37*
%TD.AperFunction*%
%TD*%
M02*
