%TF.GenerationSoftware,KiCad,Pcbnew,10.0.4*%
%TF.CreationDate,2026-06-29T21:16:59+08:00*%
%TF.ProjectId,vibe_lamp_core_v1,76696265-5f6c-4616-9d70-5f636f72655f,rev?*%
%TF.SameCoordinates,Original*%
%TF.FileFunction,Legend,Bot*%
%TF.FilePolarity,Positive*%
%FSLAX46Y46*%
G04 Gerber Fmt 4.6, Leading zero omitted, Abs format (unit mm)*
G04 Created by KiCad (PCBNEW 10.0.4) date 2026-06-29 21:16:59*
%MOMM*%
%LPD*%
G01*
G04 APERTURE LIST*
%ADD10C,0.150000*%
G04 APERTURE END LIST*
D10*
X20714285Y-22788152D02*
X20476190Y-23454819D01*
X20476190Y-23454819D02*
X20238095Y-22788152D01*
X19333333Y-23454819D02*
X19904761Y-23454819D01*
X19619047Y-23454819D02*
X19619047Y-22454819D01*
X19619047Y-22454819D02*
X19714285Y-22597676D01*
X19714285Y-22597676D02*
X19809523Y-22692914D01*
X19809523Y-22692914D02*
X19904761Y-22740533D01*
X26428571Y-19624914D02*
X25999999Y-20824914D01*
X25999999Y-20824914D02*
X25571428Y-19624914D01*
X24885713Y-20824914D02*
X24885713Y-19624914D01*
X24885713Y-19024914D02*
X24971427Y-19110628D01*
X24971427Y-19110628D02*
X24885713Y-19196342D01*
X24885713Y-19196342D02*
X24799999Y-19110628D01*
X24799999Y-19110628D02*
X24885713Y-19024914D01*
X24885713Y-19024914D02*
X24885713Y-19196342D01*
X24028570Y-20824914D02*
X24028570Y-19024914D01*
X24028570Y-19710628D02*
X23857142Y-19624914D01*
X23857142Y-19624914D02*
X23514284Y-19624914D01*
X23514284Y-19624914D02*
X23342856Y-19710628D01*
X23342856Y-19710628D02*
X23257142Y-19796342D01*
X23257142Y-19796342D02*
X23171427Y-19967771D01*
X23171427Y-19967771D02*
X23171427Y-20482057D01*
X23171427Y-20482057D02*
X23257142Y-20653485D01*
X23257142Y-20653485D02*
X23342856Y-20739200D01*
X23342856Y-20739200D02*
X23514284Y-20824914D01*
X23514284Y-20824914D02*
X23857142Y-20824914D01*
X23857142Y-20824914D02*
X24028570Y-20739200D01*
X21714285Y-20739200D02*
X21885713Y-20824914D01*
X21885713Y-20824914D02*
X22228571Y-20824914D01*
X22228571Y-20824914D02*
X22399999Y-20739200D01*
X22399999Y-20739200D02*
X22485713Y-20567771D01*
X22485713Y-20567771D02*
X22485713Y-19882057D01*
X22485713Y-19882057D02*
X22399999Y-19710628D01*
X22399999Y-19710628D02*
X22228571Y-19624914D01*
X22228571Y-19624914D02*
X21885713Y-19624914D01*
X21885713Y-19624914D02*
X21714285Y-19710628D01*
X21714285Y-19710628D02*
X21628571Y-19882057D01*
X21628571Y-19882057D02*
X21628571Y-20053485D01*
X21628571Y-20053485D02*
X22485713Y-20224914D01*
X19228570Y-20824914D02*
X19399999Y-20739200D01*
X19399999Y-20739200D02*
X19485713Y-20567771D01*
X19485713Y-20567771D02*
X19485713Y-19024914D01*
X17771428Y-20824914D02*
X17771428Y-19882057D01*
X17771428Y-19882057D02*
X17857142Y-19710628D01*
X17857142Y-19710628D02*
X18028570Y-19624914D01*
X18028570Y-19624914D02*
X18371428Y-19624914D01*
X18371428Y-19624914D02*
X18542856Y-19710628D01*
X17771428Y-20739200D02*
X17942856Y-20824914D01*
X17942856Y-20824914D02*
X18371428Y-20824914D01*
X18371428Y-20824914D02*
X18542856Y-20739200D01*
X18542856Y-20739200D02*
X18628570Y-20567771D01*
X18628570Y-20567771D02*
X18628570Y-20396342D01*
X18628570Y-20396342D02*
X18542856Y-20224914D01*
X18542856Y-20224914D02*
X18371428Y-20139200D01*
X18371428Y-20139200D02*
X17942856Y-20139200D01*
X17942856Y-20139200D02*
X17771428Y-20053485D01*
X16914285Y-20824914D02*
X16914285Y-19624914D01*
X16914285Y-19796342D02*
X16828571Y-19710628D01*
X16828571Y-19710628D02*
X16657142Y-19624914D01*
X16657142Y-19624914D02*
X16399999Y-19624914D01*
X16399999Y-19624914D02*
X16228571Y-19710628D01*
X16228571Y-19710628D02*
X16142857Y-19882057D01*
X16142857Y-19882057D02*
X16142857Y-20824914D01*
X16142857Y-19882057D02*
X16057142Y-19710628D01*
X16057142Y-19710628D02*
X15885714Y-19624914D01*
X15885714Y-19624914D02*
X15628571Y-19624914D01*
X15628571Y-19624914D02*
X15457142Y-19710628D01*
X15457142Y-19710628D02*
X15371428Y-19882057D01*
X15371428Y-19882057D02*
X15371428Y-20824914D01*
X14514285Y-19624914D02*
X14514285Y-21424914D01*
X14514285Y-19710628D02*
X14342857Y-19624914D01*
X14342857Y-19624914D02*
X13999999Y-19624914D01*
X13999999Y-19624914D02*
X13828571Y-19710628D01*
X13828571Y-19710628D02*
X13742857Y-19796342D01*
X13742857Y-19796342D02*
X13657142Y-19967771D01*
X13657142Y-19967771D02*
X13657142Y-20482057D01*
X13657142Y-20482057D02*
X13742857Y-20653485D01*
X13742857Y-20653485D02*
X13828571Y-20739200D01*
X13828571Y-20739200D02*
X13999999Y-20824914D01*
X13999999Y-20824914D02*
X14342857Y-20824914D01*
X14342857Y-20824914D02*
X14514285Y-20739200D01*
M02*
