%TF.GenerationSoftware,KiCad,Pcbnew,10.0.4*%
%TF.CreationDate,2026-06-29T20:15:31+08:00*%
%TF.ProjectId,vibe_lamp_core_v1,76696265-5f6c-4616-9d70-5f636f72655f,rev?*%
%TF.SameCoordinates,Original*%
%TF.FileFunction,Copper,L2,Bot*%
%TF.FilePolarity,Positive*%
%FSLAX46Y46*%
G04 Gerber Fmt 4.6, Leading zero omitted, Abs format (unit mm)*
G04 Created by KiCad (PCBNEW 10.0.4) date 2026-06-29 20:15:31*
%MOMM*%
%LPD*%
G01*
G04 APERTURE LIST*
%TA.AperFunction,ComponentPad*%
%ADD10R,1.700000X1.700000*%
%TD*%
%TA.AperFunction,ComponentPad*%
%ADD11C,1.700000*%
%TD*%
%TA.AperFunction,ComponentPad*%
%ADD12C,0.750000*%
%TD*%
%TA.AperFunction,ComponentPad*%
%ADD13O,1.200000X2.000000*%
%TD*%
%TA.AperFunction,ComponentPad*%
%ADD14O,1.200000X1.800000*%
%TD*%
%TA.AperFunction,ViaPad*%
%ADD15C,0.600000*%
%TD*%
%TA.AperFunction,Conductor*%
%ADD16C,0.200000*%
%TD*%
G04 APERTURE END LIST*
D10*
%TO.P,P1,1*%
%TO.N,+5V*%
X35500000Y-24000000D03*
D11*
%TO.P,P1,2*%
%TO.N,WS_DATA*%
X35500000Y-26540000D03*
%TO.P,P1,3*%
%TO.N,GND*%
X35500000Y-29080000D03*
%TD*%
D12*
%TO.P,J1,*%
%TO.N,*%
X17100000Y-36290000D03*
X22900000Y-36290000D03*
D13*
%TO.P,J1,1*%
%TO.N,GND*%
X24330000Y-35790000D03*
D14*
%TO.P,J1,2*%
X24330000Y-39970000D03*
%TO.P,J1,3*%
X15670000Y-39970000D03*
D13*
%TO.P,J1,4*%
X15670000Y-35790000D03*
%TD*%
D15*
%TO.N,CC1*%
X12750000Y-37218300D03*
X12750000Y-33749400D03*
%TO.N,+3V3*%
X16792500Y-9529900D03*
X23255700Y-16950500D03*
%TO.N,UART_TX*%
X6202400Y-18773800D03*
X23990600Y-7029500D03*
%TO.N,EN*%
X22653500Y-16233600D03*
X16773100Y-12393100D03*
%TO.N,VBUS*%
X14715000Y-34698000D03*
X16260400Y-33187700D03*
%TO.N,IO6*%
X24966400Y-23325000D03*
X24966400Y-11528900D03*
%TO.N,UART_RX*%
X15800900Y-5831100D03*
X4908000Y-16555200D03*
%TO.N,USB_DP*%
X29199500Y-11900000D03*
X29199500Y-33884600D03*
%TO.N,USB_DM*%
X24208700Y-12700000D03*
X19396000Y-33461900D03*
%TO.N,BTN*%
X27569200Y-9150000D03*
X22147500Y-13052400D03*
%TO.N,IO4*%
X23587500Y-27616100D03*
X20257000Y-15478000D03*
%TD*%
%TO.N,GND*%
D16*
X15670000Y-35790000D02*
X15670000Y-34488300D01*
X24330000Y-34488300D02*
X15670000Y-34488300D01*
X24330000Y-35790000D02*
X24330000Y-34488300D01*
%TO.N,CC1*%
X12750000Y-33749400D02*
X12750000Y-37218300D01*
%TO.N,+3V3*%
X16849900Y-9529900D02*
X16792500Y-9529900D01*
X23255700Y-16950500D02*
X23255700Y-15935700D01*
X23255700Y-15935700D02*
X16849900Y-9529900D01*
%TO.N,UART_TX*%
X17946700Y-7029500D02*
X23990600Y-7029500D01*
X6202400Y-18773800D02*
X17946700Y-7029500D01*
%TO.N,EN*%
X18813000Y-12393100D02*
X22653500Y-16233600D01*
X16773100Y-12393100D02*
X18813000Y-12393100D01*
%TO.N,VBUS*%
X14715000Y-34698000D02*
X16225300Y-33187700D01*
X16225300Y-33187700D02*
X16260400Y-33187700D01*
%TO.N,IO6*%
X24966400Y-11528900D02*
X24966400Y-23325000D01*
%TO.N,UART_RX*%
X4908000Y-16555200D02*
X5076800Y-16555200D01*
X5076800Y-16555200D02*
X15800900Y-5831100D01*
%TO.N,USB_DP*%
X29199500Y-33884600D02*
X29199500Y-11900000D01*
%TO.N,USB_DM*%
X24208700Y-28649200D02*
X19396000Y-33461900D01*
X24208700Y-12700000D02*
X24208700Y-28649200D01*
%TO.N,BTN*%
X26049900Y-9150000D02*
X27569200Y-9150000D01*
X22147500Y-13052400D02*
X26049900Y-9150000D01*
%TO.N,IO4*%
X20257000Y-15478000D02*
X23587500Y-18808500D01*
X23587500Y-18808500D02*
X23587500Y-27616100D01*
%TD*%
%TA.AperFunction,Conductor*%
%TO.N,GND*%
G36*
X5959191Y-718907D02*
G01*
X5995155Y-768407D01*
X6000000Y-799000D01*
X6000000Y-2800000D01*
X6000001Y-2800000D01*
X33999999Y-2800000D01*
X34000000Y-2800000D01*
X34000000Y-799000D01*
X34018907Y-740809D01*
X34068407Y-704845D01*
X34099000Y-700000D01*
X39201000Y-700000D01*
X39259191Y-718907D01*
X39295155Y-768407D01*
X39300000Y-799000D01*
X39300000Y-39201000D01*
X39281093Y-39259191D01*
X39231593Y-39295155D01*
X39201000Y-39300000D01*
X25436701Y-39300000D01*
X25378510Y-39281093D01*
X25348491Y-39245945D01*
X25270804Y-39093475D01*
X25270802Y-39093471D01*
X25169037Y-38953403D01*
X25046596Y-38830962D01*
X24906528Y-38729197D01*
X24906524Y-38729195D01*
X24752248Y-38650588D01*
X24587586Y-38597086D01*
X24580000Y-38595884D01*
X24580000Y-39300000D01*
X24489140Y-39300000D01*
X24484394Y-39297260D01*
X24382661Y-39270001D01*
X24277339Y-39270001D01*
X24175606Y-39297260D01*
X24170860Y-39300000D01*
X24080000Y-39300000D01*
X24080000Y-38595884D01*
X24072413Y-38597086D01*
X23907751Y-38650588D01*
X23753475Y-38729195D01*
X23753471Y-38729197D01*
X23613403Y-38830962D01*
X23490962Y-38953403D01*
X23389197Y-39093471D01*
X23389195Y-39093475D01*
X23311509Y-39245945D01*
X23268244Y-39289210D01*
X23223299Y-39300000D01*
X16776701Y-39300000D01*
X16718510Y-39281093D01*
X16688491Y-39245945D01*
X16610804Y-39093475D01*
X16610802Y-39093471D01*
X16509037Y-38953403D01*
X16386596Y-38830962D01*
X16246528Y-38729197D01*
X16246524Y-38729195D01*
X16092248Y-38650588D01*
X15927586Y-38597086D01*
X15920000Y-38595884D01*
X15920000Y-39300000D01*
X15829140Y-39300000D01*
X15824394Y-39297260D01*
X15722661Y-39270001D01*
X15617339Y-39270001D01*
X15515606Y-39297260D01*
X15510860Y-39300000D01*
X15420000Y-39300000D01*
X15420000Y-38595884D01*
X15412413Y-38597086D01*
X15247751Y-38650588D01*
X15093475Y-38729195D01*
X15093471Y-38729197D01*
X14953403Y-38830962D01*
X14830962Y-38953403D01*
X14729197Y-39093471D01*
X14729195Y-39093475D01*
X14651509Y-39245945D01*
X14608244Y-39289210D01*
X14563299Y-39300000D01*
X799000Y-39300000D01*
X740809Y-39281093D01*
X704845Y-39231593D01*
X700000Y-39201000D01*
X700000Y-33670343D01*
X12149500Y-33670343D01*
X12149500Y-33828457D01*
X12190423Y-33981184D01*
X12269480Y-34118116D01*
X12320505Y-34169141D01*
X12348281Y-34223656D01*
X12349500Y-34239143D01*
X12349500Y-36728556D01*
X12330593Y-36786747D01*
X12320504Y-36798559D01*
X12269482Y-36849581D01*
X12269480Y-36849583D01*
X12269480Y-36849584D01*
X12190423Y-36986516D01*
X12149500Y-37139243D01*
X12149500Y-37297357D01*
X12190423Y-37450084D01*
X12269480Y-37587016D01*
X12381284Y-37698820D01*
X12518216Y-37777877D01*
X12670943Y-37818800D01*
X12670945Y-37818800D01*
X12829055Y-37818800D01*
X12829057Y-37818800D01*
X12981784Y-37777877D01*
X13118716Y-37698820D01*
X13230520Y-37587016D01*
X13309577Y-37450084D01*
X13350500Y-37297357D01*
X13350500Y-37139243D01*
X13309577Y-36986516D01*
X13230520Y-36849584D01*
X13206417Y-36825481D01*
X13179496Y-36798559D01*
X13151719Y-36744042D01*
X13150500Y-36728556D01*
X13150500Y-34618943D01*
X14114500Y-34618943D01*
X14114500Y-34777057D01*
X14155423Y-34929784D01*
X14234480Y-35066716D01*
X14346284Y-35178520D01*
X14483216Y-35257577D01*
X14496621Y-35261168D01*
X14547936Y-35294490D01*
X14569864Y-35351611D01*
X14570000Y-35356795D01*
X14570000Y-35539999D01*
X14570001Y-35540000D01*
X15270001Y-35540000D01*
X15270001Y-36040000D01*
X14570001Y-36040000D01*
X14570000Y-36040001D01*
X14570000Y-36276575D01*
X14597084Y-36447579D01*
X14650588Y-36612248D01*
X14729195Y-36766524D01*
X14729197Y-36766528D01*
X14830962Y-36906596D01*
X14953403Y-37029037D01*
X15093471Y-37130802D01*
X15093475Y-37130804D01*
X15247751Y-37209411D01*
X15412413Y-37262913D01*
X15420000Y-37264114D01*
X15420000Y-36505696D01*
X15424395Y-36510091D01*
X15515606Y-36562752D01*
X15617339Y-36590011D01*
X15722661Y-36590011D01*
X15824394Y-36562752D01*
X15915605Y-36510091D01*
X15920000Y-36505696D01*
X15920000Y-37264114D01*
X15927586Y-37262913D01*
X16092248Y-37209411D01*
X16246524Y-37130804D01*
X16246528Y-37130802D01*
X16386596Y-37029037D01*
X16509037Y-36906596D01*
X16550442Y-36849607D01*
X16599942Y-36813643D01*
X16661127Y-36813642D01*
X16685537Y-36825481D01*
X16780031Y-36888620D01*
X16902964Y-36939540D01*
X17033469Y-36965500D01*
X17033470Y-36965500D01*
X17166530Y-36965500D01*
X17166531Y-36965500D01*
X17297036Y-36939540D01*
X17419969Y-36888620D01*
X17530606Y-36814695D01*
X17624695Y-36720606D01*
X17698620Y-36609969D01*
X17749540Y-36487036D01*
X17775500Y-36356531D01*
X17775500Y-36223469D01*
X17775500Y-36223468D01*
X22224500Y-36223468D01*
X22224500Y-36356531D01*
X22250460Y-36487037D01*
X22301378Y-36609966D01*
X22301379Y-36609968D01*
X22301380Y-36609969D01*
X22375305Y-36720606D01*
X22469394Y-36814695D01*
X22580031Y-36888620D01*
X22702964Y-36939540D01*
X22833469Y-36965500D01*
X22833470Y-36965500D01*
X22966530Y-36965500D01*
X22966531Y-36965500D01*
X23097036Y-36939540D01*
X23219969Y-36888620D01*
X23314464Y-36825480D01*
X23373350Y-36808872D01*
X23430754Y-36830049D01*
X23449557Y-36849606D01*
X23490962Y-36906596D01*
X23613403Y-37029037D01*
X23753471Y-37130802D01*
X23753475Y-37130804D01*
X23907751Y-37209411D01*
X24072413Y-37262913D01*
X24080000Y-37264114D01*
X24080000Y-36505671D01*
X24084395Y-36510066D01*
X24175606Y-36562727D01*
X24277339Y-36589986D01*
X24382661Y-36589986D01*
X24484394Y-36562727D01*
X24575605Y-36510066D01*
X24580000Y-36505671D01*
X24580000Y-37264114D01*
X24587586Y-37262913D01*
X24752248Y-37209411D01*
X24906524Y-37130804D01*
X24906528Y-37130802D01*
X25046596Y-37029037D01*
X25169037Y-36906596D01*
X25270802Y-36766528D01*
X25270804Y-36766524D01*
X25349411Y-36612248D01*
X25402915Y-36447579D01*
X25430000Y-36276575D01*
X25430000Y-36040001D01*
X25429999Y-36040000D01*
X24729999Y-36040000D01*
X24729999Y-35540000D01*
X25429999Y-35540000D01*
X25430000Y-35539999D01*
X25430000Y-35303424D01*
X25402915Y-35132420D01*
X25349411Y-34967751D01*
X25270804Y-34813475D01*
X25270802Y-34813471D01*
X25169037Y-34673403D01*
X25046596Y-34550962D01*
X24906528Y-34449197D01*
X24906524Y-34449195D01*
X24752248Y-34370588D01*
X24587586Y-34317086D01*
X24580000Y-34315884D01*
X24580000Y-35074329D01*
X24575605Y-35069934D01*
X24484394Y-35017273D01*
X24382661Y-34990014D01*
X24277339Y-34990014D01*
X24175606Y-35017273D01*
X24084395Y-35069934D01*
X24080000Y-35074329D01*
X24080000Y-34315884D01*
X24072413Y-34317086D01*
X23907751Y-34370588D01*
X23753475Y-34449195D01*
X23753471Y-34449197D01*
X23613403Y-34550962D01*
X23490962Y-34673403D01*
X23389197Y-34813471D01*
X23389195Y-34813475D01*
X23310588Y-34967751D01*
X23257084Y-35132420D01*
X23230000Y-35303424D01*
X23230000Y-35547371D01*
X23211093Y-35605562D01*
X23161593Y-35641526D01*
X23101791Y-35641526D01*
X23101686Y-35641871D01*
X23100549Y-35641526D01*
X23100407Y-35641526D01*
X23099742Y-35641281D01*
X23097037Y-35640460D01*
X22966531Y-35614500D01*
X22833469Y-35614500D01*
X22833468Y-35614500D01*
X22702962Y-35640460D01*
X22580033Y-35691378D01*
X22469397Y-35765302D01*
X22375302Y-35859397D01*
X22301378Y-35970033D01*
X22250460Y-36092962D01*
X22224500Y-36223468D01*
X17775500Y-36223468D01*
X17749540Y-36092964D01*
X17698620Y-35970031D01*
X17624695Y-35859394D01*
X17530606Y-35765305D01*
X17419969Y-35691380D01*
X17419968Y-35691379D01*
X17419966Y-35691378D01*
X17297037Y-35640460D01*
X17166531Y-35614500D01*
X17033469Y-35614500D01*
X17033468Y-35614500D01*
X16902962Y-35640460D01*
X16898314Y-35641871D01*
X16897623Y-35639594D01*
X16845755Y-35643603D01*
X16793631Y-35611562D01*
X16770294Y-35555001D01*
X16770000Y-35547371D01*
X16770000Y-35303424D01*
X16742915Y-35132420D01*
X16689411Y-34967751D01*
X16610804Y-34813475D01*
X16610802Y-34813471D01*
X16509037Y-34673403D01*
X16386596Y-34550962D01*
X16246528Y-34449197D01*
X16246524Y-34449195D01*
X16092248Y-34370588D01*
X15927580Y-34317085D01*
X15890483Y-34311209D01*
X15835967Y-34283431D01*
X15808190Y-34228914D01*
X15817762Y-34168482D01*
X15835968Y-34143424D01*
X16162197Y-33817196D01*
X16216713Y-33789419D01*
X16232200Y-33788200D01*
X16339455Y-33788200D01*
X16339457Y-33788200D01*
X16492184Y-33747277D01*
X16629116Y-33668220D01*
X16740920Y-33556416D01*
X16819977Y-33419484D01*
X16860900Y-33266757D01*
X16860900Y-33108643D01*
X16819977Y-32955916D01*
X16740920Y-32818984D01*
X16629116Y-32707180D01*
X16492184Y-32628123D01*
X16339457Y-32587200D01*
X16181343Y-32587200D01*
X16028616Y-32628123D01*
X15891684Y-32707180D01*
X15779880Y-32818984D01*
X15700823Y-32955916D01*
X15659900Y-33108644D01*
X15659900Y-33145699D01*
X15640993Y-33203890D01*
X15630904Y-33215703D01*
X14778103Y-34068504D01*
X14723586Y-34096281D01*
X14708099Y-34097500D01*
X14635943Y-34097500D01*
X14483216Y-34138423D01*
X14346284Y-34217480D01*
X14234480Y-34329284D01*
X14155423Y-34466216D01*
X14114500Y-34618943D01*
X13150500Y-34618943D01*
X13150500Y-34239143D01*
X13169407Y-34180952D01*
X13179490Y-34169145D01*
X13230520Y-34118116D01*
X13309577Y-33981184D01*
X13350500Y-33828457D01*
X13350500Y-33670343D01*
X13309577Y-33517616D01*
X13230520Y-33380684D01*
X13118716Y-33268880D01*
X12981784Y-33189823D01*
X12829057Y-33148900D01*
X12670943Y-33148900D01*
X12518216Y-33189823D01*
X12381284Y-33268880D01*
X12269480Y-33380684D01*
X12190423Y-33517616D01*
X12149500Y-33670343D01*
X700000Y-33670343D01*
X700000Y-18694743D01*
X5601900Y-18694743D01*
X5601900Y-18852857D01*
X5642823Y-19005584D01*
X5721880Y-19142516D01*
X5833684Y-19254320D01*
X5970616Y-19333377D01*
X6123343Y-19374300D01*
X6123345Y-19374300D01*
X6281455Y-19374300D01*
X6281457Y-19374300D01*
X6434184Y-19333377D01*
X6571116Y-19254320D01*
X6682920Y-19142516D01*
X6761977Y-19005584D01*
X6802900Y-18852857D01*
X6802900Y-18780700D01*
X6821807Y-18722509D01*
X6831890Y-18710702D01*
X16022996Y-9519595D01*
X16077513Y-9491819D01*
X16137945Y-9501390D01*
X16181210Y-9544655D01*
X16192000Y-9589600D01*
X16192000Y-9608957D01*
X16232923Y-9761684D01*
X16311980Y-9898616D01*
X16423784Y-10010420D01*
X16560716Y-10089477D01*
X16713443Y-10130400D01*
X16713445Y-10130400D01*
X16842999Y-10130400D01*
X16901190Y-10149307D01*
X16913003Y-10159396D01*
X18577203Y-11823596D01*
X18604980Y-11878113D01*
X18595409Y-11938545D01*
X18552144Y-11981810D01*
X18507199Y-11992600D01*
X17262844Y-11992600D01*
X17204653Y-11973693D01*
X17192841Y-11963604D01*
X17141818Y-11912582D01*
X17141816Y-11912580D01*
X17004884Y-11833523D01*
X16852157Y-11792600D01*
X16694043Y-11792600D01*
X16541316Y-11833523D01*
X16404384Y-11912580D01*
X16292580Y-12024384D01*
X16213523Y-12161316D01*
X16172600Y-12314043D01*
X16172600Y-12472157D01*
X16213523Y-12624884D01*
X16292580Y-12761816D01*
X16404384Y-12873620D01*
X16541316Y-12952677D01*
X16694043Y-12993600D01*
X16694045Y-12993600D01*
X16852155Y-12993600D01*
X16852157Y-12993600D01*
X17004884Y-12952677D01*
X17141816Y-12873620D01*
X17167329Y-12848106D01*
X17192841Y-12822596D01*
X17247358Y-12794819D01*
X17262844Y-12793600D01*
X18606099Y-12793600D01*
X18664290Y-12812507D01*
X18676103Y-12822596D01*
X20626983Y-14773476D01*
X20654760Y-14827993D01*
X20645189Y-14888425D01*
X20601924Y-14931690D01*
X20541492Y-14941261D01*
X20507480Y-14929217D01*
X20488785Y-14918423D01*
X20437875Y-14904782D01*
X20336057Y-14877500D01*
X20177943Y-14877500D01*
X20025216Y-14918423D01*
X19888284Y-14997480D01*
X19776480Y-15109284D01*
X19697423Y-15246216D01*
X19656500Y-15398943D01*
X19656500Y-15557057D01*
X19697423Y-15709784D01*
X19776480Y-15846716D01*
X19888284Y-15958520D01*
X20025216Y-16037577D01*
X20177943Y-16078500D01*
X20250099Y-16078500D01*
X20308290Y-16097407D01*
X20320103Y-16107496D01*
X23158004Y-18945397D01*
X23185781Y-18999914D01*
X23187000Y-19015401D01*
X23187000Y-27126356D01*
X23168093Y-27184547D01*
X23158004Y-27196359D01*
X23106982Y-27247381D01*
X23106980Y-27247383D01*
X23106980Y-27247384D01*
X23027923Y-27384316D01*
X22987000Y-27537043D01*
X22987000Y-27695157D01*
X23027923Y-27847884D01*
X23106980Y-27984816D01*
X23218784Y-28096620D01*
X23355716Y-28175677D01*
X23508443Y-28216600D01*
X23508445Y-28216600D01*
X23666558Y-28216600D01*
X23666558Y-28216599D01*
X23678085Y-28213511D01*
X23683576Y-28212040D01*
X23711655Y-28213511D01*
X23739793Y-28213511D01*
X23741979Y-28215099D01*
X23744677Y-28215241D01*
X23766528Y-28232935D01*
X23789293Y-28249475D01*
X23790128Y-28252045D01*
X23792228Y-28253746D01*
X23808200Y-28307666D01*
X23808200Y-28442299D01*
X23789293Y-28500490D01*
X23779204Y-28512303D01*
X19459103Y-32832404D01*
X19404586Y-32860181D01*
X19389099Y-32861400D01*
X19316943Y-32861400D01*
X19164216Y-32902323D01*
X19027284Y-32981380D01*
X18915480Y-33093184D01*
X18836423Y-33230116D01*
X18795500Y-33382843D01*
X18795500Y-33540957D01*
X18836423Y-33693684D01*
X18915480Y-33830616D01*
X19027284Y-33942420D01*
X19164216Y-34021477D01*
X19316943Y-34062400D01*
X19316945Y-34062400D01*
X19475055Y-34062400D01*
X19475057Y-34062400D01*
X19627784Y-34021477D01*
X19764716Y-33942420D01*
X19876520Y-33830616D01*
X19955577Y-33693684D01*
X19996500Y-33540957D01*
X19996500Y-33468799D01*
X20015407Y-33410608D01*
X20025490Y-33398801D01*
X24454610Y-28969681D01*
X24454613Y-28969680D01*
X24529180Y-28895113D01*
X24581907Y-28803787D01*
X24609201Y-28701927D01*
X24609201Y-28596473D01*
X24609201Y-28590411D01*
X24609200Y-28590393D01*
X24609200Y-23979991D01*
X24628107Y-23921800D01*
X24677607Y-23885836D01*
X24733823Y-23884364D01*
X24734614Y-23884576D01*
X24734616Y-23884577D01*
X24887343Y-23925500D01*
X24887345Y-23925500D01*
X25045455Y-23925500D01*
X25045457Y-23925500D01*
X25198184Y-23884577D01*
X25335116Y-23805520D01*
X25446920Y-23693716D01*
X25525977Y-23556784D01*
X25566900Y-23404057D01*
X25566900Y-23245943D01*
X25525977Y-23093216D01*
X25446920Y-22956284D01*
X25446917Y-22956281D01*
X25395896Y-22905259D01*
X25368119Y-22850742D01*
X25366900Y-22835256D01*
X25366900Y-12018643D01*
X25385807Y-11960452D01*
X25395890Y-11948645D01*
X25446920Y-11897616D01*
X25491187Y-11820943D01*
X28599000Y-11820943D01*
X28599000Y-11979057D01*
X28639923Y-12131784D01*
X28718980Y-12268716D01*
X28718981Y-12268717D01*
X28718983Y-12268720D01*
X28770002Y-12319737D01*
X28797781Y-12374253D01*
X28799000Y-12389742D01*
X28799000Y-33394856D01*
X28780093Y-33453047D01*
X28770004Y-33464859D01*
X28718982Y-33515881D01*
X28718980Y-33515883D01*
X28718980Y-33515884D01*
X28639923Y-33652816D01*
X28599000Y-33805543D01*
X28599000Y-33963657D01*
X28639923Y-34116384D01*
X28718980Y-34253316D01*
X28830784Y-34365120D01*
X28967716Y-34444177D01*
X29120443Y-34485100D01*
X29120445Y-34485100D01*
X29278555Y-34485100D01*
X29278557Y-34485100D01*
X29431284Y-34444177D01*
X29568216Y-34365120D01*
X29680020Y-34253316D01*
X29759077Y-34116384D01*
X29800000Y-33963657D01*
X29800000Y-33805543D01*
X29759077Y-33652816D01*
X29680020Y-33515884D01*
X29680017Y-33515881D01*
X29628996Y-33464859D01*
X29601219Y-33410342D01*
X29600000Y-33394856D01*
X29600000Y-28973749D01*
X34150000Y-28973749D01*
X34150000Y-29186250D01*
X34183240Y-29396121D01*
X34248904Y-29598215D01*
X34345376Y-29787553D01*
X34345380Y-29787559D01*
X34384728Y-29841716D01*
X34384729Y-29841716D01*
X35017037Y-29209407D01*
X35034075Y-29272993D01*
X35099901Y-29387007D01*
X35192993Y-29480099D01*
X35307007Y-29545925D01*
X35370589Y-29562962D01*
X34738282Y-30195269D01*
X34738282Y-30195270D01*
X34792440Y-30234619D01*
X34792446Y-30234623D01*
X34981784Y-30331095D01*
X35183878Y-30396759D01*
X35393750Y-30430000D01*
X35606250Y-30430000D01*
X35816121Y-30396759D01*
X36018215Y-30331095D01*
X36207556Y-30234620D01*
X36261716Y-30195270D01*
X35629408Y-29562962D01*
X35692993Y-29545925D01*
X35807007Y-29480099D01*
X35900099Y-29387007D01*
X35965925Y-29272993D01*
X35982962Y-29209408D01*
X36615270Y-29841716D01*
X36654620Y-29787556D01*
X36751095Y-29598215D01*
X36816759Y-29396121D01*
X36850000Y-29186250D01*
X36850000Y-28973749D01*
X36816759Y-28763878D01*
X36751095Y-28561784D01*
X36654623Y-28372446D01*
X36654619Y-28372440D01*
X36615270Y-28318282D01*
X36615269Y-28318282D01*
X35982962Y-28950589D01*
X35965925Y-28887007D01*
X35900099Y-28772993D01*
X35807007Y-28679901D01*
X35692993Y-28614075D01*
X35629407Y-28597037D01*
X36261716Y-27964729D01*
X36261716Y-27964728D01*
X36207559Y-27925380D01*
X36207553Y-27925376D01*
X36018215Y-27828904D01*
X35927015Y-27799272D01*
X35877515Y-27763308D01*
X35858608Y-27705117D01*
X35877515Y-27646926D01*
X35927013Y-27610962D01*
X35927017Y-27610962D01*
X35927018Y-27610962D01*
X35941633Y-27606213D01*
X35941633Y-27606212D01*
X35941639Y-27606211D01*
X36102994Y-27523996D01*
X36249501Y-27417553D01*
X36377553Y-27289501D01*
X36483996Y-27142994D01*
X36566211Y-26981639D01*
X36622171Y-26809409D01*
X36650500Y-26630546D01*
X36650500Y-26449454D01*
X36650500Y-26449450D01*
X36622171Y-26270593D01*
X36622171Y-26270591D01*
X36566211Y-26098361D01*
X36483996Y-25937006D01*
X36377553Y-25790499D01*
X36249501Y-25662447D01*
X36102994Y-25556004D01*
X36102993Y-25556003D01*
X36102991Y-25556002D01*
X35941637Y-25473788D01*
X35769406Y-25417828D01*
X35590549Y-25389500D01*
X35590546Y-25389500D01*
X35409454Y-25389500D01*
X35409451Y-25389500D01*
X35230593Y-25417828D01*
X35058362Y-25473788D01*
X34897008Y-25556002D01*
X34823752Y-25609225D01*
X34750499Y-25662447D01*
X34622447Y-25790499D01*
X34569225Y-25863752D01*
X34516002Y-25937008D01*
X34433788Y-26098362D01*
X34377828Y-26270593D01*
X34349500Y-26449450D01*
X34349500Y-26630549D01*
X34377828Y-26809406D01*
X34377829Y-26809409D01*
X34433789Y-26981639D01*
X34516004Y-27142994D01*
X34622447Y-27289501D01*
X34750499Y-27417553D01*
X34897006Y-27523996D01*
X35058361Y-27606211D01*
X35069483Y-27609824D01*
X35072983Y-27610962D01*
X35122483Y-27646926D01*
X35141391Y-27705116D01*
X35122484Y-27763307D01*
X35072985Y-27799271D01*
X35072984Y-27799272D01*
X34981784Y-27828904D01*
X34792446Y-27925376D01*
X34792442Y-27925378D01*
X34738282Y-27964728D01*
X35370591Y-28597037D01*
X35307007Y-28614075D01*
X35192993Y-28679901D01*
X35099901Y-28772993D01*
X35034075Y-28887007D01*
X35017037Y-28950591D01*
X34384728Y-28318282D01*
X34345378Y-28372442D01*
X34345376Y-28372446D01*
X34248904Y-28561784D01*
X34183240Y-28763878D01*
X34150000Y-28973749D01*
X29600000Y-28973749D01*
X29600000Y-23105130D01*
X34349500Y-23105130D01*
X34349500Y-24894860D01*
X34349501Y-24894863D01*
X34352414Y-24919990D01*
X34377756Y-24977385D01*
X34397794Y-25022765D01*
X34477235Y-25102206D01*
X34580009Y-25147585D01*
X34605135Y-25150500D01*
X36394864Y-25150499D01*
X36419991Y-25147585D01*
X36522765Y-25102206D01*
X36602206Y-25022765D01*
X36647585Y-24919991D01*
X36650500Y-24894865D01*
X36650499Y-23105136D01*
X36647585Y-23080009D01*
X36602206Y-22977235D01*
X36522765Y-22897794D01*
X36419991Y-22852415D01*
X36419990Y-22852414D01*
X36419988Y-22852414D01*
X36394868Y-22849500D01*
X34605139Y-22849500D01*
X34605136Y-22849501D01*
X34580009Y-22852414D01*
X34477235Y-22897794D01*
X34397794Y-22977235D01*
X34352414Y-23080011D01*
X34349500Y-23105130D01*
X29600000Y-23105130D01*
X29600000Y-12389743D01*
X29618907Y-12331552D01*
X29628990Y-12319745D01*
X29680020Y-12268716D01*
X29759077Y-12131784D01*
X29800000Y-11979057D01*
X29800000Y-11820943D01*
X29759077Y-11668216D01*
X29680020Y-11531284D01*
X29568216Y-11419480D01*
X29431284Y-11340423D01*
X29278557Y-11299500D01*
X29120443Y-11299500D01*
X28967716Y-11340423D01*
X28830784Y-11419480D01*
X28718980Y-11531284D01*
X28639923Y-11668216D01*
X28599000Y-11820943D01*
X25491187Y-11820943D01*
X25525977Y-11760684D01*
X25566900Y-11607957D01*
X25566900Y-11449843D01*
X25525977Y-11297116D01*
X25446920Y-11160184D01*
X25335116Y-11048380D01*
X25198184Y-10969323D01*
X25047385Y-10928916D01*
X24996071Y-10895593D01*
X24974145Y-10838471D01*
X24989981Y-10779371D01*
X25003000Y-10763291D01*
X26186797Y-9579496D01*
X26241314Y-9551719D01*
X26256801Y-9550500D01*
X27079456Y-9550500D01*
X27137647Y-9569407D01*
X27149459Y-9579496D01*
X27178919Y-9608955D01*
X27200484Y-9630520D01*
X27337416Y-9709577D01*
X27490143Y-9750500D01*
X27490145Y-9750500D01*
X27648255Y-9750500D01*
X27648257Y-9750500D01*
X27800984Y-9709577D01*
X27937916Y-9630520D01*
X28049720Y-9518716D01*
X28128777Y-9381784D01*
X28169700Y-9229057D01*
X28169700Y-9070943D01*
X28128777Y-8918216D01*
X28049720Y-8781284D01*
X27937916Y-8669480D01*
X27800984Y-8590423D01*
X27648257Y-8549500D01*
X27490143Y-8549500D01*
X27337416Y-8590423D01*
X27200481Y-8669482D01*
X27149459Y-8720504D01*
X27094942Y-8748281D01*
X27079456Y-8749500D01*
X26102627Y-8749500D01*
X25997173Y-8749500D01*
X25956508Y-8760396D01*
X25895307Y-8776794D01*
X25803991Y-8829516D01*
X22210603Y-12422904D01*
X22156086Y-12450681D01*
X22140599Y-12451900D01*
X22068443Y-12451900D01*
X21915716Y-12492823D01*
X21778784Y-12571880D01*
X21666980Y-12683684D01*
X21587923Y-12820616D01*
X21547000Y-12973343D01*
X21547000Y-13131457D01*
X21587923Y-13284184D01*
X21666980Y-13421116D01*
X21778784Y-13532920D01*
X21915716Y-13611977D01*
X22068443Y-13652900D01*
X22068445Y-13652900D01*
X22226555Y-13652900D01*
X22226557Y-13652900D01*
X22379284Y-13611977D01*
X22516216Y-13532920D01*
X22628020Y-13421116D01*
X22707077Y-13284184D01*
X22748000Y-13131457D01*
X22748000Y-13059300D01*
X22766907Y-13001109D01*
X22776990Y-12989302D01*
X24200788Y-11565503D01*
X24255303Y-11537728D01*
X24315735Y-11547299D01*
X24359000Y-11590564D01*
X24366416Y-11609884D01*
X24406823Y-11760684D01*
X24485880Y-11897616D01*
X24536905Y-11948641D01*
X24540530Y-11955756D01*
X24546993Y-11960452D01*
X24554156Y-11982500D01*
X24564681Y-12003156D01*
X24565900Y-12018643D01*
X24565900Y-12045008D01*
X24546993Y-12103199D01*
X24497493Y-12139163D01*
X24441278Y-12140635D01*
X24328116Y-12110314D01*
X24287757Y-12099500D01*
X24129643Y-12099500D01*
X23976916Y-12140423D01*
X23839984Y-12219480D01*
X23728180Y-12331284D01*
X23649123Y-12468216D01*
X23608200Y-12620943D01*
X23608200Y-12779057D01*
X23649123Y-12931784D01*
X23728180Y-13068716D01*
X23779205Y-13119741D01*
X23806981Y-13174256D01*
X23808200Y-13189743D01*
X23808200Y-15722183D01*
X23789293Y-15780374D01*
X23739793Y-15816338D01*
X23678607Y-15816338D01*
X23629107Y-15780374D01*
X23623464Y-15771683D01*
X23576183Y-15689791D01*
X23576182Y-15689790D01*
X23576181Y-15689789D01*
X23576180Y-15689787D01*
X17421996Y-9535603D01*
X17394219Y-9481086D01*
X17393000Y-9465599D01*
X17393000Y-9450844D01*
X17393000Y-9450843D01*
X17352077Y-9298116D01*
X17273020Y-9161184D01*
X17161216Y-9049380D01*
X17024284Y-8970323D01*
X16871557Y-8929400D01*
X16852200Y-8929400D01*
X16794009Y-8910493D01*
X16758045Y-8860993D01*
X16758045Y-8799807D01*
X16782196Y-8760396D01*
X18083597Y-7458996D01*
X18138114Y-7431219D01*
X18153601Y-7430000D01*
X23500856Y-7430000D01*
X23559047Y-7448907D01*
X23570859Y-7458996D01*
X23621881Y-7510017D01*
X23621884Y-7510020D01*
X23758816Y-7589077D01*
X23911543Y-7630000D01*
X23911545Y-7630000D01*
X24069655Y-7630000D01*
X24069657Y-7630000D01*
X24222384Y-7589077D01*
X24359316Y-7510020D01*
X24471120Y-7398216D01*
X24550177Y-7261284D01*
X24591100Y-7108557D01*
X24591100Y-6950443D01*
X24550177Y-6797716D01*
X24471120Y-6660784D01*
X24359316Y-6548980D01*
X24222384Y-6469923D01*
X24069657Y-6429000D01*
X23911543Y-6429000D01*
X23793625Y-6460596D01*
X23758816Y-6469923D01*
X23621881Y-6548982D01*
X23570859Y-6600004D01*
X23516342Y-6627781D01*
X23500856Y-6629000D01*
X17893973Y-6629000D01*
X17843043Y-6642646D01*
X17792111Y-6656293D01*
X17770085Y-6669011D01*
X17770084Y-6669010D01*
X17700788Y-6709019D01*
X6265503Y-18144304D01*
X6210986Y-18172081D01*
X6195499Y-18173300D01*
X6123343Y-18173300D01*
X5970616Y-18214223D01*
X5833684Y-18293280D01*
X5721880Y-18405084D01*
X5642823Y-18542016D01*
X5601900Y-18694743D01*
X700000Y-18694743D01*
X700000Y-16476143D01*
X4307500Y-16476143D01*
X4307500Y-16634257D01*
X4348423Y-16786984D01*
X4427480Y-16923916D01*
X4539284Y-17035720D01*
X4676216Y-17114777D01*
X4828943Y-17155700D01*
X4828945Y-17155700D01*
X4987055Y-17155700D01*
X4987057Y-17155700D01*
X5139784Y-17114777D01*
X5276716Y-17035720D01*
X5388520Y-16923916D01*
X5467577Y-16786984D01*
X5470236Y-16777062D01*
X5481269Y-16735882D01*
X5506890Y-16691501D01*
X15737796Y-6460596D01*
X15792313Y-6432819D01*
X15807800Y-6431600D01*
X15879955Y-6431600D01*
X15879957Y-6431600D01*
X16032684Y-6390677D01*
X16169616Y-6311620D01*
X16281420Y-6199816D01*
X16360477Y-6062884D01*
X16401400Y-5910157D01*
X16401400Y-5752043D01*
X16360477Y-5599316D01*
X16281420Y-5462384D01*
X16169616Y-5350580D01*
X16032684Y-5271523D01*
X15879957Y-5230600D01*
X15721843Y-5230600D01*
X15569116Y-5271523D01*
X15432184Y-5350580D01*
X15320380Y-5462384D01*
X15241323Y-5599316D01*
X15200400Y-5752044D01*
X15200400Y-5824198D01*
X15181493Y-5882389D01*
X15171404Y-5894202D01*
X5125150Y-15940455D01*
X5070633Y-15968232D01*
X5029525Y-15966078D01*
X4987059Y-15954700D01*
X4987057Y-15954700D01*
X4828943Y-15954700D01*
X4676216Y-15995623D01*
X4539284Y-16074680D01*
X4427480Y-16186484D01*
X4348423Y-16323416D01*
X4307500Y-16476143D01*
X700000Y-16476143D01*
X700000Y-799000D01*
X718907Y-740809D01*
X768407Y-704845D01*
X799000Y-700000D01*
X5901000Y-700000D01*
X5959191Y-718907D01*
G37*
%TD.AperFunction*%
%TD*%
M02*
